<svg width="20" height="19" viewBox="0 0 20 19" fill="none" xmlns="http://www.w3.org/2000/svg">
<path fill-rule="evenodd" clip-rule="evenodd" d="M18.7501 18.9414H11.4971C11.0831 18.9414 10.7471 18.6054 10.7471 18.1914C10.7471 17.7774 11.0831 17.4414 11.4971 17.4414H18.7501C19.1641 17.4414 19.5001 17.7774 19.5001 18.1914C19.5001 18.6054 19.1641 18.9414 18.7501 18.9414Z" fill="#0C1096"/>
<mask id="mask0_2617_217150" style="mask-type:alpha" maskUnits="userSpaceOnUse" x="0" y="0" width="18" height="19">
<path fill-rule="evenodd" clip-rule="evenodd" d="M0 0H17.1806V18.9395H0V0Z" fill="white"/>
</mask>
<g mask="url(#mask0_2617_217150)">
<path fill-rule="evenodd" clip-rule="evenodd" d="M11.1103 2.01664L1.69527 13.7916C1.52427 14.0056 1.46127 14.2816 1.52427 14.5466L2.20527 17.4316L5.24427 17.3936C5.53327 17.3906 5.80027 17.2616 5.97727 17.0416C9.19427 13.0166 15.3273 5.34264 15.5013 5.11764C15.6653 4.85164 15.7293 4.47564 15.6433 4.11364C15.5553 3.74264 15.3243 3.42764 14.9913 3.22664C14.9203 3.17764 13.2353 1.86964 13.1833 1.82864C12.5493 1.32064 11.6243 1.40864 11.1103 2.01664ZM1.61327 18.9396C1.26627 18.9396 0.964274 18.7016 0.883274 18.3626L0.0642743 14.8916C-0.104726 14.1726 0.0632743 13.4306 0.524274 12.8546L9.94427 1.07264C9.94827 1.06864 9.95127 1.06364 9.95527 1.05964C10.9883 -0.175357 12.8563 -0.357357 14.1163 0.653643C14.1663 0.692643 15.8393 1.99264 15.8393 1.99264C16.4473 2.35464 16.9223 3.00164 17.1023 3.76764C17.2813 4.52564 17.1513 5.30764 16.7343 5.96864C16.7033 6.01764 16.6763 6.05964 7.14827 17.9796C6.68927 18.5516 6.00127 18.8846 5.26227 18.8936L1.62327 18.9396H1.61327Z" fill="#0C1096"/>
</g>
<path fill-rule="evenodd" clip-rule="evenodd" d="M14.2234 8.6834C14.0634 8.6834 13.9034 8.6324 13.7664 8.5284L8.31442 4.3404C7.98642 4.0884 7.92442 3.6184 8.17642 3.2884C8.42942 2.9604 8.89942 2.8994 9.22842 3.1514L14.6814 7.3384C15.0094 7.5904 15.0714 8.0614 14.8184 8.3904C14.6714 8.5824 14.4484 8.6834 14.2234 8.6834Z" fill="#0C1096"/>
</svg>
