<svg width="48" height="48" viewBox="0 0 48 48" fill="none" xmlns="http://www.w3.org/2000/svg">
<path d="M0 6C0 2.68629 2.68629 0 6 0H42C45.3137 0 48 2.68629 48 6V42C48 45.3137 45.3137 48 42 48H6C2.68629 48 0 45.3137 0 42V6Z" fill="white"/>
<path d="M33.375 16.5H19.6875C19.5844 16.5 19.5 16.5844 19.5 16.6875V18C19.5 18.1031 19.5844 18.1875 19.6875 18.1875H33.375C33.4781 18.1875 33.5625 18.1031 33.5625 18V16.6875C33.5625 16.5844 33.4781 16.5 33.375 16.5ZM33.375 23.1562H19.6875C19.5844 23.1562 19.5 23.2406 19.5 23.3438V24.6562C19.5 24.7594 19.5844 24.8438 19.6875 24.8438H33.375C33.4781 24.8438 33.5625 24.7594 33.5625 24.6562V23.3438C33.5625 23.2406 33.4781 23.1562 33.375 23.1562ZM33.375 29.8125H19.6875C19.5844 29.8125 19.5 29.8969 19.5 30V31.3125C19.5 31.4156 19.5844 31.5 19.6875 31.5H33.375C33.4781 31.5 33.5625 31.4156 33.5625 31.3125V30C33.5625 29.8969 33.4781 29.8125 33.375 29.8125ZM14.4375 17.3438C14.4375 17.5161 14.4714 17.6868 14.5374 17.846C14.6034 18.0053 14.7 18.15 14.8219 18.2718C14.9438 18.3937 15.0885 18.4904 15.2477 18.5563C15.407 18.6223 15.5776 18.6562 15.75 18.6562C15.9224 18.6562 16.093 18.6223 16.2523 18.5563C16.4115 18.4904 16.5562 18.3937 16.6781 18.2718C16.8 18.15 16.8966 18.0053 16.9626 17.846C17.0286 17.6868 17.0625 17.5161 17.0625 17.3438C17.0625 17.1714 17.0286 17.0007 16.9626 16.8415C16.8966 16.6822 16.8 16.5375 16.6781 16.4157C16.5562 16.2938 16.4115 16.1971 16.2523 16.1312C16.093 16.0652 15.9224 16.0312 15.75 16.0312C15.5776 16.0312 15.407 16.0652 15.2477 16.1312C15.0885 16.1971 14.9438 16.2938 14.8219 16.4157C14.7 16.5375 14.6034 16.6822 14.5374 16.8415C14.4714 17.0007 14.4375 17.1714 14.4375 17.3438V17.3438ZM14.4375 24C14.4375 24.1724 14.4714 24.343 14.5374 24.5023C14.6034 24.6615 14.7 24.8062 14.8219 24.9281C14.9438 25.05 15.0885 25.1466 15.2477 25.2126C15.407 25.2786 15.5776 25.3125 15.75 25.3125C15.9224 25.3125 16.093 25.2786 16.2523 25.2126C16.4115 25.1466 16.5562 25.05 16.6781 24.9281C16.8 24.8062 16.8966 24.6615 16.9626 24.5023C17.0286 24.343 17.0625 24.1724 17.0625 24C17.0625 23.8276 17.0286 23.657 16.9626 23.4977C16.8966 23.3385 16.8 23.1938 16.6781 23.0719C16.5562 22.95 16.4115 22.8534 16.2523 22.7874C16.093 22.7214 15.9224 22.6875 15.75 22.6875C15.5776 22.6875 15.407 22.7214 15.2477 22.7874C15.0885 22.8534 14.9438 22.95 14.8219 23.0719C14.7 23.1938 14.6034 23.3385 14.5374 23.4977C14.4714 23.657 14.4375 23.8276 14.4375 24V24ZM14.4375 30.6562C14.4375 30.8286 14.4714 30.9993 14.5374 31.1585C14.6034 31.3178 14.7 31.4625 14.8219 31.5843C14.9438 31.7062 15.0885 31.8029 15.2477 31.8688C15.407 31.9348 15.5776 31.9688 15.75 31.9688C15.9224 31.9688 16.093 31.9348 16.2523 31.8688C16.4115 31.8029 16.5562 31.7062 16.6781 31.5843C16.8 31.4625 16.8966 31.3178 16.9626 31.1585C17.0286 30.9993 17.0625 30.8286 17.0625 30.6562C17.0625 30.4839 17.0286 30.3132 16.9626 30.154C16.8966 29.9947 16.8 29.85 16.6781 29.7282C16.5562 29.6063 16.4115 29.5096 16.2523 29.4437C16.093 29.3777 15.9224 29.3438 15.75 29.3438C15.5776 29.3438 15.407 29.3777 15.2477 29.4437C15.0885 29.5096 14.9438 29.6063 14.8219 29.7282C14.7 29.85 14.6034 29.9947 14.5374 30.154C14.4714 30.3132 14.4375 30.4839 14.4375 30.6562V30.6562Z" fill="#0C1096"/>
</svg>
