<svg width="24" height="24" viewBox="0 0 24 24" fill="none" xmlns="http://www.w3.org/2000/svg">
<path d="M11.9911 21.2496H10.4136C10.1347 21.2493 9.86739 21.1384 9.67022 20.9413C9.47305 20.7441 9.36215 20.4767 9.36188 20.1979V17.5687H10.4136V20.1979H11.9911V17.5687H13.0428V15.4653C13.0427 15.3258 12.9872 15.1922 12.8886 15.0936C12.7901 14.995 12.6564 14.9396 12.517 14.9394H7.93157L6.87987 11.7843H3.57754C3.43812 11.7845 3.30445 11.8399 3.20587 11.9385C3.10728 12.0371 3.05184 12.1708 3.0517 12.3102V15.4653H4.10339V20.1979H6.20679V16.517H7.25848V20.1979C7.2582 20.4767 7.14731 20.7441 6.95014 20.9413C6.75297 21.1384 6.48563 21.2493 6.20679 21.2496H4.10339C3.82455 21.2493 3.55721 21.1384 3.36004 20.9413C3.16287 20.7441 3.05197 20.4767 3.0517 20.1979V16.517C2.77285 16.5167 2.50551 16.4058 2.30834 16.2086C2.11117 16.0115 2.00028 15.7441 2 15.4653V12.3102C2.00042 11.8919 2.16676 11.4909 2.46251 11.1951C2.75827 10.8994 3.15928 10.7331 3.57754 10.7326H6.87987C7.10057 10.7325 7.31572 10.8019 7.49477 10.9309C7.67383 11.0599 7.8077 11.2421 7.87741 11.4515L8.68879 13.8877H12.517C12.9352 13.8881 13.3362 14.0545 13.632 14.3502C13.9278 14.646 14.0941 15.047 14.0945 15.4653V17.5687C14.0942 17.8475 13.9833 18.1148 13.7862 18.312C13.589 18.5092 13.3217 18.6201 13.0428 18.6204V20.1979C13.0425 20.4767 12.9316 20.7441 12.7345 20.9413C12.5373 21.1384 12.27 21.2493 11.9911 21.2496ZM16.1979 21.2496H15.1462V15.4653H16.7238V12.3102C16.7236 12.1708 16.6682 12.0371 16.5696 11.9385C16.471 11.8399 16.3373 11.7845 16.1979 11.7843H14.0945V10.7326H16.1979C16.6162 10.7331 17.0172 10.8994 17.3129 11.1951C17.6087 11.4909 17.775 11.8919 17.7754 12.3102V15.4653C17.7752 15.7441 17.6643 16.0115 17.4671 16.2086C17.2699 16.4058 17.0026 16.5167 16.7238 16.517H16.1979V21.2496ZM5.15509 10.2068C4.73908 10.2068 4.33241 10.0834 3.98651 9.8523C3.64061 9.62118 3.37101 9.29267 3.21181 8.90833C3.05261 8.52398 3.01095 8.10106 3.09211 7.69304C3.17327 7.28502 3.3736 6.91024 3.66777 6.61607C3.96193 6.32191 4.33672 6.12158 4.74474 6.04042C5.15276 5.95926 5.57568 6.00091 5.96002 6.16011C6.34437 6.31931 6.67287 6.58891 6.904 6.93481C7.13512 7.28071 7.25848 7.68738 7.25848 8.10339C7.25779 8.66103 7.03596 9.19564 6.64164 9.58995C6.24733 9.98426 5.71273 10.2061 5.15509 10.2068ZM5.15509 7.0517C4.94708 7.0517 4.74375 7.11338 4.5708 7.22894C4.39785 7.3445 4.26305 7.50875 4.18345 7.70093C4.10385 7.8931 4.08302 8.10456 4.1236 8.30857C4.16418 8.51258 4.26435 8.69997 4.41143 8.84706C4.55851 8.99414 4.7459 9.0943 4.94991 9.13488C5.15392 9.17546 5.36538 9.15464 5.55756 9.07503C5.74973 8.99543 5.91398 8.86064 6.02954 8.68769C6.1451 8.51473 6.20679 8.3114 6.20679 8.10339C6.20651 7.82455 6.09561 7.55721 5.89844 7.36004C5.70127 7.16287 5.43393 7.05198 5.15509 7.0517ZM14.6204 10.2068C14.2043 10.2068 13.7977 10.0834 13.4518 9.8523C13.1059 9.62118 12.8363 9.29267 12.6771 8.90833C12.5179 8.52398 12.4762 8.10106 12.5574 7.69304C12.6385 7.28502 12.8389 6.91024 13.133 6.61607C13.4272 6.32191 13.802 6.12158 14.21 6.04042C14.618 5.95926 15.0409 6.00091 15.4253 6.16011C15.8096 6.31931 16.1381 6.58891 16.3693 6.93481C16.6004 7.28071 16.7238 7.68738 16.7238 8.10339C16.7231 8.66103 16.5012 9.19564 16.1069 9.58995C15.7126 9.98426 15.178 10.2061 14.6204 10.2068ZM14.6204 7.0517C14.4124 7.0517 14.209 7.11338 14.0361 7.22894C13.8631 7.3445 13.7283 7.50875 13.6487 7.70093C13.5691 7.8931 13.5483 8.10456 13.5889 8.30857C13.6294 8.51258 13.7296 8.69997 13.8767 8.84706C14.0238 8.99414 14.2112 9.0943 14.4152 9.13488C14.6192 9.17546 14.8307 9.15464 15.0228 9.07503C15.215 8.99543 15.3792 8.86064 15.4948 8.68769C15.6104 8.51473 15.6721 8.3114 15.6721 8.10339C15.6718 7.82455 15.5609 7.55721 15.3637 7.36004C15.1665 7.16287 14.8992 7.05198 14.6204 7.0517Z" fill="white"/>
<path d="M11.2028 13.3606C10.8388 13.3606 10.4829 13.2527 10.1803 13.0505C9.8776 12.8482 9.6417 12.5608 9.5024 12.2245C9.3631 11.8882 9.32665 11.5181 9.39767 11.1611C9.46868 10.8041 9.64397 10.4761 9.90137 10.2187C10.1588 9.96136 10.4867 9.78607 10.8437 9.71505C11.2007 9.64404 11.5708 9.68048 11.9071 9.81979C12.2434 9.95909 12.5308 10.195 12.7331 10.4976C12.9353 10.8003 13.0432 11.1561 13.0432 11.5202C13.0427 12.0081 12.8486 12.4759 12.5036 12.821C12.1585 13.166 11.6907 13.3601 11.2028 13.3606ZM11.2028 10.7314C11.0468 10.7314 10.8943 10.7776 10.7646 10.8643C10.6348 10.951 10.5337 11.0742 10.474 11.2183C10.4143 11.3624 10.3987 11.521 10.4292 11.674C10.4596 11.827 10.5347 11.9676 10.645 12.0779C10.7553 12.1882 10.8959 12.2633 11.0489 12.2938C11.2019 12.3242 11.3605 12.3086 11.5046 12.2489C11.6488 12.1892 11.7719 12.0881 11.8586 11.9584C11.9453 11.8287 11.9915 11.6762 11.9915 11.5202C11.9913 11.311 11.9081 11.1106 11.7602 10.9627C11.6124 10.8149 11.4119 10.7317 11.2028 10.7314Z" fill="white"/>
<path fill-rule="evenodd" clip-rule="evenodd" d="M19.7939 8.511C19.3799 8.511 19.0439 8.175 19.0439 7.761V3.75C19.0439 3.336 19.3799 3 19.7939 3C20.2079 3 20.5439 3.336 20.5439 3.75V7.761C20.5439 8.175 20.2079 8.511 19.7939 8.511Z" fill="white"/>
<path fill-rule="evenodd" clip-rule="evenodd" d="M21.84 6.50781H17.75C17.336 6.50781 17 6.17181 17 5.75781C17 5.34381 17.336 5.00781 17.75 5.00781H21.84C22.254 5.00781 22.59 5.34381 22.59 5.75781C22.59 6.17181 22.254 6.50781 21.84 6.50781Z" fill="white"/>
</svg>
