<svg width="21" height="21" viewBox="0 0 21 21" fill="none" xmlns="http://www.w3.org/2000/svg">
<path fill-rule="evenodd" clip-rule="evenodd" d="M14.577 20.3672H5.753C2.312 20.3672 0 17.9522 0 14.3582V6.04416C0 2.45016 2.312 0.0351562 5.753 0.0351562H9.492C9.906 0.0351562 10.242 0.371156 10.242 0.785156C10.242 1.19916 9.906 1.53516 9.492 1.53516H5.753C3.169 1.53516 1.5 3.30516 1.5 6.04416V14.3582C1.5 17.0972 3.169 18.8672 5.753 18.8672H14.577C17.161 18.8672 18.831 17.0972 18.831 14.3582V10.3302C18.831 9.91616 19.167 9.58016 19.581 9.58016C19.995 9.58016 20.331 9.91616 20.331 10.3302V14.3582C20.331 17.9522 18.018 20.3672 14.577 20.3672Z" fill="white"/>
<path fill-rule="evenodd" clip-rule="evenodd" d="M6.86786 13.428H9.84486C10.2249 13.428 10.5809 13.281 10.8499 13.012L18.3589 5.503C18.6669 5.195 18.8369 4.785 18.8369 4.349C18.8369 3.912 18.6669 3.501 18.3589 3.193L17.1419 1.976C16.5049 1.341 15.4689 1.341 14.8309 1.976L7.35786 9.449C7.09886 9.708 6.95186 10.052 6.94286 10.417L6.86786 13.428ZM9.84486 14.928H6.09886C5.89686 14.928 5.70286 14.846 5.56186 14.701C5.42086 14.557 5.34386 14.362 5.34886 14.159L5.44286 10.38C5.46186 9.628 5.76486 8.921 6.29686 8.388H6.29786L13.7709 0.915C14.9929 -0.305 16.9799 -0.305 18.2019 0.915L19.4189 2.132C20.0119 2.724 20.3379 3.511 20.3369 4.349C20.3369 5.187 20.0109 5.973 19.4189 6.564L11.9099 14.073C11.3589 14.624 10.6249 14.928 9.84486 14.928Z" fill="white"/>
<path fill-rule="evenodd" clip-rule="evenodd" d="M17.7308 7.91441C17.5388 7.91441 17.3468 7.84141 17.2008 7.69441L12.6348 3.12841C12.3418 2.83541 12.3418 2.36041 12.6348 2.06741C12.9278 1.77441 13.4018 1.77441 13.6948 2.06741L18.2608 6.63441C18.5538 6.92741 18.5538 7.40141 18.2608 7.69441C18.1148 7.84141 17.9228 7.91441 17.7308 7.91441Z" fill="white"/>
</svg>
