<svg width="21" height="17" viewBox="0 0 21 17" fill="none" xmlns="http://www.w3.org/2000/svg">
<path fill-rule="evenodd" clip-rule="evenodd" d="M10.4999 5.64062C9.16987 5.64062 8.08887 6.72262 8.08887 8.05262C8.08887 9.38163 9.16987 10.4626 10.4999 10.4626C11.8299 10.4626 12.9119 9.38163 12.9119 8.05262C12.9119 6.72262 11.8299 5.64062 10.4999 5.64062ZM10.4999 11.9626C8.34287 11.9626 6.58887 10.2086 6.58887 8.05262C6.58887 5.89562 8.34287 4.14062 10.4999 4.14062C12.6569 4.14062 14.4119 5.89562 14.4119 8.05262C14.4119 10.2086 12.6569 11.9626 10.4999 11.9626Z" fill="white"/>
<mask id="mask0_2920_149840" style="mask-type:alpha" maskUnits="userSpaceOnUse" x="0" y="0" width="21" height="17">
<path fill-rule="evenodd" clip-rule="evenodd" d="M0.5 0H20.4998V16.105H0.5V0Z" fill="white"/>
</mask>
<g mask="url(#mask0_2920_149840)">
<path fill-rule="evenodd" clip-rule="evenodd" d="M2.06975 8.05275C3.92975 12.1617 7.06275 14.6047 10.4998 14.6057C13.9368 14.6047 17.0697 12.1617 18.9298 8.05275C17.0697 3.94475 13.9368 1.50175 10.4998 1.50075C7.06375 1.50175 3.92975 3.94475 2.06975 8.05275ZM10.5017 16.1057H10.4978H10.4967C6.36075 16.1027 2.64675 13.2038 0.56075 8.34875C0.47975 8.15975 0.47975 7.94575 0.56075 7.75675C2.64675 2.90275 6.36175 0.00375 10.4967 0.00075C10.4987 -0.00025 10.4987 -0.00025 10.4998 0.00075C10.5017 -0.00025 10.5017 -0.00025 10.5028 0.00075C14.6388 0.00375 18.3527 2.90275 20.4387 7.75675C20.5208 7.94575 20.5208 8.15975 20.4387 8.34875C18.3537 13.2038 14.6388 16.1027 10.5028 16.1057H10.5017Z" fill="white"/>
</g>
</svg>
