<svg width="24" height="24" viewBox="0 0 24 24" fill="none" xmlns="http://www.w3.org/2000/svg">
<g clip-path="url(#clip0_4074_155809)">
<path fill-rule="evenodd" clip-rule="evenodd" d="M12.8333 3.25331C12.6695 3.14379 12.4857 3.0676 12.2925 3.02909C12.0993 2.99059 11.9003 2.99052 11.7071 3.02889C11.5138 3.06727 11.33 3.14333 11.1661 3.25274C11.0023 3.36215 10.8615 3.50277 10.752 3.66656C10.6425 3.83035 10.5663 4.01411 10.5278 4.20734C10.4893 4.40058 10.4892 4.59951 10.5276 4.79277C10.566 4.98603 10.642 5.16984 10.7515 5.33371C10.8609 5.49757 11.0015 5.63829 11.1653 5.74781C11.4961 5.969 11.9012 6.04972 12.2915 5.97222C12.6818 5.89472 13.0253 5.66535 13.2465 5.33456C13.4677 5.00377 13.5484 4.59866 13.4709 4.20835C13.3934 3.81804 13.1641 3.4745 12.8333 3.25331ZM10.3328 2.00531C10.6602 1.77832 11.0295 1.61881 11.4192 1.53609C11.8089 1.45337 12.2111 1.44909 12.6025 1.52351C12.9939 1.59792 13.3665 1.74954 13.6986 1.96951C14.0308 2.18948 14.3158 2.4734 14.537 2.8047C14.7582 3.136 14.9113 3.50804 14.9872 3.89912C15.0631 4.2902 15.0603 4.69248 14.9791 5.08249C14.8978 5.47249 14.7397 5.84241 14.514 6.17065C14.2882 6.4989 13.9994 6.7789 13.6643 6.99431C13.0026 7.41321 12.2034 7.55679 11.4373 7.39437C10.6712 7.23196 9.99904 6.77643 9.56428 6.12509C9.12953 5.47374 8.9667 4.67822 9.11058 3.90844C9.25445 3.13866 9.69362 2.45566 10.3343 2.00531H10.3328ZM10.1543 8.23481H13.8443C14.5484 8.23481 15.2237 8.51453 15.7216 9.01244C16.2196 9.51035 16.4993 10.1857 16.4993 10.8898V11.9998H14.9993V10.8898C15.0013 10.7376 14.9728 10.5865 14.9155 10.4454C14.8581 10.3044 14.7731 10.1763 14.6655 10.0686C14.5578 9.96095 14.4297 9.87595 14.2886 9.81862C14.1476 9.76129 13.9965 9.73279 13.8443 9.73481H10.1543C10.002 9.73279 9.85094 9.76129 9.7099 9.81862C9.56886 9.87595 9.44073 9.96095 9.33307 10.0686C9.22542 10.1763 9.14042 10.3044 9.08309 10.4454C9.02576 10.5865 8.99726 10.7376 8.99928 10.8898V14.9998H10.4993V19.9648C10.4993 20.0444 10.5309 20.1207 10.5871 20.1769C10.6434 20.2332 10.7197 20.2648 10.7993 20.2648H11.9993V21.7948H10.7993C10.3219 21.7948 9.86405 21.6052 9.52648 21.2676C9.18892 20.93 8.99928 20.4722 8.99928 19.9948V16.4998C8.58279 16.4765 8.19214 16.2905 7.91154 15.9818C7.63095 15.6732 7.48288 15.2666 7.49928 14.8498V10.8898C7.49928 10.1857 7.779 9.51035 8.27691 9.01244C8.77482 8.51453 9.45013 8.23481 10.1543 8.23481Z" fill="white"/>
<path d="M20.4657 17.5835C20.6269 17.5694 20.7603 17.5003 20.866 17.3761C20.9712 17.2521 21.0093 17.1117 20.9802 16.9547C20.9494 16.6881 20.8882 16.4353 20.7964 16.1963C20.7043 15.9569 20.5933 15.7246 20.4634 15.4995C20.2034 15.0492 19.8615 14.6501 19.4376 14.3021C19.0136 13.9548 18.5349 13.706 18.0017 13.5557C17.4684 13.4054 16.9433 13.369 16.4263 13.4463C15.9088 13.5239 15.4307 13.6893 14.9919 13.9427L15.119 13.4427C15.1613 13.2761 15.1387 13.1233 15.0511 12.9843C14.963 12.8456 14.8362 12.7529 14.6707 12.7063C14.5052 12.6596 14.3532 12.6763 14.2146 12.7563C14.0761 12.8363 13.9856 12.9596 13.9432 13.1263L13.3753 15.3026C13.3471 15.4137 13.3603 15.5166 13.415 15.6114C13.4697 15.7062 13.5523 15.7691 13.6626 15.8002L15.8313 16.3965C15.9899 16.4313 16.1402 16.4115 16.282 16.3372C16.4242 16.2634 16.5164 16.1431 16.5588 15.9765C16.6011 15.8099 16.5812 15.6555 16.4992 15.5133C16.4171 15.3711 16.2933 15.2767 16.1278 15.23L15.4934 15.0513C15.8052 14.8713 16.1586 14.75 16.5536 14.6875C16.9489 14.6255 17.3304 14.6463 17.6981 14.7499C18.0659 14.8536 18.3994 15.0244 18.6988 15.2623C18.9976 15.5005 19.236 15.7736 19.4139 16.0817C19.496 16.2239 19.5695 16.371 19.6345 16.523C19.699 16.6754 19.7401 16.8334 19.7576 16.997C19.7956 17.1962 19.88 17.3488 20.0107 17.4547C20.1413 17.5613 20.2929 17.6042 20.4657 17.5835ZM19.3278 22.2927C19.4933 22.3393 19.6453 22.3226 19.7839 22.2426C19.9225 22.1626 20.0129 22.0393 20.0553 21.8727L20.6232 19.6964C20.6515 19.5853 20.6382 19.4823 20.5835 19.3875C20.5288 19.2928 20.4462 19.2298 20.3359 19.1987L18.1672 18.6024C18.0086 18.5676 17.8582 18.5872 17.7161 18.661C17.5742 18.7353 17.4821 18.8558 17.4398 19.0224C17.3974 19.1891 17.4173 19.3435 17.4994 19.4857C17.5814 19.6278 17.7052 19.7223 17.8707 19.7689L18.4775 19.9399C18.161 20.1384 17.8157 20.2667 17.4416 20.3247C17.0669 20.3831 16.6865 20.3578 16.3004 20.249C15.9326 20.1453 15.5991 19.9746 15.2997 19.7366C15.0009 19.4984 14.7625 19.2253 14.5846 18.9172C14.4957 18.7632 14.4206 18.6129 14.3594 18.4662C14.2979 18.3204 14.255 18.1597 14.2307 17.9841C14.2016 17.8271 14.1338 17.6963 14.0272 17.5917C13.9208 17.4875 13.7952 17.4299 13.6502 17.4188C13.4569 17.404 13.2959 17.4654 13.1672 17.6029C13.0389 17.7401 12.9869 17.8965 13.0113 18.072C13.042 18.3387 13.1026 18.5839 13.1931 18.8078C13.2843 19.0319 13.3983 19.2625 13.5352 19.4995C13.7951 19.9497 14.1382 20.344 14.5646 20.6824C14.9909 21.0208 15.4706 21.2652 16.0039 21.4154C16.5371 21.5657 17.0613 21.6069 17.5763 21.5389C18.091 21.4705 18.5712 21.3155 19.0169 21.074L18.8968 21.5462C18.8545 21.7128 18.8744 21.8672 18.9564 22.0094C19.0385 22.1516 19.1623 22.246 19.3278 22.2927Z" fill="white"/>
</g>
<defs>
<clipPath id="clip0_4074_155809">
<rect width="24" height="24" fill="white"/>
</clipPath>
</defs>
</svg>
