<svg width="49" height="48" viewBox="0 0 49 48" fill="none" xmlns="http://www.w3.org/2000/svg">
<path d="M0.5 6C0.5 2.68629 3.18629 0 6.5 0H42.5C45.8137 0 48.5 2.68629 48.5 6V42C48.5 45.3137 45.8137 48 42.5 48H6.5C3.18629 48 0.5 45.3137 0.5 42V6Z" fill="#0C1096"/>
<path fill-rule="evenodd" clip-rule="evenodd" d="M29.077 34.3672H20.253C16.812 34.3672 14.5 31.9522 14.5 28.3582V20.0442C14.5 16.4502 16.812 14.0352 20.253 14.0352H23.992C24.406 14.0352 24.742 14.3712 24.742 14.7852C24.742 15.1992 24.406 15.5352 23.992 15.5352H20.253C17.669 15.5352 16 17.3052 16 20.0442V28.3582C16 31.0972 17.669 32.8672 20.253 32.8672H29.077C31.661 32.8672 33.331 31.0972 33.331 28.3582V24.3302C33.331 23.9162 33.667 23.5802 34.081 23.5802C34.495 23.5802 34.831 23.9162 34.831 24.3302V28.3582C34.831 31.9522 32.518 34.3672 29.077 34.3672Z" fill="white"/>
<path fill-rule="evenodd" clip-rule="evenodd" d="M21.3679 27.428H24.3449C24.7249 27.428 25.0809 27.281 25.3499 27.012L32.8589 19.503C33.1669 19.195 33.3369 18.785 33.3369 18.349C33.3369 17.912 33.1669 17.501 32.8589 17.193L31.6419 15.976C31.0049 15.341 29.9689 15.341 29.3309 15.976L21.8579 23.449C21.5989 23.708 21.4519 24.052 21.4429 24.417L21.3679 27.428ZM24.3449 28.928H20.5989C20.3969 28.928 20.2029 28.846 20.0619 28.701C19.9209 28.557 19.8439 28.362 19.8489 28.159L19.9429 24.38C19.9619 23.628 20.2649 22.921 20.7969 22.388H20.7979L28.2709 14.915C29.4929 13.695 31.4799 13.695 32.7019 14.915L33.9189 16.132C34.5119 16.724 34.8379 17.511 34.8369 18.349C34.8369 19.187 34.5109 19.973 33.9189 20.564L26.4099 28.073C25.8589 28.624 25.1249 28.928 24.3449 28.928Z" fill="white"/>
<path fill-rule="evenodd" clip-rule="evenodd" d="M32.2308 21.9144C32.0388 21.9144 31.8468 21.8414 31.7008 21.6944L27.1348 17.1284C26.8418 16.8354 26.8418 16.3604 27.1348 16.0674C27.4278 15.7744 27.9018 15.7744 28.1948 16.0674L32.7608 20.6344C33.0538 20.9274 33.0538 21.4014 32.7608 21.6944C32.6148 21.8414 32.4228 21.9144 32.2308 21.9144Z" fill="white"/>
</svg>
