<svg width="37" height="36" viewBox="0 0 37 36" fill="none" xmlns="http://www.w3.org/2000/svg">
<path d="M0.75 18C0.75 8.05888 8.80888 0 18.75 0C28.6911 0 36.75 8.05888 36.75 18C36.75 27.9411 28.6911 36 18.75 36C8.80888 36 0.75 27.9411 0.75 18Z" fill="#D82727"/>
<path d="M18.9829 17.0597C18.3581 17.0531 17.7492 16.8618 17.2328 16.5099C16.7165 16.158 16.3158 15.6611 16.0812 15.082C15.8466 14.5028 15.7887 13.8671 15.9146 13.2551C16.0405 12.643 16.3447 12.0819 16.7889 11.6424C17.233 11.2028 17.7973 10.9045 18.4106 10.785C19.024 10.6655 19.659 10.7301 20.2357 10.9708C20.8124 11.2114 21.305 11.6173 21.6515 12.1373C21.998 12.6573 22.1829 13.2682 22.1829 13.8931C22.1771 14.7369 21.837 15.544 21.2372 16.1375C20.6374 16.7311 19.8268 17.0627 18.9829 17.0597ZM18.9829 11.8375C18.5779 11.8441 18.1838 11.9702 17.8502 12.2C17.5165 12.4298 17.2583 12.7531 17.1078 13.1293C16.9573 13.5054 16.9213 13.9176 17.0044 14.3141C17.0874 14.7106 17.2858 15.0738 17.5745 15.3579C17.8633 15.6421 18.2296 15.8346 18.6274 15.9112C19.0252 15.9879 19.4367 15.9453 19.8104 15.7887C20.1841 15.6322 20.5032 15.3688 20.7276 15.0315C20.952 14.6942 21.0718 14.2982 21.0718 13.8931C21.066 13.3439 20.8429 12.8194 20.4515 12.4343C20.0601 12.0491 19.5321 11.8345 18.9829 11.8375Z" fill="white"/>
<path d="M18.9837 17.0597C18.3588 17.0531 17.7499 16.8618 17.2335 16.5099C16.7172 16.158 16.3165 15.6611 16.0819 15.082C15.8473 14.5028 15.7894 13.8671 15.9153 13.2551C16.0412 12.643 16.3454 12.0819 16.7896 11.6424C17.2337 11.2028 17.798 10.9045 18.4114 10.785C19.0247 10.6655 19.6597 10.7301 20.2364 10.9708C20.8131 11.2114 21.3057 11.6173 21.6522 12.1373C21.9987 12.6573 22.1836 13.2682 22.1837 13.8931C22.1778 14.7369 21.8377 15.544 21.2379 16.1375C20.6381 16.7311 19.8275 17.0627 18.9837 17.0597ZM18.9837 11.8375C18.5786 11.8441 18.1845 11.9702 17.8509 12.2C17.5173 12.4298 17.259 12.7531 17.1085 13.1293C16.958 13.5054 16.922 13.9176 17.0051 14.3141C17.0881 14.7106 17.2865 15.0738 17.5752 15.3579C17.864 15.6421 18.2303 15.8346 18.6281 15.9112C19.0259 15.9879 19.4375 15.9453 19.8111 15.7887C20.1848 15.6322 20.5039 15.3688 20.7283 15.0315C20.9527 14.6942 21.0725 14.2982 21.0725 13.8931C21.0667 13.3439 20.8437 12.8194 20.4522 12.4343C20.0608 12.0491 19.5328 11.8345 18.9837 11.8375ZM20.9225 17.8042C18.4584 17.3754 15.9216 17.7657 13.7003 18.9153C13.5426 19.0028 13.4121 19.1321 13.3229 19.2888C13.2337 19.4456 13.1894 19.6239 13.1948 19.8042V21.7819C13.1948 21.9293 13.2533 22.0706 13.3575 22.1748C13.4617 22.279 13.603 22.3375 13.7503 22.3375C13.8977 22.3375 14.039 22.279 14.1432 22.1748C14.2473 22.0706 14.3059 21.9293 14.3059 21.7819V19.8764C16.3657 18.8429 18.7081 18.5149 20.9725 18.9431L20.9225 17.8042Z" fill="white"/>
<path d="M27.0831 20.2215H23.3609V19.3993C23.3609 19.252 23.3024 19.1107 23.1982 19.0065C23.094 18.9023 22.9527 18.8438 22.8053 18.8438C22.658 18.8438 22.5167 18.9023 22.4125 19.0065C22.3083 19.1107 22.2498 19.252 22.2498 19.3993V20.2215H18.1942C18.0469 20.2215 17.9056 20.2801 17.8014 20.3842C17.6972 20.4884 17.6387 20.6297 17.6387 20.7771V26.3326C17.6387 26.48 17.6972 26.6213 17.8014 26.7255C17.9056 26.8297 18.0469 26.8882 18.1942 26.8882H27.0831C27.2305 26.8882 27.3718 26.8297 27.476 26.7255C27.5801 26.6213 27.6387 26.48 27.6387 26.3326V20.7771C27.6387 20.6297 27.5801 20.4884 27.476 20.3842C27.3718 20.2801 27.2305 20.2215 27.0831 20.2215ZM26.5276 25.7771H18.7498V21.3326H22.2498V21.5604C22.2498 21.7078 22.3083 21.8491 22.4125 21.9533C22.5167 22.0574 22.658 22.116 22.8053 22.116C22.9527 22.116 23.094 22.0574 23.1982 21.9533C23.3024 21.8491 23.3609 21.7078 23.3609 21.5604V21.3326H26.5276V25.7771Z" fill="white"/>
<path d="M20.8669 23.2323H24.178V24.0101H20.8669V23.2323ZM14.7724 14.799C13.2344 14.8247 11.7229 15.2049 10.3558 15.9101C10.2071 15.9886 10.0825 16.1061 9.99545 16.2499C9.90836 16.3938 9.862 16.5586 9.86133 16.7268V18.449C9.86133 18.5963 9.91986 18.7376 10.024 18.8418C10.1282 18.946 10.2695 19.0045 10.4169 19.0045C10.5642 19.0045 10.7055 18.946 10.8097 18.8418C10.9139 18.7376 10.9724 18.5963 10.9724 18.449V16.8379C12.2787 16.1877 13.725 15.869 15.1835 15.9101C14.9927 15.5619 14.8542 15.1875 14.7724 14.799ZM27.1447 15.9045C25.9185 15.2613 24.5709 14.8828 23.1891 14.7934C23.1077 15.1813 22.9712 15.5555 22.7835 15.9045C24.0853 15.9357 25.364 16.2544 26.528 16.8379V18.449C26.528 18.5963 26.5865 18.7376 26.6907 18.8418C26.7949 18.946 26.9362 19.0045 27.0835 19.0045C27.2309 19.0045 27.3722 18.946 27.4764 18.8418C27.5806 18.7376 27.6391 18.5963 27.6391 18.449V16.7268C27.6394 16.5577 27.5936 16.3917 27.5064 16.2468C27.4193 16.1019 27.2942 15.9835 27.1447 15.9045ZM14.6724 13.8934V13.5212C14.2372 13.463 13.8412 13.2391 13.5669 12.8963C13.2926 12.5534 13.1611 12.118 13.1997 11.6806C13.2384 11.2432 13.4442 10.8376 13.7745 10.5481C14.1047 10.2587 14.5338 10.1078 14.9724 10.1268C15.4287 10.1259 15.8673 10.3034 16.1947 10.6212C16.4835 10.383 16.8007 10.1814 17.1391 10.0212C16.7611 9.58657 16.2603 9.27667 15.7027 9.13235C15.145 8.98804 14.5567 9.01608 14.0154 9.21278C13.474 9.40948 13.0049 9.76561 12.67 10.2342C12.335 10.7029 12.1499 11.262 12.1391 11.8379C12.1508 12.5427 12.4248 13.2179 12.9076 13.7316C13.3904 14.2452 14.0474 14.5605 14.7502 14.6156C14.7031 14.3777 14.6771 14.136 14.6724 13.8934ZM22.5113 9.01565C22.1295 9.01573 21.7516 9.09193 21.3996 9.23978C21.0476 9.38764 20.7286 9.60418 20.4613 9.87676C20.8369 10.0129 21.1921 10.1998 21.5169 10.4323C21.7762 10.2523 22.0796 10.146 22.3946 10.1248C22.7096 10.1036 23.0245 10.1683 23.3056 10.312C23.5867 10.4557 23.8236 10.673 23.9909 10.9408C24.1583 11.2085 24.2498 11.5166 24.2558 11.8323C24.2523 12.1566 24.157 12.4732 23.981 12.7455C23.805 13.0179 23.5555 13.2348 23.2613 13.3712C23.2837 13.5425 23.2948 13.7151 23.2947 13.8879C23.2932 14.1112 23.2746 14.3341 23.2391 14.5545C23.8443 14.3989 24.3811 14.0476 24.766 13.5553C25.1508 13.0629 25.3621 12.4572 25.3669 11.8323C25.3595 11.0808 25.0551 10.3628 24.5201 9.835C23.985 9.30724 23.2629 9.01268 22.5113 9.01565Z" fill="white"/>
</svg>
