<svg width="22" height="18" viewBox="0 0 22 18" fill="none" xmlns="http://www.w3.org/2000/svg">
<path fill-rule="evenodd" clip-rule="evenodd" d="M16.8865 8.64529C16.5185 8.64529 16.1975 8.37429 16.1445 7.99929C16.0875 7.58829 16.3725 7.20929 16.7835 7.15229C17.8235 7.00629 18.6085 6.10429 18.6105 5.05229C18.6105 4.00929 17.8625 3.12729 16.8315 2.95829C16.4235 2.89129 16.1465 2.50529 16.2135 2.09629C16.2815 1.68729 16.6645 1.41329 17.0755 1.47829C18.8335 1.76729 20.1105 3.27129 20.1105 5.05429C20.1065 6.84929 18.7655 8.38929 16.9905 8.63829C16.9555 8.64329 16.9205 8.64529 16.8865 8.64529Z" fill="#0C1096"/>
<mask id="mask0_2321_157386" style="mask-type:alpha" maskUnits="userSpaceOnUse" x="17" y="10" width="5" height="6">
<path fill-rule="evenodd" clip-rule="evenodd" d="M17.978 10.5H21.772V15.0296H17.978V10.5Z" fill="white"/>
</mask>
<g mask="url(#mask0_2321_157386)">
<path fill-rule="evenodd" clip-rule="evenodd" d="M19.8613 15.0296C19.5593 15.0296 19.2743 14.8456 19.1603 14.5466C19.0123 14.1596 19.2073 13.7256 19.5943 13.5786C20.2723 13.3206 20.2723 13.0356 20.2723 12.8986C20.2723 12.4606 19.7153 12.1546 18.6173 11.9906C18.2083 11.9286 17.9253 11.5476 17.9863 11.1366C18.0473 10.7266 18.4273 10.4536 18.8403 10.5066C21.2633 10.8696 21.7723 12.0076 21.7723 12.8986C21.7723 13.4426 21.5583 14.4356 20.1283 14.9806C20.0403 15.0136 19.9503 15.0296 19.8613 15.0296Z" fill="#0C1096"/>
</g>
<path fill-rule="evenodd" clip-rule="evenodd" d="M10.8867 12.4141C8.51073 12.4141 5.67773 12.7061 5.67773 14.0961C5.67773 15.4971 8.51073 15.7911 10.8867 15.7911C13.2627 15.7911 16.0947 15.5001 16.0947 14.1131C16.0947 12.7091 13.2627 12.4141 10.8867 12.4141ZM10.8867 17.2911C9.22773 17.2911 4.17773 17.2911 4.17773 14.0961C4.17773 10.9141 9.22773 10.9141 10.8867 10.9141C12.5457 10.9141 17.5947 10.9141 17.5947 14.1131C17.5947 17.2911 12.7217 17.2911 10.8867 17.2911Z" fill="#0C1096"/>
<path fill-rule="evenodd" clip-rule="evenodd" d="M10.8864 2C9.1944 2 7.8184 3.377 7.8184 5.069C7.8154 5.889 8.1294 6.656 8.7044 7.235C9.2794 7.814 10.0454 8.135 10.8614 8.138L10.8864 8.888V8.138C12.5784 8.138 13.9554 6.762 13.9554 5.069C13.9554 3.377 12.5784 2 10.8864 2ZM10.8864 9.638H10.8594C9.6394 9.634 8.4964 9.156 7.6404 8.292C6.7824 7.429 6.3134 6.283 6.3184 5.066C6.3184 2.55 8.3674 0.5 10.8864 0.5C13.4064 0.5 15.4554 2.55 15.4554 5.069C15.4554 7.588 13.4064 9.638 10.8864 9.638Z" fill="#0C1096"/>
<path fill-rule="evenodd" clip-rule="evenodd" d="M4.8856 8.64547C4.8516 8.64547 4.8166 8.64347 4.7816 8.63847C3.0066 8.38947 1.6666 6.84947 1.6626 5.05647C1.6626 3.27147 2.9396 1.76747 4.6976 1.47847C5.1186 1.41247 5.4916 1.68947 5.5596 2.09647C5.6266 2.50547 5.3496 2.89147 4.9416 2.95847C3.9106 3.12747 3.1626 4.00947 3.1626 5.05447C3.1646 6.10447 3.9496 7.00747 4.9886 7.15247C5.3996 7.20947 5.6846 7.58847 5.6276 7.99947C5.5746 8.37447 5.2536 8.64547 4.8856 8.64547Z" fill="#0C1096"/>
<path fill-rule="evenodd" clip-rule="evenodd" d="M1.912 15.0294C1.823 15.0294 1.733 15.0134 1.645 14.9804C0.214 14.4344 0 13.4414 0 12.8984C0 12.0084 0.509 10.8694 2.933 10.5064C3.346 10.4544 3.724 10.7264 3.786 11.1364C3.847 11.5474 3.564 11.9284 3.155 11.9904C2.057 12.1544 1.5 12.4604 1.5 12.8984C1.5 13.0354 1.5 13.3194 2.179 13.5784C2.566 13.7254 2.761 14.1594 2.613 14.5464C2.499 14.8454 2.214 15.0294 1.912 15.0294Z" fill="#0C1096"/>
</svg>
