<svg width="22" height="20" viewBox="0 0 22 20" fill="none" xmlns="http://www.w3.org/2000/svg">
<path d="M17.875 2.52128C17.875 1.9852 18.0923 1.47108 18.4791 1.09202C18.8659 0.712955 19.3905 0.5 19.9375 0.5C20.4845 0.5 21.0091 0.712955 21.3959 1.09202C21.7827 1.47108 22 1.9852 22 2.52128V17.344C22 17.88 21.7827 18.3942 21.3959 18.7732C21.0091 19.1523 20.4845 19.3652 19.9375 19.3652C19.3905 19.3652 18.8659 19.1523 18.4791 18.7732C18.0923 18.3942 17.875 17.88 17.875 17.344V17.0556C14.9023 15.3833 11.7013 14.5721 8.371 14.2487L8.92788 17.9032C8.96527 18.0979 8.95841 18.2983 8.90776 18.4901C8.85712 18.6818 8.76395 18.8603 8.63489 19.0128C8.50582 19.1653 8.34404 19.288 8.16106 19.3722C7.97808 19.4564 7.7784 19.5001 7.57625 19.5H6.82275C6.55548 19.5 6.29401 19.4236 6.07032 19.2803C5.84663 19.1369 5.67043 18.9328 5.56325 18.6928L3.0195 13.99C2.92692 13.9885 2.83434 13.9872 2.74175 13.986C2.0135 13.9789 1.31741 13.6909 0.804245 13.1845C0.291075 12.678 0.00213379 11.9939 0 11.2801L0 8.58511C0.00245408 7.87132 0.290908 7.18703 0.803224 6.67966C1.31554 6.17229 2.01072 5.88244 2.739 5.87255C3.87753 5.85742 5.01573 5.82373 6.15312 5.77149C10.3372 5.56397 14.6066 4.62745 17.875 2.8083V2.52128ZM19.25 2.52128V17.344C19.25 17.5227 19.3224 17.694 19.4514 17.8204C19.5803 17.9467 19.7552 18.0177 19.9375 18.0177C20.1198 18.0177 20.2947 17.9467 20.4236 17.8204C20.5526 17.694 20.625 17.5227 20.625 17.344V2.52128C20.625 2.34258 20.5526 2.17121 20.4236 2.04486C20.2947 1.9185 20.1198 1.84752 19.9375 1.84752C19.7552 1.84752 19.5803 1.9185 19.4514 2.04486C19.3224 2.17121 19.25 2.34258 19.25 2.52128ZM17.875 4.34043C14.652 5.96418 10.7126 6.82255 6.875 7.07993V12.784C7.1225 12.7974 7.36863 12.8136 7.61338 12.8325C11.1444 13.0872 14.6163 13.835 17.875 15.5181V4.34043ZM5.5 12.7152V7.15C4.58727 7.18273 3.67422 7.20609 2.761 7.22007C2.39356 7.2243 2.04249 7.36968 1.7833 7.62496C1.52411 7.88023 1.3775 8.225 1.375 8.58511V11.2801C1.375 12.0213 1.991 12.6304 2.75825 12.6398C3.67253 12.6502 4.58657 12.6753 5.5 12.7152ZM4.59662 14.0291L6.809 18.1215L6.82275 18.1538H7.57625L7.5735 18.135L6.96438 14.1382C6.17563 14.0916 5.38632 14.0548 4.59662 14.0277V14.0291Z" fill="#0C1096"/>
</svg>
