<svg width="21" height="21" viewBox="0 0 21 21" fill="none" xmlns="http://www.w3.org/2000/svg">
<path fill-rule="evenodd" clip-rule="evenodd" d="M9.319 20.5H4.433C1.989 20.5 0 18.511 0 16.065V4.936C0 2.49 1.989 0.5 4.433 0.5H9.308C11.754 0.5 13.744 2.49 13.744 4.936V5.868C13.744 6.282 13.408 6.618 12.994 6.618C12.58 6.618 12.244 6.282 12.244 5.868V4.936C12.244 3.316 10.927 2 9.308 2H4.433C2.816 2 1.5 3.316 1.5 4.936V16.065C1.5 17.684 2.816 19 4.433 19H9.319C10.931 19 12.244 17.688 12.244 16.076V15.133C12.244 14.719 12.58 14.383 12.994 14.383C13.408 14.383 13.744 14.719 13.744 15.133V16.076C13.744 18.516 11.758 20.5 9.319 20.5Z" fill="white"/>
<mask id="mask0_2128_43310" style="mask-type:alpha" maskUnits="userSpaceOnUse" x="6" y="9" width="15" height="3">
<path fill-rule="evenodd" clip-rule="evenodd" d="M6.99609 9.75H20.537V11.25H6.99609V9.75Z" fill="white"/>
</mask>
<g mask="url(#mask0_2128_43310)">
<path fill-rule="evenodd" clip-rule="evenodd" d="M19.7871 11.25H7.74609C7.33209 11.25 6.99609 10.914 6.99609 10.5C6.99609 10.086 7.33209 9.75 7.74609 9.75H19.7871C20.2011 9.75 20.5371 10.086 20.5371 10.5C20.5371 10.914 20.2011 11.25 19.7871 11.25Z" fill="white"/>
</g>
<mask id="mask1_2128_43310" style="mask-type:alpha" maskUnits="userSpaceOnUse" x="16" y="6" width="5" height="9">
<path fill-rule="evenodd" clip-rule="evenodd" d="M16.1094 6.83594H20.5367V14.1667H16.1094V6.83594Z" fill="white"/>
</mask>
<g mask="url(#mask1_2128_43310)">
<path fill-rule="evenodd" clip-rule="evenodd" d="M16.8591 14.1667C16.6671 14.1667 16.4741 14.0937 16.3281 13.9457C16.0361 13.6517 16.0371 13.1777 16.3301 12.8857L18.7241 10.5007L16.3301 8.11669C16.0371 7.82469 16.0351 7.35069 16.3281 7.05669C16.6201 6.76269 17.0941 6.76269 17.3881 7.05469L20.3161 9.96969C20.4581 10.1097 20.5371 10.3017 20.5371 10.5007C20.5371 10.6997 20.4581 10.8917 20.3161 11.0317L17.3881 13.9477C17.2421 14.0937 17.0501 14.1667 16.8591 14.1667Z" fill="white"/>
</g>
</svg>
