<svg width="153" height="48" viewBox="0 0 153 48" fill="none" xmlns="http://www.w3.org/2000/svg">
<path d="M0 6C0 2.68629 2.68629 0 6 0H147C150.314 0 153 2.68629 153 6V42C153 45.3137 150.314 48 147 48H6C2.68629 48 0 45.3137 0 42V6Z" fill="#0C1096"/>
<path fill-rule="evenodd" clip-rule="evenodd" d="M44.6663 21.9062H26.8423C26.4283 21.9062 26.0923 21.5703 26.0923 21.1562C26.0923 20.7422 26.4283 20.4062 26.8423 20.4062H44.6663C45.0803 20.4062 45.4163 20.7422 45.4163 21.1562C45.4163 21.5703 45.0803 21.9062 44.6663 21.9062Z" fill="white"/>
<path fill-rule="evenodd" clip-rule="evenodd" d="M40.2013 25.8125C39.7873 25.8125 39.4473 25.4765 39.4473 25.0625C39.4473 24.6485 39.7783 24.3125 40.1923 24.3125H40.2013C40.6153 24.3125 40.9513 24.6485 40.9513 25.0625C40.9513 25.4765 40.6153 25.8125 40.2013 25.8125Z" fill="white"/>
<path fill-rule="evenodd" clip-rule="evenodd" d="M35.7638 25.8125C35.3498 25.8125 35.0098 25.4765 35.0098 25.0625C35.0098 24.6485 35.3408 24.3125 35.7548 24.3125H35.7638C36.1778 24.3125 36.5138 24.6485 36.5138 25.0625C36.5138 25.4765 36.1778 25.8125 35.7638 25.8125Z" fill="white"/>
<path fill-rule="evenodd" clip-rule="evenodd" d="M31.317 25.8125C30.903 25.8125 30.562 25.4765 30.562 25.0625C30.562 24.6485 30.894 24.3125 31.308 24.3125H31.317C31.731 24.3125 32.067 24.6485 32.067 25.0625C32.067 25.4765 31.731 25.8125 31.317 25.8125Z" fill="white"/>
<path fill-rule="evenodd" clip-rule="evenodd" d="M40.2013 29.6953C39.7873 29.6953 39.4473 29.3593 39.4473 28.9453C39.4473 28.5313 39.7783 28.1953 40.1923 28.1953H40.2013C40.6153 28.1953 40.9513 28.5313 40.9513 28.9453C40.9513 29.3593 40.6153 29.6953 40.2013 29.6953Z" fill="white"/>
<path fill-rule="evenodd" clip-rule="evenodd" d="M35.7638 29.6953C35.3498 29.6953 35.0098 29.3593 35.0098 28.9453C35.0098 28.5313 35.3408 28.1953 35.7548 28.1953H35.7638C36.1778 28.1953 36.5138 28.5313 36.5138 28.9453C36.5138 29.3593 36.1778 29.6953 35.7638 29.6953Z" fill="white"/>
<path fill-rule="evenodd" clip-rule="evenodd" d="M31.317 29.6953C30.903 29.6953 30.562 29.3593 30.562 28.9453C30.562 28.5313 30.894 28.1953 31.308 28.1953H31.317C31.731 28.1953 32.067 28.5313 32.067 28.9453C32.067 29.3593 31.731 29.6953 31.317 29.6953Z" fill="white"/>
<path fill-rule="evenodd" clip-rule="evenodd" d="M39.7935 17.791C39.3795 17.791 39.0435 17.455 39.0435 17.041V13.75C39.0435 13.336 39.3795 13 39.7935 13C40.2075 13 40.5435 13.336 40.5435 13.75V17.041C40.5435 17.455 40.2075 17.791 39.7935 17.791Z" fill="white"/>
<path fill-rule="evenodd" clip-rule="evenodd" d="M31.7153 17.791C31.3013 17.791 30.9653 17.455 30.9653 17.041V13.75C30.9653 13.336 31.3013 13 31.7153 13C32.1293 13 32.4653 13.336 32.4653 13.75V17.041C32.4653 17.455 32.1293 17.791 31.7153 17.791Z" fill="white"/>
<mask id="mask0_2420_177879" style="mask-type:alpha" maskUnits="userSpaceOnUse" x="26" y="14" width="20" height="21">
<path fill-rule="evenodd" clip-rule="evenodd" d="M26 14.5781H45.5V34.499H26V14.5781Z" fill="white"/>
</mask>
<g mask="url(#mask0_2420_177879)">
<path fill-rule="evenodd" clip-rule="evenodd" d="M31.521 16.0781C28.928 16.0781 27.5 17.4611 27.5 19.9721V29.0211C27.5 31.5871 28.928 32.9991 31.521 32.9991H39.979C42.572 32.9991 44 31.6131 44 29.0971V19.9721C44.004 18.7371 43.672 17.7771 43.013 17.1171C42.335 16.4371 41.29 16.0781 39.988 16.0781H31.521ZM39.979 34.4991H31.521C28.116 34.4991 26 32.4001 26 29.0211V19.9721C26 16.6441 28.116 14.5781 31.521 14.5781H39.988C41.697 14.5781 43.11 15.0901 44.075 16.0571C45.012 16.9981 45.505 18.3511 45.5 19.9741V29.0971C45.5 32.4291 43.384 34.4991 39.979 34.4991Z" fill="white"/>
</g>
<path d="M61.5859 19.1406L58.1875 29H56.1328L60.4141 17.625H61.7266L61.5859 19.1406ZM64.4297 29L61.0234 19.1406L60.875 17.625H62.1953L66.4922 29H64.4297ZM64.2656 24.7812V26.3359H58.0781V24.7812H64.2656ZM72.7344 27.25V17H74.625V29H72.9141L72.7344 27.25ZM67.2344 24.8672V24.7031C67.2344 24.0625 67.3099 23.4792 67.4609 22.9531C67.612 22.4219 67.8307 21.9661 68.1172 21.5859C68.4036 21.2005 68.7526 20.9062 69.1641 20.7031C69.5755 20.4948 70.0391 20.3906 70.5547 20.3906C71.0651 20.3906 71.513 20.4896 71.8984 20.6875C72.2839 20.8854 72.612 21.1693 72.8828 21.5391C73.1536 21.9036 73.3698 22.3411 73.5312 22.8516C73.6927 23.3568 73.8073 23.9193 73.875 24.5391V25.0625C73.8073 25.6667 73.6927 26.2188 73.5312 26.7188C73.3698 27.2188 73.1536 27.651 72.8828 28.0156C72.612 28.3802 72.2812 28.6615 71.8906 28.8594C71.5052 29.0573 71.0547 29.1562 70.5391 29.1562C70.0286 29.1562 69.5677 29.0495 69.1562 28.8359C68.75 28.6224 68.4036 28.3229 68.1172 27.9375C67.8307 27.5521 67.612 27.099 67.4609 26.5781C67.3099 26.0521 67.2344 25.4818 67.2344 24.8672ZM69.1172 24.7031V24.8672C69.1172 25.2526 69.151 25.612 69.2188 25.9453C69.2917 26.2786 69.4036 26.5729 69.5547 26.8281C69.7057 27.0781 69.901 27.276 70.1406 27.4219C70.3854 27.5625 70.6771 27.6328 71.0156 27.6328C71.4427 27.6328 71.7943 27.5391 72.0703 27.3516C72.3464 27.1641 72.5625 26.9115 72.7188 26.5938C72.8802 26.2708 72.9896 25.9115 73.0469 25.5156V24.1016C73.0156 23.7943 72.9505 23.5078 72.8516 23.2422C72.7578 22.9766 72.6302 22.7448 72.4688 22.5469C72.3073 22.3438 72.1068 22.1875 71.8672 22.0781C71.6328 21.9635 71.3542 21.9062 71.0312 21.9062C70.6875 21.9062 70.3958 21.9792 70.1562 22.125C69.9167 22.2708 69.7188 22.4714 69.5625 22.7266C69.4115 22.9818 69.2995 23.2786 69.2266 23.6172C69.1536 23.9557 69.1172 24.3177 69.1172 24.7031ZM81.75 27.25V17H83.6406V29H81.9297L81.75 27.25ZM76.25 24.8672V24.7031C76.25 24.0625 76.3255 23.4792 76.4766 22.9531C76.6276 22.4219 76.8464 21.9661 77.1328 21.5859C77.4193 21.2005 77.7682 20.9062 78.1797 20.7031C78.5911 20.4948 79.0547 20.3906 79.5703 20.3906C80.0807 20.3906 80.5286 20.4896 80.9141 20.6875C81.2995 20.8854 81.6276 21.1693 81.8984 21.5391C82.1693 21.9036 82.3854 22.3411 82.5469 22.8516C82.7083 23.3568 82.8229 23.9193 82.8906 24.5391V25.0625C82.8229 25.6667 82.7083 26.2188 82.5469 26.7188C82.3854 27.2188 82.1693 27.651 81.8984 28.0156C81.6276 28.3802 81.2969 28.6615 80.9062 28.8594C80.5208 29.0573 80.0703 29.1562 79.5547 29.1562C79.0443 29.1562 78.5833 29.0495 78.1719 28.8359C77.7656 28.6224 77.4193 28.3229 77.1328 27.9375C76.8464 27.5521 76.6276 27.099 76.4766 26.5781C76.3255 26.0521 76.25 25.4818 76.25 24.8672ZM78.1328 24.7031V24.8672C78.1328 25.2526 78.1667 25.612 78.2344 25.9453C78.3073 26.2786 78.4193 26.5729 78.5703 26.8281C78.7214 27.0781 78.9167 27.276 79.1562 27.4219C79.401 27.5625 79.6927 27.6328 80.0312 27.6328C80.4583 27.6328 80.8099 27.5391 81.0859 27.3516C81.362 27.1641 81.5781 26.9115 81.7344 26.5938C81.8958 26.2708 82.0052 25.9115 82.0625 25.5156V24.1016C82.0312 23.7943 81.9661 23.5078 81.8672 23.2422C81.7734 22.9766 81.6458 22.7448 81.4844 22.5469C81.3229 22.3438 81.1224 22.1875 80.8828 22.0781C80.6484 21.9635 80.3698 21.9062 80.0469 21.9062C79.7031 21.9062 79.4115 21.9792 79.1719 22.125C78.9323 22.2708 78.7344 22.4714 78.5781 22.7266C78.4271 22.9818 78.3151 23.2786 78.2422 23.6172C78.1693 23.9557 78.1328 24.3177 78.1328 24.7031ZM97.2266 27.4453V29H91.1875V27.4453H97.2266ZM91.7422 17.625V29H89.7812V17.625H91.7422ZM96.4375 22.375V23.9062H91.1875V22.375H96.4375ZM97.1875 17.625V19.1875H91.1875V17.625H97.1875ZM101.188 27.5078L103.258 20.5469H105.211L102.273 29H101.055L101.188 27.5078ZM99.6016 20.5469L101.711 27.5391L101.812 29H100.594L97.6406 20.5469H99.6016ZM109.992 29.1562C109.367 29.1562 108.802 29.0547 108.297 28.8516C107.797 28.6432 107.37 28.3542 107.016 27.9844C106.667 27.6146 106.398 27.1797 106.211 26.6797C106.023 26.1797 105.93 25.6406 105.93 25.0625V24.75C105.93 24.0885 106.026 23.4896 106.219 22.9531C106.411 22.4167 106.68 21.9583 107.023 21.5781C107.367 21.1927 107.773 20.8984 108.242 20.6953C108.711 20.4922 109.219 20.3906 109.766 20.3906C110.37 20.3906 110.898 20.4922 111.352 20.6953C111.805 20.8984 112.18 21.1849 112.477 21.5547C112.779 21.9193 113.003 22.3542 113.148 22.8594C113.299 23.3646 113.375 23.9219 113.375 24.5312V25.3359H106.844V23.9844H111.516V23.8359C111.505 23.4974 111.438 23.1797 111.312 22.8828C111.193 22.5859 111.008 22.3464 110.758 22.1641C110.508 21.9818 110.174 21.8906 109.758 21.8906C109.445 21.8906 109.167 21.9583 108.922 22.0938C108.682 22.224 108.482 22.4141 108.32 22.6641C108.159 22.9141 108.034 23.2161 107.945 23.5703C107.862 23.9193 107.82 24.3125 107.82 24.75V25.0625C107.82 25.4323 107.87 25.776 107.969 26.0938C108.073 26.4062 108.224 26.6797 108.422 26.9141C108.62 27.1484 108.859 27.3333 109.141 27.4688C109.422 27.599 109.742 27.6641 110.102 27.6641C110.555 27.6641 110.958 27.5729 111.312 27.3906C111.667 27.2083 111.974 26.9505 112.234 26.6172L113.227 27.5781C113.044 27.8438 112.807 28.099 112.516 28.3438C112.224 28.5833 111.867 28.7786 111.445 28.9297C111.029 29.0807 110.544 29.1562 109.992 29.1562ZM116.711 22.3516V29H114.828V20.5469H116.602L116.711 22.3516ZM116.375 24.4609L115.766 24.4531C115.771 23.8542 115.854 23.3047 116.016 22.8047C116.182 22.3047 116.411 21.875 116.703 21.5156C117 21.1562 117.354 20.8802 117.766 20.6875C118.177 20.4896 118.635 20.3906 119.141 20.3906C119.547 20.3906 119.914 20.4479 120.242 20.5625C120.576 20.6719 120.859 20.8516 121.094 21.1016C121.333 21.3516 121.516 21.6771 121.641 22.0781C121.766 22.474 121.828 22.9609 121.828 23.5391V29H119.938V23.5312C119.938 23.125 119.878 22.8047 119.758 22.5703C119.643 22.3307 119.474 22.1615 119.25 22.0625C119.031 21.9583 118.758 21.9062 118.43 21.9062C118.107 21.9062 117.818 21.974 117.562 22.1094C117.307 22.2448 117.091 22.4297 116.914 22.6641C116.742 22.8984 116.609 23.1693 116.516 23.4766C116.422 23.7839 116.375 24.112 116.375 24.4609ZM127.625 20.5469V21.9219H122.859V20.5469H127.625ZM124.234 18.4766H126.117V26.6641C126.117 26.9245 126.154 27.125 126.227 27.2656C126.305 27.401 126.411 27.4922 126.547 27.5391C126.682 27.5859 126.841 27.6094 127.023 27.6094C127.154 27.6094 127.279 27.6016 127.398 27.5859C127.518 27.5703 127.615 27.5547 127.688 27.5391L127.695 28.9766C127.539 29.0234 127.357 29.0651 127.148 29.1016C126.945 29.138 126.711 29.1562 126.445 29.1562C126.013 29.1562 125.63 29.0807 125.297 28.9297C124.964 28.7734 124.703 28.5208 124.516 28.1719C124.328 27.8229 124.234 27.3594 124.234 26.7812V18.4766Z" fill="white"/>
</svg>
