<svg width="24" height="24" viewBox="0 0 24 24" fill="none" xmlns="http://www.w3.org/2000/svg">
<path fill-rule="evenodd" clip-rule="evenodd" d="M10.6064 14.2871L14.8729 21.2089C15.0596 21.5123 15.3513 21.5088 15.4691 21.4924C15.5869 21.4761 15.8704 21.4038 15.9731 21.0596L21.3083 3.04045C21.4016 2.72195 21.2301 2.50495 21.1531 2.42795C21.0784 2.35095 20.8649 2.18645 20.5558 2.27395L2.52375 7.55428C2.18192 7.65461 2.10725 7.94162 2.09092 8.05945C2.07459 8.17962 2.06992 8.47712 2.37209 8.66728L9.37325 13.0458L15.5589 6.79478C15.8984 6.45178 16.4526 6.44828 16.7968 6.78778C17.1409 7.12728 17.1433 7.68262 16.8038 8.02562L10.6064 14.2871ZM15.3781 23.2494C14.5661 23.2494 13.8218 22.8364 13.3831 22.1271L8.85992 14.7876L1.44459 10.1501C0.64542 9.64962 0.227754 8.75828 0.357254 7.82145C0.485587 6.88462 1.12842 6.14028 2.03142 5.87545L20.0634 0.595115C20.8929 0.352449 21.7819 0.582282 22.3933 1.19128C23.0046 1.80612 23.2321 2.70445 22.9848 3.53745L17.6496 21.5554C17.3824 22.4619 16.6358 23.1024 15.7013 23.2273C15.5916 23.2413 15.4854 23.2494 15.3781 23.2494Z" fill="white"/>
</svg>
