<svg width="40" height="42" viewBox="0 0 40 42" fill="none" xmlns="http://www.w3.org/2000/svg">
<mask id="mask0_2909_200097" style="mask-type:alpha" maskUnits="userSpaceOnUse" x="0" y="14" width="40" height="28">
<path fill-rule="evenodd" clip-rule="evenodd" d="M0.000976562 14.0859H40.0002V41.5739H0.000976562V14.0859Z" fill="white"/>
</mask>
<g mask="url(#mask0_2909_200097)">
<path fill-rule="evenodd" clip-rule="evenodd" d="M31.131 41.5739H8.87098C3.98098 41.5739 0.000976562 37.5959 0.000976562 32.7039V22.9539C0.000976562 18.0639 3.98098 14.0859 8.87098 14.0859H10.737C11.565 14.0859 12.237 14.7579 12.237 15.5859C12.237 16.4139 11.565 17.0859 10.737 17.0859H8.87098C5.63298 17.0859 3.00098 19.7179 3.00098 22.9539V32.7039C3.00098 35.9419 5.63298 38.5739 8.87098 38.5739H31.131C34.367 38.5739 37.001 35.9419 37.001 32.7039V22.9359C37.001 19.7099 34.377 17.0859 31.153 17.0859H29.267C28.439 17.0859 27.767 16.4139 27.767 15.5859C27.767 14.7579 28.439 14.0859 29.267 14.0859H31.153C36.031 14.0859 40.001 18.0559 40.001 22.9359V32.7039C40.001 37.5959 36.021 41.5739 31.131 41.5739Z" fill="#9C9C9C"/>
</g>
<mask id="mask1_2909_200097" style="mask-type:alpha" maskUnits="userSpaceOnUse" x="18" y="0" width="4" height="28">
<path fill-rule="evenodd" clip-rule="evenodd" d="M18.5 0.5H21.5V27.5818H18.5V0.5Z" fill="white"/>
</mask>
<g mask="url(#mask1_2909_200097)">
<path fill-rule="evenodd" clip-rule="evenodd" d="M20 27.582C19.172 27.582 18.5 26.91 18.5 26.082V2C18.5 1.172 19.172 0.5 20 0.5C20.828 0.5 21.5 1.172 21.5 2V26.082C21.5 26.91 20.828 27.582 20 27.582Z" fill="#9C9C9C"/>
</g>
<path fill-rule="evenodd" clip-rule="evenodd" d="M14.1704 9.35413C13.7884 9.35413 13.4044 9.20813 13.1124 8.91613C12.5264 8.33213 12.5224 7.38412 13.1084 6.79612L18.9384 0.940125C19.5004 0.374125 20.5004 0.374125 21.0624 0.940125L26.8944 6.79612C27.4784 7.38412 27.4764 8.33213 26.8904 8.91613C26.3024 9.50012 25.3544 9.50012 24.7704 8.91212L20.0004 4.12413L15.2324 8.91212C14.9404 9.20812 14.5544 9.35413 14.1704 9.35413Z" fill="#9C9C9C"/>
</svg>
