<svg width="24" height="24" viewBox="0 0 24 24" fill="none" xmlns="http://www.w3.org/2000/svg">
<mask id="mask0_2638_214066" style="mask-type:alpha" maskUnits="userSpaceOnUse" x="0" y="0" width="24" height="24">
<path fill-rule="evenodd" clip-rule="evenodd" d="M0.333496 0.5H23.0823V23.2488H0.333496V0.5Z" fill="white"/>
</mask>
<g mask="url(#mask0_2638_214066)">
<path fill-rule="evenodd" clip-rule="evenodd" d="M10.6059 14.2871L14.8724 21.2089C15.0591 21.5123 15.3508 21.5088 15.4686 21.4924C15.5864 21.4761 15.8699 21.4038 15.9726 21.0596L21.3078 3.04045C21.4011 2.72195 21.2296 2.50495 21.1526 2.42795C21.0779 2.35095 20.8644 2.18645 20.5553 2.27395L2.52327 7.55428C2.18143 7.65461 2.10677 7.94162 2.09043 8.05945C2.0741 8.17962 2.06943 8.47712 2.3716 8.66728L9.37277 13.0458L15.5584 6.79478C15.8979 6.45178 16.4521 6.44828 16.7963 6.78778C17.1404 7.12728 17.1428 7.68262 16.8033 8.02562L10.6059 14.2871ZM15.3776 23.2494C14.5656 23.2494 13.8213 22.8364 13.3826 22.1271L8.85943 14.7876L1.4441 10.1501C0.644932 9.64962 0.227265 8.75828 0.356765 7.82145C0.485099 6.88462 1.12793 6.14028 2.03093 5.87545L20.0629 0.595115C20.8924 0.352449 21.7814 0.582282 22.3928 1.19128C23.0041 1.80612 23.2316 2.70445 22.9843 3.53745L17.6491 21.5554C17.3819 22.4619 16.6353 23.1024 15.7008 23.2273C15.5911 23.2413 15.4849 23.2494 15.3776 23.2494Z" fill="white"/>
</g>
</svg>
