<svg width="127" height="48" viewBox="0 0 127 48" fill="none" xmlns="http://www.w3.org/2000/svg">
<path fill-rule="evenodd" clip-rule="evenodd" d="M36.001 28.541C35.587 28.541 35.251 28.205 35.251 27.791V15.75C35.251 15.336 35.587 15 36.001 15C36.415 15 36.751 15.336 36.751 15.75V27.791C36.751 28.205 36.415 28.541 36.001 28.541Z" fill="#808080"/>
<path fill-rule="evenodd" clip-rule="evenodd" d="M36.0003 28.541C35.8013 28.541 35.6093 28.462 35.4693 28.32L32.5533 25.393C32.2613 25.099 32.2623 24.624 32.5553 24.332C32.8493 24.04 33.3233 24.04 33.6153 24.334L36.0003 26.729L38.3853 24.334C38.6773 24.04 39.1513 24.04 39.4453 24.332C39.7383 24.624 39.7393 25.099 39.4473 25.393L36.5313 28.32C36.3913 28.462 36.1993 28.541 36.0003 28.541Z" fill="#808080"/>
<mask id="mask0_2181_39696" style="mask-type:alpha" maskUnits="userSpaceOnUse" x="26" y="19" width="20" height="15">
<path fill-rule="evenodd" clip-rule="evenodd" d="M26 19.7344H45.9998V33.4784H26V19.7344Z" fill="white"/>
</mask>
<g mask="url(#mask0_2181_39696)">
<path fill-rule="evenodd" clip-rule="evenodd" d="M41.575 33.4784H30.435C27.99 33.4784 26 31.4894 26 29.0434V24.1584C26 21.7184 27.985 19.7344 30.426 19.7344H31.367C31.781 19.7344 32.117 20.0704 32.117 20.4844C32.117 20.8984 31.781 21.2344 31.367 21.2344H30.426C28.812 21.2344 27.5 22.5454 27.5 24.1584V29.0434C27.5 30.6624 28.816 31.9784 30.435 31.9784H41.575C43.187 31.9784 44.5 30.6654 44.5 29.0534V24.1694C44.5 22.5504 43.183 21.2344 41.566 21.2344H40.634C40.22 21.2344 39.884 20.8984 39.884 20.4844C39.884 20.0704 40.22 19.7344 40.634 19.7344H41.566C44.011 19.7344 46 21.7244 46 24.1694V29.0534C46 31.4934 44.014 33.4784 41.575 33.4784Z" fill="#808080"/>
</g>
<path d="M64.6016 27.4453V29H58.5625V27.4453H64.6016ZM59.1172 17.625V29H57.1562V17.625H59.1172ZM63.8125 22.375V23.9062H58.5625V22.375H63.8125ZM64.5625 17.625V19.1875H58.5625V17.625H64.5625ZM67.4531 20.5469L69.0625 23.3516L70.7031 20.5469H72.7734L70.2109 24.6953L72.875 29H70.8047L69.0859 26.0781L67.3672 29H65.2891L67.9453 24.6953L65.3906 20.5469H67.4531ZM75.9531 22.1719V32.25H74.0703V20.5469H75.8047L75.9531 22.1719ZM81.4609 24.6953V24.8594C81.4609 25.474 81.388 26.0443 81.2422 26.5703C81.1016 27.0911 80.8906 27.5469 80.6094 27.9375C80.3333 28.3229 79.9922 28.6224 79.5859 28.8359C79.1797 29.0495 78.7109 29.1562 78.1797 29.1562C77.6536 29.1562 77.1927 29.0599 76.7969 28.8672C76.4062 28.6693 76.0755 28.3906 75.8047 28.0312C75.5339 27.6719 75.3151 27.25 75.1484 26.7656C74.987 26.276 74.8724 25.7396 74.8047 25.1562V24.5234C74.8724 23.9036 74.987 23.3411 75.1484 22.8359C75.3151 22.3307 75.5339 21.8958 75.8047 21.5312C76.0755 21.1667 76.4062 20.8854 76.7969 20.6875C77.1875 20.4896 77.6432 20.3906 78.1641 20.3906C78.6953 20.3906 79.1667 20.4948 79.5781 20.7031C79.9896 20.9062 80.3359 21.1979 80.6172 21.5781C80.8984 21.9531 81.1094 22.4062 81.25 22.9375C81.3906 23.4635 81.4609 24.0495 81.4609 24.6953ZM79.5781 24.8594V24.6953C79.5781 24.3047 79.5417 23.9427 79.4688 23.6094C79.3958 23.2708 79.2812 22.974 79.125 22.7188C78.9688 22.4635 78.7682 22.2656 78.5234 22.125C78.2839 21.9792 77.9948 21.9062 77.6562 21.9062C77.3229 21.9062 77.0365 21.9635 76.7969 22.0781C76.5573 22.1875 76.3568 22.3411 76.1953 22.5391C76.0339 22.737 75.9089 22.9688 75.8203 23.2344C75.7318 23.4948 75.6693 23.7786 75.6328 24.0859V25.6016C75.6953 25.9766 75.8021 26.3203 75.9531 26.6328C76.1042 26.9453 76.3177 27.1953 76.5938 27.3828C76.875 27.5651 77.2344 27.6562 77.6719 27.6562C78.0104 27.6562 78.2995 27.5833 78.5391 27.4375C78.7786 27.2917 78.974 27.0911 79.125 26.8359C79.2812 26.5755 79.3958 26.276 79.4688 25.9375C79.5417 25.599 79.5781 25.2396 79.5781 24.8594ZM82.7031 24.8672V24.6875C82.7031 24.0781 82.7917 23.513 82.9688 22.9922C83.1458 22.4661 83.401 22.0104 83.7344 21.625C84.0729 21.2344 84.4844 20.9323 84.9688 20.7188C85.4583 20.5 86.0104 20.3906 86.625 20.3906C87.2448 20.3906 87.7969 20.5 88.2812 20.7188C88.7708 20.9323 89.1849 21.2344 89.5234 21.625C89.862 22.0104 90.1198 22.4661 90.2969 22.9922C90.474 23.513 90.5625 24.0781 90.5625 24.6875V24.8672C90.5625 25.4766 90.474 26.0417 90.2969 26.5625C90.1198 27.0833 89.862 27.5391 89.5234 27.9297C89.1849 28.3151 88.7734 28.6172 88.2891 28.8359C87.8047 29.0495 87.2552 29.1562 86.6406 29.1562C86.0208 29.1562 85.4661 29.0495 84.9766 28.8359C84.4922 28.6172 84.0807 28.3151 83.7422 27.9297C83.4036 27.5391 83.1458 27.0833 82.9688 26.5625C82.7917 26.0417 82.7031 25.4766 82.7031 24.8672ZM84.5859 24.6875V24.8672C84.5859 25.2474 84.625 25.6068 84.7031 25.9453C84.7812 26.2839 84.9036 26.5807 85.0703 26.8359C85.237 27.0911 85.4505 27.2917 85.7109 27.4375C85.9714 27.5833 86.2812 27.6562 86.6406 27.6562C86.9896 27.6562 87.2917 27.5833 87.5469 27.4375C87.8073 27.2917 88.0208 27.0911 88.1875 26.8359C88.3542 26.5807 88.4766 26.2839 88.5547 25.9453C88.638 25.6068 88.6797 25.2474 88.6797 24.8672V24.6875C88.6797 24.3125 88.638 23.9583 88.5547 23.625C88.4766 23.2865 88.3516 22.987 88.1797 22.7266C88.013 22.4661 87.7995 22.263 87.5391 22.1172C87.2839 21.9661 86.9792 21.8906 86.625 21.8906C86.2708 21.8906 85.9635 21.9661 85.7031 22.1172C85.4479 22.263 85.237 22.4661 85.0703 22.7266C84.9036 22.987 84.7812 23.2865 84.7031 23.625C84.625 23.9583 84.5859 24.3125 84.5859 24.6875ZM94.0312 22.1562V29H92.1484V20.5469H93.9453L94.0312 22.1562ZM96.6172 20.4922L96.6016 22.2422C96.487 22.2214 96.362 22.2057 96.2266 22.1953C96.0964 22.1849 95.9661 22.1797 95.8359 22.1797C95.513 22.1797 95.2292 22.2266 94.9844 22.3203C94.7396 22.4089 94.5339 22.5391 94.3672 22.7109C94.2057 22.8776 94.0807 23.0807 93.9922 23.3203C93.9036 23.5599 93.8516 23.8281 93.8359 24.125L93.4062 24.1562C93.4062 23.625 93.4583 23.1328 93.5625 22.6797C93.6667 22.2266 93.8229 21.8281 94.0312 21.4844C94.2448 21.1406 94.5104 20.8724 94.8281 20.6797C95.151 20.487 95.5234 20.3906 95.9453 20.3906C96.0599 20.3906 96.1823 20.401 96.3125 20.4219C96.4479 20.4427 96.5495 20.4661 96.6172 20.4922ZM102.062 20.5469V21.9219H97.2969V20.5469H102.062ZM98.6719 18.4766H100.555V26.6641C100.555 26.9245 100.591 27.125 100.664 27.2656C100.742 27.401 100.849 27.4922 100.984 27.5391C101.12 27.5859 101.279 27.6094 101.461 27.6094C101.591 27.6094 101.716 27.6016 101.836 27.5859C101.956 27.5703 102.052 27.5547 102.125 27.5391L102.133 28.9766C101.977 29.0234 101.794 29.0651 101.586 29.1016C101.383 29.138 101.148 29.1562 100.883 29.1562C100.451 29.1562 100.068 29.0807 99.7344 28.9297C99.401 28.7734 99.1406 28.5208 98.9531 28.1719C98.7656 27.8229 98.6719 27.3594 98.6719 26.7812V18.4766Z" fill="#808080"/>
<path d="M6 2H121V-2H6V2ZM125 6V42H129V6H125ZM121 46H6V50H121V46ZM2 42V6H-2V42H2ZM6 46C3.79086 46 2 44.2091 2 42H-2C-2 46.4183 1.58172 50 6 50V46ZM125 42C125 44.2091 123.209 46 121 46V50C125.418 50 129 46.4183 129 42H125ZM121 2C123.209 2 125 3.79086 125 6H129C129 1.58172 125.418 -2 121 -2V2ZM6 -2C1.58172 -2 -2 1.58172 -2 6H2C2 3.79086 3.79086 2 6 2V-2Z" fill="#808080"/>
</svg>
