<svg width="117" height="48" viewBox="0 0 117 48" fill="none" xmlns="http://www.w3.org/2000/svg">
<path d="M0 6C0 2.68629 2.68629 0 6 0H111C114.314 0 117 2.68629 117 6V42C117 45.3137 114.314 48 111 48H6C2.68629 48 0 45.3137 0 42V6Z" fill="white"/>
<mask id="mask0_2181_80615" style="mask-type:alpha" maskUnits="userSpaceOnUse" x="26" y="14" width="20" height="20">
<path fill-rule="evenodd" clip-rule="evenodd" d="M26 14H45.4996V33.5007H26V14Z" fill="white"/>
</mask>
<g mask="url(#mask0_2181_80615)">
<path fill-rule="evenodd" clip-rule="evenodd" d="M32.773 23.599C32.791 23.615 32.808 23.63 32.825 23.648C33.904 24.754 34.499 26.219 34.499 27.774V31.758L36.735 30.54C36.911 30.444 37.02 30.256 37.02 30.049V27.762C37.02 26.213 37.609 24.753 38.678 23.653L43.515 18.508C43.828 18.175 44 17.738 44 17.277V16.341C44 15.877 43.634 15.5 43.186 15.5H28.315C27.866 15.5 27.5 15.877 27.5 16.341V17.277C27.5 17.738 27.672 18.175 27.985 18.507L32.773 23.599ZM34.146 33.501C33.944 33.501 33.744 33.447 33.562 33.339C33.21 33.129 32.999 32.758 32.999 32.346V27.774C32.999 26.639 32.576 25.57 31.805 24.751C31.782 24.732 31.759 24.711 31.739 24.689L26.893 19.536C26.317 18.924 26 18.121 26 17.277V16.341C26 15.05 27.039 14 28.315 14H43.186C44.461 14 45.5 15.05 45.5 16.341V17.277C45.5 18.12 45.183 18.922 44.609 19.535L39.762 24.689C38.959 25.517 38.52 26.606 38.52 27.762V30.049C38.52 30.805 38.111 31.497 37.453 31.857L34.692 33.361C34.52 33.454 34.333 33.501 34.146 33.501V33.501Z" fill="#0C1096"/>
</g>
<path d="M59.1172 17.625V29H57.1562V17.625H59.1172ZM63.7578 22.6016V24.1562H58.6172V22.6016H63.7578ZM64.4062 17.625V19.1875H58.6172V17.625H64.4062ZM67.7969 20.5469V29H65.9062V20.5469H67.7969ZM65.7812 18.3281C65.7812 18.0417 65.875 17.8047 66.0625 17.6172C66.2552 17.4245 66.5208 17.3281 66.8594 17.3281C67.1927 17.3281 67.4557 17.4245 67.6484 17.6172C67.8411 17.8047 67.9375 18.0417 67.9375 18.3281C67.9375 18.6094 67.8411 18.8438 67.6484 19.0312C67.4557 19.2188 67.1927 19.3125 66.8594 19.3125C66.5208 19.3125 66.2552 19.2188 66.0625 19.0312C65.875 18.8438 65.7812 18.6094 65.7812 18.3281ZM71.875 17V29H69.9844V17H71.875ZM77.8125 20.5469V21.9219H73.0469V20.5469H77.8125ZM74.4219 18.4766H76.3047V26.6641C76.3047 26.9245 76.3411 27.125 76.4141 27.2656C76.4922 27.401 76.599 27.4922 76.7344 27.5391C76.8698 27.5859 77.0286 27.6094 77.2109 27.6094C77.3411 27.6094 77.4661 27.6016 77.5859 27.5859C77.7057 27.5703 77.8021 27.5547 77.875 27.5391L77.8828 28.9766C77.7266 29.0234 77.5443 29.0651 77.3359 29.1016C77.1328 29.138 76.8984 29.1562 76.6328 29.1562C76.2005 29.1562 75.8177 29.0807 75.4844 28.9297C75.151 28.7734 74.8906 28.5208 74.7031 28.1719C74.5156 27.8229 74.4219 27.3594 74.4219 26.7812V18.4766ZM82.9922 29.1562C82.3672 29.1562 81.8021 29.0547 81.2969 28.8516C80.7969 28.6432 80.3698 28.3542 80.0156 27.9844C79.6667 27.6146 79.3984 27.1797 79.2109 26.6797C79.0234 26.1797 78.9297 25.6406 78.9297 25.0625V24.75C78.9297 24.0885 79.026 23.4896 79.2188 22.9531C79.4115 22.4167 79.6797 21.9583 80.0234 21.5781C80.3672 21.1927 80.7734 20.8984 81.2422 20.6953C81.7109 20.4922 82.2188 20.3906 82.7656 20.3906C83.3698 20.3906 83.8984 20.4922 84.3516 20.6953C84.8047 20.8984 85.1797 21.1849 85.4766 21.5547C85.7786 21.9193 86.0026 22.3542 86.1484 22.8594C86.2995 23.3646 86.375 23.9219 86.375 24.5312V25.3359H79.8438V23.9844H84.5156V23.8359C84.5052 23.4974 84.4375 23.1797 84.3125 22.8828C84.1927 22.5859 84.0078 22.3464 83.7578 22.1641C83.5078 21.9818 83.1745 21.8906 82.7578 21.8906C82.4453 21.8906 82.1667 21.9583 81.9219 22.0938C81.6823 22.224 81.4818 22.4141 81.3203 22.6641C81.1589 22.9141 81.0339 23.2161 80.9453 23.5703C80.862 23.9193 80.8203 24.3125 80.8203 24.75V25.0625C80.8203 25.4323 80.8698 25.776 80.9688 26.0938C81.0729 26.4062 81.224 26.6797 81.4219 26.9141C81.6198 27.1484 81.8594 27.3333 82.1406 27.4688C82.4219 27.599 82.7422 27.6641 83.1016 27.6641C83.5547 27.6641 83.9583 27.5729 84.3125 27.3906C84.6667 27.2083 84.974 26.9505 85.2344 26.6172L86.2266 27.5781C86.0443 27.8438 85.8073 28.099 85.5156 28.3438C85.224 28.5833 84.8672 28.7786 84.4453 28.9297C84.0286 29.0807 83.5443 29.1562 82.9922 29.1562ZM89.7344 22.1562V29H87.8516V20.5469H89.6484L89.7344 22.1562ZM92.3203 20.4922L92.3047 22.2422C92.1901 22.2214 92.0651 22.2057 91.9297 22.1953C91.7995 22.1849 91.6693 22.1797 91.5391 22.1797C91.2161 22.1797 90.9323 22.2266 90.6875 22.3203C90.4427 22.4089 90.237 22.5391 90.0703 22.7109C89.9089 22.8776 89.7839 23.0807 89.6953 23.3203C89.6068 23.5599 89.5547 23.8281 89.5391 24.125L89.1094 24.1562C89.1094 23.625 89.1615 23.1328 89.2656 22.6797C89.3698 22.2266 89.526 21.8281 89.7344 21.4844C89.9479 21.1406 90.2135 20.8724 90.5312 20.6797C90.8542 20.487 91.2266 20.3906 91.6484 20.3906C91.763 20.3906 91.8854 20.401 92.0156 20.4219C92.151 20.4427 92.2526 20.4661 92.3203 20.4922Z" fill="#0C1096"/>
</svg>
