<svg width="164" height="48" viewBox="0 0 164 48" fill="none" xmlns="http://www.w3.org/2000/svg">
<path d="M0 6C0 2.68629 2.68629 0 6 0H158C161.314 0 164 2.68629 164 6V42C164 45.3137 161.314 48 158 48H6C2.6863 48 0 45.3137 0 42V6Z" fill="#0C1096"/>
<mask id="mask0_2181_80648" style="mask-type:alpha" maskUnits="userSpaceOnUse" x="29" y="17" width="14" height="14">
<path d="M42 25H37V30C37 30.55 36.55 31 36 31C35.45 31 35 30.55 35 30V25H30C29.45 25 29 24.55 29 24C29 23.45 29.45 23 30 23H35V18C35 17.45 35.45 17 36 17C36.55 17 37 17.45 37 18V23H42C42.55 23 43 23.45 43 24C43 24.55 42.55 25 42 25Z" fill="black"/>
</mask>
<g mask="url(#mask0_2181_80648)">
<rect x="24" y="12" width="24" height="24" fill="white"/>
</g>
<path d="M61.5859 19.1406L58.1875 29H56.1328L60.4141 17.625H61.7266L61.5859 19.1406ZM64.4297 29L61.0234 19.1406L60.875 17.625H62.1953L66.4922 29H64.4297ZM64.2656 24.7812V26.3359H58.0781V24.7812H64.2656ZM72.7344 27.25V17H74.625V29H72.9141L72.7344 27.25ZM67.2344 24.8672V24.7031C67.2344 24.0625 67.3099 23.4792 67.4609 22.9531C67.612 22.4219 67.8307 21.9661 68.1172 21.5859C68.4036 21.2005 68.7526 20.9062 69.1641 20.7031C69.5755 20.4948 70.0391 20.3906 70.5547 20.3906C71.0651 20.3906 71.513 20.4896 71.8984 20.6875C72.2839 20.8854 72.612 21.1693 72.8828 21.5391C73.1536 21.9036 73.3698 22.3411 73.5312 22.8516C73.6927 23.3568 73.8073 23.9193 73.875 24.5391V25.0625C73.8073 25.6667 73.6927 26.2188 73.5312 26.7188C73.3698 27.2188 73.1536 27.651 72.8828 28.0156C72.612 28.3802 72.2812 28.6615 71.8906 28.8594C71.5052 29.0573 71.0547 29.1562 70.5391 29.1562C70.0286 29.1562 69.5677 29.0495 69.1562 28.8359C68.75 28.6224 68.4036 28.3229 68.1172 27.9375C67.8307 27.5521 67.612 27.099 67.4609 26.5781C67.3099 26.0521 67.2344 25.4818 67.2344 24.8672ZM69.1172 24.7031V24.8672C69.1172 25.2526 69.151 25.612 69.2188 25.9453C69.2917 26.2786 69.4036 26.5729 69.5547 26.8281C69.7057 27.0781 69.901 27.276 70.1406 27.4219C70.3854 27.5625 70.6771 27.6328 71.0156 27.6328C71.4427 27.6328 71.7943 27.5391 72.0703 27.3516C72.3464 27.1641 72.5625 26.9115 72.7188 26.5938C72.8802 26.2708 72.9896 25.9115 73.0469 25.5156V24.1016C73.0156 23.7943 72.9505 23.5078 72.8516 23.2422C72.7578 22.9766 72.6302 22.7448 72.4688 22.5469C72.3073 22.3438 72.1068 22.1875 71.8672 22.0781C71.6328 21.9635 71.3542 21.9062 71.0312 21.9062C70.6875 21.9062 70.3958 21.9792 70.1562 22.125C69.9167 22.2708 69.7188 22.4714 69.5625 22.7266C69.4115 22.9818 69.2995 23.2786 69.2266 23.6172C69.1536 23.9557 69.1172 24.3177 69.1172 24.7031ZM81.75 27.25V17H83.6406V29H81.9297L81.75 27.25ZM76.25 24.8672V24.7031C76.25 24.0625 76.3255 23.4792 76.4766 22.9531C76.6276 22.4219 76.8464 21.9661 77.1328 21.5859C77.4193 21.2005 77.7682 20.9062 78.1797 20.7031C78.5911 20.4948 79.0547 20.3906 79.5703 20.3906C80.0807 20.3906 80.5286 20.4896 80.9141 20.6875C81.2995 20.8854 81.6276 21.1693 81.8984 21.5391C82.1693 21.9036 82.3854 22.3411 82.5469 22.8516C82.7083 23.3568 82.8229 23.9193 82.8906 24.5391V25.0625C82.8229 25.6667 82.7083 26.2188 82.5469 26.7188C82.3854 27.2188 82.1693 27.651 81.8984 28.0156C81.6276 28.3802 81.2969 28.6615 80.9062 28.8594C80.5208 29.0573 80.0703 29.1562 79.5547 29.1562C79.0443 29.1562 78.5833 29.0495 78.1719 28.8359C77.7656 28.6224 77.4193 28.3229 77.1328 27.9375C76.8464 27.5521 76.6276 27.099 76.4766 26.5781C76.3255 26.0521 76.25 25.4818 76.25 24.8672ZM78.1328 24.7031V24.8672C78.1328 25.2526 78.1667 25.612 78.2344 25.9453C78.3073 26.2786 78.4193 26.5729 78.5703 26.8281C78.7214 27.0781 78.9167 27.276 79.1562 27.4219C79.401 27.5625 79.6927 27.6328 80.0312 27.6328C80.4583 27.6328 80.8099 27.5391 81.0859 27.3516C81.362 27.1641 81.5781 26.9115 81.7344 26.5938C81.8958 26.2708 82.0052 25.9115 82.0625 25.5156V24.1016C82.0312 23.7943 81.9661 23.5078 81.8672 23.2422C81.7734 22.9766 81.6458 22.7448 81.4844 22.5469C81.3229 22.3438 81.1224 22.1875 80.8828 22.0781C80.6484 21.9635 80.3698 21.9062 80.0469 21.9062C79.7031 21.9062 79.4115 21.9792 79.1719 22.125C78.9323 22.2708 78.7344 22.4714 78.5781 22.7266C78.4271 22.9818 78.3151 23.2786 78.2422 23.6172C78.1693 23.9557 78.1328 24.3177 78.1328 24.7031ZM98.8516 23V23.625C98.8516 24.4844 98.7396 25.2552 98.5156 25.9375C98.2917 26.6198 97.9714 27.2005 97.5547 27.6797C97.1432 28.1589 96.6484 28.526 96.0703 28.7812C95.4922 29.0312 94.8516 29.1562 94.1484 29.1562C93.4505 29.1562 92.8125 29.0312 92.2344 28.7812C91.6615 28.526 91.1641 28.1589 90.7422 27.6797C90.3203 27.2005 89.9922 26.6198 89.7578 25.9375C89.5286 25.2552 89.4141 24.4844 89.4141 23.625V23C89.4141 22.1406 89.5286 21.3724 89.7578 20.6953C89.987 20.013 90.3099 19.4323 90.7266 18.9531C91.1484 18.4688 91.6458 18.1016 92.2188 17.8516C92.7969 17.5964 93.4349 17.4688 94.1328 17.4688C94.8359 17.4688 95.4766 17.5964 96.0547 17.8516C96.6328 18.1016 97.1302 18.4688 97.5469 18.9531C97.9635 19.4323 98.2839 20.013 98.5078 20.6953C98.737 21.3724 98.8516 22.1406 98.8516 23ZM96.8906 23.625V22.9844C96.8906 22.349 96.8281 21.7891 96.7031 21.3047C96.5833 20.8151 96.4036 20.4062 96.1641 20.0781C95.9297 19.7448 95.6406 19.4948 95.2969 19.3281C94.9531 19.1562 94.5651 19.0703 94.1328 19.0703C93.7005 19.0703 93.3151 19.1562 92.9766 19.3281C92.638 19.4948 92.349 19.7448 92.1094 20.0781C91.875 20.4062 91.6953 20.8151 91.5703 21.3047C91.4453 21.7891 91.3828 22.349 91.3828 22.9844V23.625C91.3828 24.2604 91.4453 24.8229 91.5703 25.3125C91.6953 25.8021 91.8776 26.2161 92.1172 26.5547C92.362 26.888 92.6536 27.1406 92.9922 27.3125C93.3307 27.4792 93.7161 27.5625 94.1484 27.5625C94.5859 27.5625 94.974 27.4792 95.3125 27.3125C95.651 27.1406 95.9375 26.888 96.1719 26.5547C96.4062 26.2161 96.5833 25.8021 96.7031 25.3125C96.8281 24.8229 96.8906 24.2604 96.8906 23.625ZM103.172 29H101.289V19.7344C101.289 19.1042 101.406 18.5755 101.641 18.1484C101.88 17.7161 102.221 17.3906 102.664 17.1719C103.107 16.9479 103.63 16.8359 104.234 16.8359C104.422 16.8359 104.607 16.849 104.789 16.875C104.971 16.8958 105.148 16.9297 105.32 16.9766L105.273 18.4297C105.169 18.4036 105.055 18.3854 104.93 18.375C104.81 18.3646 104.68 18.3594 104.539 18.3594C104.253 18.3594 104.005 18.4141 103.797 18.5234C103.594 18.6276 103.438 18.7812 103.328 18.9844C103.224 19.1875 103.172 19.4375 103.172 19.7344V29ZM104.961 20.5469V21.9219H99.9922V20.5469H104.961ZM108.016 29H106.133V20C106.133 19.3177 106.268 18.7422 106.539 18.2734C106.81 17.8047 107.201 17.4479 107.711 17.2031C108.227 16.9583 108.839 16.8359 109.547 16.8359C109.964 16.8359 110.367 16.8802 110.758 16.9688C111.148 17.0573 111.549 17.1693 111.961 17.3047L111.672 18.8359C111.411 18.7474 111.117 18.6641 110.789 18.5859C110.466 18.5026 110.096 18.4609 109.68 18.4609C109.112 18.4609 108.693 18.5911 108.422 18.8516C108.151 19.1068 108.016 19.4896 108.016 20V29ZM109.719 20.5469V21.9219H104.836V20.5469H109.719ZM112.859 20.5469V29H110.969V20.5469H112.859ZM118.391 27.6562C118.698 27.6562 118.974 27.5964 119.219 27.4766C119.469 27.3516 119.669 27.1797 119.82 26.9609C119.977 26.7422 120.062 26.4896 120.078 26.2031H121.852C121.841 26.75 121.68 27.2474 121.367 27.6953C121.055 28.1432 120.641 28.5 120.125 28.7656C119.609 29.026 119.039 29.1562 118.414 29.1562C117.768 29.1562 117.206 29.0469 116.727 28.8281C116.247 28.6042 115.849 28.2969 115.531 27.9062C115.214 27.5156 114.974 27.0651 114.812 26.5547C114.656 26.0443 114.578 25.4974 114.578 24.9141V24.6406C114.578 24.0573 114.656 23.5104 114.812 23C114.974 22.4844 115.214 22.0312 115.531 21.6406C115.849 21.25 116.247 20.9453 116.727 20.7266C117.206 20.5026 117.766 20.3906 118.406 20.3906C119.083 20.3906 119.677 20.526 120.188 20.7969C120.698 21.0625 121.099 21.4349 121.391 21.9141C121.688 22.388 121.841 22.9401 121.852 23.5703H120.078C120.062 23.2578 119.984 22.9766 119.844 22.7266C119.708 22.4714 119.516 22.2682 119.266 22.1172C119.021 21.9661 118.727 21.8906 118.383 21.8906C118.003 21.8906 117.688 21.9688 117.438 22.125C117.188 22.276 116.992 22.4844 116.852 22.75C116.711 23.0104 116.609 23.3047 116.547 23.6328C116.49 23.9557 116.461 24.2917 116.461 24.6406V24.9141C116.461 25.263 116.49 25.6016 116.547 25.9297C116.604 26.2578 116.703 26.5521 116.844 26.8125C116.99 27.0677 117.188 27.2734 117.438 27.4297C117.688 27.5807 118.005 27.6562 118.391 27.6562ZM125.312 20.5469V29H123.422V20.5469H125.312ZM123.297 18.3281C123.297 18.0417 123.391 17.8047 123.578 17.6172C123.771 17.4245 124.036 17.3281 124.375 17.3281C124.708 17.3281 124.971 17.4245 125.164 17.6172C125.357 17.8047 125.453 18.0417 125.453 18.3281C125.453 18.6094 125.357 18.8438 125.164 19.0312C124.971 19.2188 124.708 19.3125 124.375 19.3125C124.036 19.3125 123.771 19.2188 123.578 19.0312C123.391 18.8438 123.297 18.6094 123.297 18.3281ZM132.141 27.3047V23.2734C132.141 22.9714 132.086 22.7109 131.977 22.4922C131.867 22.2734 131.701 22.1042 131.477 21.9844C131.258 21.8646 130.982 21.8047 130.648 21.8047C130.341 21.8047 130.076 21.8568 129.852 21.9609C129.628 22.0651 129.453 22.2057 129.328 22.3828C129.203 22.5599 129.141 22.7604 129.141 22.9844H127.266C127.266 22.651 127.346 22.3281 127.508 22.0156C127.669 21.7031 127.904 21.4245 128.211 21.1797C128.518 20.9349 128.885 20.7422 129.312 20.6016C129.74 20.4609 130.219 20.3906 130.75 20.3906C131.385 20.3906 131.948 20.4974 132.438 20.7109C132.932 20.9245 133.32 21.2474 133.602 21.6797C133.888 22.1068 134.031 22.6432 134.031 23.2891V27.0469C134.031 27.4323 134.057 27.7786 134.109 28.0859C134.167 28.388 134.247 28.651 134.352 28.875V29H132.422C132.333 28.7969 132.263 28.5391 132.211 28.2266C132.164 27.9089 132.141 27.6016 132.141 27.3047ZM132.414 23.8594L132.43 25.0234H131.078C130.729 25.0234 130.422 25.0573 130.156 25.125C129.891 25.1875 129.669 25.2812 129.492 25.4062C129.315 25.5312 129.182 25.6823 129.094 25.8594C129.005 26.0365 128.961 26.237 128.961 26.4609C128.961 26.6849 129.013 26.8906 129.117 27.0781C129.221 27.2604 129.372 27.4036 129.57 27.5078C129.773 27.612 130.018 27.6641 130.305 27.6641C130.69 27.6641 131.026 27.5859 131.312 27.4297C131.604 27.2682 131.833 27.0729 132 26.8438C132.167 26.6094 132.255 26.388 132.266 26.1797L132.875 27.0156C132.812 27.2292 132.706 27.4583 132.555 27.7031C132.404 27.9479 132.206 28.1823 131.961 28.4062C131.721 28.625 131.432 28.8047 131.094 28.9453C130.76 29.0859 130.375 29.1562 129.938 29.1562C129.385 29.1562 128.893 29.0469 128.461 28.8281C128.029 28.6042 127.69 28.3047 127.445 27.9297C127.201 27.5495 127.078 27.1198 127.078 26.6406C127.078 26.1927 127.161 25.7969 127.328 25.4531C127.5 25.1042 127.75 24.8125 128.078 24.5781C128.411 24.3438 128.818 24.1667 129.297 24.0469C129.776 23.9219 130.323 23.8594 130.938 23.8594H132.414ZM138.016 17V29H136.125V17H138.016Z" fill="white"/>
</svg>
