<svg width="222" height="48" viewBox="0 0 222 48" fill="none" xmlns="http://www.w3.org/2000/svg">
<path d="M0 6C0 2.68629 2.68629 0 6 0H216C219.314 0 222 2.68629 222 6V42C222 45.3137 219.314 48 216 48H6C2.68629 48 0 45.3137 0 42V6Z" fill="#0C1096"/>
<path d="M42.875 17.0213C42.875 16.4852 43.0923 15.9711 43.4791 15.592C43.8659 15.213 44.3905 15 44.9375 15C45.4845 15 46.0091 15.213 46.3959 15.592C46.7827 15.9711 47 16.4852 47 17.0213V31.844C47 32.38 46.7827 32.8942 46.3959 33.2732C46.0091 33.6523 45.4845 33.8652 44.9375 33.8652C44.3905 33.8652 43.8659 33.6523 43.4791 33.2732C43.0923 32.8942 42.875 32.38 42.875 31.844V31.5556C39.9023 29.8833 36.7013 29.0721 33.371 28.7487L33.9279 32.4032C33.9653 32.5979 33.9584 32.7983 33.9078 32.9901C33.8571 33.1818 33.764 33.3603 33.6349 33.5128C33.5058 33.6653 33.344 33.788 33.1611 33.8722C32.9781 33.9564 32.7784 34.0001 32.5763 34H31.8228C31.5555 34 31.294 33.9236 31.0703 33.7803C30.8466 33.6369 30.6704 33.4328 30.5633 33.1928L28.0195 28.49C27.9269 28.4885 27.8343 28.4872 27.7418 28.486C27.0135 28.4789 26.3174 28.1909 25.8042 27.6845C25.2911 27.178 25.0021 26.4939 25 25.7801V23.0851C25.0025 22.3713 25.2909 21.687 25.8032 21.1797C26.3155 20.6723 27.0107 20.3824 27.739 20.3726C28.8775 20.3574 30.0157 20.3237 31.1531 20.2715C35.3372 20.064 39.6066 19.1274 42.875 17.3083V17.0213ZM44.25 17.0213V31.844C44.25 32.0227 44.3224 32.194 44.4514 32.3204C44.5803 32.4467 44.7552 32.5177 44.9375 32.5177C45.1198 32.5177 45.2947 32.4467 45.4236 32.3204C45.5526 32.194 45.625 32.0227 45.625 31.844V17.0213C45.625 16.8426 45.5526 16.6712 45.4236 16.5449C45.2947 16.4185 45.1198 16.3475 44.9375 16.3475C44.7552 16.3475 44.5803 16.4185 44.4514 16.5449C44.3224 16.6712 44.25 16.8426 44.25 17.0213ZM42.875 18.8404C39.652 20.4642 35.7126 21.3226 31.875 21.5799V27.284C32.1225 27.2974 32.3686 27.3136 32.6134 27.3325C36.1444 27.5872 39.6163 28.335 42.875 30.0181V18.8404ZM30.5 27.2152V21.65C29.5873 21.6827 28.6742 21.7061 27.761 21.7201C27.3936 21.7243 27.0425 21.8697 26.7833 22.125C26.5241 22.3802 26.3775 22.725 26.375 23.0851V25.7801C26.375 26.5213 26.991 27.1304 27.7582 27.1398C28.6725 27.1502 29.5866 27.1753 30.5 27.2152ZM29.5966 28.5291L31.809 32.6215L31.8228 32.6538H32.5763L32.5735 32.635L31.9644 28.6382C31.1756 28.5916 30.3863 28.5548 29.5966 28.5277V28.5291Z" fill="white"/>
<path d="M61.5859 19.1406L58.1875 29H56.1328L60.4141 17.625H61.7266L61.5859 19.1406ZM64.4297 29L61.0234 19.1406L60.875 17.625H62.1953L66.4922 29H64.4297ZM64.2656 24.7812V26.3359H58.0781V24.7812H64.2656ZM72.7344 27.25V17H74.625V29H72.9141L72.7344 27.25ZM67.2344 24.8672V24.7031C67.2344 24.0625 67.3099 23.4792 67.4609 22.9531C67.612 22.4219 67.8307 21.9661 68.1172 21.5859C68.4036 21.2005 68.7526 20.9062 69.1641 20.7031C69.5755 20.4948 70.0391 20.3906 70.5547 20.3906C71.0651 20.3906 71.513 20.4896 71.8984 20.6875C72.2839 20.8854 72.612 21.1693 72.8828 21.5391C73.1536 21.9036 73.3698 22.3411 73.5312 22.8516C73.6927 23.3568 73.8073 23.9193 73.875 24.5391V25.0625C73.8073 25.6667 73.6927 26.2188 73.5312 26.7188C73.3698 27.2188 73.1536 27.651 72.8828 28.0156C72.612 28.3802 72.2812 28.6615 71.8906 28.8594C71.5052 29.0573 71.0547 29.1562 70.5391 29.1562C70.0286 29.1562 69.5677 29.0495 69.1562 28.8359C68.75 28.6224 68.4036 28.3229 68.1172 27.9375C67.8307 27.5521 67.612 27.099 67.4609 26.5781C67.3099 26.0521 67.2344 25.4818 67.2344 24.8672ZM69.1172 24.7031V24.8672C69.1172 25.2526 69.151 25.612 69.2188 25.9453C69.2917 26.2786 69.4036 26.5729 69.5547 26.8281C69.7057 27.0781 69.901 27.276 70.1406 27.4219C70.3854 27.5625 70.6771 27.6328 71.0156 27.6328C71.4427 27.6328 71.7943 27.5391 72.0703 27.3516C72.3464 27.1641 72.5625 26.9115 72.7188 26.5938C72.8802 26.2708 72.9896 25.9115 73.0469 25.5156V24.1016C73.0156 23.7943 72.9505 23.5078 72.8516 23.2422C72.7578 22.9766 72.6302 22.7448 72.4688 22.5469C72.3073 22.3438 72.1068 22.1875 71.8672 22.0781C71.6328 21.9635 71.3542 21.9062 71.0312 21.9062C70.6875 21.9062 70.3958 21.9792 70.1562 22.125C69.9167 22.2708 69.7188 22.4714 69.5625 22.7266C69.4115 22.9818 69.2995 23.2786 69.2266 23.6172C69.1536 23.9557 69.1172 24.3177 69.1172 24.7031ZM81.75 27.25V17H83.6406V29H81.9297L81.75 27.25ZM76.25 24.8672V24.7031C76.25 24.0625 76.3255 23.4792 76.4766 22.9531C76.6276 22.4219 76.8464 21.9661 77.1328 21.5859C77.4193 21.2005 77.7682 20.9062 78.1797 20.7031C78.5911 20.4948 79.0547 20.3906 79.5703 20.3906C80.0807 20.3906 80.5286 20.4896 80.9141 20.6875C81.2995 20.8854 81.6276 21.1693 81.8984 21.5391C82.1693 21.9036 82.3854 22.3411 82.5469 22.8516C82.7083 23.3568 82.8229 23.9193 82.8906 24.5391V25.0625C82.8229 25.6667 82.7083 26.2188 82.5469 26.7188C82.3854 27.2188 82.1693 27.651 81.8984 28.0156C81.6276 28.3802 81.2969 28.6615 80.9062 28.8594C80.5208 29.0573 80.0703 29.1562 79.5547 29.1562C79.0443 29.1562 78.5833 29.0495 78.1719 28.8359C77.7656 28.6224 77.4193 28.3229 77.1328 27.9375C76.8464 27.5521 76.6276 27.099 76.4766 26.5781C76.3255 26.0521 76.25 25.4818 76.25 24.8672ZM78.1328 24.7031V24.8672C78.1328 25.2526 78.1667 25.612 78.2344 25.9453C78.3073 26.2786 78.4193 26.5729 78.5703 26.8281C78.7214 27.0781 78.9167 27.276 79.1562 27.4219C79.401 27.5625 79.6927 27.6328 80.0312 27.6328C80.4583 27.6328 80.8099 27.5391 81.0859 27.3516C81.362 27.1641 81.5781 26.9115 81.7344 26.5938C81.8958 26.2708 82.0052 25.9115 82.0625 25.5156V24.1016C82.0312 23.7943 81.9661 23.5078 81.8672 23.2422C81.7734 22.9766 81.6458 22.7448 81.4844 22.5469C81.3229 22.3438 81.1224 22.1875 80.8828 22.0781C80.6484 21.9635 80.3698 21.9062 80.0469 21.9062C79.7031 21.9062 79.4115 21.9792 79.1719 22.125C78.9323 22.2708 78.7344 22.4714 78.5781 22.7266C78.4271 22.9818 78.3151 23.2786 78.2422 23.6172C78.1693 23.9557 78.1328 24.3177 78.1328 24.7031ZM94.2109 19.1406L90.8125 29H88.7578L93.0391 17.625H94.3516L94.2109 19.1406ZM97.0547 29L93.6484 19.1406L93.5 17.625H94.8203L99.1172 29H97.0547ZM96.8906 24.7812V26.3359H90.7031V24.7812H96.8906ZM101.93 22.3516V29H100.047V20.5469H101.82L101.93 22.3516ZM101.594 24.4609L100.984 24.4531C100.99 23.8542 101.073 23.3047 101.234 22.8047C101.401 22.3047 101.63 21.875 101.922 21.5156C102.219 21.1562 102.573 20.8802 102.984 20.6875C103.396 20.4896 103.854 20.3906 104.359 20.3906C104.766 20.3906 105.133 20.4479 105.461 20.5625C105.794 20.6719 106.078 20.8516 106.312 21.1016C106.552 21.3516 106.734 21.6771 106.859 22.0781C106.984 22.474 107.047 22.9609 107.047 23.5391V29H105.156V23.5312C105.156 23.125 105.096 22.8047 104.977 22.5703C104.862 22.3307 104.693 22.1615 104.469 22.0625C104.25 21.9583 103.977 21.9062 103.648 21.9062C103.326 21.9062 103.036 21.974 102.781 22.1094C102.526 22.2448 102.31 22.4297 102.133 22.6641C101.961 22.8984 101.828 23.1693 101.734 23.4766C101.641 23.7839 101.594 24.112 101.594 24.4609ZM110.836 22.3516V29H108.953V20.5469H110.727L110.836 22.3516ZM110.5 24.4609L109.891 24.4531C109.896 23.8542 109.979 23.3047 110.141 22.8047C110.307 22.3047 110.536 21.875 110.828 21.5156C111.125 21.1562 111.479 20.8802 111.891 20.6875C112.302 20.4896 112.76 20.3906 113.266 20.3906C113.672 20.3906 114.039 20.4479 114.367 20.5625C114.701 20.6719 114.984 20.8516 115.219 21.1016C115.458 21.3516 115.641 21.6771 115.766 22.0781C115.891 22.474 115.953 22.9609 115.953 23.5391V29H114.062V23.5312C114.062 23.125 114.003 22.8047 113.883 22.5703C113.768 22.3307 113.599 22.1615 113.375 22.0625C113.156 21.9583 112.883 21.9062 112.555 21.9062C112.232 21.9062 111.943 21.974 111.688 22.1094C111.432 22.2448 111.216 22.4297 111.039 22.6641C110.867 22.8984 110.734 23.1693 110.641 23.4766C110.547 23.7839 110.5 24.112 110.5 24.4609ZM117.516 24.8672V24.6875C117.516 24.0781 117.604 23.513 117.781 22.9922C117.958 22.4661 118.214 22.0104 118.547 21.625C118.885 21.2344 119.297 20.9323 119.781 20.7188C120.271 20.5 120.823 20.3906 121.438 20.3906C122.057 20.3906 122.609 20.5 123.094 20.7188C123.583 20.9323 123.997 21.2344 124.336 21.625C124.674 22.0104 124.932 22.4661 125.109 22.9922C125.286 23.513 125.375 24.0781 125.375 24.6875V24.8672C125.375 25.4766 125.286 26.0417 125.109 26.5625C124.932 27.0833 124.674 27.5391 124.336 27.9297C123.997 28.3151 123.586 28.6172 123.102 28.8359C122.617 29.0495 122.068 29.1562 121.453 29.1562C120.833 29.1562 120.279 29.0495 119.789 28.8359C119.305 28.6172 118.893 28.3151 118.555 27.9297C118.216 27.5391 117.958 27.0833 117.781 26.5625C117.604 26.0417 117.516 25.4766 117.516 24.8672ZM119.398 24.6875V24.8672C119.398 25.2474 119.438 25.6068 119.516 25.9453C119.594 26.2839 119.716 26.5807 119.883 26.8359C120.049 27.0911 120.263 27.2917 120.523 27.4375C120.784 27.5833 121.094 27.6562 121.453 27.6562C121.802 27.6562 122.104 27.5833 122.359 27.4375C122.62 27.2917 122.833 27.0911 123 26.8359C123.167 26.5807 123.289 26.2839 123.367 25.9453C123.451 25.6068 123.492 25.2474 123.492 24.8672V24.6875C123.492 24.3125 123.451 23.9583 123.367 23.625C123.289 23.2865 123.164 22.987 122.992 22.7266C122.826 22.4661 122.612 22.263 122.352 22.1172C122.096 21.9661 121.792 21.8906 121.438 21.8906C121.083 21.8906 120.776 21.9661 120.516 22.1172C120.26 22.263 120.049 22.4661 119.883 22.7266C119.716 22.987 119.594 23.2865 119.516 23.625C119.438 23.9583 119.398 24.3125 119.398 24.6875ZM132.039 27.0078V20.5469H133.93V29H132.148L132.039 27.0078ZM132.305 25.25L132.938 25.2344C132.938 25.8021 132.875 26.3255 132.75 26.8047C132.625 27.2786 132.432 27.6927 132.172 28.0469C131.911 28.3958 131.578 28.6693 131.172 28.8672C130.766 29.0599 130.279 29.1562 129.711 29.1562C129.299 29.1562 128.922 29.0964 128.578 28.9766C128.234 28.8568 127.938 28.6719 127.688 28.4219C127.443 28.1719 127.253 27.8464 127.117 27.4453C126.982 27.0443 126.914 26.5651 126.914 26.0078V20.5469H128.797V26.0234C128.797 26.3307 128.833 26.5885 128.906 26.7969C128.979 27 129.078 27.1641 129.203 27.2891C129.328 27.4141 129.474 27.5026 129.641 27.5547C129.807 27.6068 129.984 27.6328 130.172 27.6328C130.708 27.6328 131.13 27.5286 131.438 27.3203C131.75 27.1068 131.971 26.8203 132.102 26.4609C132.237 26.1016 132.305 25.6979 132.305 25.25ZM137.727 22.3516V29H135.844V20.5469H137.617L137.727 22.3516ZM137.391 24.4609L136.781 24.4531C136.786 23.8542 136.87 23.3047 137.031 22.8047C137.198 22.3047 137.427 21.875 137.719 21.5156C138.016 21.1562 138.37 20.8802 138.781 20.6875C139.193 20.4896 139.651 20.3906 140.156 20.3906C140.562 20.3906 140.93 20.4479 141.258 20.5625C141.591 20.6719 141.875 20.8516 142.109 21.1016C142.349 21.3516 142.531 21.6771 142.656 22.0781C142.781 22.474 142.844 22.9609 142.844 23.5391V29H140.953V23.5312C140.953 23.125 140.893 22.8047 140.773 22.5703C140.659 22.3307 140.49 22.1615 140.266 22.0625C140.047 21.9583 139.773 21.9062 139.445 21.9062C139.122 21.9062 138.833 21.974 138.578 22.1094C138.323 22.2448 138.107 22.4297 137.93 22.6641C137.758 22.8984 137.625 23.1693 137.531 23.4766C137.438 23.7839 137.391 24.112 137.391 24.4609ZM148.219 27.6562C148.526 27.6562 148.802 27.5964 149.047 27.4766C149.297 27.3516 149.497 27.1797 149.648 26.9609C149.805 26.7422 149.891 26.4896 149.906 26.2031H151.68C151.669 26.75 151.508 27.2474 151.195 27.6953C150.883 28.1432 150.469 28.5 149.953 28.7656C149.438 29.026 148.867 29.1562 148.242 29.1562C147.596 29.1562 147.034 29.0469 146.555 28.8281C146.076 28.6042 145.677 28.2969 145.359 27.9062C145.042 27.5156 144.802 27.0651 144.641 26.5547C144.484 26.0443 144.406 25.4974 144.406 24.9141V24.6406C144.406 24.0573 144.484 23.5104 144.641 23C144.802 22.4844 145.042 22.0312 145.359 21.6406C145.677 21.25 146.076 20.9453 146.555 20.7266C147.034 20.5026 147.594 20.3906 148.234 20.3906C148.911 20.3906 149.505 20.526 150.016 20.7969C150.526 21.0625 150.927 21.4349 151.219 21.9141C151.516 22.388 151.669 22.9401 151.68 23.5703H149.906C149.891 23.2578 149.812 22.9766 149.672 22.7266C149.536 22.4714 149.344 22.2682 149.094 22.1172C148.849 21.9661 148.555 21.8906 148.211 21.8906C147.831 21.8906 147.516 21.9688 147.266 22.125C147.016 22.276 146.82 22.4844 146.68 22.75C146.539 23.0104 146.438 23.3047 146.375 23.6328C146.318 23.9557 146.289 24.2917 146.289 24.6406V24.9141C146.289 25.263 146.318 25.6016 146.375 25.9297C146.432 26.2578 146.531 26.5521 146.672 26.8125C146.818 27.0677 147.016 27.2734 147.266 27.4297C147.516 27.5807 147.833 27.6562 148.219 27.6562ZM156.852 29.1562C156.227 29.1562 155.661 29.0547 155.156 28.8516C154.656 28.6432 154.229 28.3542 153.875 27.9844C153.526 27.6146 153.258 27.1797 153.07 26.6797C152.883 26.1797 152.789 25.6406 152.789 25.0625V24.75C152.789 24.0885 152.885 23.4896 153.078 22.9531C153.271 22.4167 153.539 21.9583 153.883 21.5781C154.227 21.1927 154.633 20.8984 155.102 20.6953C155.57 20.4922 156.078 20.3906 156.625 20.3906C157.229 20.3906 157.758 20.4922 158.211 20.6953C158.664 20.8984 159.039 21.1849 159.336 21.5547C159.638 21.9193 159.862 22.3542 160.008 22.8594C160.159 23.3646 160.234 23.9219 160.234 24.5312V25.3359H153.703V23.9844H158.375V23.8359C158.365 23.4974 158.297 23.1797 158.172 22.8828C158.052 22.5859 157.867 22.3464 157.617 22.1641C157.367 21.9818 157.034 21.8906 156.617 21.8906C156.305 21.8906 156.026 21.9583 155.781 22.0938C155.542 22.224 155.341 22.4141 155.18 22.6641C155.018 22.9141 154.893 23.2161 154.805 23.5703C154.721 23.9193 154.68 24.3125 154.68 24.75V25.0625C154.68 25.4323 154.729 25.776 154.828 26.0938C154.932 26.4062 155.083 26.6797 155.281 26.9141C155.479 27.1484 155.719 27.3333 156 27.4688C156.281 27.599 156.602 27.6641 156.961 27.6641C157.414 27.6641 157.818 27.5729 158.172 27.3906C158.526 27.2083 158.833 26.9505 159.094 26.6172L160.086 27.5781C159.904 27.8438 159.667 28.099 159.375 28.3438C159.083 28.5833 158.727 28.7786 158.305 28.9297C157.888 29.0807 157.404 29.1562 156.852 29.1562ZM163.586 22.2656V29H161.703V20.5469H163.477L163.586 22.2656ZM163.281 24.4609L162.641 24.4531C162.641 23.8698 162.714 23.3307 162.859 22.8359C163.005 22.3411 163.219 21.9115 163.5 21.5469C163.781 21.1771 164.13 20.8932 164.547 20.6953C164.969 20.4922 165.456 20.3906 166.008 20.3906C166.393 20.3906 166.745 20.4479 167.062 20.5625C167.385 20.6719 167.664 20.8464 167.898 21.0859C168.138 21.3255 168.32 21.6328 168.445 22.0078C168.576 22.3828 168.641 22.8359 168.641 23.3672V29H166.758V23.5312C166.758 23.1198 166.695 22.7969 166.57 22.5625C166.451 22.3281 166.276 22.1615 166.047 22.0625C165.823 21.9583 165.555 21.9062 165.242 21.9062C164.888 21.9062 164.586 21.974 164.336 22.1094C164.091 22.2448 163.891 22.4297 163.734 22.6641C163.578 22.8984 163.464 23.1693 163.391 23.4766C163.318 23.7839 163.281 24.112 163.281 24.4609ZM168.523 23.9609L167.641 24.1562C167.641 23.6458 167.711 23.1641 167.852 22.7109C167.997 22.2526 168.208 21.8516 168.484 21.5078C168.766 21.1589 169.112 20.8854 169.523 20.6875C169.935 20.4896 170.406 20.3906 170.938 20.3906C171.37 20.3906 171.755 20.4505 172.094 20.5703C172.438 20.6849 172.729 20.8672 172.969 21.1172C173.208 21.3672 173.391 21.6927 173.516 22.0938C173.641 22.4896 173.703 22.9688 173.703 23.5312V29H171.812V23.5234C171.812 23.0964 171.75 22.7656 171.625 22.5312C171.505 22.2969 171.333 22.1354 171.109 22.0469C170.885 21.9531 170.617 21.9062 170.305 21.9062C170.013 21.9062 169.755 21.9609 169.531 22.0703C169.312 22.1745 169.128 22.3229 168.977 22.5156C168.826 22.7031 168.711 22.9193 168.633 23.1641C168.56 23.4089 168.523 23.6745 168.523 23.9609ZM179.367 29.1562C178.742 29.1562 178.177 29.0547 177.672 28.8516C177.172 28.6432 176.745 28.3542 176.391 27.9844C176.042 27.6146 175.773 27.1797 175.586 26.6797C175.398 26.1797 175.305 25.6406 175.305 25.0625V24.75C175.305 24.0885 175.401 23.4896 175.594 22.9531C175.786 22.4167 176.055 21.9583 176.398 21.5781C176.742 21.1927 177.148 20.8984 177.617 20.6953C178.086 20.4922 178.594 20.3906 179.141 20.3906C179.745 20.3906 180.273 20.4922 180.727 20.6953C181.18 20.8984 181.555 21.1849 181.852 21.5547C182.154 21.9193 182.378 22.3542 182.523 22.8594C182.674 23.3646 182.75 23.9219 182.75 24.5312V25.3359H176.219V23.9844H180.891V23.8359C180.88 23.4974 180.812 23.1797 180.688 22.8828C180.568 22.5859 180.383 22.3464 180.133 22.1641C179.883 21.9818 179.549 21.8906 179.133 21.8906C178.82 21.8906 178.542 21.9583 178.297 22.0938C178.057 22.224 177.857 22.4141 177.695 22.6641C177.534 22.9141 177.409 23.2161 177.32 23.5703C177.237 23.9193 177.195 24.3125 177.195 24.75V25.0625C177.195 25.4323 177.245 25.776 177.344 26.0938C177.448 26.4062 177.599 26.6797 177.797 26.9141C177.995 27.1484 178.234 27.3333 178.516 27.4688C178.797 27.599 179.117 27.6641 179.477 27.6641C179.93 27.6641 180.333 27.5729 180.688 27.3906C181.042 27.2083 181.349 26.9505 181.609 26.6172L182.602 27.5781C182.419 27.8438 182.182 28.099 181.891 28.3438C181.599 28.5833 181.242 28.7786 180.82 28.9297C180.404 29.0807 179.919 29.1562 179.367 29.1562ZM186.086 22.3516V29H184.203V20.5469H185.977L186.086 22.3516ZM185.75 24.4609L185.141 24.4531C185.146 23.8542 185.229 23.3047 185.391 22.8047C185.557 22.3047 185.786 21.875 186.078 21.5156C186.375 21.1562 186.729 20.8802 187.141 20.6875C187.552 20.4896 188.01 20.3906 188.516 20.3906C188.922 20.3906 189.289 20.4479 189.617 20.5625C189.951 20.6719 190.234 20.8516 190.469 21.1016C190.708 21.3516 190.891 21.6771 191.016 22.0781C191.141 22.474 191.203 22.9609 191.203 23.5391V29H189.312V23.5312C189.312 23.125 189.253 22.8047 189.133 22.5703C189.018 22.3307 188.849 22.1615 188.625 22.0625C188.406 21.9583 188.133 21.9062 187.805 21.9062C187.482 21.9062 187.193 21.974 186.938 22.1094C186.682 22.2448 186.466 22.4297 186.289 22.6641C186.117 22.8984 185.984 23.1693 185.891 23.4766C185.797 23.7839 185.75 24.112 185.75 24.4609ZM197 20.5469V21.9219H192.234V20.5469H197ZM193.609 18.4766H195.492V26.6641C195.492 26.9245 195.529 27.125 195.602 27.2656C195.68 27.401 195.786 27.4922 195.922 27.5391C196.057 27.5859 196.216 27.6094 196.398 27.6094C196.529 27.6094 196.654 27.6016 196.773 27.5859C196.893 27.5703 196.99 27.5547 197.062 27.5391L197.07 28.9766C196.914 29.0234 196.732 29.0651 196.523 29.1016C196.32 29.138 196.086 29.1562 195.82 29.1562C195.388 29.1562 195.005 29.0807 194.672 28.9297C194.339 28.7734 194.078 28.5208 193.891 28.1719C193.703 27.8229 193.609 27.3594 193.609 26.7812V18.4766Z" fill="white"/>
</svg>
