<svg width="712" height="507" viewBox="0 0 712 507" fill="none" xmlns="http://www.w3.org/2000/svg">
<g clip-path="url(#clip0_2427_330070)">
<rect width="712" height="506.311" transform="translate(0 0.558594)" fill="#0C1096"/>
<ellipse cx="108.265" cy="435.743" rx="166.855" ry="184.262" fill="#1D22BD"/>
<ellipse cx="98.916" cy="454.024" rx="95.2871" ry="100.45" fill="#1D22BD"/>
<path d="M458 65.304C399.141 71.2243 359.106 24.602 346.445 0.550781L721.477 2.16961V334.261H679.59C549.891 316.685 571.725 246.613 598.854 213.774C614.697 190.725 643.345 135.191 631.192 97.4493C615.999 50.272 531.574 57.9036 458 65.304Z" fill="#1D22BD"/>
<ellipse cx="59.4819" cy="506.63" rx="124.439" ry="131.181" fill="#1D22BD"/>
<g filter="url(#filter0_d_2427_330070)">
<rect x="260.57" y="154.824" width="190.864" height="197.672" rx="3.95573" fill="white"/>
<path d="M295.085 170.442V181.691H293.145V170.442H295.085ZM299.674 175.364V176.901H294.59V175.364H299.674ZM300.315 170.442V171.988H294.59V170.442H300.315ZM301.15 177.604V177.427C301.15 176.824 301.237 176.265 301.412 175.75C301.587 175.23 301.84 174.779 302.169 174.398C302.504 174.012 302.911 173.713 303.39 173.502C303.874 173.285 304.42 173.177 305.028 173.177C305.641 173.177 306.187 173.285 306.666 173.502C307.15 173.713 307.56 174.012 307.894 174.398C308.229 174.779 308.484 175.23 308.659 175.75C308.834 176.265 308.922 176.824 308.922 177.427V177.604C308.922 178.207 308.834 178.766 308.659 179.281C308.484 179.796 308.229 180.247 307.894 180.633C307.56 181.014 307.153 181.313 306.674 181.529C306.195 181.74 305.651 181.846 305.043 181.846C304.431 181.846 303.882 181.74 303.398 181.529C302.919 181.313 302.512 181.014 302.177 180.633C301.842 180.247 301.587 179.796 301.412 179.281C301.237 178.766 301.15 178.207 301.15 177.604ZM303.012 177.427V177.604C303.012 177.98 303.05 178.336 303.127 178.671C303.205 179.005 303.326 179.299 303.491 179.551C303.655 179.804 303.867 180.002 304.124 180.146C304.382 180.29 304.688 180.363 305.043 180.363C305.389 180.363 305.687 180.29 305.94 180.146C306.197 180.002 306.408 179.804 306.573 179.551C306.738 179.299 306.859 179.005 306.936 178.671C307.019 178.336 307.06 177.98 307.06 177.604V177.427C307.06 177.056 307.019 176.706 306.936 176.376C306.859 176.041 306.735 175.745 306.566 175.487C306.401 175.23 306.19 175.029 305.932 174.885C305.68 174.735 305.378 174.661 305.028 174.661C304.678 174.661 304.374 174.735 304.116 174.885C303.864 175.029 303.655 175.23 303.491 175.487C303.326 175.745 303.205 176.041 303.127 176.376C303.05 176.706 303.012 177.056 303.012 177.427ZM312.352 174.923V181.691H310.49V173.332H312.267L312.352 174.923ZM314.91 173.278L314.894 175.008C314.781 174.988 314.657 174.972 314.523 174.962C314.395 174.952 314.266 174.947 314.137 174.947C313.818 174.947 313.537 174.993 313.295 175.086C313.053 175.173 312.849 175.302 312.685 175.472C312.525 175.637 312.401 175.838 312.314 176.075C312.226 176.312 312.175 176.577 312.159 176.87L311.734 176.901C311.734 176.376 311.786 175.889 311.889 175.441C311.992 174.993 312.146 174.599 312.352 174.259C312.564 173.919 312.826 173.654 313.14 173.463C313.46 173.273 313.828 173.177 314.245 173.177C314.359 173.177 314.48 173.188 314.608 173.208C314.742 173.229 314.843 173.252 314.91 173.278ZM321.276 173.332H322.968V181.46C322.968 182.212 322.808 182.85 322.489 183.376C322.17 183.901 321.724 184.3 321.152 184.573C320.581 184.851 319.919 184.99 319.167 184.99C318.847 184.99 318.492 184.944 318.1 184.851C317.714 184.759 317.338 184.609 316.972 184.403C316.612 184.202 316.311 183.937 316.069 183.607L316.942 182.51C317.24 182.866 317.57 183.126 317.931 183.291C318.291 183.456 318.67 183.538 319.066 183.538C319.494 183.538 319.857 183.458 320.156 183.298C320.46 183.144 320.694 182.915 320.859 182.611C321.024 182.307 321.106 181.936 321.106 181.498V175.225L321.276 173.332ZM315.597 177.604V177.442C315.597 176.809 315.675 176.232 315.829 175.711C315.984 175.186 316.205 174.735 316.493 174.359C316.782 173.978 317.132 173.687 317.544 173.486C317.956 173.28 318.422 173.177 318.943 173.177C319.483 173.177 319.944 173.275 320.326 173.471C320.712 173.667 321.034 173.947 321.291 174.313C321.549 174.674 321.75 175.106 321.894 175.611C322.043 176.111 322.154 176.667 322.226 177.28V177.797C322.159 178.395 322.046 178.941 321.886 179.435C321.727 179.93 321.515 180.357 321.253 180.718C320.99 181.078 320.666 181.357 320.279 181.552C319.898 181.748 319.447 181.846 318.927 181.846C318.417 181.846 317.956 181.74 317.544 181.529C317.137 181.318 316.787 181.022 316.493 180.641C316.205 180.26 315.984 179.811 315.829 179.296C315.675 178.776 315.597 178.212 315.597 177.604ZM317.459 177.442V177.604C317.459 177.985 317.495 178.341 317.567 178.671C317.645 179 317.761 179.291 317.915 179.544C318.075 179.791 318.276 179.987 318.518 180.131C318.765 180.27 319.056 180.339 319.391 180.339C319.829 180.339 320.187 180.247 320.465 180.061C320.748 179.876 320.964 179.626 321.114 179.312C321.268 178.992 321.376 178.637 321.438 178.246V176.847C321.407 176.543 321.343 176.26 321.245 175.997C321.152 175.735 321.026 175.505 320.866 175.31C320.707 175.109 320.506 174.954 320.264 174.846C320.022 174.733 319.736 174.676 319.406 174.676C319.071 174.676 318.78 174.748 318.533 174.892C318.286 175.037 318.082 175.235 317.923 175.487C317.768 175.74 317.652 176.033 317.575 176.368C317.498 176.703 317.459 177.061 317.459 177.442ZM324.544 177.604V177.427C324.544 176.824 324.632 176.265 324.807 175.75C324.982 175.23 325.234 174.779 325.564 174.398C325.899 174.012 326.306 173.713 326.785 173.502C327.269 173.285 327.815 173.177 328.422 173.177C329.035 173.177 329.581 173.285 330.06 173.502C330.545 173.713 330.954 174.012 331.289 174.398C331.624 174.779 331.879 175.23 332.054 175.75C332.229 176.265 332.316 176.824 332.316 177.427V177.604C332.316 178.207 332.229 178.766 332.054 179.281C331.879 179.796 331.624 180.247 331.289 180.633C330.954 181.014 330.547 181.313 330.068 181.529C329.589 181.74 329.046 181.846 328.438 181.846C327.825 181.846 327.276 181.74 326.792 181.529C326.313 181.313 325.906 181.014 325.572 180.633C325.237 180.247 324.982 179.796 324.807 179.281C324.632 178.766 324.544 178.207 324.544 177.604ZM326.406 177.427V177.604C326.406 177.98 326.445 178.336 326.522 178.671C326.599 179.005 326.72 179.299 326.885 179.551C327.05 179.804 327.261 180.002 327.519 180.146C327.776 180.29 328.083 180.363 328.438 180.363C328.783 180.363 329.082 180.29 329.334 180.146C329.592 180.002 329.803 179.804 329.968 179.551C330.133 179.299 330.254 179.005 330.331 178.671C330.413 178.336 330.454 177.98 330.454 177.604V177.427C330.454 177.056 330.413 176.706 330.331 176.376C330.254 176.041 330.13 175.745 329.96 175.487C329.795 175.23 329.584 175.029 329.326 174.885C329.074 174.735 328.773 174.661 328.422 174.661C328.072 174.661 327.768 174.735 327.511 174.885C327.258 175.029 327.05 175.23 326.885 175.487C326.72 175.745 326.599 176.041 326.522 176.376C326.445 176.706 326.406 177.056 326.406 177.427ZM337.709 173.332V174.692H332.996V173.332H337.709ZM334.356 171.284H336.218V179.381C336.218 179.639 336.254 179.837 336.326 179.976C336.403 180.11 336.509 180.2 336.643 180.247C336.777 180.293 336.934 180.316 337.114 180.316C337.243 180.316 337.367 180.308 337.485 180.293C337.604 180.278 337.699 180.262 337.771 180.247L337.779 181.668C337.624 181.715 337.444 181.756 337.238 181.792C337.037 181.828 336.805 181.846 336.543 181.846C336.115 181.846 335.736 181.771 335.407 181.622C335.077 181.467 334.82 181.218 334.634 180.872C334.449 180.527 334.356 180.069 334.356 179.497V171.284ZM347.544 177.496H344.616V175.959H347.544C348.054 175.959 348.466 175.876 348.781 175.711C349.095 175.547 349.324 175.32 349.468 175.032C349.618 174.738 349.692 174.403 349.692 174.027C349.692 173.672 349.618 173.34 349.468 173.031C349.324 172.716 349.095 172.464 348.781 172.273C348.466 172.083 348.054 171.988 347.544 171.988H345.211V181.691H343.272V170.442H347.544C348.415 170.442 349.154 170.597 349.762 170.906C350.375 171.21 350.841 171.632 351.16 172.173C351.48 172.709 351.639 173.322 351.639 174.012C351.639 174.738 351.48 175.361 351.16 175.881C350.841 176.402 350.375 176.801 349.762 177.079C349.154 177.357 348.415 177.496 347.544 177.496ZM357.812 180.015V176.028C357.812 175.729 357.758 175.472 357.65 175.256C357.542 175.039 357.377 174.872 357.156 174.753C356.939 174.635 356.666 174.576 356.337 174.576C356.033 174.576 355.77 174.627 355.549 174.73C355.327 174.833 355.155 174.972 355.031 175.147C354.907 175.323 354.846 175.521 354.846 175.742H352.991C352.991 175.413 353.071 175.093 353.231 174.784C353.39 174.475 353.622 174.2 353.926 173.958C354.23 173.716 354.593 173.525 355.015 173.386C355.438 173.247 355.912 173.177 356.437 173.177C357.065 173.177 357.622 173.283 358.106 173.494C358.595 173.705 358.979 174.025 359.257 174.452C359.54 174.874 359.682 175.405 359.682 176.044V179.76C359.682 180.141 359.708 180.484 359.759 180.787C359.816 181.086 359.896 181.346 359.999 181.568V181.691H358.09C358.003 181.491 357.933 181.236 357.882 180.927C357.835 180.612 357.812 180.308 357.812 180.015ZM358.083 176.608L358.098 177.759H356.762C356.416 177.759 356.113 177.792 355.85 177.859C355.587 177.921 355.368 178.014 355.193 178.137C355.018 178.261 354.887 178.41 354.799 178.586C354.712 178.761 354.668 178.959 354.668 179.18C354.668 179.402 354.719 179.605 354.822 179.791C354.925 179.971 355.075 180.113 355.27 180.216C355.471 180.319 355.713 180.37 355.997 180.37C356.378 180.37 356.71 180.293 356.993 180.138C357.282 179.979 357.508 179.786 357.673 179.559C357.838 179.327 357.926 179.108 357.936 178.902L358.539 179.729C358.477 179.94 358.371 180.167 358.222 180.409C358.072 180.651 357.877 180.883 357.635 181.104C357.398 181.321 357.112 181.498 356.777 181.637C356.447 181.776 356.066 181.846 355.634 181.846C355.088 181.846 354.601 181.738 354.173 181.521C353.746 181.3 353.411 181.004 353.169 180.633C352.927 180.257 352.806 179.832 352.806 179.358C352.806 178.915 352.888 178.524 353.053 178.184C353.223 177.839 353.47 177.55 353.795 177.318C354.124 177.087 354.526 176.912 355 176.793C355.474 176.669 356.015 176.608 356.622 176.608H358.083ZM366.319 179.428C366.319 179.242 366.272 179.075 366.18 178.925C366.087 178.771 365.909 178.632 365.647 178.508C365.389 178.385 365.008 178.271 364.503 178.168C364.06 178.07 363.653 177.955 363.282 177.821C362.917 177.682 362.602 177.514 362.34 177.318C362.077 177.123 361.874 176.891 361.729 176.623C361.585 176.355 361.513 176.046 361.513 175.696C361.513 175.356 361.588 175.034 361.737 174.73C361.887 174.426 362.1 174.159 362.378 173.927C362.657 173.695 362.994 173.512 363.391 173.378C363.792 173.244 364.24 173.177 364.735 173.177C365.435 173.177 366.035 173.296 366.535 173.533C367.04 173.764 367.426 174.081 367.694 174.483C367.962 174.88 368.096 175.328 368.096 175.827H366.234C366.234 175.606 366.177 175.4 366.064 175.209C365.956 175.014 365.791 174.856 365.569 174.738C365.348 174.614 365.07 174.553 364.735 174.553C364.415 174.553 364.15 174.604 363.939 174.707C363.733 174.805 363.579 174.934 363.475 175.093C363.378 175.253 363.329 175.428 363.329 175.619C363.329 175.758 363.354 175.884 363.406 175.997C363.463 176.105 363.555 176.206 363.684 176.299C363.813 176.386 363.988 176.469 364.209 176.546C364.436 176.623 364.719 176.698 365.059 176.77C365.698 176.904 366.247 177.076 366.705 177.288C367.169 177.494 367.524 177.761 367.771 178.091C368.018 178.416 368.142 178.828 368.142 179.327C368.142 179.698 368.062 180.038 367.903 180.347C367.748 180.651 367.521 180.916 367.223 181.143C366.924 181.364 366.566 181.537 366.149 181.661C365.737 181.784 365.273 181.846 364.758 181.846C364.001 181.846 363.36 181.712 362.834 181.444C362.309 181.171 361.91 180.824 361.637 180.401C361.369 179.974 361.235 179.531 361.235 179.072H363.035C363.056 179.417 363.151 179.693 363.321 179.899C363.496 180.1 363.712 180.247 363.97 180.339C364.233 180.427 364.503 180.471 364.781 180.471C365.116 180.471 365.397 180.427 365.623 180.339C365.85 180.247 366.023 180.123 366.141 179.969C366.259 179.809 366.319 179.629 366.319 179.428ZM374.462 179.428C374.462 179.242 374.416 179.075 374.323 178.925C374.23 178.771 374.052 178.632 373.79 178.508C373.532 178.385 373.151 178.271 372.646 178.168C372.203 178.07 371.796 177.955 371.426 177.821C371.06 177.682 370.746 177.514 370.483 177.318C370.22 177.123 370.017 176.891 369.873 176.623C369.728 176.355 369.656 176.046 369.656 175.696C369.656 175.356 369.731 175.034 369.88 174.73C370.03 174.426 370.243 174.159 370.522 173.927C370.8 173.695 371.137 173.512 371.534 173.378C371.935 173.244 372.384 173.177 372.878 173.177C373.579 173.177 374.179 173.296 374.678 173.533C375.183 173.764 375.569 174.081 375.837 174.483C376.105 174.88 376.239 175.328 376.239 175.827H374.377C374.377 175.606 374.32 175.4 374.207 175.209C374.099 175.014 373.934 174.856 373.712 174.738C373.491 174.614 373.213 174.553 372.878 174.553C372.559 174.553 372.293 174.604 372.082 174.707C371.876 174.805 371.722 174.934 371.619 175.093C371.521 175.253 371.472 175.428 371.472 175.619C371.472 175.758 371.498 175.884 371.549 175.997C371.606 176.105 371.699 176.206 371.827 176.299C371.956 176.386 372.131 176.469 372.353 176.546C372.579 176.623 372.863 176.698 373.203 176.77C373.841 176.904 374.39 177.076 374.848 177.288C375.312 177.494 375.667 177.761 375.914 178.091C376.162 178.416 376.285 178.828 376.285 179.327C376.285 179.698 376.205 180.038 376.046 180.347C375.891 180.651 375.665 180.916 375.366 181.143C375.067 181.364 374.709 181.537 374.292 181.661C373.88 181.784 373.416 181.846 372.901 181.846C372.144 181.846 371.503 181.712 370.977 181.444C370.452 181.171 370.053 180.824 369.78 180.401C369.512 179.974 369.378 179.531 369.378 179.072H371.178C371.199 179.417 371.294 179.693 371.464 179.899C371.639 180.1 371.856 180.247 372.113 180.339C372.376 180.427 372.646 180.471 372.924 180.471C373.259 180.471 373.54 180.427 373.767 180.339C373.993 180.247 374.166 180.123 374.284 179.969C374.403 179.809 374.462 179.629 374.462 179.428ZM380.187 179.837L382.118 173.332H383.308L382.984 175.279L381.037 181.691H379.971L380.187 179.837ZM379.051 173.332L380.558 179.868L380.681 181.691H379.492L377.228 173.332H379.051ZM385.116 179.791L386.576 173.332H388.392L386.136 181.691H384.946L385.116 179.791ZM383.509 173.332L385.417 179.76L385.657 181.691H384.591L382.621 175.271L382.296 173.332H383.509ZM389.304 177.604V177.427C389.304 176.824 389.391 176.265 389.566 175.75C389.741 175.23 389.994 174.779 390.323 174.398C390.658 174.012 391.065 173.713 391.544 173.502C392.028 173.285 392.574 173.177 393.182 173.177C393.795 173.177 394.341 173.285 394.82 173.502C395.304 173.713 395.714 174.012 396.048 174.398C396.383 174.779 396.638 175.23 396.813 175.75C396.988 176.265 397.076 176.824 397.076 177.427V177.604C397.076 178.207 396.988 178.766 396.813 179.281C396.638 179.796 396.383 180.247 396.048 180.633C395.714 181.014 395.307 181.313 394.828 181.529C394.349 181.74 393.805 181.846 393.198 181.846C392.585 181.846 392.036 181.74 391.552 181.529C391.073 181.313 390.666 181.014 390.331 180.633C389.996 180.247 389.741 179.796 389.566 179.281C389.391 178.766 389.304 178.207 389.304 177.604ZM391.166 177.427V177.604C391.166 177.98 391.204 178.336 391.281 178.671C391.359 179.005 391.48 179.299 391.645 179.551C391.809 179.804 392.021 180.002 392.278 180.146C392.536 180.29 392.842 180.363 393.198 180.363C393.543 180.363 393.841 180.29 394.094 180.146C394.351 180.002 394.562 179.804 394.727 179.551C394.892 179.299 395.013 179.005 395.09 178.671C395.173 178.336 395.214 177.98 395.214 177.604V177.427C395.214 177.056 395.173 176.706 395.09 176.376C395.013 176.041 394.89 175.745 394.72 175.487C394.555 175.23 394.344 175.029 394.086 174.885C393.834 174.735 393.532 174.661 393.182 174.661C392.832 174.661 392.528 174.735 392.27 174.885C392.018 175.029 391.809 175.23 391.645 175.487C391.48 175.745 391.359 176.041 391.281 176.376C391.204 176.706 391.166 177.056 391.166 177.427ZM400.506 174.923V181.691H398.644V173.332H400.421L400.506 174.923ZM403.064 173.278L403.048 175.008C402.935 174.988 402.811 174.972 402.677 174.962C402.549 174.952 402.42 174.947 402.291 174.947C401.972 174.947 401.691 174.993 401.449 175.086C401.207 175.173 401.003 175.302 400.839 175.472C400.679 175.637 400.555 175.838 400.468 176.075C400.38 176.312 400.329 176.577 400.313 176.87L399.888 176.901C399.888 176.376 399.94 175.889 400.043 175.441C400.146 174.993 400.3 174.599 400.506 174.259C400.718 173.919 400.98 173.654 401.294 173.463C401.614 173.273 401.982 173.177 402.399 173.177C402.513 173.177 402.634 173.188 402.762 173.208C402.896 173.229 402.997 173.252 403.064 173.278ZM409.175 179.961V169.824H411.045V181.691H409.353L409.175 179.961ZM403.736 177.604V177.442C403.736 176.809 403.811 176.232 403.96 175.711C404.109 175.186 404.326 174.735 404.609 174.359C404.892 173.978 405.237 173.687 405.644 173.486C406.051 173.28 406.51 173.177 407.019 173.177C407.524 173.177 407.967 173.275 408.348 173.471C408.729 173.667 409.054 173.947 409.322 174.313C409.59 174.674 409.803 175.106 409.963 175.611C410.123 176.111 410.236 176.667 410.303 177.28V177.797C410.236 178.395 410.123 178.941 409.963 179.435C409.803 179.93 409.59 180.357 409.322 180.718C409.054 181.078 408.727 181.357 408.341 181.552C407.959 181.748 407.514 181.846 407.004 181.846C406.499 181.846 406.043 181.74 405.636 181.529C405.235 181.318 404.892 181.022 404.609 180.641C404.326 180.26 404.109 179.811 403.96 179.296C403.811 178.776 403.736 178.212 403.736 177.604ZM405.598 177.442V177.604C405.598 177.985 405.631 178.341 405.698 178.671C405.77 179 405.881 179.291 406.03 179.544C406.18 179.791 406.373 179.987 406.61 180.131C406.852 180.27 407.14 180.339 407.475 180.339C407.898 180.339 408.245 180.247 408.518 180.061C408.791 179.876 409.005 179.626 409.16 179.312C409.319 178.992 409.427 178.637 409.484 178.246V176.847C409.453 176.543 409.389 176.26 409.291 175.997C409.198 175.735 409.072 175.505 408.912 175.31C408.753 175.109 408.554 174.954 408.317 174.846C408.086 174.733 407.81 174.676 407.491 174.676C407.151 174.676 406.862 174.748 406.625 174.892C406.388 175.037 406.193 175.235 406.038 175.487C405.889 175.74 405.778 176.033 405.706 176.368C405.634 176.703 405.598 177.061 405.598 177.442ZM416.476 178.377H414.753C414.758 177.898 414.8 177.496 414.877 177.172C414.954 176.842 415.083 176.543 415.263 176.275C415.449 176.008 415.693 175.724 415.997 175.426C416.234 175.199 416.448 174.985 416.638 174.784C416.829 174.578 416.981 174.362 417.094 174.135C417.207 173.904 417.264 173.638 417.264 173.34C417.264 173.015 417.21 172.74 417.102 172.513C416.994 172.286 416.834 172.114 416.623 171.995C416.417 171.877 416.159 171.818 415.85 171.818C415.593 171.818 415.351 171.869 415.124 171.972C414.897 172.07 414.715 172.224 414.575 172.436C414.436 172.642 414.362 172.915 414.351 173.255H412.489C412.5 172.606 412.654 172.06 412.953 171.617C413.252 171.174 413.654 170.841 414.158 170.62C414.663 170.399 415.227 170.288 415.85 170.288C416.54 170.288 417.13 170.406 417.62 170.643C418.109 170.875 418.482 171.215 418.74 171.663C419.002 172.106 419.134 172.642 419.134 173.27C419.134 173.723 419.044 174.135 418.863 174.506C418.683 174.872 418.449 175.214 418.16 175.534C417.872 175.848 417.56 176.162 417.226 176.476C416.937 176.739 416.741 177.025 416.638 177.334C416.535 177.638 416.481 177.985 416.476 178.377ZM414.599 180.787C414.599 180.509 414.694 180.275 414.885 180.084C415.075 179.889 415.335 179.791 415.665 179.791C415.994 179.791 416.255 179.889 416.445 180.084C416.636 180.275 416.731 180.509 416.731 180.787C416.731 181.066 416.636 181.303 416.445 181.498C416.255 181.689 415.994 181.784 415.665 181.784C415.335 181.784 415.075 181.689 414.885 181.498C414.694 181.303 414.599 181.066 414.599 180.787Z" fill="#0E0E0E"/>
<path d="M290.228 205.952V206.559H287.25V205.952H290.228ZM287.4 200.934V206.559H286.655V200.934H287.4ZM289.834 203.352V203.959H287.25V203.352H289.834ZM290.189 200.934V201.544H287.25V200.934H290.189ZM291.758 203.271V206.559H291.043V202.379H291.719L291.758 203.271ZM291.588 204.31L291.29 204.299C291.293 204.013 291.335 203.749 291.418 203.507C291.5 203.262 291.616 203.05 291.766 202.869C291.915 202.689 292.093 202.55 292.299 202.452C292.507 202.352 292.738 202.302 292.99 202.302C293.196 202.302 293.382 202.33 293.546 202.387C293.711 202.441 293.852 202.528 293.967 202.649C294.086 202.77 294.176 202.927 294.238 203.121C294.3 203.311 294.331 203.544 294.331 203.82V206.559H293.612V203.812C293.612 203.593 293.58 203.418 293.516 203.287C293.451 203.153 293.357 203.056 293.234 202.997C293.11 202.935 292.958 202.904 292.778 202.904C292.6 202.904 292.438 202.942 292.291 203.016C292.147 203.091 292.022 203.194 291.916 203.325C291.813 203.457 291.732 203.607 291.673 203.777C291.616 203.945 291.588 204.122 291.588 204.31ZM297.166 202.379V202.927H294.906V202.379H297.166ZM295.671 201.363H296.386V205.523C296.386 205.665 296.408 205.772 296.451 205.844C296.495 205.916 296.552 205.964 296.621 205.987C296.691 206.01 296.766 206.022 296.845 206.022C296.905 206.022 296.966 206.016 297.031 206.006C297.098 205.993 297.148 205.983 297.182 205.975L297.185 206.559C297.129 206.577 297.054 206.593 296.961 206.609C296.871 206.627 296.762 206.636 296.633 206.636C296.458 206.636 296.297 206.601 296.15 206.532C296.003 206.462 295.886 206.346 295.799 206.184C295.714 206.019 295.671 205.798 295.671 205.519V201.363ZM299.739 206.636C299.448 206.636 299.184 206.587 298.947 206.489C298.713 206.389 298.51 206.248 298.34 206.068C298.173 205.888 298.044 205.674 297.954 205.427C297.864 205.179 297.819 204.909 297.819 204.615V204.453C297.819 204.113 297.869 203.811 297.97 203.545C298.07 203.278 298.207 203.051 298.379 202.866C298.552 202.68 298.747 202.54 298.966 202.444C299.185 202.349 299.412 202.302 299.646 202.302C299.945 202.302 300.202 202.353 300.419 202.456C300.638 202.559 300.817 202.703 300.956 202.889C301.095 203.072 301.198 203.288 301.265 203.538C301.332 203.785 301.365 204.055 301.365 204.349V204.67H298.244V204.086H300.651V204.032C300.64 203.847 300.602 203.666 300.535 203.491C300.47 203.316 300.367 203.172 300.226 203.059C300.084 202.945 299.891 202.889 299.646 202.889C299.484 202.889 299.335 202.923 299.198 202.993C299.062 203.06 298.944 203.16 298.846 203.294C298.749 203.428 298.673 203.592 298.619 203.785C298.564 203.978 298.537 204.201 298.537 204.453V204.615C298.537 204.814 298.564 205.001 298.619 205.176C298.675 205.348 298.756 205.5 298.862 205.631C298.97 205.763 299.1 205.866 299.252 205.941C299.407 206.015 299.582 206.053 299.777 206.053C300.03 206.053 300.244 206.001 300.419 205.898C300.594 205.795 300.747 205.657 300.878 205.485L301.311 205.828C301.221 205.965 301.106 206.095 300.967 206.219C300.828 206.342 300.657 206.443 300.453 206.52C300.253 206.597 300.014 206.636 299.739 206.636ZM302.914 203.036V206.559H302.2V202.379H302.895L302.914 203.036ZM304.22 202.356L304.216 203.02C304.157 203.007 304.1 202.999 304.046 202.997C303.995 202.992 303.935 202.989 303.868 202.989C303.704 202.989 303.558 203.015 303.432 203.066C303.306 203.118 303.199 203.19 303.111 203.283C303.024 203.375 302.954 203.486 302.903 203.615C302.854 203.741 302.822 203.88 302.806 204.032L302.605 204.148C302.605 203.896 302.63 203.659 302.679 203.437C302.73 203.216 302.809 203.02 302.914 202.85C303.02 202.678 303.154 202.544 303.316 202.448C303.481 202.35 303.677 202.302 303.903 202.302C303.955 202.302 304.014 202.308 304.081 202.321C304.148 202.331 304.194 202.343 304.22 202.356ZM308.017 206.126L309.18 202.379H309.945L308.268 207.204C308.23 207.307 308.178 207.417 308.114 207.536C308.052 207.657 307.972 207.772 307.874 207.88C307.776 207.988 307.658 208.075 307.519 208.142C307.382 208.212 307.219 208.247 307.028 208.247C306.972 208.247 306.9 208.239 306.812 208.224C306.724 208.208 306.663 208.195 306.627 208.185L306.623 207.605C306.643 207.608 306.676 207.611 306.719 207.613C306.766 207.618 306.798 207.621 306.816 207.621C306.978 207.621 307.116 207.599 307.229 207.555C307.343 207.514 307.438 207.443 307.515 207.343C307.595 207.245 307.663 207.11 307.72 206.937L308.017 206.126ZM307.164 202.379L308.249 205.624L308.434 206.377L307.921 206.64L306.383 202.379H307.164ZM310.339 204.515V204.426C310.339 204.125 310.383 203.845 310.47 203.588C310.558 203.328 310.684 203.102 310.849 202.912C311.014 202.719 311.213 202.569 311.448 202.464C311.682 202.356 311.945 202.302 312.236 202.302C312.529 202.302 312.793 202.356 313.028 202.464C313.265 202.569 313.465 202.719 313.63 202.912C313.798 203.102 313.925 203.328 314.013 203.588C314.1 203.845 314.144 204.125 314.144 204.426V204.515C314.144 204.816 314.1 205.096 314.013 205.353C313.925 205.611 313.798 205.836 313.63 206.029C313.465 206.22 313.266 206.369 313.031 206.477C312.8 206.583 312.537 206.636 312.243 206.636C311.95 206.636 311.686 206.583 311.452 206.477C311.217 206.369 311.016 206.22 310.849 206.029C310.684 205.836 310.558 205.611 310.47 205.353C310.383 205.096 310.339 204.816 310.339 204.515ZM311.054 204.426V204.515C311.054 204.724 311.078 204.921 311.127 205.106C311.176 205.289 311.249 205.451 311.347 205.593C311.448 205.734 311.573 205.847 311.722 205.929C311.871 206.009 312.045 206.049 312.243 206.049C312.439 206.049 312.61 206.009 312.757 205.929C312.907 205.847 313.03 205.734 313.128 205.593C313.226 205.451 313.299 205.289 313.348 205.106C313.4 204.921 313.426 204.724 313.426 204.515V204.426C313.426 204.22 313.4 204.026 313.348 203.843C313.299 203.657 313.225 203.494 313.124 203.352C313.026 203.208 312.903 203.095 312.753 203.012C312.607 202.93 312.434 202.889 312.236 202.889C312.04 202.889 311.867 202.93 311.718 203.012C311.571 203.095 311.448 203.208 311.347 203.352C311.249 203.494 311.176 203.657 311.127 203.843C311.078 204.026 311.054 204.22 311.054 204.426ZM317.598 205.593V202.379H318.316V206.559H317.632L317.598 205.593ZM317.733 204.712L318.03 204.704C318.03 204.982 318.001 205.24 317.941 205.477C317.885 205.711 317.792 205.915 317.663 206.087C317.534 206.26 317.366 206.395 317.157 206.493C316.949 206.588 316.695 206.636 316.396 206.636C316.193 206.636 316.006 206.606 315.836 206.547C315.669 206.488 315.524 206.396 315.403 206.273C315.282 206.149 315.188 205.988 315.121 205.79C315.057 205.592 315.025 205.353 315.025 205.075V202.379H315.739V205.083C315.739 205.271 315.76 205.427 315.801 205.55C315.845 205.671 315.903 205.768 315.975 205.84C316.05 205.91 316.132 205.959 316.222 205.987C316.315 206.015 316.41 206.029 316.508 206.029C316.812 206.029 317.053 205.971 317.231 205.856C317.408 205.737 317.536 205.579 317.613 205.38C317.693 205.179 317.733 204.957 317.733 204.712ZM320.12 203.036V206.559H319.405V202.379H320.101L320.12 203.036ZM321.426 202.356L321.422 203.02C321.363 203.007 321.306 202.999 321.252 202.997C321.2 202.992 321.141 202.989 321.074 202.989C320.909 202.989 320.764 203.015 320.638 203.066C320.512 203.118 320.405 203.19 320.317 203.283C320.23 203.375 320.16 203.486 320.109 203.615C320.06 203.741 320.027 203.88 320.012 204.032L319.811 204.148C319.811 203.896 319.836 203.659 319.884 203.437C319.936 203.216 320.015 203.02 320.12 202.85C320.226 202.678 320.36 202.544 320.522 202.448C320.687 202.35 320.882 202.302 321.109 202.302C321.161 202.302 321.22 202.308 321.287 202.321C321.354 202.331 321.4 202.343 321.426 202.356ZM325.783 206.636C325.492 206.636 325.228 206.587 324.991 206.489C324.757 206.389 324.555 206.248 324.385 206.068C324.217 205.888 324.089 205.674 323.999 205.427C323.908 205.179 323.863 204.909 323.863 204.615V204.453C323.863 204.113 323.914 203.811 324.014 203.545C324.114 203.278 324.251 203.051 324.424 202.866C324.596 202.68 324.792 202.54 325.011 202.444C325.23 202.349 325.456 202.302 325.691 202.302C325.989 202.302 326.247 202.353 326.463 202.456C326.682 202.559 326.861 202.703 327 202.889C327.139 203.072 327.242 203.288 327.309 203.538C327.376 203.785 327.41 204.055 327.41 204.349V204.67H324.288V204.086H326.695V204.032C326.685 203.847 326.646 203.666 326.579 203.491C326.515 203.316 326.412 203.172 326.27 203.059C326.128 202.945 325.935 202.889 325.691 202.889C325.528 202.889 325.379 202.923 325.242 202.993C325.106 203.06 324.989 203.16 324.891 203.294C324.793 203.428 324.717 203.592 324.663 203.785C324.609 203.978 324.582 204.201 324.582 204.453V204.615C324.582 204.814 324.609 205.001 324.663 205.176C324.72 205.348 324.801 205.5 324.906 205.631C325.015 205.763 325.145 205.866 325.297 205.941C325.451 206.015 325.626 206.053 325.822 206.053C326.074 206.053 326.288 206.001 326.463 205.898C326.638 205.795 326.792 205.657 326.923 205.485L327.356 205.828C327.265 205.965 327.151 206.095 327.012 206.219C326.873 206.342 326.701 206.443 326.498 206.52C326.297 206.597 326.059 206.636 325.783 206.636ZM328.955 203.209V206.559H328.236V202.379H328.916L328.955 203.209ZM328.808 204.31L328.476 204.299C328.478 204.013 328.516 203.749 328.588 203.507C328.66 203.262 328.767 203.05 328.908 202.869C329.05 202.689 329.227 202.55 329.438 202.452C329.649 202.352 329.894 202.302 330.172 202.302C330.367 202.302 330.548 202.33 330.713 202.387C330.877 202.441 331.02 202.527 331.141 202.645C331.262 202.764 331.356 202.916 331.423 203.101C331.49 203.287 331.524 203.511 331.524 203.773V206.559H330.809V203.808C330.809 203.589 330.772 203.414 330.697 203.283C330.625 203.151 330.522 203.056 330.388 202.997C330.254 202.935 330.097 202.904 329.917 202.904C329.706 202.904 329.529 202.942 329.387 203.016C329.246 203.091 329.133 203.194 329.048 203.325C328.963 203.457 328.901 203.607 328.862 203.777C328.826 203.945 328.808 204.122 328.808 204.31ZM331.516 203.916L331.037 204.063C331.04 203.834 331.077 203.614 331.149 203.403C331.224 203.191 331.331 203.003 331.47 202.839C331.611 202.674 331.785 202.544 331.991 202.448C332.197 202.35 332.433 202.302 332.698 202.302C332.922 202.302 333.12 202.331 333.293 202.39C333.468 202.45 333.615 202.541 333.733 202.665C333.854 202.786 333.946 202.942 334.008 203.132C334.069 203.323 334.1 203.549 334.1 203.812V206.559H333.382V203.804C333.382 203.57 333.345 203.388 333.27 203.26C333.198 203.128 333.095 203.037 332.961 202.985C332.829 202.931 332.672 202.904 332.489 202.904C332.332 202.904 332.193 202.931 332.072 202.985C331.951 203.039 331.85 203.114 331.767 203.209C331.685 203.302 331.622 203.409 331.578 203.53C331.537 203.651 331.516 203.78 331.516 203.916ZM337.647 205.844V203.692C337.647 203.527 337.613 203.384 337.546 203.263C337.482 203.14 337.384 203.045 337.253 202.978C337.121 202.911 336.959 202.877 336.766 202.877C336.586 202.877 336.427 202.908 336.291 202.97C336.157 203.032 336.051 203.113 335.974 203.213C335.899 203.314 335.862 203.422 335.862 203.538H335.147C335.147 203.388 335.186 203.24 335.263 203.093C335.34 202.947 335.451 202.814 335.595 202.696C335.742 202.575 335.917 202.479 336.121 202.41C336.327 202.338 336.556 202.302 336.808 202.302C337.112 202.302 337.38 202.353 337.612 202.456C337.846 202.559 338.029 202.715 338.16 202.923C338.294 203.13 338.361 203.388 338.361 203.7V205.647C338.361 205.786 338.373 205.934 338.396 206.091C338.422 206.248 338.459 206.383 338.508 206.497V206.559H337.763C337.726 206.476 337.698 206.367 337.678 206.23C337.657 206.091 337.647 205.962 337.647 205.844ZM337.77 204.024L337.778 204.527H337.056C336.852 204.527 336.671 204.543 336.511 204.577C336.351 204.608 336.217 204.655 336.109 204.72C336.001 204.784 335.919 204.865 335.862 204.963C335.805 205.058 335.777 205.17 335.777 205.299C335.777 205.431 335.807 205.55 335.866 205.659C335.925 205.767 336.014 205.853 336.132 205.917C336.253 205.979 336.401 206.01 336.577 206.01C336.795 206.01 336.989 205.964 337.156 205.871C337.323 205.778 337.456 205.665 337.554 205.531C337.654 205.397 337.708 205.267 337.716 205.141L338.021 205.485C338.003 205.593 337.954 205.713 337.875 205.844C337.795 205.975 337.688 206.101 337.554 206.223C337.423 206.341 337.265 206.44 337.083 206.52C336.902 206.597 336.699 206.636 336.472 206.636C336.189 206.636 335.94 206.58 335.727 206.47C335.516 206.359 335.351 206.211 335.232 206.025C335.116 205.837 335.058 205.628 335.058 205.396C335.058 205.172 335.102 204.975 335.19 204.805C335.277 204.632 335.404 204.489 335.568 204.376C335.733 204.26 335.931 204.173 336.163 204.113C336.395 204.054 336.654 204.024 336.94 204.024H337.77ZM340.262 202.379V206.559H339.543V202.379H340.262ZM339.489 201.27C339.489 201.154 339.524 201.056 339.594 200.977C339.666 200.897 339.771 200.857 339.91 200.857C340.047 200.857 340.151 200.897 340.223 200.977C340.298 201.056 340.335 201.154 340.335 201.27C340.335 201.381 340.298 201.476 340.223 201.556C340.151 201.633 340.047 201.672 339.91 201.672C339.771 201.672 339.666 201.633 339.594 201.556C339.524 201.476 339.489 201.381 339.489 201.27ZM342.186 200.625V206.559H341.467V200.625H342.186ZM347.045 202.379V202.927H344.785V202.379H347.045ZM345.55 201.363H346.265V205.523C346.265 205.665 346.287 205.772 346.331 205.844C346.374 205.916 346.431 205.964 346.501 205.987C346.57 206.01 346.645 206.022 346.725 206.022C346.784 206.022 346.846 206.016 346.91 206.006C346.977 205.993 347.027 205.983 347.061 205.975L347.065 206.559C347.008 206.577 346.933 206.593 346.841 206.609C346.75 206.627 346.641 206.636 346.512 206.636C346.337 206.636 346.176 206.601 346.029 206.532C345.883 206.462 345.765 206.346 345.678 206.184C345.593 206.019 345.55 205.798 345.55 205.519V201.363ZM347.617 204.515V204.426C347.617 204.125 347.661 203.845 347.748 203.588C347.836 203.328 347.962 203.102 348.127 202.912C348.292 202.719 348.491 202.569 348.726 202.464C348.96 202.356 349.223 202.302 349.514 202.302C349.807 202.302 350.071 202.356 350.306 202.464C350.543 202.569 350.744 202.719 350.908 202.912C351.076 203.102 351.203 203.328 351.291 203.588C351.378 203.845 351.422 204.125 351.422 204.426V204.515C351.422 204.816 351.378 205.096 351.291 205.353C351.203 205.611 351.076 205.836 350.908 206.029C350.744 206.22 350.544 206.369 350.31 206.477C350.078 206.583 349.815 206.636 349.522 206.636C349.228 206.636 348.964 206.583 348.73 206.477C348.495 206.369 348.294 206.22 348.127 206.029C347.962 205.836 347.836 205.611 347.748 205.353C347.661 205.096 347.617 204.816 347.617 204.515ZM348.332 204.426V204.515C348.332 204.724 348.356 204.921 348.405 205.106C348.454 205.289 348.527 205.451 348.625 205.593C348.726 205.734 348.851 205.847 349 205.929C349.149 206.009 349.323 206.049 349.522 206.049C349.717 206.049 349.889 206.009 350.035 205.929C350.185 205.847 350.308 205.734 350.406 205.593C350.504 205.451 350.577 205.289 350.626 205.106C350.678 204.921 350.704 204.724 350.704 204.515V204.426C350.704 204.22 350.678 204.026 350.626 203.843C350.577 203.657 350.503 203.494 350.402 203.352C350.304 203.208 350.181 203.095 350.031 203.012C349.885 202.93 349.712 202.889 349.514 202.889C349.318 202.889 349.146 202.93 348.996 203.012C348.849 203.095 348.726 203.208 348.625 203.352C348.527 203.494 348.454 203.657 348.405 203.843C348.356 204.026 348.332 204.22 348.332 204.426ZM354.995 203.036V206.559H354.281V202.379H354.976L354.995 203.036ZM356.301 202.356L356.297 203.02C356.238 203.007 356.181 202.999 356.127 202.997C356.076 202.992 356.017 202.989 355.95 202.989C355.785 202.989 355.639 203.015 355.513 203.066C355.387 203.118 355.28 203.19 355.192 203.283C355.105 203.375 355.035 203.486 354.984 203.615C354.935 203.741 354.903 203.88 354.887 204.032L354.686 204.148C354.686 203.896 354.711 203.659 354.76 203.437C354.811 203.216 354.89 203.02 354.995 202.85C355.101 202.678 355.235 202.544 355.397 202.448C355.562 202.35 355.758 202.302 355.984 202.302C356.036 202.302 356.095 202.308 356.162 202.321C356.229 202.331 356.275 202.343 356.301 202.356ZM358.619 206.636C358.328 206.636 358.064 206.587 357.827 206.489C357.593 206.389 357.391 206.248 357.221 206.068C357.053 205.888 356.924 205.674 356.834 205.427C356.744 205.179 356.699 204.909 356.699 204.615V204.453C356.699 204.113 356.749 203.811 356.85 203.545C356.95 203.278 357.087 203.051 357.259 202.866C357.432 202.68 357.627 202.54 357.846 202.444C358.065 202.349 358.292 202.302 358.526 202.302C358.825 202.302 359.083 202.353 359.299 202.456C359.518 202.559 359.697 202.703 359.836 202.889C359.975 203.072 360.078 203.288 360.145 203.538C360.212 203.785 360.245 204.055 360.245 204.349V204.67H357.124V204.086H359.531V204.032C359.52 203.847 359.482 203.666 359.415 203.491C359.35 203.316 359.247 203.172 359.106 203.059C358.964 202.945 358.771 202.889 358.526 202.889C358.364 202.889 358.215 202.923 358.078 202.993C357.942 203.06 357.824 203.16 357.727 203.294C357.629 203.428 357.553 203.592 357.499 203.785C357.445 203.978 357.418 204.201 357.418 204.453V204.615C357.418 204.814 357.445 205.001 357.499 205.176C357.555 205.348 357.636 205.5 357.742 205.631C357.85 205.763 357.98 205.866 358.132 205.941C358.287 206.015 358.462 206.053 358.658 206.053C358.91 206.053 359.124 206.001 359.299 205.898C359.474 205.795 359.627 205.657 359.759 205.485L360.191 205.828C360.101 205.965 359.986 206.095 359.847 206.219C359.708 206.342 359.537 206.443 359.334 206.52C359.133 206.597 358.895 206.636 358.619 206.636ZM363.513 205.45C363.513 205.347 363.49 205.252 363.444 205.164C363.4 205.074 363.309 204.993 363.17 204.921C363.033 204.846 362.827 204.782 362.551 204.728C362.32 204.679 362.11 204.621 361.922 204.554C361.736 204.487 361.578 204.406 361.447 204.31C361.318 204.215 361.219 204.103 361.149 203.974C361.08 203.845 361.045 203.695 361.045 203.522C361.045 203.357 361.081 203.202 361.153 203.055C361.228 202.908 361.332 202.778 361.466 202.665C361.602 202.551 361.766 202.463 361.957 202.398C362.147 202.334 362.36 202.302 362.594 202.302C362.929 202.302 363.215 202.361 363.452 202.479C363.689 202.598 363.87 202.756 363.996 202.954C364.122 203.15 364.186 203.368 364.186 203.607H363.471C363.471 203.491 363.436 203.379 363.367 203.271C363.3 203.16 363.2 203.069 363.069 202.997C362.94 202.925 362.782 202.889 362.594 202.889C362.396 202.889 362.235 202.92 362.111 202.981C361.99 203.041 361.901 203.117 361.845 203.209C361.79 203.302 361.763 203.4 361.763 203.503C361.763 203.58 361.776 203.65 361.802 203.712C361.83 203.771 361.879 203.826 361.949 203.878C362.018 203.927 362.116 203.973 362.242 204.017C362.369 204.061 362.53 204.104 362.725 204.148C363.068 204.225 363.35 204.318 363.571 204.426C363.793 204.534 363.958 204.667 364.066 204.824C364.174 204.981 364.228 205.172 364.228 205.396C364.228 205.579 364.189 205.746 364.112 205.898C364.037 206.05 363.928 206.181 363.784 206.292C363.642 206.4 363.472 206.485 363.274 206.547C363.078 206.606 362.858 206.636 362.613 206.636C362.245 206.636 361.933 206.57 361.678 206.439C361.423 206.307 361.23 206.138 361.099 205.929C360.968 205.72 360.902 205.5 360.902 205.268H361.621C361.631 205.464 361.687 205.62 361.79 205.736C361.893 205.849 362.02 205.93 362.169 205.979C362.318 206.025 362.467 206.049 362.613 206.049C362.809 206.049 362.973 206.023 363.104 205.971C363.238 205.92 363.34 205.849 363.409 205.759C363.479 205.669 363.513 205.566 363.513 205.45ZM366.901 206.636C366.61 206.636 366.346 206.587 366.109 206.489C365.875 206.389 365.673 206.248 365.503 206.068C365.335 205.888 365.207 205.674 365.117 205.427C365.026 205.179 364.981 204.909 364.981 204.615V204.453C364.981 204.113 365.032 203.811 365.132 203.545C365.232 203.278 365.369 203.051 365.541 202.866C365.714 202.68 365.91 202.54 366.129 202.444C366.348 202.349 366.574 202.302 366.809 202.302C367.107 202.302 367.365 202.353 367.581 202.456C367.8 202.559 367.979 202.703 368.118 202.889C368.257 203.072 368.36 203.288 368.427 203.538C368.494 203.785 368.528 204.055 368.528 204.349V204.67H365.406V204.086H367.813V204.032C367.803 203.847 367.764 203.666 367.697 203.491C367.633 203.316 367.53 203.172 367.388 203.059C367.246 202.945 367.053 202.889 366.809 202.889C366.646 202.889 366.497 202.923 366.36 202.993C366.224 203.06 366.107 203.16 366.009 203.294C365.911 203.428 365.835 203.592 365.781 203.785C365.727 203.978 365.7 204.201 365.7 204.453V204.615C365.7 204.814 365.727 205.001 365.781 205.176C365.838 205.348 365.919 205.5 366.024 205.631C366.133 205.763 366.263 205.866 366.415 205.941C366.569 206.015 366.744 206.053 366.94 206.053C367.192 206.053 367.406 206.001 367.581 205.898C367.756 205.795 367.909 205.657 368.041 205.485L368.473 205.828C368.383 205.965 368.269 206.095 368.13 206.219C367.991 206.342 367.819 206.443 367.616 206.52C367.415 206.597 367.177 206.636 366.901 206.636ZM371.112 202.379V202.927H368.852V202.379H371.112ZM369.617 201.363H370.332V205.523C370.332 205.665 370.353 205.772 370.397 205.844C370.441 205.916 370.498 205.964 370.567 205.987C370.637 206.01 370.711 206.022 370.791 206.022C370.851 206.022 370.912 206.016 370.977 206.006C371.044 205.993 371.094 205.983 371.127 205.975L371.131 206.559C371.075 206.577 371 206.593 370.907 206.609C370.817 206.627 370.708 206.636 370.579 206.636C370.404 206.636 370.243 206.601 370.096 206.532C369.949 206.462 369.832 206.346 369.744 206.184C369.659 206.019 369.617 205.798 369.617 205.519V201.363ZM375.087 206.126L376.25 202.379H377.015L375.338 207.204C375.299 207.307 375.248 207.417 375.184 207.536C375.122 207.657 375.042 207.772 374.944 207.88C374.846 207.988 374.728 208.075 374.589 208.142C374.452 208.212 374.289 208.247 374.098 208.247C374.041 208.247 373.969 208.239 373.882 208.224C373.794 208.208 373.732 208.195 373.696 208.185L373.692 207.605C373.713 207.608 373.745 207.611 373.789 207.613C373.835 207.618 373.868 207.621 373.886 207.621C374.048 207.621 374.186 207.599 374.299 207.555C374.412 207.514 374.508 207.443 374.585 207.343C374.665 207.245 374.733 207.11 374.79 206.937L375.087 206.126ZM374.233 202.379L375.319 205.624L375.504 206.377L374.99 206.64L373.453 202.379H374.233ZM377.409 204.515V204.426C377.409 204.125 377.452 203.845 377.54 203.588C377.628 203.328 377.754 203.102 377.919 202.912C378.083 202.719 378.283 202.569 378.517 202.464C378.752 202.356 379.014 202.302 379.305 202.302C379.599 202.302 379.863 202.356 380.097 202.464C380.334 202.569 380.535 202.719 380.7 202.912C380.867 203.102 380.995 203.328 381.082 203.588C381.17 203.845 381.214 204.125 381.214 204.426V204.515C381.214 204.816 381.17 205.096 381.082 205.353C380.995 205.611 380.867 205.836 380.7 206.029C380.535 206.22 380.336 206.369 380.101 206.477C379.869 206.583 379.607 206.636 379.313 206.636C379.02 206.636 378.756 206.583 378.521 206.477C378.287 206.369 378.086 206.22 377.919 206.029C377.754 205.836 377.628 205.611 377.54 205.353C377.452 205.096 377.409 204.816 377.409 204.515ZM378.123 204.426V204.515C378.123 204.724 378.148 204.921 378.197 205.106C378.246 205.289 378.319 205.451 378.417 205.593C378.517 205.734 378.642 205.847 378.792 205.929C378.941 206.009 379.115 206.049 379.313 206.049C379.509 206.049 379.68 206.009 379.827 205.929C379.976 205.847 380.1 205.734 380.198 205.593C380.296 205.451 380.369 205.289 380.418 205.106C380.469 204.921 380.495 204.724 380.495 204.515V204.426C380.495 204.22 380.469 204.026 380.418 203.843C380.369 203.657 380.294 203.494 380.194 203.352C380.096 203.208 379.972 203.095 379.823 203.012C379.676 202.93 379.504 202.889 379.305 202.889C379.11 202.889 378.937 202.93 378.788 203.012C378.641 203.095 378.517 203.208 378.417 203.352C378.319 203.494 378.246 203.657 378.197 203.843C378.148 204.026 378.123 204.22 378.123 204.426ZM384.667 205.593V202.379H385.386V206.559H384.702L384.667 205.593ZM384.802 204.712L385.1 204.704C385.1 204.982 385.07 205.24 385.011 205.477C384.954 205.711 384.862 205.915 384.733 206.087C384.604 206.26 384.435 206.395 384.227 206.493C384.018 206.588 383.765 206.636 383.466 206.636C383.262 206.636 383.076 206.606 382.906 206.547C382.738 206.488 382.594 206.396 382.473 206.273C382.352 206.149 382.258 205.988 382.191 205.79C382.127 205.592 382.094 205.353 382.094 205.075V202.379H382.809V205.083C382.809 205.271 382.83 205.427 382.871 205.55C382.915 205.671 382.973 205.768 383.045 205.84C383.119 205.91 383.202 205.959 383.292 205.987C383.385 206.015 383.48 206.029 383.578 206.029C383.882 206.029 384.123 205.971 384.3 205.856C384.478 205.737 384.605 205.579 384.683 205.38C384.763 205.179 384.802 204.957 384.802 204.712ZM387.19 203.036V206.559H386.475V202.379H387.171L387.19 203.036ZM388.496 202.356L388.492 203.02C388.432 203.007 388.376 202.999 388.322 202.997C388.27 202.992 388.211 202.989 388.144 202.989C387.979 202.989 387.834 203.015 387.707 203.066C387.581 203.118 387.474 203.19 387.387 203.283C387.299 203.375 387.23 203.486 387.178 203.615C387.129 203.741 387.097 203.88 387.082 204.032L386.881 204.148C386.881 203.896 386.905 203.659 386.954 203.437C387.006 203.216 387.084 203.02 387.19 202.85C387.295 202.678 387.429 202.544 387.592 202.448C387.756 202.35 387.952 202.302 388.179 202.302C388.23 202.302 388.289 202.308 388.356 202.321C388.423 202.331 388.47 202.343 388.496 202.356ZM391.833 203.182V208.166H391.115V202.379H391.771L391.833 203.182ZM394.649 204.434V204.515C394.649 204.819 394.613 205.101 394.541 205.361C394.469 205.619 394.363 205.843 394.224 206.033C394.088 206.224 393.919 206.372 393.718 206.477C393.517 206.583 393.287 206.636 393.027 206.636C392.762 206.636 392.527 206.592 392.324 206.505C392.12 206.417 391.948 206.289 391.806 206.122C391.664 205.955 391.551 205.754 391.466 205.519C391.384 205.285 391.327 205.021 391.296 204.728V204.295C391.327 203.986 391.385 203.709 391.47 203.464C391.555 203.22 391.667 203.011 391.806 202.839C391.948 202.663 392.119 202.531 392.32 202.441C392.521 202.348 392.753 202.302 393.015 202.302C393.278 202.302 393.511 202.353 393.714 202.456C393.918 202.557 394.089 202.701 394.228 202.889C394.367 203.077 394.472 203.302 394.541 203.565C394.613 203.825 394.649 204.115 394.649 204.434ZM393.931 204.515V204.434C393.931 204.225 393.909 204.03 393.865 203.847C393.821 203.661 393.753 203.499 393.66 203.36C393.57 203.218 393.454 203.108 393.313 203.028C393.171 202.945 393.002 202.904 392.807 202.904C392.626 202.904 392.469 202.935 392.335 202.997C392.204 203.059 392.092 203.142 391.999 203.248C391.907 203.351 391.831 203.469 391.771 203.603C391.715 203.735 391.672 203.871 391.644 204.013V205.013C391.695 205.194 391.767 205.364 391.86 205.523C391.953 205.68 392.077 205.808 392.231 205.906C392.386 206.001 392.58 206.049 392.814 206.049C393.008 206.049 393.174 206.009 393.313 205.929C393.454 205.847 393.57 205.734 393.66 205.593C393.753 205.451 393.821 205.289 393.865 205.106C393.909 204.921 393.931 204.724 393.931 204.515ZM398.026 205.844V203.692C398.026 203.527 397.992 203.384 397.925 203.263C397.861 203.14 397.763 203.045 397.632 202.978C397.5 202.911 397.338 202.877 397.145 202.877C396.965 202.877 396.806 202.908 396.67 202.97C396.536 203.032 396.43 203.113 396.353 203.213C396.278 203.314 396.241 203.422 396.241 203.538H395.526C395.526 203.388 395.565 203.24 395.642 203.093C395.719 202.947 395.83 202.814 395.974 202.696C396.121 202.575 396.296 202.479 396.5 202.41C396.706 202.338 396.935 202.302 397.187 202.302C397.491 202.302 397.759 202.353 397.991 202.456C398.225 202.559 398.408 202.715 398.539 202.923C398.673 203.13 398.74 203.388 398.74 203.7V205.647C398.74 205.786 398.752 205.934 398.775 206.091C398.801 206.248 398.838 206.383 398.887 206.497V206.559H398.141C398.105 206.476 398.077 206.367 398.056 206.23C398.036 206.091 398.026 205.962 398.026 205.844ZM398.149 204.024L398.157 204.527H397.435C397.231 204.527 397.05 204.543 396.89 204.577C396.73 204.608 396.596 204.655 396.488 204.72C396.38 204.784 396.298 204.865 396.241 204.963C396.184 205.058 396.156 205.17 396.156 205.299C396.156 205.431 396.185 205.55 396.245 205.659C396.304 205.767 396.393 205.853 396.511 205.917C396.632 205.979 396.78 206.01 396.956 206.01C397.174 206.01 397.368 205.964 397.535 205.871C397.702 205.778 397.835 205.665 397.933 205.531C398.033 205.397 398.087 205.267 398.095 205.141L398.4 205.485C398.382 205.593 398.333 205.713 398.253 205.844C398.174 205.975 398.067 206.101 397.933 206.223C397.802 206.341 397.644 206.44 397.462 206.52C397.281 206.597 397.078 206.636 396.851 206.636C396.568 206.636 396.319 206.58 396.106 206.47C395.894 206.359 395.73 206.211 395.611 206.025C395.495 205.837 395.437 205.628 395.437 205.396C395.437 205.172 395.481 204.975 395.569 204.805C395.656 204.632 395.782 204.489 395.947 204.376C396.112 204.26 396.31 204.173 396.542 204.113C396.774 204.054 397.033 204.024 397.319 204.024H398.149ZM402.298 205.45C402.298 205.347 402.275 205.252 402.229 205.164C402.185 205.074 402.093 204.993 401.954 204.921C401.818 204.846 401.612 204.782 401.336 204.728C401.104 204.679 400.895 204.621 400.707 204.554C400.521 204.487 400.363 204.406 400.231 204.31C400.103 204.215 400.003 204.103 399.934 203.974C399.864 203.845 399.83 203.695 399.83 203.522C399.83 203.357 399.866 203.202 399.938 203.055C400.012 202.908 400.117 202.778 400.251 202.665C400.387 202.551 400.551 202.463 400.741 202.398C400.932 202.334 401.144 202.302 401.379 202.302C401.713 202.302 401.999 202.361 402.236 202.479C402.473 202.598 402.655 202.756 402.781 202.954C402.907 203.15 402.97 203.368 402.97 203.607H402.256C402.256 203.491 402.221 203.379 402.151 203.271C402.084 203.16 401.985 203.069 401.854 202.997C401.725 202.925 401.567 202.889 401.379 202.889C401.18 202.889 401.019 202.92 400.896 202.981C400.775 203.041 400.686 203.117 400.629 203.209C400.575 203.302 400.548 203.4 400.548 203.503C400.548 203.58 400.561 203.65 400.587 203.712C400.615 203.771 400.664 203.826 400.734 203.878C400.803 203.927 400.901 203.973 401.027 204.017C401.153 204.061 401.314 204.104 401.51 204.148C401.853 204.225 402.135 204.318 402.356 204.426C402.578 204.534 402.742 204.667 402.85 204.824C402.959 204.981 403.013 205.172 403.013 205.396C403.013 205.579 402.974 205.746 402.897 205.898C402.822 206.05 402.713 206.181 402.568 206.292C402.427 206.4 402.257 206.485 402.059 206.547C401.863 206.606 401.643 206.636 401.398 206.636C401.03 206.636 400.718 206.57 400.463 206.439C400.208 206.307 400.015 206.138 399.884 205.929C399.752 205.72 399.687 205.5 399.687 205.268H400.405C400.416 205.464 400.472 205.62 400.575 205.736C400.678 205.849 400.804 205.93 400.954 205.979C401.103 206.025 401.251 206.049 401.398 206.049C401.594 206.049 401.757 206.023 401.889 205.971C402.023 205.92 402.124 205.849 402.194 205.759C402.263 205.669 402.298 205.566 402.298 205.45ZM406.385 205.45C406.385 205.347 406.362 205.252 406.316 205.164C406.272 205.074 406.18 204.993 406.041 204.921C405.905 204.846 405.699 204.782 405.423 204.728C405.191 204.679 404.982 204.621 404.794 204.554C404.608 204.487 404.45 204.406 404.318 204.31C404.19 204.215 404.091 204.103 404.021 203.974C403.951 203.845 403.917 203.695 403.917 203.522C403.917 203.357 403.953 203.202 404.025 203.055C404.1 202.908 404.204 202.778 404.338 202.665C404.474 202.551 404.638 202.463 404.828 202.398C405.019 202.334 405.231 202.302 405.466 202.302C405.801 202.302 406.086 202.361 406.323 202.479C406.56 202.598 406.742 202.756 406.868 202.954C406.994 203.15 407.057 203.368 407.057 203.607H406.343C406.343 203.491 406.308 203.379 406.238 203.271C406.171 203.16 406.072 203.069 405.941 202.997C405.812 202.925 405.654 202.889 405.466 202.889C405.267 202.889 405.106 202.92 404.983 202.981C404.862 203.041 404.773 203.117 404.716 203.209C404.662 203.302 404.635 203.4 404.635 203.503C404.635 203.58 404.648 203.65 404.674 203.712C404.702 203.771 404.751 203.826 404.821 203.878C404.89 203.927 404.988 203.973 405.114 204.017C405.24 204.061 405.401 204.104 405.597 204.148C405.94 204.225 406.222 204.318 406.443 204.426C406.665 204.534 406.829 204.667 406.938 204.824C407.046 204.981 407.1 205.172 407.1 205.396C407.1 205.579 407.061 205.746 406.984 205.898C406.909 206.05 406.8 206.181 406.656 206.292C406.514 206.4 406.344 206.485 406.146 206.547C405.95 206.606 405.73 206.636 405.485 206.636C405.117 206.636 404.805 206.57 404.55 206.439C404.295 206.307 404.102 206.138 403.971 205.929C403.839 205.72 403.774 205.5 403.774 205.268H404.492C404.503 205.464 404.559 205.62 404.662 205.736C404.765 205.849 404.891 205.93 405.041 205.979C405.19 206.025 405.338 206.049 405.485 206.049C405.681 206.049 405.844 206.023 405.976 205.971C406.11 205.92 406.211 205.849 406.281 205.759C406.35 205.669 406.385 205.566 406.385 205.45ZM409.097 205.817L410.171 202.379H410.642L410.549 203.063L409.456 206.559H408.997L409.097 205.817ZM408.375 202.379L409.29 205.856L409.356 206.559H408.873L407.66 202.379H408.375ZM411.67 205.828L412.543 202.379H413.254L412.041 206.559H411.562L411.67 205.828ZM410.746 202.379L411.797 205.759L411.917 206.559H411.461L410.337 203.055L410.244 202.379H410.746ZM413.798 204.515V204.426C413.798 204.125 413.842 203.845 413.93 203.588C414.017 203.328 414.143 203.102 414.308 202.912C414.473 202.719 414.673 202.569 414.907 202.464C415.141 202.356 415.404 202.302 415.695 202.302C415.989 202.302 416.253 202.356 416.487 202.464C416.724 202.569 416.925 202.719 417.09 202.912C417.257 203.102 417.384 203.328 417.472 203.588C417.56 203.845 417.603 204.125 417.603 204.426V204.515C417.603 204.816 417.56 205.096 417.472 205.353C417.384 205.611 417.257 205.836 417.09 206.029C416.925 206.22 416.725 206.369 416.491 206.477C416.259 206.583 415.996 206.636 415.703 206.636C415.409 206.636 415.145 206.583 414.911 206.477C414.676 206.369 414.476 206.22 414.308 206.029C414.143 205.836 414.017 205.611 413.93 205.353C413.842 205.096 413.798 204.816 413.798 204.515ZM414.513 204.426V204.515C414.513 204.724 414.537 204.921 414.586 205.106C414.635 205.289 414.709 205.451 414.807 205.593C414.907 205.734 415.032 205.847 415.181 205.929C415.331 206.009 415.504 206.049 415.703 206.049C415.898 206.049 416.07 206.009 416.217 205.929C416.366 205.847 416.49 205.734 416.587 205.593C416.685 205.451 416.759 205.289 416.808 205.106C416.859 204.921 416.885 204.724 416.885 204.515V204.426C416.885 204.22 416.859 204.026 416.808 203.843C416.759 203.657 416.684 203.494 416.584 203.352C416.486 203.208 416.362 203.095 416.213 203.012C416.066 202.93 415.893 202.889 415.695 202.889C415.499 202.889 415.327 202.93 415.177 203.012C415.031 203.095 414.907 203.208 414.807 203.352C414.709 203.494 414.635 203.657 414.586 203.843C414.537 204.026 414.513 204.22 414.513 204.426ZM419.214 203.036V206.559H418.5V202.379H419.195L419.214 203.036ZM420.52 202.356L420.516 203.02C420.457 203.007 420.4 202.999 420.346 202.997C420.295 202.992 420.235 202.989 420.168 202.989C420.004 202.989 419.858 203.015 419.732 203.066C419.606 203.118 419.499 203.19 419.411 203.283C419.324 203.375 419.254 203.486 419.203 203.615C419.154 203.741 419.122 203.88 419.106 204.032L418.905 204.148C418.905 203.896 418.93 203.659 418.979 203.437C419.03 203.216 419.109 203.02 419.214 202.85C419.32 202.678 419.454 202.544 419.616 202.448C419.781 202.35 419.977 202.302 420.203 202.302C420.255 202.302 420.314 202.308 420.381 202.321C420.448 202.331 420.494 202.343 420.52 202.356ZM423.738 205.747V200.625H424.456V206.559H423.8L423.738 205.747ZM420.926 204.515V204.434C420.926 204.115 420.964 203.825 421.041 203.565C421.121 203.302 421.233 203.077 421.378 202.889C421.524 202.701 421.698 202.557 421.899 202.456C422.102 202.353 422.329 202.302 422.579 202.302C422.842 202.302 423.071 202.348 423.267 202.441C423.465 202.531 423.632 202.663 423.769 202.839C423.908 203.011 424.017 203.22 424.097 203.464C424.177 203.709 424.232 203.986 424.263 204.295V204.65C424.235 204.957 424.179 205.232 424.097 205.477C424.017 205.722 423.908 205.93 423.769 206.103C423.632 206.275 423.465 206.408 423.267 206.501C423.068 206.591 422.836 206.636 422.571 206.636C422.327 206.636 422.102 206.583 421.899 206.477C421.698 206.372 421.524 206.224 421.378 206.033C421.233 205.843 421.121 205.619 421.041 205.361C420.964 205.101 420.926 204.819 420.926 204.515ZM421.644 204.434V204.515C421.644 204.724 421.665 204.919 421.706 205.102C421.75 205.285 421.817 205.446 421.907 205.585C421.997 205.724 422.111 205.834 422.251 205.913C422.39 205.991 422.556 206.029 422.749 206.029C422.986 206.029 423.18 205.979 423.332 205.879C423.487 205.778 423.61 205.646 423.703 205.481C423.796 205.316 423.868 205.137 423.919 204.944V204.013C423.888 203.871 423.843 203.735 423.784 203.603C423.728 203.469 423.653 203.351 423.56 203.248C423.47 203.142 423.358 203.059 423.224 202.997C423.093 202.935 422.937 202.904 422.757 202.904C422.561 202.904 422.392 202.945 422.251 203.028C422.111 203.108 421.997 203.218 421.907 203.36C421.817 203.499 421.75 203.661 421.706 203.847C421.665 204.03 421.644 204.225 421.644 204.434Z" fill="#0E0E0E"/>
<path d="M276.691 233.614V234.383H273.705V233.614H276.691ZM273.979 228.758V234.383H273.009V228.758H273.979ZM276.301 231.107V231.864H273.705V231.107H276.301ZM276.671 228.758V229.531H273.705V228.758H276.671ZM278.321 231.053V234.383H277.39V230.203H278.267L278.321 231.053ZM278.17 232.138L277.853 232.135C277.853 231.846 277.89 231.58 277.962 231.335C278.034 231.09 278.139 230.878 278.278 230.697C278.417 230.515 278.59 230.374 278.796 230.276C279.005 230.176 279.245 230.126 279.518 230.126C279.709 230.126 279.883 230.154 280.04 230.211C280.2 230.265 280.337 230.351 280.453 230.47C280.572 230.588 280.662 230.74 280.724 230.925C280.788 231.111 280.82 231.335 280.82 231.598V234.383H279.889V231.679C279.889 231.475 279.858 231.316 279.797 231.2C279.737 231.084 279.651 231.001 279.538 230.952C279.427 230.901 279.294 230.875 279.14 230.875C278.965 230.875 278.815 230.909 278.692 230.976C278.571 231.043 278.472 231.134 278.394 231.25C278.317 231.366 278.26 231.5 278.224 231.652C278.188 231.804 278.17 231.966 278.17 232.138ZM280.762 231.891L280.326 231.988C280.326 231.735 280.361 231.497 280.43 231.273C280.502 231.046 280.606 230.848 280.743 230.678C280.882 230.506 281.053 230.37 281.257 230.273C281.46 230.175 281.693 230.126 281.956 230.126C282.17 230.126 282.36 230.155 282.528 230.215C282.698 230.271 282.842 230.361 282.96 230.485C283.079 230.609 283.169 230.77 283.231 230.968C283.293 231.164 283.323 231.401 283.323 231.679V234.383H282.389V231.675C282.389 231.464 282.358 231.3 282.296 231.184C282.237 231.068 282.152 230.989 282.041 230.945C281.93 230.898 281.798 230.875 281.643 230.875C281.499 230.875 281.371 230.902 281.261 230.956C281.152 231.008 281.061 231.081 280.986 231.177C280.912 231.269 280.855 231.376 280.816 231.497C280.78 231.618 280.762 231.75 280.762 231.891ZM286.638 233.545V231.551C286.638 231.402 286.611 231.273 286.557 231.165C286.503 231.057 286.42 230.973 286.31 230.914C286.201 230.855 286.065 230.825 285.9 230.825C285.748 230.825 285.617 230.851 285.506 230.902C285.395 230.954 285.309 231.023 285.247 231.111C285.185 231.198 285.155 231.298 285.155 231.408H284.227C284.227 231.243 284.267 231.084 284.347 230.929C284.427 230.775 284.543 230.637 284.695 230.516C284.847 230.395 285.028 230.3 285.24 230.23C285.451 230.161 285.688 230.126 285.95 230.126C286.265 230.126 286.543 230.179 286.785 230.284C287.029 230.39 287.221 230.549 287.36 230.763C287.502 230.974 287.573 231.24 287.573 231.559V233.417C287.573 233.608 287.586 233.779 287.611 233.931C287.64 234.08 287.68 234.21 287.731 234.321V234.383H286.777C286.733 234.282 286.698 234.155 286.673 234C286.65 233.843 286.638 233.691 286.638 233.545ZM286.773 231.841L286.781 232.417H286.113C285.94 232.417 285.788 232.433 285.657 232.467C285.525 232.498 285.416 232.544 285.328 232.606C285.241 232.668 285.175 232.742 285.131 232.83C285.088 232.917 285.066 233.017 285.066 233.127C285.066 233.238 285.091 233.34 285.143 233.433C285.194 233.523 285.269 233.593 285.367 233.645C285.467 233.696 285.588 233.722 285.73 233.722C285.921 233.722 286.087 233.684 286.228 233.606C286.373 233.527 286.486 233.43 286.568 233.317C286.651 233.201 286.695 233.091 286.7 232.988L287.001 233.402C286.97 233.507 286.917 233.621 286.843 233.742C286.768 233.863 286.67 233.978 286.549 234.089C286.431 234.197 286.288 234.286 286.12 234.356C285.955 234.425 285.765 234.46 285.549 234.46C285.276 234.46 285.032 234.406 284.818 234.298C284.605 234.187 284.437 234.039 284.316 233.854C284.195 233.666 284.135 233.453 284.135 233.216C284.135 232.995 284.176 232.799 284.258 232.629C284.343 232.456 284.467 232.312 284.629 232.196C284.794 232.08 284.995 231.993 285.232 231.934C285.469 231.872 285.739 231.841 286.043 231.841H286.773ZM289.543 230.203V234.383H288.608V230.203H289.543ZM288.546 229.106C288.546 228.964 288.593 228.847 288.685 228.754C288.781 228.659 288.912 228.611 289.079 228.611C289.244 228.611 289.374 228.659 289.47 228.754C289.565 228.847 289.612 228.964 289.612 229.106C289.612 229.245 289.565 229.361 289.47 229.454C289.374 229.546 289.244 229.593 289.079 229.593C288.912 229.593 288.781 229.546 288.685 229.454C288.593 229.361 288.546 229.245 288.546 229.106ZM291.559 228.449V234.383H290.625V228.449H291.559Z" fill="#0E0E0E"/>
<rect x="272.685" y="241.587" width="166.635" height="27.3285" rx="3.7085" fill="white"/>
<path d="M285.757 252.625V258.25H285.012V252.625H285.757ZM287.72 254.963V258.25H287.005V254.07H287.681L287.72 254.963ZM287.55 256.002L287.252 255.99C287.255 255.704 287.297 255.44 287.38 255.198C287.462 254.954 287.578 254.741 287.727 254.561C287.877 254.381 288.054 254.241 288.26 254.144C288.469 254.043 288.7 253.993 288.952 253.993C289.158 253.993 289.343 254.021 289.508 254.078C289.673 254.132 289.813 254.22 289.929 254.341C290.048 254.462 290.138 254.619 290.2 254.812C290.261 255.002 290.292 255.236 290.292 255.511V258.25H289.574V255.503C289.574 255.284 289.542 255.109 289.477 254.978C289.413 254.844 289.319 254.748 289.195 254.688C289.072 254.626 288.92 254.596 288.739 254.596C288.562 254.596 288.399 254.633 288.253 254.708C288.108 254.782 287.984 254.885 287.878 255.017C287.775 255.148 287.694 255.299 287.635 255.469C287.578 255.636 287.55 255.814 287.55 256.002ZM292.093 254.874V259.857H291.374V254.07H292.031L292.093 254.874ZM294.909 256.125V256.206C294.909 256.51 294.873 256.792 294.801 257.052C294.728 257.31 294.623 257.534 294.484 257.725C294.347 257.915 294.179 258.063 293.978 258.169C293.777 258.274 293.546 258.327 293.286 258.327C293.021 258.327 292.787 258.283 292.583 258.196C292.38 258.108 292.207 257.981 292.065 257.813C291.924 257.646 291.811 257.445 291.726 257.211C291.643 256.976 291.586 256.713 291.556 256.419V255.986C291.586 255.677 291.644 255.4 291.729 255.156C291.814 254.911 291.926 254.702 292.065 254.53C292.207 254.355 292.378 254.222 292.579 254.132C292.78 254.039 293.012 253.993 293.275 253.993C293.537 253.993 293.77 254.044 293.974 254.147C294.177 254.248 294.349 254.392 294.488 254.58C294.627 254.768 294.731 254.993 294.801 255.256C294.873 255.516 294.909 255.806 294.909 256.125ZM294.19 256.206V256.125C294.19 255.917 294.168 255.721 294.124 255.538C294.081 255.353 294.012 255.19 293.92 255.051C293.83 254.91 293.714 254.799 293.572 254.719C293.43 254.637 293.262 254.596 293.066 254.596C292.886 254.596 292.729 254.626 292.595 254.688C292.463 254.75 292.351 254.834 292.259 254.939C292.166 255.042 292.09 255.161 292.031 255.295C291.974 255.426 291.932 255.563 291.903 255.704V256.705C291.955 256.885 292.027 257.055 292.12 257.215C292.212 257.372 292.336 257.499 292.49 257.597C292.645 257.692 292.839 257.74 293.074 257.74C293.267 257.74 293.433 257.7 293.572 257.62C293.714 257.538 293.83 257.426 293.92 257.284C294.012 257.143 294.081 256.98 294.124 256.798C294.168 256.612 294.19 256.415 294.19 256.206ZM298.378 257.284V254.07H299.096V258.25H298.412L298.378 257.284ZM298.513 256.403L298.81 256.396C298.81 256.674 298.781 256.931 298.721 257.168C298.665 257.403 298.572 257.606 298.443 257.779C298.315 257.951 298.146 258.086 297.937 258.184C297.729 258.28 297.475 258.327 297.176 258.327C296.973 258.327 296.786 258.298 296.616 258.238C296.449 258.179 296.305 258.088 296.183 257.964C296.062 257.841 295.968 257.68 295.901 257.481C295.837 257.283 295.805 257.045 295.805 256.767V254.07H296.52V256.774C296.52 256.962 296.54 257.118 296.581 257.242C296.625 257.363 296.683 257.459 296.755 257.531C296.83 257.601 296.912 257.65 297.002 257.678C297.095 257.707 297.19 257.721 297.288 257.721C297.592 257.721 297.833 257.663 298.011 257.547C298.188 257.428 298.316 257.27 298.393 257.072C298.473 256.871 298.513 256.648 298.513 256.403ZM301.935 254.07V254.619H299.676V254.07H301.935ZM300.441 253.054H301.155V257.215C301.155 257.356 301.177 257.463 301.221 257.535C301.265 257.607 301.321 257.655 301.391 257.678C301.46 257.701 301.535 257.713 301.615 257.713C301.674 257.713 301.736 257.708 301.8 257.698C301.867 257.685 301.917 257.674 301.951 257.667L301.955 258.25C301.898 258.268 301.823 258.285 301.731 258.3C301.641 258.318 301.531 258.327 301.402 258.327C301.227 258.327 301.066 258.292 300.92 258.223C300.773 258.153 300.656 258.038 300.568 257.875C300.483 257.71 300.441 257.489 300.441 257.211V253.054ZM308.418 257.644V258.25H305.439V257.644H308.418ZM305.59 252.625V258.25H304.844V252.625H305.59ZM308.024 255.044V255.65H305.439V255.044H308.024ZM308.379 252.625V253.236H305.439V252.625H308.379ZM309.944 254.901V258.25H309.225V254.07H309.905L309.944 254.901ZM309.797 256.002L309.465 255.99C309.467 255.704 309.504 255.44 309.577 255.198C309.649 254.954 309.756 254.741 309.897 254.561C310.039 254.381 310.215 254.241 310.426 254.144C310.638 254.043 310.882 253.993 311.16 253.993C311.356 253.993 311.536 254.021 311.701 254.078C311.866 254.132 312.009 254.218 312.13 254.337C312.251 254.455 312.345 254.607 312.412 254.793C312.479 254.978 312.512 255.202 312.512 255.465V258.25H311.798V255.5C311.798 255.281 311.76 255.106 311.686 254.974C311.614 254.843 311.511 254.748 311.377 254.688C311.243 254.626 311.086 254.596 310.905 254.596C310.694 254.596 310.518 254.633 310.376 254.708C310.235 254.782 310.121 254.885 310.036 255.017C309.951 255.148 309.889 255.299 309.851 255.469C309.815 255.636 309.797 255.814 309.797 256.002ZM312.505 255.608L312.026 255.754C312.028 255.525 312.066 255.305 312.138 255.094C312.212 254.883 312.319 254.695 312.458 254.53C312.6 254.365 312.774 254.235 312.98 254.14C313.186 254.042 313.422 253.993 313.687 253.993C313.911 253.993 314.109 254.023 314.282 254.082C314.457 254.141 314.604 254.232 314.722 254.356C314.843 254.477 314.935 254.633 314.996 254.824C315.058 255.014 315.089 255.241 315.089 255.503V258.25H314.371V255.496C314.371 255.261 314.333 255.08 314.259 254.951C314.186 254.82 314.083 254.728 313.949 254.677C313.818 254.623 313.661 254.596 313.478 254.596C313.321 254.596 313.182 254.623 313.061 254.677C312.94 254.731 312.838 254.805 312.756 254.901C312.673 254.993 312.61 255.1 312.567 255.221C312.525 255.342 312.505 255.471 312.505 255.608ZM318.635 257.535V255.384C318.635 255.219 318.602 255.076 318.535 254.955C318.47 254.831 318.373 254.736 318.241 254.669C318.11 254.602 317.948 254.569 317.755 254.569C317.574 254.569 317.416 254.599 317.279 254.661C317.145 254.723 317.04 254.804 316.963 254.905C316.888 255.005 316.851 255.113 316.851 255.229H316.136C316.136 255.08 316.175 254.932 316.252 254.785C316.329 254.638 316.44 254.505 316.584 254.387C316.731 254.266 316.906 254.171 317.109 254.101C317.315 254.029 317.545 253.993 317.797 253.993C318.101 253.993 318.369 254.044 318.601 254.147C318.835 254.25 319.018 254.406 319.149 254.615C319.283 254.821 319.35 255.08 319.35 255.391V257.338C319.35 257.477 319.362 257.625 319.385 257.783C319.41 257.94 319.448 258.075 319.497 258.188V258.25H318.751C318.715 258.168 318.687 258.058 318.666 257.922C318.646 257.783 318.635 257.654 318.635 257.535ZM318.759 255.716L318.767 256.218H318.044C317.841 256.218 317.659 256.235 317.5 256.268C317.34 256.299 317.206 256.347 317.098 256.411C316.99 256.476 316.907 256.557 316.851 256.655C316.794 256.75 316.766 256.862 316.766 256.991C316.766 257.122 316.795 257.242 316.854 257.35C316.914 257.458 317.003 257.544 317.121 257.609C317.242 257.671 317.39 257.701 317.565 257.701C317.784 257.701 317.977 257.655 318.145 257.562C318.312 257.47 318.445 257.356 318.543 257.222C318.643 257.089 318.697 256.958 318.705 256.832L319.01 257.176C318.992 257.284 318.943 257.404 318.863 257.535C318.783 257.667 318.677 257.793 318.543 257.914C318.411 258.032 318.254 258.132 318.071 258.211C317.891 258.289 317.688 258.327 317.461 258.327C317.178 258.327 316.929 258.272 316.715 258.161C316.504 258.05 316.339 257.902 316.221 257.717C316.105 257.529 316.047 257.319 316.047 257.087C316.047 256.863 316.091 256.666 316.178 256.496C316.266 256.324 316.392 256.181 316.557 256.067C316.722 255.952 316.92 255.864 317.152 255.805C317.384 255.745 317.643 255.716 317.928 255.716H318.759ZM321.251 254.07V258.25H320.532V254.07H321.251ZM320.478 252.962C320.478 252.846 320.513 252.748 320.582 252.668C320.654 252.588 320.76 252.548 320.899 252.548C321.036 252.548 321.14 252.588 321.212 252.668C321.287 252.748 321.324 252.846 321.324 252.962C321.324 253.072 321.287 253.168 321.212 253.247C321.14 253.325 321.036 253.363 320.899 253.363C320.76 253.363 320.654 253.325 320.582 253.247C320.513 253.168 320.478 253.072 320.478 252.962ZM323.174 252.316V258.25H322.456V252.316H323.174Z" fill="#636363"/>
<rect x="272.685" y="241.587" width="166.635" height="27.3285" rx="3.7085" stroke="#9C9C9C" stroke-width="0.494466"/>
<rect x="272.932" y="284.984" width="166.141" height="25.8451" rx="3.95573" fill="#0C1096"/>
<path d="M349.474 299.277C349.474 299.146 349.454 299.03 349.413 298.929C349.376 298.827 349.308 298.735 349.209 298.651C349.11 298.567 348.971 298.486 348.792 298.407C348.615 298.326 348.389 298.244 348.114 298.16C347.813 298.067 347.534 297.964 347.279 297.851C347.027 297.735 346.807 297.602 346.619 297.451C346.431 297.298 346.284 297.122 346.18 296.925C346.076 296.726 346.023 296.495 346.023 296.234C346.023 295.977 346.077 295.742 346.184 295.53C346.294 295.319 346.449 295.136 346.649 294.983C346.852 294.826 347.091 294.706 347.366 294.622C347.642 294.535 347.946 294.492 348.279 294.492C348.748 294.492 349.153 294.579 349.491 294.752C349.833 294.926 350.096 295.16 350.278 295.452C350.464 295.745 350.556 296.068 350.556 296.421H349.474C349.474 296.213 349.429 296.029 349.339 295.869C349.252 295.707 349.119 295.58 348.94 295.487C348.763 295.394 348.538 295.348 348.266 295.348C348.008 295.348 347.794 295.387 347.623 295.465C347.452 295.543 347.324 295.649 347.24 295.782C347.156 295.916 347.114 296.066 347.114 296.234C347.114 296.353 347.142 296.462 347.197 296.56C347.252 296.656 347.336 296.746 347.449 296.83C347.562 296.911 347.704 296.988 347.875 297.06C348.046 297.133 348.247 297.202 348.479 297.269C348.829 297.373 349.135 297.489 349.396 297.616C349.657 297.741 349.874 297.883 350.048 298.042C350.222 298.202 350.352 298.383 350.439 298.586C350.526 298.785 350.569 299.013 350.569 299.268C350.569 299.534 350.516 299.775 350.408 299.989C350.301 300.201 350.148 300.382 349.948 300.533C349.751 300.68 349.513 300.795 349.235 300.876C348.96 300.954 348.653 300.993 348.314 300.993C348.01 300.993 347.71 300.953 347.414 300.871C347.122 300.79 346.855 300.667 346.615 300.502C346.374 300.334 346.183 300.125 346.041 299.876C345.899 299.624 345.828 299.33 345.828 298.994H346.919C346.919 299.2 346.953 299.375 347.023 299.52C347.095 299.665 347.195 299.784 347.323 299.876C347.45 299.966 347.598 300.033 347.766 300.076C347.937 300.12 348.12 300.141 348.314 300.141C348.569 300.141 348.782 300.105 348.953 300.033C349.126 299.96 349.257 299.859 349.344 299.729C349.431 299.598 349.474 299.447 349.474 299.277ZM353.503 300.993C353.155 300.993 352.841 300.937 352.56 300.824C352.282 300.708 352.044 300.547 351.847 300.341C351.653 300.136 351.504 299.894 351.399 299.616C351.295 299.337 351.243 299.038 351.243 298.716V298.542C351.243 298.174 351.296 297.841 351.404 297.543C351.511 297.244 351.66 296.989 351.851 296.778C352.043 296.563 352.269 296.4 352.529 296.287C352.79 296.174 353.073 296.117 353.377 296.117C353.713 296.117 354.007 296.174 354.259 296.287C354.511 296.4 354.72 296.559 354.885 296.765C355.053 296.967 355.177 297.209 355.258 297.49C355.343 297.771 355.385 298.081 355.385 298.42V298.868H351.751V298.116H354.35V298.034C354.344 297.845 354.307 297.669 354.237 297.503C354.171 297.338 354.068 297.205 353.929 297.104C353.79 297.002 353.604 296.951 353.372 296.951C353.199 296.951 353.044 296.989 352.907 297.064C352.774 297.137 352.663 297.243 352.573 297.382C352.483 297.521 352.413 297.689 352.364 297.886C352.318 298.08 352.295 298.299 352.295 298.542V298.716C352.295 298.922 352.322 299.113 352.377 299.29C352.435 299.463 352.519 299.616 352.629 299.746C352.739 299.876 352.873 299.979 353.029 300.054C353.185 300.127 353.364 300.163 353.564 300.163C353.816 300.163 354.04 300.112 354.237 300.011C354.434 299.91 354.605 299.766 354.75 299.581L355.302 300.115C355.201 300.263 355.069 300.405 354.906 300.541C354.744 300.674 354.546 300.783 354.311 300.867C354.079 300.951 353.81 300.993 353.503 300.993ZM357.24 297.208V300.906H356.193V296.204H357.179L357.24 297.208ZM357.053 298.381L356.714 298.377C356.717 298.044 356.764 297.738 356.853 297.46C356.946 297.182 357.074 296.943 357.236 296.743C357.401 296.543 357.598 296.389 357.827 296.282C358.056 296.172 358.311 296.117 358.592 296.117C358.818 296.117 359.022 296.149 359.205 296.213C359.39 296.274 359.548 296.373 359.678 296.513C359.812 296.652 359.913 296.833 359.982 297.056C360.052 297.276 360.087 297.547 360.087 297.868V300.906H359.035V297.864C359.035 297.638 359.002 297.46 358.935 297.33C358.871 297.196 358.777 297.102 358.653 297.047C358.531 296.989 358.379 296.96 358.196 296.96C358.017 296.96 357.856 296.998 357.714 297.073C357.572 297.149 357.452 297.251 357.353 297.382C357.258 297.512 357.184 297.663 357.132 297.834C357.079 298.005 357.053 298.187 357.053 298.381ZM364.024 299.933V294.231H365.076V300.906H364.124L364.024 299.933ZM360.965 298.607V298.516C360.965 298.16 361.007 297.835 361.091 297.543C361.175 297.247 361.296 296.993 361.456 296.782C361.615 296.568 361.809 296.404 362.038 296.291C362.267 296.175 362.525 296.117 362.812 296.117C363.096 296.117 363.345 296.172 363.559 296.282C363.774 296.392 363.956 296.55 364.107 296.756C364.257 296.959 364.378 297.202 364.467 297.486C364.557 297.767 364.621 298.08 364.659 298.425V298.716C364.621 299.052 364.557 299.359 364.467 299.637C364.378 299.915 364.257 300.156 364.107 300.359C363.956 300.561 363.772 300.718 363.555 300.828C363.34 300.938 363.09 300.993 362.803 300.993C362.519 300.993 362.263 300.934 362.034 300.815C361.808 300.696 361.615 300.53 361.456 300.315C361.296 300.101 361.175 299.849 361.091 299.559C361.007 299.266 360.965 298.949 360.965 298.607ZM362.012 298.516V298.607C362.012 298.822 362.031 299.022 362.069 299.207C362.109 299.392 362.171 299.556 362.255 299.698C362.339 299.837 362.448 299.947 362.581 300.028C362.717 300.107 362.88 300.146 363.068 300.146C363.306 300.146 363.501 300.094 363.655 299.989C363.808 299.885 363.929 299.744 364.015 299.568C364.105 299.388 364.166 299.188 364.198 298.968V298.181C364.181 298.01 364.144 297.851 364.089 297.703C364.037 297.556 363.966 297.427 363.876 297.317C363.787 297.204 363.675 297.117 363.542 297.056C363.411 296.992 363.256 296.96 363.077 296.96C362.886 296.96 362.723 297.001 362.59 297.082C362.457 297.163 362.347 297.275 362.26 297.416C362.176 297.558 362.113 297.724 362.073 297.912C362.032 298.1 362.012 298.302 362.012 298.516Z" fill="white"/>
<path d="M331.518 327.847H329.906L329.897 327.052H331.305C331.543 327.052 331.744 327.017 331.909 326.948C332.077 326.875 332.205 326.773 332.292 326.639C332.378 326.503 332.422 326.339 332.422 326.148C332.422 325.937 332.381 325.764 332.3 325.631C332.219 325.498 332.095 325.401 331.927 325.34C331.761 325.279 331.55 325.249 331.292 325.249H330.236V330.707H329.145V324.379H331.292C331.64 324.379 331.95 324.413 332.222 324.479C332.497 324.546 332.731 324.65 332.922 324.792C333.116 324.931 333.262 325.108 333.361 325.322C333.462 325.537 333.513 325.792 333.513 326.087C333.513 326.348 333.45 326.587 333.326 326.804C333.201 327.019 333.017 327.194 332.774 327.33C332.531 327.466 332.228 327.548 331.866 327.574L331.518 327.847ZM331.47 330.707H329.562L330.053 329.842H331.47C331.716 329.842 331.922 329.802 332.087 329.721C332.252 329.636 332.376 329.522 332.457 329.377C332.541 329.229 332.583 329.057 332.583 328.86C332.583 328.654 332.547 328.476 332.474 328.325C332.402 328.172 332.287 328.055 332.131 327.973C331.974 327.889 331.77 327.847 331.518 327.847H330.292L330.301 327.052H331.896L332.144 327.352C332.491 327.364 332.777 327.44 333 327.582C333.226 327.724 333.394 327.908 333.504 328.134C333.614 328.36 333.669 328.604 333.669 328.864C333.669 329.267 333.581 329.605 333.404 329.877C333.23 330.149 332.98 330.356 332.652 330.498C332.325 330.637 331.931 330.707 331.47 330.707ZM337.315 329.764V327.521C337.315 327.353 337.285 327.209 337.224 327.087C337.163 326.965 337.071 326.871 336.946 326.804C336.824 326.738 336.671 326.704 336.485 326.704C336.314 326.704 336.167 326.733 336.042 326.791C335.917 326.849 335.82 326.928 335.751 327.026C335.681 327.125 335.647 327.236 335.647 327.361H334.604C334.604 327.175 334.648 326.996 334.738 326.822C334.828 326.648 334.959 326.493 335.129 326.357C335.3 326.221 335.505 326.113 335.742 326.035C335.98 325.957 336.246 325.918 336.542 325.918C336.895 325.918 337.208 325.977 337.481 326.096C337.756 326.215 337.972 326.394 338.128 326.635C338.287 326.873 338.367 327.171 338.367 327.53V329.621C338.367 329.835 338.382 330.028 338.411 330.199C338.442 330.367 338.487 330.513 338.545 330.637V330.707H337.472C337.423 330.594 337.384 330.451 337.355 330.277C337.328 330.1 337.315 329.929 337.315 329.764ZM337.468 327.847L337.476 328.495H336.724C336.53 328.495 336.359 328.514 336.212 328.551C336.064 328.586 335.941 328.638 335.842 328.708C335.744 328.777 335.67 328.861 335.621 328.96C335.571 329.058 335.547 329.17 335.547 329.295C335.547 329.419 335.576 329.534 335.634 329.638C335.692 329.739 335.776 329.819 335.886 329.877C335.999 329.935 336.135 329.964 336.294 329.964C336.509 329.964 336.695 329.92 336.855 329.834C337.017 329.744 337.144 329.635 337.237 329.508C337.33 329.377 337.379 329.254 337.385 329.138L337.724 329.603C337.689 329.722 337.63 329.849 337.546 329.986C337.462 330.122 337.352 330.252 337.215 330.377C337.082 330.498 336.921 330.598 336.733 330.677C336.548 330.755 336.333 330.794 336.09 330.794C335.783 330.794 335.509 330.733 335.269 330.611C335.028 330.487 334.84 330.32 334.704 330.112C334.567 329.9 334.499 329.661 334.499 329.395C334.499 329.145 334.546 328.925 334.638 328.734C334.734 328.54 334.873 328.378 335.056 328.247C335.241 328.117 335.467 328.018 335.734 327.952C336 327.882 336.304 327.847 336.646 327.847H337.468ZM341.383 329.96C341.554 329.96 341.708 329.926 341.844 329.86C341.983 329.79 342.094 329.694 342.178 329.573C342.265 329.451 342.313 329.311 342.322 329.151H343.308C343.303 329.455 343.213 329.732 343.039 329.981C342.865 330.23 342.635 330.429 342.348 330.577C342.061 330.722 341.744 330.794 341.396 330.794C341.037 330.794 340.724 330.733 340.458 330.611C340.191 330.487 339.969 330.316 339.793 330.099C339.616 329.881 339.483 329.631 339.393 329.347C339.306 329.063 339.262 328.759 339.262 328.434V328.282C339.262 327.958 339.306 327.653 339.393 327.369C339.483 327.083 339.616 326.83 339.793 326.613C339.969 326.396 340.191 326.226 340.458 326.105C340.724 325.98 341.036 325.918 341.392 325.918C341.769 325.918 342.099 325.993 342.383 326.144C342.667 326.292 342.89 326.499 343.052 326.765C343.217 327.029 343.303 327.336 343.308 327.687H342.322C342.313 327.513 342.27 327.356 342.192 327.217C342.116 327.075 342.009 326.962 341.87 326.878C341.734 326.794 341.57 326.752 341.379 326.752C341.167 326.752 340.992 326.796 340.853 326.883C340.714 326.967 340.605 327.083 340.527 327.23C340.449 327.375 340.392 327.539 340.358 327.721C340.326 327.901 340.31 328.088 340.31 328.282V328.434C340.31 328.628 340.326 328.817 340.358 328.999C340.389 329.182 340.444 329.345 340.523 329.49C340.604 329.632 340.714 329.747 340.853 329.834C340.992 329.918 341.169 329.96 341.383 329.96ZM345.168 324.032V330.707H344.117V324.032H345.168ZM348.089 326.005L346.042 328.273L344.921 329.421L344.647 328.534L345.494 327.487L346.824 326.005H348.089ZM347.05 330.707L345.525 328.499L346.185 327.765L348.263 330.707H347.05ZM353.126 326.005V326.77H350.475V326.005H353.126ZM351.24 324.853H352.287V329.408C352.287 329.552 352.307 329.664 352.348 329.742C352.391 329.818 352.451 329.868 352.526 329.894C352.601 329.92 352.69 329.933 352.791 329.933C352.864 329.933 352.933 329.929 353 329.92C353.066 329.912 353.12 329.903 353.161 329.894L353.165 330.694C353.078 330.72 352.977 330.743 352.861 330.764C352.748 330.784 352.617 330.794 352.47 330.794C352.229 330.794 352.016 330.752 351.831 330.668C351.645 330.581 351.5 330.44 351.396 330.246C351.292 330.052 351.24 329.794 351.24 329.473V324.853ZM353.63 328.408V328.308C353.63 327.969 353.679 327.655 353.778 327.365C353.876 327.072 354.018 326.819 354.204 326.605C354.392 326.387 354.621 326.219 354.89 326.1C355.163 325.979 355.47 325.918 355.812 325.918C356.156 325.918 356.463 325.979 356.733 326.1C357.005 326.219 357.236 326.387 357.424 326.605C357.612 326.819 357.756 327.072 357.854 327.365C357.953 327.655 358.002 327.969 358.002 328.308V328.408C358.002 328.747 357.953 329.061 357.854 329.351C357.756 329.641 357.612 329.894 357.424 330.112C357.236 330.326 357.007 330.494 356.737 330.616C356.468 330.735 356.162 330.794 355.82 330.794C355.475 330.794 355.167 330.735 354.895 330.616C354.625 330.494 354.396 330.326 354.208 330.112C354.02 329.894 353.876 329.641 353.778 329.351C353.679 329.061 353.63 328.747 353.63 328.408ZM354.677 328.308V328.408C354.677 328.62 354.699 328.819 354.742 329.008C354.786 329.196 354.854 329.361 354.947 329.503C355.039 329.645 355.158 329.757 355.303 329.838C355.448 329.919 355.62 329.96 355.82 329.96C356.014 329.96 356.182 329.919 356.324 329.838C356.469 329.757 356.588 329.645 356.681 329.503C356.773 329.361 356.842 329.196 356.885 329.008C356.931 328.819 356.955 328.62 356.955 328.408V328.308C356.955 328.099 356.931 327.902 356.885 327.717C356.842 327.529 356.772 327.362 356.676 327.217C356.584 327.072 356.465 326.959 356.32 326.878C356.178 326.794 356.009 326.752 355.812 326.752C355.615 326.752 355.444 326.794 355.299 326.878C355.157 326.959 355.039 327.072 354.947 327.217C354.854 327.362 354.786 327.529 354.742 327.717C354.699 327.902 354.677 328.099 354.677 328.308ZM365.164 329.842V330.707H361.987V329.842H365.164ZM362.291 324.379V330.707H361.2V324.379H362.291ZM365.703 328.408V328.308C365.703 327.969 365.752 327.655 365.851 327.365C365.949 327.072 366.091 326.819 366.276 326.605C366.465 326.387 366.694 326.219 366.963 326.1C367.235 325.979 367.543 325.918 367.884 325.918C368.229 325.918 368.536 325.979 368.806 326.1C369.078 326.219 369.308 326.387 369.497 326.605C369.685 326.819 369.829 327.072 369.927 327.365C370.026 327.655 370.075 327.969 370.075 328.308V328.408C370.075 328.747 370.026 329.061 369.927 329.351C369.829 329.641 369.685 329.894 369.497 330.112C369.308 330.326 369.08 330.494 368.81 330.616C368.541 330.735 368.235 330.794 367.893 330.794C367.548 330.794 367.24 330.735 366.967 330.616C366.698 330.494 366.469 330.326 366.281 330.112C366.092 329.894 365.949 329.641 365.851 329.351C365.752 329.061 365.703 328.747 365.703 328.408ZM366.75 328.308V328.408C366.75 328.62 366.772 328.819 366.815 329.008C366.859 329.196 366.927 329.361 367.02 329.503C367.112 329.645 367.231 329.757 367.376 329.838C367.521 329.919 367.693 329.96 367.893 329.96C368.087 329.96 368.255 329.919 368.397 329.838C368.542 329.757 368.661 329.645 368.754 329.503C368.846 329.361 368.914 329.196 368.958 329.008C369.004 328.819 369.027 328.62 369.027 328.408V328.308C369.027 328.099 369.004 327.902 368.958 327.717C368.914 327.529 368.845 327.362 368.749 327.217C368.657 327.072 368.538 326.959 368.393 326.878C368.251 326.794 368.081 326.752 367.884 326.752C367.687 326.752 367.516 326.794 367.372 326.878C367.23 326.959 367.112 327.072 367.02 327.217C366.927 327.362 366.859 327.529 366.815 327.717C366.772 327.902 366.75 328.099 366.75 328.308ZM373.964 326.005H374.916V330.577C374.916 331 374.826 331.359 374.647 331.654C374.467 331.95 374.216 332.174 373.895 332.328C373.573 332.485 373.201 332.563 372.778 332.563C372.598 332.563 372.398 332.537 372.178 332.485C371.961 332.432 371.749 332.348 371.544 332.232C371.341 332.119 371.171 331.97 371.035 331.785L371.526 331.168C371.694 331.368 371.88 331.514 372.083 331.607C372.285 331.699 372.498 331.746 372.721 331.746C372.962 331.746 373.166 331.701 373.334 331.611C373.505 331.524 373.637 331.395 373.73 331.224C373.822 331.053 373.869 330.845 373.869 330.598V327.07L373.964 326.005ZM370.77 328.408V328.317C370.77 327.96 370.814 327.636 370.9 327.343C370.987 327.048 371.112 326.794 371.274 326.583C371.436 326.368 371.634 326.205 371.865 326.092C372.097 325.976 372.359 325.918 372.652 325.918C372.956 325.918 373.215 325.973 373.43 326.083C373.647 326.193 373.828 326.351 373.973 326.557C374.118 326.76 374.231 327.003 374.312 327.287C374.396 327.568 374.458 327.881 374.499 328.226V328.517C374.461 328.853 374.397 329.16 374.308 329.438C374.218 329.716 374.099 329.957 373.951 330.159C373.804 330.362 373.621 330.519 373.404 330.629C373.189 330.739 372.936 330.794 372.643 330.794C372.356 330.794 372.097 330.735 371.865 330.616C371.636 330.497 371.439 330.33 371.274 330.116C371.112 329.902 370.987 329.65 370.9 329.36C370.814 329.067 370.77 328.75 370.77 328.408ZM371.817 328.317V328.408C371.817 328.622 371.838 328.822 371.878 329.008C371.922 329.193 371.987 329.357 372.074 329.499C372.164 329.638 372.277 329.748 372.413 329.829C372.552 329.907 372.716 329.946 372.904 329.946C373.15 329.946 373.352 329.894 373.508 329.79C373.667 329.686 373.789 329.545 373.873 329.368C373.96 329.189 374.021 328.989 374.056 328.769V327.982C374.038 327.811 374.002 327.652 373.947 327.504C373.895 327.356 373.824 327.227 373.734 327.117C373.644 327.004 373.531 326.917 373.395 326.857C373.259 326.793 373.098 326.761 372.913 326.761C372.724 326.761 372.561 326.802 372.422 326.883C372.282 326.964 372.168 327.075 372.078 327.217C371.991 327.359 371.926 327.524 371.883 327.713C371.839 327.901 371.817 328.102 371.817 328.317ZM377.124 326.005V330.707H376.072V326.005H377.124ZM376.003 324.771C376.003 324.611 376.055 324.479 376.159 324.375C376.266 324.268 376.414 324.214 376.602 324.214C376.788 324.214 376.934 324.268 377.041 324.375C377.148 324.479 377.202 324.611 377.202 324.771C377.202 324.927 377.148 325.057 377.041 325.162C376.934 325.266 376.788 325.318 376.602 325.318C376.414 325.318 376.266 325.266 376.159 325.162C376.055 325.057 376.003 324.927 376.003 324.771ZM379.31 327.009V330.707H378.262V326.005H379.249L379.31 327.009ZM379.123 328.182L378.784 328.178C378.787 327.845 378.833 327.539 378.923 327.261C379.016 326.983 379.143 326.744 379.305 326.544C379.471 326.344 379.668 326.19 379.896 326.083C380.125 325.973 380.38 325.918 380.661 325.918C380.887 325.918 381.092 325.95 381.274 326.013C381.46 326.074 381.617 326.174 381.748 326.313C381.881 326.452 381.983 326.633 382.052 326.857C382.122 327.077 382.156 327.348 382.156 327.669V330.707H381.105V327.665C381.105 327.439 381.071 327.261 381.005 327.13C380.941 326.997 380.847 326.903 380.722 326.848C380.601 326.79 380.448 326.761 380.266 326.761C380.086 326.761 379.925 326.799 379.784 326.874C379.642 326.949 379.521 327.052 379.423 327.183C379.327 327.313 379.253 327.464 379.201 327.634C379.149 327.805 379.123 327.988 379.123 328.182Z" fill="#0C1096"/>
</g>
</g>
<defs>
<filter id="filter0_d_2427_330070" x="248.703" y="146.913" width="214.598" height="221.406" filterUnits="userSpaceOnUse" color-interpolation-filters="sRGB">
<feFlood flood-opacity="0" result="BackgroundImageFix"/>
<feColorMatrix in="SourceAlpha" type="matrix" values="0 0 0 0 0 0 0 0 0 0 0 0 0 0 0 0 0 0 127 0" result="hardAlpha"/>
<feOffset dy="3.95573"/>
<feGaussianBlur stdDeviation="5.93359"/>
<feComposite in2="hardAlpha" operator="out"/>
<feColorMatrix type="matrix" values="0 0 0 0 0.584314 0 0 0 0 0.615686 0 0 0 0 0.647059 0 0 0 0.2 0"/>
<feBlend mode="normal" in2="BackgroundImageFix" result="effect1_dropShadow_2427_330070"/>
<feBlend mode="normal" in="SourceGraphic" in2="effect1_dropShadow_2427_330070" result="shape"/>
</filter>
<clipPath id="clip0_2427_330070">
<rect width="712" height="506.311" fill="white" transform="translate(0 0.558594)"/>
</clipPath>
</defs>
</svg>
