<svg width="408" height="217" viewBox="0 0 408 217" fill="none" xmlns="http://www.w3.org/2000/svg">
<path d="M95.4996 140.984H76.3502M84.5479 120.426H44.3186H84.5479ZM30.677 120.426H20.79H30.677Z" stroke="#D0D1FB" stroke-width="2.5" stroke-linecap="round" stroke-linejoin="round"/>
<path d="M306.298 89.4564H287.148M321.11 71.2402H280.881H321.11ZM337.506 71.2402H332.303H337.506Z" stroke="#D0D1FB" stroke-width="2.5" stroke-linecap="round" stroke-linejoin="round"/>
<path fill-rule="evenodd" clip-rule="evenodd" d="M383.179 8C392.234 8 399.575 15.3405 399.575 24.3955C399.575 33.4505 392.234 40.791 383.179 40.791H289.491C298.546 40.791 305.886 48.1315 305.886 57.1865C305.886 66.2415 298.546 73.582 289.491 73.582H341.019C350.074 73.582 357.415 80.9225 357.415 89.9775C357.415 99.0325 350.074 106.373 341.019 106.373H317.19C305.773 106.373 296.517 113.714 296.517 122.769C296.517 128.805 301.202 134.27 310.571 139.164C319.626 139.164 326.966 146.505 326.966 155.56C326.966 164.615 319.626 171.955 310.571 171.955H116.167C107.112 171.955 99.7712 164.615 99.7712 155.56C99.7712 146.505 107.112 139.164 116.167 139.164H24.8203C15.7653 139.164 8.4248 131.824 8.4248 122.769C8.4248 113.714 15.7653 106.373 24.8203 106.373H118.509C127.564 106.373 134.904 99.0325 134.904 89.9775C134.904 80.9225 127.564 73.582 118.509 73.582H59.9535C50.8986 73.582 43.558 66.2415 43.558 57.1865C43.558 48.1315 50.8986 40.791 59.9535 40.791H153.642C144.587 40.791 137.247 33.4505 137.247 24.3955C137.247 15.3405 144.587 8 153.642 8H383.179ZM383.179 73.582C392.234 73.582 399.575 80.9225 399.575 89.9775C399.575 99.0325 392.234 106.373 383.179 106.373C374.124 106.373 366.784 99.0325 366.784 89.9775C366.784 80.9225 374.124 73.582 383.179 73.582Z" fill="#D0D1FB"/>
<path d="M180.577 167.27C223.912 167.27 259.042 132.141 259.042 88.806C259.042 45.4714 223.912 10.3418 180.577 10.3418C137.243 10.3418 102.113 45.4714 102.113 88.806C102.113 132.141 137.243 167.27 180.577 167.27Z" fill="#D0D1FB" stroke="#0C1096" stroke-width="2.5"/>
<path fill-rule="evenodd" clip-rule="evenodd" d="M168.005 149.69C172.124 150.451 176.315 150.846 180.577 150.876C214.857 150.876 242.646 123.087 242.646 88.807C242.646 54.5274 214.857 26.7383 180.577 26.7383C171.772 26.7383 163.394 28.5721 155.806 31.8786C142.619 37.6246 131.816 47.8181 125.292 60.5643C120.955 69.0362 118.509 78.6359 118.509 88.807C118.509 98.0353 120.523 106.793 124.135 114.665C126.714 120.285 130.108 125.454 134.165 130.02" fill="white"/>
<path d="M168.005 149.69C172.124 150.451 176.315 150.846 180.577 150.876C214.857 150.876 242.646 123.087 242.646 88.807C242.646 54.5274 214.857 26.7383 180.577 26.7383C171.772 26.7383 163.394 28.5721 155.806 31.8786C142.619 37.6246 131.816 47.8181 125.292 60.5643C120.955 69.0362 118.509 78.6359 118.509 88.807C118.509 98.0353 120.523 106.793 124.135 114.665C126.714 120.285 130.108 125.454 134.165 130.02" stroke="#0C1096" stroke-width="2.5" stroke-linecap="round"/>
<path d="M141.457 136.996C146.488 141.086 152.173 144.403 158.329 146.768" stroke="#0C1096" stroke-width="2.5" stroke-linecap="round"/>
<path d="M244.988 150.875L259.042 164.928" stroke="#0C1096" stroke-width="2.5"/>
<path fill-rule="evenodd" clip-rule="evenodd" d="M256.769 162.659C252.336 167.092 252.336 174.28 256.769 178.713L282.733 204.677C287.166 209.11 294.354 209.11 298.787 204.677C303.22 200.244 303.22 193.056 298.787 188.623L272.823 162.659C268.39 158.226 261.202 158.226 256.769 162.659Z" fill="#D0D1FB" stroke="#0C1096" stroke-width="2.5"/>
<path d="M268.41 167.27L294.175 193.034" stroke="white" stroke-width="2.5" stroke-linecap="round"/>
<path fill-rule="evenodd" clip-rule="evenodd" d="M165.355 61.8715C165.355 89.0364 187.376 111.058 214.541 111.058C219.878 111.058 225.016 110.208 229.827 108.636C221.973 128.126 202.883 141.883 180.579 141.883C151.266 141.883 127.503 118.12 127.503 88.8069C127.503 62.2451 147.014 40.2405 172.487 36.3438C167.961 43.7879 165.355 52.5252 165.355 61.8715Z" fill="#D0D1FB"/>
<path d="M181.748 45.4746C178.766 45.4746 175.852 45.768 173.033 46.3275M164.521 48.9319C148.498 55.6652 137.246 71.5069 137.246 89.9767" stroke="#D0D1FB" stroke-width="2.5" stroke-linecap="round"/>
</svg>
