<svg width="440" height="204" viewBox="0 0 440 204" fill="none" xmlns="http://www.w3.org/2000/svg">
<path fill-rule="evenodd" clip-rule="evenodd" d="M94.0865 174.623H278.895C279.94 174.623 280.96 174.51 281.941 174.296C282.922 174.51 283.942 174.623 284.987 174.623H390.592C398.443 174.623 404.808 168.258 404.808 160.407C404.808 152.556 398.443 146.191 390.592 146.191H378.407C370.555 146.191 364.191 139.826 364.191 131.975C364.191 124.124 370.555 117.759 378.407 117.759H416.993C424.844 117.759 431.209 111.394 431.209 103.543C431.209 95.6917 424.844 89.3269 416.993 89.3269H372.314C380.165 89.3269 386.53 82.9622 386.53 75.1109C386.53 67.2596 380.165 60.8949 372.314 60.8949H242.339C250.19 60.8949 256.555 54.5302 256.555 46.6789C256.555 38.8276 250.19 32.4629 242.339 32.4629H126.58C118.729 32.4629 112.364 38.8276 112.364 46.6789C112.364 54.5302 118.729 60.8949 126.58 60.8949H45.3459C37.4946 60.8949 31.1299 67.2596 31.1299 75.1109C31.1299 82.9622 37.4946 89.3269 45.3459 89.3269H96.1173C103.969 89.3269 110.333 95.6917 110.333 103.543C110.333 111.394 103.969 117.759 96.1173 117.759H14.883C7.03172 117.759 0.666992 124.124 0.666992 131.975C0.666992 139.826 7.03172 146.191 14.883 146.191H94.0865C86.2352 146.191 79.8705 152.556 79.8705 160.407C79.8705 168.258 86.2352 174.623 94.0865 174.623ZM425.116 174.623C432.968 174.623 439.332 168.258 439.332 160.407C439.332 152.556 432.968 146.191 425.116 146.191C417.265 146.191 410.9 152.556 410.9 160.407C410.9 168.258 417.265 174.623 425.116 174.623Z" fill="#D0D1FB"/>
<path fill-rule="evenodd" clip-rule="evenodd" d="M308.498 158.528C303.265 162.438 298.163 166.113 292.388 169.289L292.722 197.891C292.748 200.134 290.951 201.973 288.708 202C287.796 202.01 286.907 201.713 286.184 201.157L260.468 181.372C250.828 183.59 240.661 184.777 230.154 184.777C168.466 184.777 118.457 143.861 118.457 93.3886C118.457 42.9161 168.466 2 230.154 2C291.843 2 341.851 42.9161 341.851 93.3886C341.851 107.358 338.02 120.596 331.171 132.437C329.908 134.62 328.542 136.757 327.079 138.841C327.079 138.841 324.218 143.145 318.497 149.237C312.775 155.33 308.498 158.528 308.498 158.528Z" fill="white"/>
<path d="M308.498 158.528L309.246 159.529L309.247 159.529L308.498 158.528ZM292.388 169.289L291.786 168.194L291.129 168.555L291.138 169.304L292.388 169.289ZM292.722 197.891L293.972 197.876L292.722 197.891ZM288.708 202L288.722 203.25L288.723 203.25L288.708 202ZM286.184 201.157L285.422 202.148L286.184 201.157ZM260.468 181.372L261.23 180.381L260.762 180.021L260.187 180.154L260.468 181.372ZM331.171 132.437L332.253 133.063L331.171 132.437ZM327.079 138.841L326.056 138.123L326.046 138.136L326.038 138.149L327.079 138.841ZM307.75 157.527C302.523 161.432 297.48 165.062 291.786 168.194L292.99 170.385C298.847 167.164 304.007 163.444 309.246 159.529L307.75 157.527ZM291.138 169.304L291.472 197.905L293.972 197.876L293.638 169.275L291.138 169.304ZM291.472 197.905C291.49 199.458 290.246 200.731 288.693 200.75L288.723 203.25C291.656 203.215 294.006 200.809 293.972 197.876L291.472 197.905ZM288.694 200.75C288.062 200.757 287.447 200.552 286.946 200.167L285.422 202.148C286.367 202.875 287.53 203.263 288.722 203.25L288.694 200.75ZM286.946 200.167L261.23 180.381L259.706 182.362L285.422 202.148L286.946 200.167ZM260.187 180.154C250.64 182.351 240.567 183.527 230.154 183.527V186.027C240.755 186.027 251.016 184.83 260.748 182.59L260.187 180.154ZM230.154 183.527C168.91 183.527 119.707 142.948 119.707 93.3886H117.207C117.207 144.774 168.021 186.027 230.154 186.027V183.527ZM119.707 93.3886C119.707 43.8293 168.91 3.25 230.154 3.25V0.75C168.021 0.75 117.207 42.0029 117.207 93.3886H119.707ZM230.154 3.25C291.399 3.25 340.601 43.8293 340.601 93.3886H343.101C343.101 42.0029 292.287 0.75 230.154 0.75V3.25ZM340.601 93.3886C340.601 107.124 336.836 120.147 330.089 131.811L332.253 133.063C339.205 121.045 343.101 107.593 343.101 93.3886H340.601ZM330.089 131.811C328.845 133.962 327.498 136.068 326.056 138.123L328.102 139.56C329.586 137.446 330.971 135.279 332.253 133.063L330.089 131.811ZM327.079 138.841C326.038 138.149 326.038 138.149 326.038 138.149C326.038 138.149 326.038 138.149 326.038 138.149C326.038 138.149 326.038 138.149 326.038 138.149C326.038 138.149 326.037 138.15 326.037 138.15C326.036 138.152 326.034 138.154 326.032 138.157C326.028 138.164 326.02 138.175 326.01 138.19C325.99 138.22 325.958 138.266 325.916 138.328C325.83 138.452 325.701 138.637 325.526 138.88C325.178 139.366 324.651 140.082 323.947 140.987C322.537 142.797 320.417 145.366 317.585 148.382L319.408 150.093C322.298 147.016 324.468 144.387 325.919 142.522C326.645 141.59 327.191 140.849 327.558 140.337C327.741 140.082 327.88 139.884 327.973 139.748C328.02 139.68 328.056 139.628 328.08 139.592C328.092 139.574 328.102 139.56 328.108 139.55C328.112 139.545 328.114 139.541 328.116 139.539C328.117 139.537 328.118 139.536 328.118 139.535C328.119 139.535 328.119 139.534 328.119 139.534C328.119 139.534 328.119 139.534 328.119 139.534C328.119 139.533 328.12 139.533 327.079 138.841ZM317.585 148.382C314.756 151.394 312.286 153.689 310.529 155.227C309.65 155.995 308.95 156.575 308.472 156.96C308.233 157.152 308.049 157.296 307.927 157.391C307.866 157.438 307.82 157.473 307.79 157.496C307.775 157.507 307.765 157.516 307.758 157.521C307.754 157.523 307.752 157.525 307.751 157.526C307.75 157.527 307.749 157.527 307.749 157.527C307.749 157.527 307.749 157.527 307.749 157.527C307.749 157.527 307.749 157.527 307.749 157.527C307.749 157.527 307.75 157.527 308.498 158.528C309.247 159.529 309.247 159.529 309.247 159.529C309.247 159.529 309.247 159.529 309.247 159.529C309.248 159.528 309.248 159.528 309.249 159.528C309.249 159.527 309.251 159.526 309.252 159.525C309.255 159.523 309.259 159.52 309.263 159.516C309.273 159.509 309.287 159.499 309.305 159.485C309.34 159.458 309.392 159.418 309.459 159.366C309.593 159.263 309.789 159.109 310.04 158.907C310.543 158.502 311.269 157.9 312.175 157.108C313.986 155.524 316.516 153.173 319.408 150.093L317.585 148.382Z" fill="#0C1096"/>
<path fill-rule="evenodd" clip-rule="evenodd" d="M296.873 68.1846C307.646 68.1846 318.02 66.9001 327.739 64.5236C331.617 73.3571 333.728 82.8754 333.728 92.7943C333.728 105.661 330.175 117.854 323.824 128.76C322.653 130.772 321.386 132.739 320.029 134.659C317.887 137.691 316.359 139.832 315.014 141.548C311.832 145.609 309.671 147.297 302.8 152.792C298.217 156.457 293.217 159.779 287.862 162.704L288.171 189.048C288.196 191.114 288.824 194.907 286.744 194.932C285.898 194.941 282.779 192.569 282.109 192.057L261.374 173.54C252.435 175.583 239.896 176.97 230.154 176.97C172.952 176.97 126.58 139.283 126.58 92.7943C126.58 54.7232 157.679 22.5553 200.358 12.1543C211.535 44.3932 250.51 68.1846 296.873 68.1846ZM190.128 81.5046C183.416 81.5046 177.974 86.9808 177.974 93.7361C177.974 100.491 183.416 105.968 190.128 105.968C196.84 105.968 202.281 100.491 202.281 93.7361C202.281 86.9808 196.84 81.5046 190.128 81.5046ZM228.613 81.5046C221.901 81.5046 216.46 86.9808 216.46 93.7361C216.46 100.491 221.901 105.968 228.613 105.968C235.325 105.968 240.766 100.491 240.766 93.7361C240.766 86.9808 235.325 81.5046 228.613 81.5046ZM267.098 81.5046C260.386 81.5046 254.945 86.9808 254.945 93.7361C254.945 100.491 260.386 105.968 267.098 105.968C273.81 105.968 279.251 100.491 279.251 93.7361C279.251 86.9808 273.81 81.5046 267.098 81.5046Z" fill="#D0D1FB"/>
<path fill-rule="evenodd" clip-rule="evenodd" d="M189.537 81.2031C196.266 81.2031 201.722 86.6586 201.722 93.3883C201.722 100.118 196.266 105.573 189.537 105.573C182.807 105.573 177.352 100.118 177.352 93.3883C177.352 86.6586 182.807 81.2031 189.537 81.2031ZM228.123 81.2031C234.853 81.2031 240.308 86.6586 240.308 93.3883C240.308 100.118 234.853 105.573 228.123 105.573C221.393 105.573 215.938 100.118 215.938 93.3883C215.938 86.6586 221.393 81.2031 228.123 81.2031ZM266.709 81.2031C273.439 81.2031 278.894 86.6586 278.894 93.3883C278.894 100.118 273.439 105.573 266.709 105.573C259.98 105.573 254.524 100.118 254.524 93.3883C254.524 86.6586 259.98 81.2031 266.709 81.2031Z" fill="white" stroke="#0C1096" stroke-width="2.5"/>
<path d="M148.235 63.5566C146.391 66.6678 144.793 69.8965 143.462 73.2256" stroke="#D0D1FB" stroke-width="2.5" stroke-linecap="round"/>
<path d="M185.52 30.582C172.213 36.9332 160.977 45.9174 152.858 56.6726" stroke="#D0D1FB" stroke-width="2.5" stroke-linecap="round"/>
</svg>
