<svg width="316" height="316" viewBox="0 0 316 316" fill="none" xmlns="http://www.w3.org/2000/svg">
<path d="M158 308C240.843 308 308 240.843 308 158C308 75.1573 240.843 8 158 8C75.1573 8 8 75.1573 8 158C8 240.843 75.1573 308 158 308Z" fill="#D0D1FB"/>
<path d="M248 308H68V114C76.484 113.99 84.6178 110.616 90.6169 104.617C96.616 98.6178 99.9905 90.484 100 82H216C215.991 86.2028 216.816 90.3656 218.426 94.2476C220.036 98.1296 222.401 101.654 225.382 104.616C228.344 107.598 231.868 109.963 235.751 111.574C239.633 113.185 243.797 114.009 248 114V308Z" fill="white"/>
<path d="M158 212C184.51 212 206 190.51 206 164C206 137.49 184.51 116 158 116C131.49 116 110 137.49 110 164C110 190.51 131.49 212 158 212Z" fill="#0C1096"/>
<path d="M134 183.727C134 191.887 144.987 194.002 158 194.002C170.944 194.002 182 191.962 182 183.799C182 175.638 171.016 173.523 158 173.523C145.056 173.523 134 175.563 134 183.727Z" fill="white"/>
<path d="M157.999 165.749C166.816 165.749 173.881 158.684 173.881 149.873C173.881 141.062 166.816 134 157.999 134C149.185 134 142.117 141.062 142.117 149.873C142.117 158.684 149.185 165.749 157.999 165.749Z" fill="white"/>
<path d="M184.002 224H132.002C128.688 224 126.002 226.686 126.002 230C126.002 233.314 128.688 236 132.002 236H184.002C187.316 236 190.002 233.314 190.002 230C190.002 226.686 187.316 224 184.002 224Z" fill="#D0D1FB"/>
<path d="M201.999 248H113.999C110.685 248 107.999 250.686 107.999 254C107.999 257.314 110.685 260 113.999 260H201.999C205.313 260 207.999 257.314 207.999 254C207.999 250.686 205.313 248 201.999 248Z" fill="#D0D1FB"/>
</svg>
