<svg width="288" height="318" viewBox="0 0 288 318" fill="none" xmlns="http://www.w3.org/2000/svg">
<path d="M144 294.543C218.858 294.543 279.542 233.859 279.542 159.001C279.542 84.1433 218.858 23.459 144 23.459C69.1423 23.459 8.45801 84.1433 8.45801 159.001C8.45801 233.859 69.1423 294.543 144 294.543Z" fill="#D0D1FB"/>
<g filter="url(#filter0_d_4278_49560)">
<path d="M221.712 101.17H66.2901C61.2995 101.17 57.2539 105.216 57.2539 110.206V299.965C57.2539 304.956 61.2995 309.001 66.2901 309.001H221.712C226.702 309.001 230.748 304.956 230.748 299.965V110.206C230.748 105.216 226.702 101.17 221.712 101.17Z" fill="white"/>
</g>
<path d="M125.927 128.277H78.9393C75.9449 128.277 73.5176 130.705 73.5176 133.699C73.5176 136.693 75.9449 139.121 78.9393 139.121H125.927C128.922 139.121 131.349 136.693 131.349 133.699C131.349 130.705 128.922 128.277 125.927 128.277Z" fill="#D0D1FB"/>
<path d="M158.457 151.771H78.9393C75.9449 151.771 73.5176 154.199 73.5176 157.193C73.5176 160.187 75.9449 162.615 78.9393 162.615H158.457C161.452 162.615 163.879 160.187 163.879 157.193C163.879 154.199 161.452 151.771 158.457 151.771Z" fill="#D0D1FB"/>
<path d="M125.927 177.074H78.9393C75.9449 177.074 73.5176 179.502 73.5176 182.496C73.5176 185.49 75.9449 187.918 78.9393 187.918H125.927C128.922 187.918 131.349 185.49 131.349 182.496C131.349 179.502 128.922 177.074 125.927 177.074Z" fill="#D0D1FB"/>
<path d="M158.457 200.568H78.9393C75.9449 200.568 73.5176 202.996 73.5176 205.99C73.5176 208.984 75.9449 211.412 78.9393 211.412H158.457C161.452 211.412 163.879 208.984 163.879 205.99C163.879 202.996 161.452 200.568 158.457 200.568Z" fill="#D0D1FB"/>
<path d="M125.927 225.869H78.9393C75.9449 225.869 73.5176 228.297 73.5176 231.291C73.5176 234.285 75.9449 236.713 78.9393 236.713H125.927C128.922 236.713 131.349 234.285 131.349 231.291C131.349 228.297 128.922 225.869 125.927 225.869Z" fill="#D0D1FB"/>
<path d="M158.457 249.363H78.9393C75.9449 249.363 73.5176 251.791 73.5176 254.785C73.5176 257.779 75.9449 260.207 78.9393 260.207H158.457C161.452 260.207 163.879 257.779 163.879 254.785C163.879 251.791 161.452 249.363 158.457 249.363Z" fill="#D0D1FB"/>
<g filter="url(#filter1_d_4278_49560)">
<path d="M221.712 9H66.2901C61.2995 9 57.2539 13.0456 57.2539 18.0361V72.253C57.2539 77.2435 61.2995 81.2892 66.2901 81.2892H221.712C226.702 81.2892 230.748 77.2435 230.748 72.253V18.0361C230.748 13.0456 226.702 9 221.712 9Z" fill="#0C1096"/>
</g>
<path d="M125.928 28.8809H78.9402C75.9459 28.8809 73.5186 31.3082 73.5186 34.3025C73.5186 37.2969 75.9459 39.7242 78.9402 39.7242H125.928C128.923 39.7242 131.35 37.2969 131.35 34.3025C131.35 31.3082 128.923 28.8809 125.928 28.8809Z" fill="#D0D1FB"/>
<path d="M158.458 52.375H78.9402C75.9459 52.375 73.5186 54.8024 73.5186 57.7967C73.5186 60.791 75.9459 63.2184 78.9402 63.2184H158.458C161.453 63.2184 163.88 60.791 163.88 57.7967C163.88 54.8024 161.453 52.375 158.458 52.375Z" fill="white"/>
<defs>
<filter id="filter0_d_4278_49560" x="51.2539" y="92.1699" width="185.494" height="219.832" filterUnits="userSpaceOnUse" color-interpolation-filters="sRGB">
<feFlood flood-opacity="0" result="BackgroundImageFix"/>
<feColorMatrix in="SourceAlpha" type="matrix" values="0 0 0 0 0 0 0 0 0 0 0 0 0 0 0 0 0 0 127 0" result="hardAlpha"/>
<feOffset dy="-3"/>
<feGaussianBlur stdDeviation="3"/>
<feColorMatrix type="matrix" values="0 0 0 0 0.788235 0 0 0 0 0.803922 0 0 0 0 0.85098 0 0 0 0.349 0"/>
<feBlend mode="normal" in2="BackgroundImageFix" result="effect1_dropShadow_4278_49560"/>
<feBlend mode="normal" in="SourceGraphic" in2="effect1_dropShadow_4278_49560" result="shape"/>
</filter>
<filter id="filter1_d_4278_49560" x="51.2539" y="0" width="185.494" height="84.2891" filterUnits="userSpaceOnUse" color-interpolation-filters="sRGB">
<feFlood flood-opacity="0" result="BackgroundImageFix"/>
<feColorMatrix in="SourceAlpha" type="matrix" values="0 0 0 0 0 0 0 0 0 0 0 0 0 0 0 0 0 0 127 0" result="hardAlpha"/>
<feOffset dy="-3"/>
<feGaussianBlur stdDeviation="3"/>
<feColorMatrix type="matrix" values="0 0 0 0 0.788235 0 0 0 0 0.803922 0 0 0 0 0.85098 0 0 0 0.349 0"/>
<feBlend mode="normal" in2="BackgroundImageFix" result="effect1_dropShadow_4278_49560"/>
<feBlend mode="normal" in="SourceGraphic" in2="effect1_dropShadow_4278_49560" result="shape"/>
</filter>
</defs>
</svg>
