<svg width="20" height="22" viewBox="0 0 20 22" fill="none" xmlns="http://www.w3.org/2000/svg">
<path fill-rule="evenodd" clip-rule="evenodd" d="M18.6665 9.40625H0.842529C0.428529 9.40625 0.0925293 9.07025 0.0925293 8.65625C0.0925293 8.24225 0.428529 7.90625 0.842529 7.90625H18.6665C19.0805 7.90625 19.4165 8.24225 19.4165 8.65625C19.4165 9.07025 19.0805 9.40625 18.6665 9.40625Z" fill="#0C1096"/>
<path fill-rule="evenodd" clip-rule="evenodd" d="M14.2013 13.3125C13.7873 13.3125 13.4473 12.9765 13.4473 12.5625C13.4473 12.1485 13.7783 11.8125 14.1923 11.8125H14.2013C14.6153 11.8125 14.9513 12.1485 14.9513 12.5625C14.9513 12.9765 14.6153 13.3125 14.2013 13.3125Z" fill="#0C1096"/>
<path fill-rule="evenodd" clip-rule="evenodd" d="M9.76377 13.3125C9.34977 13.3125 9.00977 12.9765 9.00977 12.5625C9.00977 12.1485 9.34077 11.8125 9.75477 11.8125H9.76377C10.1778 11.8125 10.5138 12.1485 10.5138 12.5625C10.5138 12.9765 10.1778 13.3125 9.76377 13.3125Z" fill="#0C1096"/>
<path fill-rule="evenodd" clip-rule="evenodd" d="M5.31701 13.3125C4.90301 13.3125 4.56201 12.9765 4.56201 12.5625C4.56201 12.1485 4.89401 11.8125 5.30801 11.8125H5.31701C5.73101 11.8125 6.06701 12.1485 6.06701 12.5625C6.06701 12.9765 5.73101 13.3125 5.31701 13.3125Z" fill="#0C1096"/>
<path fill-rule="evenodd" clip-rule="evenodd" d="M14.2013 17.1953C13.7873 17.1953 13.4473 16.8593 13.4473 16.4453C13.4473 16.0313 13.7783 15.6953 14.1923 15.6953H14.2013C14.6153 15.6953 14.9513 16.0313 14.9513 16.4453C14.9513 16.8593 14.6153 17.1953 14.2013 17.1953Z" fill="#0C1096"/>
<path fill-rule="evenodd" clip-rule="evenodd" d="M9.76377 17.1953C9.34977 17.1953 9.00977 16.8593 9.00977 16.4453C9.00977 16.0313 9.34077 15.6953 9.75477 15.6953H9.76377C10.1778 15.6953 10.5138 16.0313 10.5138 16.4453C10.5138 16.8593 10.1778 17.1953 9.76377 17.1953Z" fill="#0C1096"/>
<path fill-rule="evenodd" clip-rule="evenodd" d="M5.31701 17.1953C4.90301 17.1953 4.56201 16.8593 4.56201 16.4453C4.56201 16.0313 4.89401 15.6953 5.30801 15.6953H5.31701C5.73101 15.6953 6.06701 16.0313 6.06701 16.4453C6.06701 16.8593 5.73101 17.1953 5.31701 17.1953Z" fill="#0C1096"/>
<path fill-rule="evenodd" clip-rule="evenodd" d="M13.7935 5.291C13.3795 5.291 13.0435 4.955 13.0435 4.541V1.25C13.0435 0.836 13.3795 0.5 13.7935 0.5C14.2075 0.5 14.5435 0.836 14.5435 1.25V4.541C14.5435 4.955 14.2075 5.291 13.7935 5.291Z" fill="#0C1096"/>
<path fill-rule="evenodd" clip-rule="evenodd" d="M5.71533 5.291C5.30133 5.291 4.96533 4.955 4.96533 4.541V1.25C4.96533 0.836 5.30133 0.5 5.71533 0.5C6.12933 0.5 6.46533 0.836 6.46533 1.25V4.541C6.46533 4.955 6.12933 5.291 5.71533 5.291Z" fill="#0C1096"/>
<mask id="mask0_2420_165035" style="mask-type:alpha" maskUnits="userSpaceOnUse" x="0" y="2" width="20" height="20">
<path fill-rule="evenodd" clip-rule="evenodd" d="M0 2.07812H19.5V21.999H0V2.07812Z" fill="white"/>
</mask>
<g mask="url(#mask0_2420_165035)">
<path fill-rule="evenodd" clip-rule="evenodd" d="M5.521 3.57812C2.928 3.57812 1.5 4.96113 1.5 7.47213V16.5211C1.5 19.0871 2.928 20.4991 5.521 20.4991H13.979C16.572 20.4991 18 19.1131 18 16.5971V7.47213C18.004 6.23712 17.672 5.27713 17.013 4.61713C16.335 3.93712 15.29 3.57812 13.988 3.57812H5.521ZM13.979 21.9991H5.521C2.116 21.9991 0 19.9001 0 16.5211V7.47213C0 4.14412 2.116 2.07812 5.521 2.07812H13.988C15.697 2.07812 17.11 2.59012 18.075 3.55712C19.012 4.49813 19.505 5.85112 19.5 7.47412V16.5971C19.5 19.9291 17.384 21.9991 13.979 21.9991Z" fill="#0C1096"/>
</g>
</svg>
