<svg width="18" height="21" viewBox="0 0 18 21" fill="none" xmlns="http://www.w3.org/2000/svg">
<mask id="mask0_2128_43223" style="mask-type:alpha" maskUnits="userSpaceOnUse" x="0" y="0" width="18" height="21">
<path fill-rule="evenodd" clip-rule="evenodd" d="M0 0.511719H17.0527V20.3652H0V0.511719Z" fill="white"/>
</mask>
<g mask="url(#mask0_2128_43223)">
<path fill-rule="evenodd" clip-rule="evenodd" d="M4.5731 2.01172C2.9161 2.01172 1.5401 3.35372 1.5011 5.00872V15.7037C1.4641 17.4167 2.8141 18.8277 4.5101 18.8657H12.5741C14.2431 18.7967 15.5651 17.4097 15.5531 15.7097V6.83972L10.9181 2.01172H4.5851H4.5731ZM4.5851 20.3657H4.4761C1.9541 20.3087 -0.0538966 18.2107 0.00110343 15.6877V4.99072C0.0591034 2.50972 2.1081 0.511719 4.5711 0.511719H4.5881H11.2381C11.4421 0.511719 11.6371 0.594719 11.7791 0.741719L16.8441 6.01872C16.9781 6.15772 17.0531 6.34472 17.0531 6.53772V15.7037C17.0711 18.2127 15.1171 20.2627 12.6041 20.3647L4.5851 20.3657Z" fill="white"/>
</g>
<path fill-rule="evenodd" clip-rule="evenodd" d="M16.2986 7.484H13.5436C11.7136 7.479 10.2256 5.987 10.2256 4.159V1.25C10.2256 0.836 10.5616 0.5 10.9756 0.5C11.3896 0.5 11.7256 0.836 11.7256 1.25V4.159C11.7256 5.163 12.5426 5.981 13.5456 5.984H16.2986C16.7126 5.984 17.0486 6.32 17.0486 6.734C17.0486 7.148 16.7126 7.484 16.2986 7.484Z" fill="white"/>
<path fill-rule="evenodd" clip-rule="evenodd" d="M10.7887 14.6094H5.38867C4.97467 14.6094 4.63867 14.2734 4.63867 13.8594C4.63867 13.4454 4.97467 13.1094 5.38867 13.1094H10.7887C11.2027 13.1094 11.5387 13.4454 11.5387 13.8594C11.5387 14.2734 11.2027 14.6094 10.7887 14.6094Z" fill="white"/>
<path fill-rule="evenodd" clip-rule="evenodd" d="M8.7437 10.8555H5.3877C4.9737 10.8555 4.6377 10.5195 4.6377 10.1055C4.6377 9.69147 4.9737 9.35547 5.3877 9.35547H8.7437C9.1577 9.35547 9.4937 9.69147 9.4937 10.1055C9.4937 10.5195 9.1577 10.8555 8.7437 10.8555Z" fill="white"/>
</svg>
