<svg width="22" height="22" viewBox="0 0 22 22" fill="none" xmlns="http://www.w3.org/2000/svg">
<mask id="mask0_2128_43257" style="mask-type:alpha" maskUnits="userSpaceOnUse" x="0" y="0" width="22" height="22">
<path fill-rule="evenodd" clip-rule="evenodd" d="M0 0.5H21.493V21.9938H0V0.5Z" fill="white"/>
</mask>
<g mask="url(#mask0_2128_43257)">
<path fill-rule="evenodd" clip-rule="evenodd" d="M5.10844 19.175C5.68844 19.175 6.23544 19.395 6.81444 19.628C10.3614 21.268 14.5564 20.522 17.2894 17.79C20.8954 14.182 20.8954 8.313 17.2894 4.707C15.5434 2.961 13.2214 2 10.7494 2C8.27644 2 5.95344 2.962 4.20844 4.708C1.47444 7.44 0.730437 11.635 2.35544 15.148C2.58944 15.727 2.81544 16.291 2.81544 16.877C2.81544 17.462 2.61444 18.051 2.43744 18.571C2.29144 18.999 2.07044 19.645 2.21244 19.787C2.35144 19.931 3.00144 19.704 3.43044 19.557C3.94544 19.381 4.52944 19.179 5.10844 19.175ZM10.7244 21.994C9.19644 21.994 7.65844 21.671 6.21944 21.005C5.79544 20.835 5.39844 20.675 5.11344 20.675C4.78544 20.677 4.34444 20.829 3.91844 20.976C3.04444 21.276 1.95644 21.65 1.15144 20.848C0.349437 20.045 0.719437 18.96 1.01744 18.087C1.16444 17.657 1.31544 17.213 1.31544 16.877C1.31544 16.601 1.18244 16.249 0.978437 15.742C-0.894563 11.697 -0.0285628 6.822 3.14844 3.647C5.17644 1.618 7.87544 0.5 10.7484 0.5C13.6214 0.5 16.3214 1.617 18.3494 3.646C22.5414 7.838 22.5414 14.658 18.3494 18.85C16.2944 20.906 13.5274 21.994 10.7244 21.994Z" fill="white"/>
</g>
<path fill-rule="evenodd" clip-rule="evenodd" d="M14.6964 12.6641C14.1444 12.6641 13.6924 12.2171 13.6924 11.6641C13.6924 11.1111 14.1354 10.6641 14.6874 10.6641H14.6964C15.2484 10.6641 15.6964 11.1111 15.6964 11.6641C15.6964 12.2171 15.2484 12.6641 14.6964 12.6641Z" fill="white"/>
<path fill-rule="evenodd" clip-rule="evenodd" d="M10.6876 12.6641C10.1356 12.6641 9.68359 12.2171 9.68359 11.6641C9.68359 11.1111 10.1256 10.6641 10.6786 10.6641H10.6876C11.2396 10.6641 11.6876 11.1111 11.6876 11.6641C11.6876 12.2171 11.2396 12.6641 10.6876 12.6641Z" fill="white"/>
<path fill-rule="evenodd" clip-rule="evenodd" d="M6.67783 12.6641C6.12583 12.6641 5.67383 12.2171 5.67383 11.6641C5.67383 11.1111 6.11683 10.6641 6.66883 10.6641H6.67783C7.22983 10.6641 7.67783 11.1111 7.67783 11.6641C7.67783 12.2171 7.22983 12.6641 6.67783 12.6641Z" fill="white"/>
</svg>
