<svg width="21" height="22" viewBox="0 0 21 22" fill="none" xmlns="http://www.w3.org/2000/svg">
<path fill-rule="evenodd" clip-rule="evenodd" d="M6.982 5.8035C6.95 5.8035 6.918 5.8075 6.886 5.8155C3.916 6.5465 1.5 9.7645 1.5 12.9885C1.5 17.0445 4.8 20.3445 8.857 20.3445C12.514 20.3445 15.57 17.7395 16.124 14.1495C16.128 14.1195 16.142 14.0325 16.06 13.9355C15.982 13.8445 15.858 13.7905 15.728 13.7905C14.317 13.7905 13.24 13.8225 12.399 13.8465C10.363 13.9075 9.521 13.9305 8.689 13.3135C7.435 12.3845 7.329 10.7885 7.329 6.0945C7.329 6.0105 7.293 5.9405 7.221 5.8845C7.154 5.8315 7.069 5.8035 6.982 5.8035ZM8.857 21.8445C3.973 21.8445 0 17.8715 0 12.9885C0 9.1165 2.928 5.2445 6.527 4.3585C7.089 4.2215 7.693 4.3495 8.147 4.7035C8.58 5.0435 8.829 5.5505 8.829 6.0945C8.829 10.4795 8.977 11.6595 9.582 12.1085C9.979 12.4015 10.523 12.3985 12.356 12.3475C13.208 12.3225 14.299 12.2905 15.728 12.2905C16.298 12.2905 16.835 12.5345 17.199 12.9595C17.537 13.3545 17.685 13.8705 17.607 14.3785C16.939 18.7035 13.259 21.8445 8.857 21.8445Z" fill="white"/>
<mask id="mask0_2216_43737" style="mask-type:alpha" maskUnits="userSpaceOnUse" x="10" y="0" width="11" height="11">
<path fill-rule="evenodd" clip-rule="evenodd" d="M10.4736 0.5H20.8926V10.7893H10.4736V0.5Z" fill="white"/>
</mask>
<g mask="url(#mask0_2216_43737)">
<path fill-rule="evenodd" clip-rule="evenodd" d="M12.0104 2.00174C11.9004 4.52074 12.0634 7.77474 12.1394 9.06374C12.1434 9.14074 12.1994 9.19674 12.2754 9.20074C13.3034 9.25974 16.8454 9.42374 19.3924 9.04874C19.3984 7.64474 18.4374 5.74074 16.9904 4.29474C15.5064 2.81274 13.7504 2.00174 12.0324 2.00174H12.0104ZM15.3144 10.7897C14.0044 10.7897 12.8514 10.7367 12.1884 10.6987C11.3544 10.6497 10.6904 9.98474 10.6424 9.15074C10.5644 7.82874 10.3954 4.46974 10.5154 1.87174C10.5484 1.11674 11.1584 0.515742 11.9044 0.502742C14.0414 0.440742 16.2464 1.43274 18.0504 3.23374C19.8084 4.99074 20.9244 7.29974 20.8924 9.11674C20.8804 9.82574 20.3654 10.4177 19.6694 10.5227C18.3114 10.7277 16.7214 10.7897 15.3144 10.7897Z" fill="white"/>
</g>
</svg>
