<svg width="36" height="37" viewBox="0 0 36 37" fill="none" xmlns="http://www.w3.org/2000/svg">
<path d="M0 18.5C0 8.55888 8.05888 0.5 18 0.5C27.9411 0.5 36 8.55888 36 18.5C36 28.4411 27.9411 36.5 18 36.5C8.05888 36.5 0 28.4411 0 18.5Z" fill="#0C1096"/>
<path fill-rule="evenodd" clip-rule="evenodd" d="M25.2922 26.7812H19.248C18.903 26.7812 18.623 26.5012 18.623 26.1562C18.623 25.8113 18.903 25.5312 19.248 25.5312H25.2922C25.6372 25.5312 25.9172 25.8113 25.9172 26.1562C25.9172 26.5012 25.6372 26.7812 25.2922 26.7812Z" fill="white"/>
<mask id="mask0_2763_257679" style="mask-type:alpha" maskUnits="userSpaceOnUse" x="9" y="11" width="15" height="16">
<path fill-rule="evenodd" clip-rule="evenodd" d="M9.66699 11H23.9841V26.783H9.66699V11Z" fill="white"/>
</mask>
<g mask="url(#mask0_2763_257679)">
<path fill-rule="evenodd" clip-rule="evenodd" d="M18.9256 12.6805L11.0797 22.493C10.9372 22.6714 10.8847 22.9014 10.9372 23.1222L11.5047 25.5264L14.0372 25.4947C14.2781 25.4922 14.5006 25.3847 14.6481 25.2014C17.3289 21.8472 22.4397 15.4522 22.5847 15.2647C22.7214 15.043 22.7747 14.7297 22.7031 14.428C22.6297 14.1189 22.4372 13.8564 22.1597 13.6889C22.1006 13.648 20.6964 12.558 20.6531 12.5239C20.1247 12.1005 19.3539 12.1739 18.9256 12.6805ZM11.0114 26.783C10.7222 26.783 10.4706 26.5847 10.4031 26.3022L9.72055 23.4097C9.57972 22.8105 9.71972 22.1922 10.1039 21.7122L17.9539 11.8939C17.9572 11.8905 17.9597 11.8864 17.9631 11.883C18.8239 10.8539 20.3806 10.7022 21.4306 11.5447C21.4722 11.5772 22.8664 12.6605 22.8664 12.6605C23.3731 12.9622 23.7689 13.5014 23.9189 14.1397C24.0681 14.7714 23.9597 15.423 23.6122 15.9739C23.5864 16.0147 23.5639 16.0497 15.6239 25.983C15.2414 26.4597 14.6681 26.7372 14.0522 26.7447L11.0197 26.783H11.0114Z" fill="white"/>
</g>
<path fill-rule="evenodd" clip-rule="evenodd" d="M21.5198 18.2355C21.3865 18.2355 21.2532 18.193 21.139 18.1064L16.5957 14.6164C16.3223 14.4064 16.2707 14.0147 16.4807 13.7397C16.6915 13.4664 17.0832 13.4155 17.3573 13.6255L21.9015 17.1147C22.1748 17.3247 22.2265 17.7172 22.0157 17.9914C21.8932 18.1514 21.7073 18.2355 21.5198 18.2355Z" fill="white"/>
</svg>
