<svg width="36" height="37" viewBox="0 0 36 37" fill="none" xmlns="http://www.w3.org/2000/svg">
<path d="M0 18.5C0 8.55887 8.05887 0.5 18 0.5V0.5C27.9411 0.5 36 8.55887 36 18.5V18.5C36 28.4411 27.9411 36.5 18 36.5V36.5C8.05887 36.5 0 28.4411 0 18.5V18.5Z" fill="#0C1096"/>
<mask id="mask0_2763_257640" style="mask-type:alpha" maskUnits="userSpaceOnUse" x="8" y="9" width="19" height="19">
<path fill-rule="evenodd" clip-rule="evenodd" d="M8.83301 9.33203H26.7438V27.2435H8.83301V9.33203Z" fill="white"/>
</mask>
<g mask="url(#mask0_2763_257640)">
<path fill-rule="evenodd" clip-rule="evenodd" d="M13.09 24.8945C13.5734 24.8945 14.0292 25.0779 14.5117 25.272C17.4675 26.6387 20.9634 26.017 23.2409 23.7404C26.2459 20.7337 26.2459 15.8429 23.2409 12.8379C21.7859 11.3829 19.8509 10.582 17.7909 10.582C15.73 10.582 13.7942 11.3837 12.34 12.8387C10.0617 15.1154 9.44171 18.6112 10.7959 21.5387C10.9909 22.0212 11.1792 22.4912 11.1792 22.9795C11.1792 23.467 11.0117 23.9579 10.8642 24.3912C10.7425 24.7479 10.5584 25.2862 10.6767 25.4045C10.7925 25.5245 11.3342 25.3354 11.6917 25.2129C12.1209 25.0662 12.6075 24.8979 13.09 24.8945V24.8945ZM17.77 27.2437C16.4967 27.2437 15.215 26.9745 14.0159 26.4195C13.6625 26.2779 13.3317 26.1445 13.0942 26.1445C12.8209 26.1462 12.4534 26.2729 12.0984 26.3954C11.37 26.6454 10.4634 26.957 9.79254 26.2887C9.12421 25.6195 9.43254 24.7154 9.68087 23.9879C9.80337 23.6295 9.92921 23.2595 9.92921 22.9795C9.92921 22.7495 9.81837 22.4562 9.64837 22.0337C8.08754 18.6629 8.80921 14.6004 11.4567 11.9545C13.1467 10.2637 15.3959 9.33203 17.79 9.33203C20.1842 9.33203 22.4342 10.2629 24.1242 11.9537C27.6175 15.447 27.6175 21.1304 24.1242 24.6237C22.4117 26.337 20.1059 27.2437 17.77 27.2437V27.2437Z" fill="white"/>
</g>
<path fill-rule="evenodd" clip-rule="evenodd" d="M21.0808 19.4674C20.6208 19.4674 20.2441 19.0949 20.2441 18.6341C20.2441 18.1733 20.6133 17.8008 21.0733 17.8008H21.0808C21.5408 17.8008 21.9141 18.1733 21.9141 18.6341C21.9141 19.0949 21.5408 19.4674 21.0808 19.4674" fill="white"/>
<path fill-rule="evenodd" clip-rule="evenodd" d="M17.74 19.4674C17.28 19.4674 16.9033 19.0949 16.9033 18.6341C16.9033 18.1733 17.2717 17.8008 17.7325 17.8008H17.74C18.2 17.8008 18.5733 18.1733 18.5733 18.6341C18.5733 19.0949 18.2 19.4674 17.74 19.4674" fill="white"/>
<path fill-rule="evenodd" clip-rule="evenodd" d="M14.3982 19.4674C13.9382 19.4674 13.5615 19.0949 13.5615 18.6341C13.5615 18.1733 13.9307 17.8008 14.3907 17.8008H14.3982C14.8582 17.8008 15.2315 18.1733 15.2315 18.6341C15.2315 19.0949 14.8582 19.4674 14.3982 19.4674" fill="white"/>
</svg>
