<svg width="37" height="36" viewBox="0 0 37 36" fill="none" xmlns="http://www.w3.org/2000/svg">
<path d="M0.25 18C0.25 8.05888 8.30888 0 18.25 0C28.1911 0 36.25 8.05888 36.25 18C36.25 27.9411 28.1911 36 18.25 36C8.30888 36 0.25 27.9411 0.25 18Z" fill="#35CA3B"/>
<path fill-rule="evenodd" clip-rule="evenodd" d="M23.1556 18.1211C22.849 18.1211 22.5815 17.8952 22.5373 17.5827C22.4898 17.2402 22.7273 16.9244 23.0698 16.8769C23.9365 16.7552 24.5906 16.0036 24.5923 15.1269C24.5923 14.2577 23.969 13.5227 23.1098 13.3819C22.7698 13.3261 22.539 13.0044 22.5948 12.6636C22.6515 12.3227 22.9706 12.0944 23.3131 12.1486C24.7781 12.3894 25.8423 13.6427 25.8423 15.1286C25.839 16.6244 24.7215 17.9077 23.2423 18.1152C23.2131 18.1194 23.184 18.1211 23.1556 18.1211Z" fill="white"/>
<mask id="mask0_2157_45775" style="mask-type:alpha" maskUnits="userSpaceOnUse" x="24" y="19" width="4" height="5">
<path fill-rule="evenodd" clip-rule="evenodd" d="M24.0645 19.668H27.2261V23.4426H24.0645V19.668Z" fill="white"/>
</mask>
<g mask="url(#mask0_2157_45775)">
<path fill-rule="evenodd" clip-rule="evenodd" d="M25.6338 23.4426C25.3822 23.4426 25.1447 23.2893 25.0497 23.0401C24.9263 22.7176 25.0888 22.3559 25.4113 22.2334C25.9763 22.0184 25.9763 21.7809 25.9763 21.6668C25.9763 21.3018 25.5122 21.0468 24.5972 20.9101C24.2563 20.8584 24.0205 20.5409 24.0713 20.1984C24.1222 19.8568 24.4388 19.6293 24.783 19.6734C26.8022 19.9759 27.2263 20.9243 27.2263 21.6668C27.2263 22.1201 27.048 22.9476 25.8563 23.4018C25.783 23.4293 25.708 23.4426 25.6338 23.4426Z" fill="white"/>
</g>
<path fill-rule="evenodd" clip-rule="evenodd" d="M18.1553 21.2617C16.1753 21.2617 13.8145 21.5051 13.8145 22.6634C13.8145 23.8309 16.1753 24.0759 18.1553 24.0759C20.1353 24.0759 22.4953 23.8334 22.4953 22.6776C22.4953 21.5076 20.1353 21.2617 18.1553 21.2617ZM18.1553 25.3259C16.7728 25.3259 12.5645 25.3259 12.5645 22.6634C12.5645 20.0117 16.7728 20.0117 18.1553 20.0117C19.5378 20.0117 23.7453 20.0117 23.7453 22.6776C23.7453 25.3259 19.6845 25.3259 18.1553 25.3259Z" fill="white"/>
<path fill-rule="evenodd" clip-rule="evenodd" d="M18.1553 12.582C16.7453 12.582 15.5987 13.7295 15.5987 15.1395C15.5962 15.8229 15.8578 16.462 16.337 16.9445C16.8162 17.427 17.4545 17.6945 18.1345 17.697L18.1553 18.322V17.697C19.5653 17.697 20.7128 16.5504 20.7128 15.1395C20.7128 13.7295 19.5653 12.582 18.1553 12.582ZM18.1553 18.947H18.1328C17.1162 18.9437 16.1637 18.5454 15.4503 17.8254C14.7353 17.1062 14.3445 16.1512 14.3487 15.137C14.3487 13.0404 16.0562 11.332 18.1553 11.332C20.2553 11.332 21.9628 13.0404 21.9628 15.1395C21.9628 17.2387 20.2553 18.947 18.1553 18.947Z" fill="white"/>
<path fill-rule="evenodd" clip-rule="evenodd" d="M13.1546 18.1212C13.1263 18.1212 13.0971 18.1196 13.0679 18.1154C11.5888 17.9079 10.4721 16.6246 10.4688 15.1304C10.4688 13.6429 11.5329 12.3896 12.9979 12.1487C13.3488 12.0937 13.6596 12.3246 13.7163 12.6637C13.7721 13.0046 13.5413 13.3262 13.2013 13.3821C12.3421 13.5229 11.7188 14.2579 11.7188 15.1287C11.7204 16.0037 12.3746 16.7562 13.2404 16.8771C13.5829 16.9246 13.8204 17.2404 13.7729 17.5829C13.7288 17.8954 13.4613 18.1212 13.1546 18.1212Z" fill="white"/>
<path fill-rule="evenodd" clip-rule="evenodd" d="M10.6763 23.4424C10.6022 23.4424 10.5272 23.4291 10.4538 23.4016C9.26134 22.9466 9.08301 22.1191 9.08301 21.6666C9.08301 20.9249 9.50717 19.9758 11.5272 19.6733C11.8713 19.6299 12.1863 19.8566 12.238 20.1983C12.2888 20.5408 12.053 20.8583 11.7122 20.9099C10.7972 21.0466 10.333 21.3016 10.333 21.6666C10.333 21.7808 10.333 22.0174 10.8988 22.2333C11.2213 22.3558 11.3838 22.7174 11.2605 23.0399C11.1655 23.2891 10.928 23.4424 10.6763 23.4424Z" fill="white"/>
</svg>
