<svg width="48" height="48" viewBox="0 0 48 48" fill="none" xmlns="http://www.w3.org/2000/svg">
<path d="M0 6C0 2.68629 2.68629 0 6 0H42C45.3137 0 48 2.68629 48 6V42C48 45.3137 45.3137 48 42 48H6C2.68629 48 0 45.3137 0 42V6Z" fill="#070A57"/>
<path fill-rule="evenodd" clip-rule="evenodd" d="M18.25 15.5C15.5 15.5 15.5 15.708 15.5 18.25V18.275C15.5 19.382 15.5 20.182 15.771 20.52C16.036 20.848 16.823 21 18.25 21C19.677 21 20.464 20.847 20.729 20.519C21 20.182 21 19.382 21 18.274C21 15.708 21 15.5 18.25 15.5M18.25 22.5C16.564 22.5 15.299 22.323 14.604 21.46C14 20.711 14 19.689 14 18.275L14.75 18.25H14C14 15.38 14.181 14 18.25 14C22.319 14 22.5 15.38 22.5 18.25C22.5 19.688 22.5 20.711 21.896 21.46C21.201 22.323 19.936 22.5 18.25 22.5" fill="white"/>
<path fill-rule="evenodd" clip-rule="evenodd" d="M29.25 15.5C26.5 15.5 26.5 15.708 26.5 18.25V18.275C26.5 19.382 26.5 20.182 26.771 20.52C27.036 20.848 27.823 21 29.25 21C30.677 21 31.464 20.847 31.729 20.519C32 20.182 32 19.382 32 18.274C32 15.708 32 15.5 29.25 15.5M29.25 22.5C27.564 22.5 26.299 22.323 25.604 21.46C25 20.711 25 19.689 25 18.275L25.75 18.25H25C25 15.38 25.181 14 29.25 14C33.319 14 33.5 15.38 33.5 18.25C33.5 19.688 33.5 20.711 32.896 21.46C32.201 22.323 30.936 22.5 29.25 22.5" fill="white"/>
<path fill-rule="evenodd" clip-rule="evenodd" d="M18.25 26.5C15.5 26.5 15.5 26.708 15.5 29.25V29.275C15.5 30.382 15.5 31.182 15.771 31.52C16.036 31.848 16.823 32 18.25 32C19.677 32 20.464 31.847 20.729 31.519C21 31.182 21 30.382 21 29.274C21 26.708 21 26.5 18.25 26.5M18.25 33.5C16.564 33.5 15.299 33.323 14.604 32.46C14 31.711 14 30.689 14 29.275L14.75 29.25H14C14 26.38 14.181 25 18.25 25C22.319 25 22.5 26.38 22.5 29.25C22.5 30.688 22.5 31.711 21.896 32.46C21.201 33.323 19.936 33.5 18.25 33.5" fill="white"/>
<path fill-rule="evenodd" clip-rule="evenodd" d="M29.25 26.5C26.5 26.5 26.5 26.708 26.5 29.25V29.275C26.5 30.382 26.5 31.182 26.771 31.52C27.036 31.848 27.823 32 29.25 32C30.677 32 31.464 31.847 31.729 31.519C32 31.182 32 30.382 32 29.274C32 26.708 32 26.5 29.25 26.5M29.25 33.5C27.564 33.5 26.299 33.323 25.604 32.46C25 31.711 25 30.689 25 29.275L25.75 29.25H25C25 26.38 25.181 25 29.25 25C33.319 25 33.5 26.38 33.5 29.25C33.5 30.688 33.5 31.711 32.896 32.46C32.201 33.323 30.936 33.5 29.25 33.5" fill="white"/>
</svg>
