<svg width="342" height="137" viewBox="0 0 342 137" fill="none" xmlns="http://www.w3.org/2000/svg">
<g filter="url(#filter0_d_3166_534706)">
<path d="M0 8.3125C0 3.89423 3.58172 0.3125 8 0.3125H333.167C337.585 0.3125 341.167 3.89422 341.167 8.3125V128.496C341.167 132.914 337.585 136.496 333.167 136.496H8C3.58172 136.496 0 132.914 0 128.496V8.3125Z" fill="white" shape-rendering="crispEdges"/>
<path d="M18.9285 24.2826C18.9285 24.0508 18.8924 23.8448 18.8203 23.6645C18.7534 23.4842 18.6323 23.3194 18.4572 23.1701C18.2821 23.0207 18.0349 22.8765 17.7155 22.7374C17.4014 22.5932 16.9996 22.4464 16.5103 22.297C15.9747 22.1322 15.4802 21.9494 15.027 21.7485C14.5789 21.5425 14.1875 21.3056 13.8527 21.0378C13.5179 20.7648 13.2578 20.4532 13.0724 20.103C12.887 19.7476 12.7943 19.3381 12.7943 18.8746C12.7943 18.4162 12.8896 17.999 13.0801 17.623C13.2758 17.247 13.5514 16.9225 13.9068 16.6496C14.2673 16.3714 14.6922 16.1577 15.1815 16.0083C15.6708 15.8538 16.2116 15.7766 16.8039 15.7766C17.6383 15.7766 18.3568 15.9311 18.9594 16.2401C19.5671 16.5491 20.0332 16.9637 20.3577 17.4839C20.6874 18.0041 20.8522 18.5784 20.8522 19.2068H18.9285C18.9285 18.8359 18.8486 18.5089 18.689 18.2256C18.5345 17.9372 18.2975 17.7106 17.9782 17.5457C17.664 17.3809 17.2649 17.2985 16.7807 17.2985C16.3223 17.2985 15.9412 17.3681 15.6373 17.5071C15.3334 17.6462 15.1068 17.8342 14.9575 18.0711C14.8081 18.308 14.7334 18.5758 14.7334 18.8746C14.7334 19.0857 14.7823 19.2789 14.8802 19.454C14.9781 19.624 15.1274 19.7836 15.3283 19.933C15.5292 20.0772 15.7815 20.2137 16.0854 20.3424C16.3893 20.4712 16.7473 20.5948 17.1593 20.7133C17.7825 20.8987 18.3259 21.1047 18.7894 21.3313C19.253 21.5528 19.6392 21.8052 19.9483 22.0885C20.2573 22.3717 20.4891 22.6936 20.6436 23.0542C20.7981 23.4095 20.8753 23.8139 20.8753 24.2671C20.8753 24.7409 20.7801 25.1684 20.5895 25.5496C20.3989 25.9255 20.126 26.2475 19.7706 26.5153C19.4203 26.778 18.998 26.9814 18.5036 27.1256C18.0143 27.2647 17.4683 27.3342 16.8657 27.3342C16.3249 27.3342 15.7918 27.2621 15.2665 27.1179C14.7463 26.9737 14.2725 26.7548 13.845 26.4612C13.4175 26.1625 13.0775 25.7916 12.8252 25.3487C12.5728 24.9006 12.4466 24.3778 12.4466 23.7804H14.3858C14.3858 24.1461 14.4476 24.4577 14.5712 24.7152C14.6999 24.9727 14.8776 25.1839 15.1043 25.3487C15.3309 25.5084 15.5935 25.6268 15.8923 25.7041C16.1962 25.7813 16.5206 25.82 16.8657 25.82C17.319 25.82 17.6975 25.7556 18.0014 25.6268C18.3104 25.4981 18.5422 25.3178 18.6967 25.086C18.8512 24.8543 18.9285 24.5864 18.9285 24.2826ZM27.4345 25.2096V18.8205H29.3041V27.1797H27.5426L27.4345 25.2096ZM27.6971 23.4714L28.3229 23.4559C28.3229 24.0173 28.2611 24.5349 28.1375 25.0088C28.0139 25.4775 27.8233 25.8869 27.5658 26.2372C27.3083 26.5822 26.9786 26.8526 26.5769 27.0484C26.1752 27.2389 25.6936 27.3342 25.1322 27.3342C24.7253 27.3342 24.3519 27.275 24.012 27.1565C23.672 27.038 23.3785 26.8552 23.1312 26.608C22.8892 26.3608 22.7012 26.0389 22.5673 25.6423C22.4334 25.2457 22.3664 24.7718 22.3664 24.2207V18.8205H24.2283V24.2362C24.2283 24.5401 24.2644 24.795 24.3365 25.001C24.4086 25.2019 24.5064 25.3641 24.63 25.4878C24.7536 25.6114 24.8979 25.6989 25.0627 25.7504C25.2275 25.8019 25.4026 25.8277 25.588 25.8277C26.1185 25.8277 26.5357 25.7247 26.8396 25.5187C27.1486 25.3075 27.3675 25.0242 27.4963 24.6688C27.6302 24.3135 27.6971 23.9143 27.6971 23.4714ZM33.0742 20.5201V27.1797H31.2123V18.8205H32.9661L33.0742 20.5201ZM32.7729 22.6911L32.1394 22.6833C32.1394 22.1065 32.2115 21.5734 32.3557 21.0841C32.4999 20.5948 32.7111 20.1699 32.9892 19.8094C33.2674 19.4437 33.6124 19.163 34.0245 18.9673C34.4417 18.7664 34.9232 18.666 35.4692 18.666C35.8503 18.666 36.198 18.7226 36.5122 18.8359C36.8315 18.9441 37.107 19.1166 37.3388 19.3536C37.5757 19.5905 37.756 19.8944 37.8796 20.2652C38.0084 20.636 38.0727 21.0841 38.0727 21.6095V27.1797H36.2108V21.7717C36.2108 21.3648 36.149 21.0455 36.0254 20.8137C35.907 20.5819 35.7344 20.4171 35.5078 20.3193C35.2863 20.2163 35.0211 20.1648 34.7121 20.1648C34.3618 20.1648 34.0631 20.2317 33.8159 20.3656C33.5738 20.4995 33.3755 20.6824 33.221 20.9141C33.0665 21.1459 32.9532 21.4137 32.8811 21.7176C32.809 22.0215 32.7729 22.346 32.7729 22.6911ZM37.9569 22.1966L37.0839 22.3898C37.0839 21.885 37.1534 21.4086 37.2924 20.9605C37.4367 20.5073 37.6453 20.1107 37.9182 19.7707C38.1964 19.4257 38.5389 19.1553 38.9457 18.9595C39.3526 18.7638 39.8187 18.666 40.3441 18.666C40.7716 18.666 41.1527 18.7252 41.4875 18.8437C41.8274 18.957 42.1159 19.1372 42.3528 19.3845C42.5897 19.6317 42.77 19.9536 42.8936 20.3502C43.0172 20.7416 43.079 21.2155 43.079 21.7717V27.1797H41.2094V21.764C41.2094 21.3416 41.1476 21.0146 41.024 20.7828C40.9055 20.551 40.7355 20.3914 40.5141 20.3038C40.2926 20.2111 40.0273 20.1648 39.7183 20.1648C39.4299 20.1648 39.1749 20.2188 38.9535 20.327C38.7372 20.43 38.5543 20.5768 38.4049 20.7674C38.2556 20.9528 38.1423 21.1665 38.065 21.4086C37.9929 21.6507 37.9569 21.9133 37.9569 22.1966ZM46.8569 20.5201V27.1797H44.995V18.8205H46.7487L46.8569 20.5201ZM46.5556 22.6911L45.922 22.6833C45.922 22.1065 45.9942 21.5734 46.1384 21.0841C46.2826 20.5948 46.4938 20.1699 46.7719 19.8094C47.05 19.4437 47.3951 19.163 47.8071 18.9673C48.2243 18.7664 48.7059 18.666 49.2518 18.666C49.633 18.666 49.9806 18.7226 50.2948 18.8359C50.6141 18.9441 50.8897 19.1166 51.1214 19.3536C51.3584 19.5905 51.5386 19.8944 51.6622 20.2652C51.791 20.636 51.8554 21.0841 51.8554 21.6095V27.1797H49.9935V21.7717C49.9935 21.3648 49.9317 21.0455 49.8081 20.8137C49.6896 20.5819 49.5171 20.4171 49.2905 20.3193C49.069 20.2163 48.8037 20.1648 48.4947 20.1648C48.1445 20.1648 47.8457 20.2317 47.5985 20.3656C47.3565 20.4995 47.1582 20.6824 47.0036 20.9141C46.8491 21.1459 46.7358 21.4137 46.6637 21.7176C46.5916 22.0215 46.5556 22.346 46.5556 22.6911ZM51.7395 22.1966L50.8665 22.3898C50.8665 21.885 50.936 21.4086 51.0751 20.9605C51.2193 20.5073 51.4279 20.1107 51.7009 19.7707C51.979 19.4257 52.3215 19.1553 52.7284 18.9595C53.1353 18.7638 53.6014 18.666 54.1267 18.666C54.5542 18.666 54.9354 18.7252 55.2701 18.8437C55.6101 18.957 55.8985 19.1372 56.1354 19.3845C56.3723 19.6317 56.5526 19.9536 56.6762 20.3502C56.7998 20.7416 56.8616 21.2155 56.8616 21.7717V27.1797H54.992V21.764C54.992 21.3416 54.9302 21.0146 54.8066 20.7828C54.6881 20.551 54.5182 20.3914 54.2967 20.3038C54.0752 20.2111 53.81 20.1648 53.501 20.1648C53.2125 20.1648 52.9576 20.2188 52.7361 20.327C52.5198 20.43 52.337 20.5768 52.1876 20.7674C52.0382 20.9528 51.9249 21.1665 51.8477 21.4086C51.7756 21.6507 51.7395 21.9133 51.7395 22.1966ZM63.4903 25.5032V21.5168C63.4903 21.218 63.4362 20.9605 63.328 20.7442C63.2199 20.5279 63.0551 20.3605 62.8336 20.242C62.6173 20.1236 62.3443 20.0643 62.0147 20.0643C61.7108 20.0643 61.4481 20.1158 61.2266 20.2188C61.0052 20.3218 60.8326 20.4609 60.709 20.636C60.5854 20.8111 60.5236 21.0094 60.5236 21.2309H58.6694C58.6694 20.9013 58.7493 20.5819 58.9089 20.2729C59.0686 19.9639 59.3004 19.6883 59.6043 19.4463C59.9081 19.2042 60.2712 19.0136 60.6936 18.8746C61.1159 18.7355 61.5898 18.666 62.1151 18.666C62.7435 18.666 63.2997 18.7716 63.7839 18.9827C64.2731 19.1939 64.6569 19.5132 64.935 19.9407C65.2183 20.363 65.3599 20.8935 65.3599 21.5322V25.2483C65.3599 25.6294 65.3856 25.9719 65.4372 26.2758C65.4938 26.5745 65.5736 26.8346 65.6766 27.0561V27.1797H63.7684C63.6808 26.9788 63.6113 26.7239 63.5598 26.4148C63.5135 26.1007 63.4903 25.7968 63.4903 25.5032ZM63.7607 22.0962L63.7761 23.2473H62.4396C62.0945 23.2473 61.7906 23.2808 61.528 23.3477C61.2653 23.4095 61.0464 23.5023 60.8713 23.6259C60.6962 23.7495 60.5648 23.8988 60.4773 24.074C60.3897 24.2491 60.3459 24.4474 60.3459 24.6688C60.3459 24.8903 60.3974 25.0938 60.5004 25.2792C60.6034 25.4594 60.7528 25.6011 60.9485 25.7041C61.1494 25.8071 61.3915 25.8586 61.6747 25.8586C62.0559 25.8586 62.3881 25.7813 62.6714 25.6268C62.9598 25.4672 63.1864 25.274 63.3512 25.0474C63.516 24.8156 63.6036 24.5967 63.6139 24.3907L64.2165 25.2174C64.1547 25.4285 64.0491 25.6552 63.8997 25.8972C63.7504 26.1393 63.5547 26.3711 63.3126 26.5925C63.0757 26.8089 62.7898 26.9865 62.455 27.1256C62.1254 27.2647 61.7443 27.3342 61.3116 27.3342C60.7657 27.3342 60.279 27.226 59.8515 27.0097C59.424 26.7883 59.0892 26.4921 58.8471 26.1213C58.6051 25.7453 58.484 25.3204 58.484 24.8465C58.484 24.4036 58.5664 24.0122 58.7313 23.6722C58.9012 23.3271 59.1484 23.0387 59.4729 22.8069C59.8025 22.5752 60.2043 22.4001 60.6781 22.2816C61.152 22.158 61.6928 22.0962 62.3005 22.0962H63.7607ZM69.1764 20.412V27.1797H67.3145V18.8205H69.0914L69.1764 20.412ZM71.7336 18.7664L71.7181 20.497C71.6048 20.4764 71.4812 20.4609 71.3473 20.4506C71.2185 20.4403 71.0898 20.4352 70.961 20.4352C70.6417 20.4352 70.361 20.4815 70.1189 20.5742C69.8768 20.6618 69.6734 20.7905 69.5086 20.9605C69.3489 21.1253 69.2253 21.3262 69.1378 21.5631C69.0502 21.8 68.9987 22.0653 68.9832 22.3589L68.5583 22.3898C68.5583 21.8644 68.6098 21.3777 68.7128 20.9296C68.8159 20.4815 68.9704 20.0875 69.1764 19.7476C69.3876 19.4076 69.6502 19.1424 69.9644 18.9518C70.2837 18.7613 70.652 18.666 71.0692 18.666C71.1825 18.666 71.3035 18.6763 71.4323 18.6969C71.5662 18.7175 71.6666 18.7407 71.7336 18.7664ZM75.4651 26.2681L77.7365 18.8205H79.7297L76.3767 28.4544C76.2995 28.6604 76.199 28.8845 76.0754 29.1266C75.9518 29.3686 75.7896 29.5978 75.5887 29.8141C75.393 30.0356 75.1483 30.2133 74.8548 30.3472C74.5612 30.4863 74.2058 30.5558 73.7886 30.5558C73.6238 30.5558 73.4641 30.5404 73.3096 30.5095C73.1603 30.4837 73.0186 30.4554 72.8847 30.4245L72.877 29.003C72.9285 29.0081 72.9903 29.0133 73.0624 29.0184C73.1397 29.0236 73.2015 29.0261 73.2478 29.0261C73.5569 29.0261 73.8144 28.9875 74.0204 28.9102C74.2264 28.8381 74.3938 28.7197 74.5226 28.5549C74.6565 28.39 74.7698 28.1686 74.8625 27.8905L75.4651 26.2681ZM74.1826 18.8205L76.1681 25.0783L76.5003 27.0406L75.2102 27.3728L72.174 18.8205H74.1826Z" fill="black"/>
<path d="M11.8672 47.0024C11.8672 44.8178 13.6382 43.0469 15.8227 43.0469H104.328C106.513 43.0469 108.284 44.8178 108.284 47.0024V120.675C108.284 122.859 106.513 124.63 104.328 124.63H15.8227C13.6382 124.63 11.8672 122.859 11.8672 120.675V47.0024Z" fill="#D0D1FB"/>
<path d="M23.7344 63.8141C23.7344 58.8987 27.719 54.9141 32.6344 54.9141C37.5497 54.9141 41.5344 58.8987 41.5344 63.8141C41.5344 68.7294 37.5497 72.7141 32.6344 72.7141C27.719 72.7141 23.7344 68.7294 23.7344 63.8141Z" fill="#7175F4"/>
<mask id="mask0_3166_534706" style="mask-type:alpha" maskUnits="userSpaceOnUse" x="28" y="64" width="7" height="4">
<path fill-rule="evenodd" clip-rule="evenodd" d="M28.5137 64.625H34.77V67.5503H28.5137V64.625Z" fill="white"/>
</mask>
<g mask="url(#mask0_3166_534706)">
<path fill-rule="evenodd" clip-rule="evenodd" d="M31.6419 65.2431C30.4968 65.2431 29.1317 65.3902 29.1317 66.0927C29.1317 66.6498 29.9764 66.9324 31.6419 66.9324C33.3073 66.9324 34.152 66.6469 34.152 66.0844C34.152 65.5261 33.3073 65.2431 31.6419 65.2431ZM31.6419 67.5505C30.7865 67.5505 28.5137 67.5505 28.5137 66.0927C28.5137 64.625 30.8681 64.625 31.6419 64.625C32.9847 64.625 34.77 64.7762 34.77 66.0844C34.77 67.5505 32.4157 67.5505 31.6419 67.5505Z" fill="white"/>
</g>
<path fill-rule="evenodd" clip-rule="evenodd" d="M31.6416 60.3173C30.8155 60.3173 30.1434 60.9893 30.1434 61.815C30.1434 62.6408 30.8155 63.3128 31.6416 63.3128H31.6544C32.0516 63.3111 32.4257 63.155 32.7063 62.8719C32.9873 62.5897 33.141 62.2143 33.1394 61.8163C33.1394 60.9893 32.4673 60.3173 31.6416 60.3173ZM31.6416 63.9308C30.4747 63.9308 29.5254 62.9815 29.5254 61.815C29.5254 60.6486 30.4747 59.6992 31.6416 59.6992C32.8081 59.6992 33.7574 60.6486 33.7574 61.815C33.7599 62.377 33.5419 62.9078 33.1447 63.3074C32.7483 63.7075 32.2189 63.9288 31.6556 63.9308H31.6416Z" fill="white"/>
<path fill-rule="evenodd" clip-rule="evenodd" d="M34.4806 63.4598C34.329 63.4598 34.1967 63.3481 34.1749 63.1936C34.1514 63.0246 34.2688 62.8681 34.4377 62.8446C34.952 62.7725 35.3401 62.3262 35.3409 61.8063C35.3409 61.2896 34.9709 60.8536 34.4621 60.7704C34.2935 60.7424 34.1794 60.5837 34.207 60.4152C34.2346 60.2467 34.3941 60.1334 34.5618 60.1602C35.3714 60.2928 35.959 60.9855 35.959 61.8067C35.9573 62.6328 35.3405 63.3423 34.5239 63.4569C34.5094 63.4589 34.495 63.4598 34.4806 63.4598Z" fill="white"/>
<mask id="mask1_3166_534706" style="mask-type:alpha" maskUnits="userSpaceOnUse" x="35" y="64" width="2" height="3">
<path fill-rule="evenodd" clip-rule="evenodd" d="M35.043 64.4297H36.7462V66.4806H35.043V64.4297Z" fill="white"/>
</mask>
<g mask="url(#mask1_3166_534706)">
<path fill-rule="evenodd" clip-rule="evenodd" d="M35.8878 66.4806C35.7629 66.4806 35.6455 66.4044 35.5989 66.2812C35.5383 66.1217 35.6187 65.9429 35.7782 65.8827C36.1284 65.7501 36.1284 65.5881 36.1284 65.5189C36.1284 65.2853 35.8519 65.1254 35.3068 65.0443C35.1378 65.0187 35.0212 64.8613 35.0464 64.6928C35.0719 64.5238 35.2322 64.4105 35.3978 64.4324C36.5128 64.5993 36.7464 65.1155 36.7464 65.5189C36.7464 65.8193 36.6166 66.226 35.9974 66.4604C35.9615 66.474 35.9244 66.4806 35.8878 66.4806Z" fill="white"/>
</g>
<path d="M28.59 83.1364H28.7638V84.2779H28.6653C28.167 84.2779 27.7363 84.3551 27.3732 84.5096C27.0139 84.6641 26.7184 84.8766 26.4867 85.147C26.2549 85.4174 26.0811 85.7342 25.9652 86.0973C25.8531 86.4565 25.7971 86.8389 25.7971 87.2445V88.5714C25.7971 88.9075 25.8338 89.2049 25.9072 89.4637C25.9806 89.7187 26.083 89.9331 26.2143 90.1069C26.3495 90.2769 26.504 90.4063 26.6779 90.4951C26.8517 90.584 27.039 90.6284 27.2399 90.6284C27.4485 90.6284 27.6378 90.5859 27.8077 90.5009C27.9777 90.4121 28.1226 90.2904 28.2423 90.1359C28.3621 89.9814 28.4528 89.7979 28.5146 89.5854C28.5765 89.373 28.6074 89.1412 28.6074 88.8901C28.6074 88.6506 28.5765 88.4266 28.5146 88.218C28.4567 88.0055 28.3698 87.8201 28.2539 87.6617C28.138 87.4995 27.9932 87.3739 27.8193 87.2851C27.6494 87.1924 27.4524 87.146 27.2283 87.146C26.9502 87.146 26.6972 87.2117 26.4693 87.343C26.2452 87.4744 26.0637 87.6463 25.9246 87.8587C25.7894 88.0673 25.716 88.2894 25.7044 88.5251L25.1714 88.3512C25.2023 87.992 25.2814 87.6694 25.4089 87.3836C25.5403 87.0977 25.7122 86.8544 25.9246 86.6535C26.1371 86.4526 26.3824 86.3001 26.6605 86.1958C26.9425 86.0876 27.2515 86.0335 27.5876 86.0335C27.997 86.0335 28.3524 86.1108 28.6537 86.2653C28.955 86.4198 29.2042 86.6303 29.4012 86.8969C29.602 87.1595 29.7508 87.4609 29.8473 87.8008C29.9478 88.1368 29.998 88.4884 29.998 88.8553C29.998 89.2609 29.9362 89.6395 29.8126 89.991C29.689 90.3387 29.5074 90.6438 29.2679 90.9065C29.0323 91.1692 28.7445 91.3739 28.4046 91.5207C28.0685 91.6675 27.6861 91.7409 27.2573 91.7409C26.8053 91.7409 26.4017 91.654 26.0463 91.4801C25.6948 91.3063 25.3954 91.0668 25.1482 90.7617C24.9048 90.4565 24.7194 90.105 24.5919 89.7071C24.4645 89.3092 24.4007 88.8882 24.4007 88.4439V87.8645C24.4007 87.2233 24.4818 86.6187 24.6441 86.0509C24.8063 85.4792 25.0555 84.9751 25.3915 84.5386C25.7315 84.1021 26.166 83.7602 26.6952 83.513C27.2245 83.2619 27.856 83.1364 28.59 83.1364ZM36.7715 90.5125V91.625H31.1163V90.6689L33.8628 87.6733C34.1641 87.3334 34.4016 87.0398 34.5755 86.7926C34.7493 86.5454 34.871 86.3232 34.9405 86.1262C35.0139 85.9254 35.0506 85.7303 35.0506 85.541C35.0506 85.2745 35.0004 85.0408 34.8999 84.8399C34.8034 84.6352 34.6604 84.4749 34.4712 84.359C34.2819 84.2392 34.052 84.1794 33.7816 84.1794C33.4687 84.1794 33.2061 84.247 32.9936 84.3822C32.7812 84.5174 32.6209 84.7047 32.5127 84.9442C32.4045 85.1798 32.3505 85.4502 32.3505 85.7554H30.954C30.954 85.2648 31.0661 84.8167 31.2901 84.4111C31.5141 84.0017 31.8386 83.6772 32.2635 83.4377C32.6885 83.1943 33.2003 83.0727 33.799 83.0727C34.363 83.0727 34.842 83.1673 35.236 83.3566C35.63 83.5459 35.9294 83.8143 36.1341 84.162C36.3427 84.5096 36.447 84.921 36.447 85.3962C36.447 85.6588 36.4045 85.9196 36.3195 86.1784C36.2345 86.4372 36.1129 86.696 35.9545 86.9548C35.8 87.2098 35.6165 87.4666 35.404 87.7255C35.1916 87.9804 34.9579 88.2392 34.7029 88.5019L32.8777 90.5125H36.7715Z" fill="#0E0E0E"/>
<path d="M27.1482 101.888V108.918H26.2307V101.888H27.1482ZM29.4079 101.888V102.65H23.9758V101.888H29.4079ZM29.5962 106.364V106.253C29.5962 105.876 29.651 105.527 29.7604 105.205C29.8699 104.88 30.0276 104.598 30.2336 104.36C30.4396 104.118 30.6891 103.932 30.982 103.8C31.275 103.664 31.6033 103.597 31.9671 103.597C32.334 103.597 32.664 103.664 32.9569 103.8C33.2531 103.932 33.5042 104.118 33.7102 104.36C33.9194 104.598 34.0788 104.88 34.1882 105.205C34.2977 105.527 34.3524 105.876 34.3524 106.253V106.364C34.3524 106.74 34.2977 107.09 34.1882 107.411C34.0788 107.733 33.9194 108.015 33.7102 108.256C33.5042 108.495 33.2547 108.681 32.9618 108.817C32.672 108.949 32.3437 109.015 31.9767 109.015C31.6098 109.015 31.2798 108.949 30.9869 108.817C30.6939 108.681 30.4429 108.495 30.2336 108.256C30.0276 108.015 29.8699 107.733 29.7604 107.411C29.651 107.09 29.5962 106.74 29.5962 106.364ZM30.4895 106.253V106.364C30.4895 106.624 30.5201 106.871 30.5813 107.102C30.6424 107.331 30.7342 107.534 30.8565 107.711C30.982 107.888 31.1382 108.028 31.3249 108.131C31.5116 108.231 31.7289 108.281 31.9767 108.281C32.2214 108.281 32.4354 108.231 32.6189 108.131C32.8056 108.028 32.9601 107.888 33.0825 107.711C33.2048 107.534 33.2965 107.331 33.3577 107.102C33.4221 106.871 33.4543 106.624 33.4543 106.364V106.253C33.4543 105.995 33.4221 105.752 33.3577 105.523C33.2965 105.292 33.2032 105.087 33.0776 104.91C32.9553 104.73 32.8008 104.588 32.6141 104.485C32.4306 104.382 32.2149 104.331 31.9671 104.331C31.7224 104.331 31.5067 104.382 31.32 104.485C31.1366 104.588 30.982 104.73 30.8565 104.91C30.7342 105.087 30.6424 105.292 30.5813 105.523C30.5201 105.752 30.4895 105.995 30.4895 106.253ZM37.6599 103.693V104.379H34.8352V103.693H37.6599ZM35.7913 102.424H36.6846V107.624C36.6846 107.801 36.7119 107.935 36.7667 108.025C36.8214 108.115 36.8922 108.174 36.9791 108.203C37.066 108.232 37.1594 108.247 37.2592 108.247C37.3332 108.247 37.4105 108.24 37.4909 108.227C37.5746 108.211 37.6374 108.199 37.6793 108.189L37.6841 108.918C37.6133 108.941 37.5199 108.961 37.404 108.981C37.2914 109.003 37.1545 109.015 36.9936 109.015C36.7747 109.015 36.5735 108.971 36.39 108.884C36.2065 108.797 36.0601 108.652 35.9506 108.45C35.8444 108.244 35.7913 107.967 35.7913 107.619V102.424ZM41.7884 108.025V105.335C41.7884 105.129 41.7465 104.951 41.6628 104.799C41.5823 104.645 41.46 104.526 41.2958 104.442C41.1317 104.358 40.9289 104.316 40.6874 104.316C40.4621 104.316 40.2641 104.355 40.0935 104.432C39.9261 104.509 39.7942 104.611 39.6976 104.736C39.6042 104.862 39.5576 104.997 39.5576 105.142H38.6643C38.6643 104.955 38.7126 104.77 38.8091 104.587C38.9057 104.403 39.0441 104.237 39.2244 104.089C39.4079 103.938 39.6268 103.819 39.8811 103.732C40.1386 103.642 40.4251 103.597 40.7406 103.597C41.1204 103.597 41.4552 103.661 41.7449 103.79C42.0378 103.919 42.2664 104.114 42.4306 104.374C42.5979 104.632 42.6816 104.955 42.6816 105.345V107.778C42.6816 107.952 42.6961 108.137 42.7251 108.334C42.7573 108.53 42.804 108.699 42.8651 108.841V108.918H41.9332C41.8881 108.815 41.8527 108.678 41.827 108.508C41.8012 108.334 41.7884 108.173 41.7884 108.025ZM41.9429 105.75L41.9525 106.378H41.0496C40.7953 106.378 40.5683 106.399 40.3688 106.441C40.1692 106.48 40.0018 106.539 39.8666 106.62C39.7314 106.7 39.6284 106.801 39.5576 106.924C39.4867 107.043 39.4513 107.183 39.4513 107.344C39.4513 107.508 39.4884 107.658 39.5624 107.793C39.6364 107.928 39.7475 108.036 39.8956 108.116C40.0469 108.194 40.232 108.232 40.4508 108.232C40.7245 108.232 40.9659 108.174 41.1751 108.058C41.3844 107.943 41.5501 107.801 41.6725 107.634C41.798 107.466 41.8656 107.304 41.8753 107.146L42.2567 107.576C42.2342 107.711 42.173 107.861 42.0732 108.025C41.9735 108.189 41.8399 108.347 41.6725 108.498C41.5083 108.646 41.3119 108.77 41.0834 108.87C40.8581 108.966 40.6037 109.015 40.3205 109.015C39.9664 109.015 39.6557 108.945 39.3886 108.807C39.1246 108.668 38.9186 108.483 38.7705 108.252C38.6257 108.017 38.5532 107.754 38.5532 107.465C38.5532 107.185 38.6079 106.938 38.7174 106.726C38.8268 106.51 38.9846 106.331 39.1906 106.19C39.3966 106.045 39.6445 105.936 39.9342 105.861C40.2239 105.787 40.5474 105.75 40.9047 105.75H41.9429ZM45.0573 101.501V108.918H44.1592V101.501H45.0573ZM53.1017 101.888H54.0288V106.644C54.0288 107.172 53.9113 107.611 53.6763 107.962C53.4413 108.313 53.129 108.577 52.7395 108.754C52.3532 108.928 51.9332 109.015 51.4793 109.015C51.0029 109.015 50.5715 108.928 50.1852 108.754C49.8022 108.577 49.498 108.313 49.2726 107.962C49.0505 107.611 48.9395 107.172 48.9395 106.644V101.888H49.8617V106.644C49.8617 107.011 49.9293 107.313 50.0645 107.551C50.1997 107.79 50.388 107.967 50.6294 108.083C50.8741 108.199 51.1574 108.256 51.4793 108.256C51.8044 108.256 52.0877 108.199 52.3291 108.083C52.5737 107.967 52.7637 107.79 52.8989 107.551C53.0341 107.313 53.1017 107.011 53.1017 106.644V101.888ZM58.3986 107.532C58.3986 107.403 58.3696 107.284 58.3117 107.175C58.257 107.062 58.1427 106.961 57.9689 106.871C57.7982 106.777 57.5407 106.697 57.1963 106.629C56.9066 106.568 56.6442 106.496 56.4092 106.412C56.1775 106.328 55.9795 106.227 55.8153 106.108C55.6544 105.989 55.5304 105.849 55.4435 105.688C55.3566 105.527 55.3131 105.338 55.3131 105.123C55.3131 104.917 55.3582 104.722 55.4483 104.538C55.5417 104.355 55.6721 104.192 55.8395 104.051C56.0101 103.909 56.2145 103.798 56.4527 103.718C56.6909 103.637 56.9565 103.597 57.2494 103.597C57.6679 103.597 58.0252 103.671 58.3213 103.819C58.6175 103.967 58.8444 104.165 59.0022 104.413C59.1599 104.658 59.2388 104.93 59.2388 105.229H58.3455C58.3455 105.084 58.302 104.944 58.2151 104.809C58.1314 104.67 58.0075 104.556 57.8433 104.466C57.6824 104.376 57.4844 104.331 57.2494 104.331C57.0015 104.331 56.8003 104.369 56.6458 104.447C56.4945 104.521 56.3835 104.616 56.3127 104.732C56.2451 104.847 56.2113 104.97 56.2113 105.099C56.2113 105.195 56.2274 105.282 56.2595 105.359C56.295 105.433 56.3561 105.503 56.443 105.567C56.5299 105.628 56.6523 105.686 56.81 105.741C56.9677 105.796 57.1689 105.85 57.4136 105.905C57.8417 106.002 58.1942 106.117 58.471 106.253C58.7479 106.388 58.9539 106.554 59.0891 106.75C59.2243 106.946 59.2919 107.185 59.2919 107.465C59.2919 107.693 59.2436 107.902 59.147 108.092C59.0537 108.282 58.9169 108.446 58.7366 108.585C58.5596 108.72 58.3471 108.826 58.0992 108.903C57.8546 108.978 57.5794 109.015 57.2735 109.015C56.8132 109.015 56.4237 108.932 56.105 108.768C55.7863 108.604 55.5449 108.392 55.3807 108.131C55.2166 107.87 55.1345 107.595 55.1345 107.305H56.0326C56.0455 107.55 56.1163 107.745 56.2451 107.889C56.3738 108.031 56.5316 108.133 56.7183 108.194C56.905 108.252 57.0901 108.281 57.2735 108.281C57.5182 108.281 57.7226 108.248 57.8868 108.184C58.0542 108.12 58.1813 108.031 58.2682 107.918C58.3551 107.806 58.3986 107.677 58.3986 107.532ZM62.6332 109.015C62.2695 109.015 61.9395 108.953 61.6434 108.831C61.3505 108.706 61.0978 108.53 60.8853 108.305C60.6761 108.079 60.5151 107.812 60.4024 107.503C60.2898 107.194 60.2334 106.856 60.2334 106.489V106.286C60.2334 105.861 60.2962 105.483 60.4218 105.152C60.5473 104.817 60.7179 104.534 60.9336 104.302C61.1493 104.07 61.3939 103.895 61.6675 103.776C61.9411 103.656 62.2244 103.597 62.5174 103.597C62.8908 103.597 63.2127 103.661 63.4831 103.79C63.7567 103.919 63.9804 104.099 64.1542 104.331C64.3281 104.559 64.4568 104.83 64.5405 105.142C64.6242 105.451 64.6661 105.789 64.6661 106.156V106.557H60.7646V105.828H63.7728V105.76C63.7599 105.528 63.7116 105.303 63.6279 105.084C63.5475 104.865 63.4187 104.685 63.2416 104.543C63.0646 104.402 62.8232 104.331 62.5174 104.331C62.3146 104.331 62.1279 104.374 61.9572 104.461C61.7866 104.545 61.6402 104.67 61.5178 104.838C61.3955 105.005 61.3006 105.21 61.233 105.451C61.1654 105.692 61.1316 105.971 61.1316 106.286V106.489C61.1316 106.737 61.1654 106.97 61.233 107.189C61.3038 107.405 61.4052 107.595 61.5372 107.759C61.6724 107.923 61.8349 108.052 62.0248 108.145C62.218 108.239 62.4369 108.285 62.6815 108.285C62.997 108.285 63.2642 108.221 63.4831 108.092C63.702 107.964 63.8935 107.791 64.0577 107.576L64.5985 108.005C64.4858 108.176 64.3426 108.339 64.1687 108.493C63.9949 108.648 63.7808 108.773 63.5265 108.87C63.2754 108.966 62.9777 109.015 62.6332 109.015ZM66.6023 104.514V108.918H65.709V103.693H66.5782L66.6023 104.514ZM68.2344 103.664L68.2295 104.495C68.1555 104.479 68.0847 104.469 68.0171 104.466C67.9527 104.46 67.8787 104.456 67.795 104.456C67.589 104.456 67.4071 104.489 67.2493 104.553C67.0916 104.617 66.958 104.707 66.8486 104.823C66.7391 104.939 66.6522 105.078 66.5878 105.239C66.5267 105.396 66.4864 105.57 66.4671 105.76L66.216 105.905C66.216 105.589 66.2466 105.293 66.3078 105.016C66.3722 104.74 66.4703 104.495 66.6023 104.283C66.7343 104.067 66.9017 103.899 67.1045 103.78C67.3105 103.658 67.5552 103.597 67.8384 103.597C67.9028 103.597 67.9768 103.605 68.0605 103.621C68.1442 103.634 68.2022 103.648 68.2344 103.664ZM72.102 107.532C72.102 107.403 72.0731 107.284 72.0151 107.175C71.9604 107.062 71.8461 106.961 71.6723 106.871C71.5017 106.777 71.2442 106.697 70.8997 106.629C70.61 106.568 70.3477 106.496 70.1127 106.412C69.8809 106.328 69.6829 106.227 69.5188 106.108C69.3578 105.989 69.2339 105.849 69.147 105.688C69.0601 105.527 69.0166 105.338 69.0166 105.123C69.0166 104.917 69.0617 104.722 69.1518 104.538C69.2452 104.355 69.3755 104.192 69.5429 104.051C69.7135 103.909 69.9179 103.798 70.1561 103.718C70.3943 103.637 70.6599 103.597 70.9529 103.597C71.3713 103.597 71.7286 103.671 72.0248 103.819C72.3209 103.967 72.5479 104.165 72.7056 104.413C72.8634 104.658 72.9422 104.93 72.9422 105.229H72.0489C72.0489 105.084 72.0055 104.944 71.9186 104.809C71.8349 104.67 71.7109 104.556 71.5468 104.466C71.3858 104.376 71.1878 104.331 70.9529 104.331C70.705 104.331 70.5038 104.369 70.3493 104.447C70.198 104.521 70.0869 104.616 70.0161 104.732C69.9485 104.847 69.9147 104.97 69.9147 105.099C69.9147 105.195 69.9308 105.282 69.963 105.359C69.9984 105.433 70.0596 105.503 70.1465 105.567C70.2334 105.628 70.3557 105.686 70.5135 105.741C70.6712 105.796 70.8724 105.85 71.117 105.905C71.5452 106.002 71.8976 106.117 72.1745 106.253C72.4513 106.388 72.6573 106.554 72.7925 106.75C72.9277 106.946 72.9953 107.185 72.9953 107.465C72.9953 107.693 72.947 107.902 72.8505 108.092C72.7571 108.282 72.6203 108.446 72.44 108.585C72.263 108.72 72.0505 108.826 71.8027 108.903C71.558 108.978 71.2828 109.015 70.977 109.015C70.5167 109.015 70.1272 108.932 69.8085 108.768C69.4898 108.604 69.2484 108.392 69.0842 108.131C68.92 107.87 68.8379 107.595 68.8379 107.305H69.7361C69.7489 107.55 69.8198 107.745 69.9485 107.889C70.0773 108.031 70.235 108.133 70.4217 108.194C70.6084 108.252 70.7935 108.281 70.977 108.281C71.2216 108.281 71.4261 108.248 71.5902 108.184C71.7576 108.12 71.8848 108.031 71.9717 107.918C72.0586 107.806 72.102 107.677 72.102 107.532Z" fill="#0E0E0E"/>
<path d="M122.375 47.0024C122.375 44.8178 124.146 43.0469 126.331 43.0469H214.836C217.021 43.0469 218.792 44.8178 218.792 47.0024V120.675C218.792 122.859 217.021 124.63 214.836 124.63H126.331C124.146 124.63 122.375 122.859 122.375 120.675V47.0024Z" fill="#D7F4D8"/>
<path d="M134.242 63.8141C134.242 58.8987 138.227 54.9141 143.142 54.9141C148.058 54.9141 152.042 58.8987 152.042 63.8141C152.042 68.7294 148.058 72.7141 143.142 72.7141C138.227 72.7141 134.242 68.7294 134.242 63.8141Z" fill="#35CA3B"/>
<path fill-rule="evenodd" clip-rule="evenodd" d="M145.567 63.875C145.415 63.875 145.283 63.7633 145.261 63.6088C145.237 63.4394 145.355 63.2833 145.524 63.2598C145.953 63.1996 146.276 62.828 146.277 62.3945C146.277 61.9648 145.969 61.6013 145.544 61.5317C145.376 61.5041 145.262 61.3451 145.289 61.1765C145.317 61.008 145.475 60.8951 145.644 60.9219C146.369 61.041 146.895 61.6607 146.895 62.3953C146.893 63.1349 146.341 63.7695 145.609 63.8721C145.595 63.8741 145.581 63.875 145.567 63.875Z" fill="white"/>
<mask id="mask2_3166_534706" style="mask-type:alpha" maskUnits="userSpaceOnUse" x="146" y="64" width="2" height="3">
<path fill-rule="evenodd" clip-rule="evenodd" d="M146.018 64.6406H147.581V66.507H146.018V64.6406Z" fill="white"/>
</mask>
<g mask="url(#mask2_3166_534706)">
<path fill-rule="evenodd" clip-rule="evenodd" d="M146.794 66.507C146.669 66.507 146.552 66.4312 146.505 66.308C146.444 66.1485 146.524 65.9697 146.684 65.9091C146.963 65.8028 146.963 65.6854 146.963 65.6289C146.963 65.4485 146.733 65.3224 146.281 65.2548C146.112 65.2292 145.996 65.0723 146.021 64.9029C146.046 64.734 146.203 64.6215 146.373 64.6433C147.371 64.7929 147.581 65.2618 147.581 65.6289C147.581 65.8531 147.493 66.2622 146.904 66.4868C146.867 66.5004 146.83 66.507 146.794 66.507Z" fill="white"/>
</g>
<path fill-rule="evenodd" clip-rule="evenodd" d="M143.094 65.4266C142.115 65.4266 140.948 65.547 140.948 66.1197C140.948 66.697 142.115 66.8181 143.094 66.8181C144.073 66.8181 145.24 66.6982 145.24 66.1267C145.24 65.5482 144.073 65.4266 143.094 65.4266ZM143.094 67.4362C142.411 67.4362 140.33 67.4362 140.33 66.1197C140.33 64.8086 142.411 64.8086 143.094 64.8086C143.778 64.8086 145.858 64.8086 145.858 66.1267C145.858 67.4362 143.851 67.4362 143.094 67.4362Z" fill="white"/>
<path fill-rule="evenodd" clip-rule="evenodd" d="M143.095 61.1376C142.398 61.1376 141.831 61.705 141.831 62.4021C141.83 62.74 141.959 63.056 142.196 63.2946C142.433 63.5332 142.749 63.6654 143.085 63.6667L143.095 63.9757V63.6667C143.792 63.6667 144.36 63.0997 144.36 62.4021C144.36 61.705 143.792 61.1376 143.095 61.1376ZM143.095 64.2847H143.084C142.581 64.2831 142.11 64.0861 141.758 63.7301C141.404 63.3745 141.211 62.9023 141.213 62.4009C141.213 61.3642 142.057 60.5195 143.095 60.5195C144.133 60.5195 144.978 61.3642 144.978 62.4021C144.978 63.44 144.133 64.2847 143.095 64.2847Z" fill="white"/>
<path fill-rule="evenodd" clip-rule="evenodd" d="M140.623 63.875C140.609 63.875 140.594 63.8742 140.58 63.8722C139.849 63.7696 139.297 63.135 139.295 62.3962C139.295 61.6608 139.821 61.0411 140.545 60.922C140.719 60.8948 140.873 61.0089 140.901 61.1766C140.928 61.3451 140.814 61.5042 140.646 61.5318C140.221 61.6014 139.913 61.9648 139.913 62.3954C139.914 62.8281 140.237 63.2001 140.665 63.2599C140.835 63.2834 140.952 63.4395 140.929 63.6089C140.907 63.7634 140.775 63.875 140.623 63.875Z" fill="white"/>
<path fill-rule="evenodd" clip-rule="evenodd" d="M139.397 66.5069C139.361 66.5069 139.323 66.5003 139.287 66.4867C138.698 66.2617 138.609 65.8526 138.609 65.6288C138.609 65.2621 138.819 64.7928 139.818 64.6432C139.988 64.6218 140.144 64.7339 140.169 64.9028C140.194 65.0722 140.078 65.2292 139.909 65.2547C139.457 65.3223 139.227 65.4484 139.227 65.6288C139.227 65.6853 139.227 65.8023 139.507 65.909C139.667 65.9696 139.747 66.1484 139.686 66.3079C139.639 66.4311 139.522 66.5069 139.397 66.5069Z" fill="white"/>
<path d="M139.098 83.1364H139.272V84.2779H139.173C138.675 84.2779 138.244 84.3551 137.881 84.5096C137.522 84.6641 137.226 84.8766 136.994 85.147C136.763 85.4174 136.589 85.7342 136.473 86.0973C136.361 86.4565 136.305 86.8389 136.305 87.2445V88.5714C136.305 88.9075 136.342 89.2049 136.415 89.4637C136.488 89.7187 136.591 89.9331 136.722 90.1069C136.857 90.2769 137.012 90.4063 137.186 90.4951C137.36 90.584 137.547 90.6284 137.748 90.6284C137.956 90.6284 138.146 90.5859 138.316 90.5009C138.486 90.4121 138.63 90.2904 138.75 90.1359C138.87 89.9814 138.961 89.7979 139.022 89.5854C139.084 89.373 139.115 89.1412 139.115 88.8901C139.115 88.6506 139.084 88.4266 139.022 88.218C138.965 88.0055 138.878 87.8201 138.762 87.6617C138.646 87.4995 138.501 87.3739 138.327 87.2851C138.157 87.1924 137.96 87.146 137.736 87.146C137.458 87.146 137.205 87.2117 136.977 87.343C136.753 87.4744 136.571 87.6463 136.432 87.8587C136.297 88.0673 136.224 88.2894 136.212 88.5251L135.679 88.3512C135.71 87.992 135.789 87.6694 135.917 87.3836C136.048 87.0977 136.22 86.8544 136.432 86.6535C136.645 86.4526 136.89 86.3001 137.168 86.1958C137.45 86.0876 137.759 86.0335 138.095 86.0335C138.505 86.0335 138.86 86.1108 139.162 86.2653C139.463 86.4198 139.712 86.6303 139.909 86.8969C140.11 87.1595 140.259 87.4609 140.355 87.8008C140.456 88.1368 140.506 88.4884 140.506 88.8553C140.506 89.2609 140.444 89.6395 140.32 89.991C140.197 90.3387 140.015 90.6438 139.776 90.9065C139.54 91.1692 139.252 91.3739 138.912 91.5207C138.576 91.6675 138.194 91.7409 137.765 91.7409C137.313 91.7409 136.909 91.654 136.554 91.4801C136.203 91.3063 135.903 91.0668 135.656 90.7617C135.413 90.4565 135.227 90.105 135.1 89.7071C134.972 89.3092 134.909 88.8882 134.909 88.4439V87.8645C134.909 87.2233 134.99 86.6187 135.152 86.0509C135.314 85.4792 135.563 84.9751 135.899 84.5386C136.239 84.1021 136.674 83.7602 137.203 83.513C137.732 83.2619 138.364 83.1364 139.098 83.1364ZM147.227 83.1885V83.9534L143.855 91.625H142.383L145.75 84.301H141.381V83.1885H147.227ZM149.835 87.7023L148.722 87.4299L149.18 83.1885H153.728V84.3706H150.339L150.107 86.4391C150.238 86.3619 150.42 86.2865 150.652 86.2132C150.883 86.1359 151.148 86.0973 151.445 86.0973C151.843 86.0973 152.199 86.1629 152.512 86.2943C152.828 86.4217 153.097 86.6091 153.317 86.8563C153.537 87.0997 153.705 87.3971 153.821 87.7486C153.937 88.0963 153.995 88.4884 153.995 88.9249C153.995 89.315 153.937 89.6801 153.821 90.02C153.709 90.3599 153.539 90.6593 153.311 90.9181C153.083 91.1769 152.795 91.3797 152.448 91.5265C152.104 91.6694 151.696 91.7409 151.225 91.7409C150.874 91.7409 150.536 91.6907 150.211 91.5902C149.891 91.4859 149.603 91.3334 149.348 91.1325C149.093 90.9278 148.888 90.6767 148.734 90.3792C148.579 90.0779 148.49 89.7322 148.467 89.3421H149.835C149.869 89.6163 149.945 89.85 150.061 90.0432C150.18 90.2324 150.339 90.3773 150.536 90.4777C150.733 90.5782 150.961 90.6284 151.219 90.6284C151.455 90.6284 151.658 90.5878 151.828 90.5067C151.998 90.4217 152.139 90.302 152.251 90.1475C152.367 89.9891 152.452 89.8037 152.506 89.5912C152.564 89.3788 152.593 89.1431 152.593 88.8843C152.593 88.6371 152.56 88.4111 152.494 88.2064C152.432 88.0016 152.338 87.824 152.21 87.6733C152.087 87.5227 151.93 87.4068 151.741 87.3257C151.552 87.2407 151.333 87.1982 151.086 87.1982C150.754 87.1982 150.499 87.2465 150.321 87.343C150.147 87.4396 149.985 87.5594 149.835 87.7023Z" fill="#0E0E0E"/>
<path d="M137.656 101.888V108.918H136.739V101.888H137.656ZM139.916 101.888V102.65H134.484V101.888H139.916ZM140.104 106.364V106.253C140.104 105.876 140.159 105.527 140.268 105.205C140.378 104.88 140.535 104.598 140.741 104.36C140.947 104.118 141.197 103.932 141.49 103.8C141.783 103.664 142.111 103.597 142.475 103.597C142.842 103.597 143.172 103.664 143.465 103.8C143.761 103.932 144.012 104.118 144.218 104.36C144.427 104.598 144.587 104.88 144.696 105.205C144.805 105.527 144.86 105.876 144.86 106.253V106.364C144.86 106.74 144.805 107.09 144.696 107.411C144.587 107.733 144.427 108.015 144.218 108.256C144.012 108.495 143.762 108.681 143.47 108.817C143.18 108.949 142.852 109.015 142.485 109.015C142.118 109.015 141.788 108.949 141.495 108.817C141.202 108.681 140.951 108.495 140.741 108.256C140.535 108.015 140.378 107.733 140.268 107.411C140.159 107.09 140.104 106.74 140.104 106.364ZM140.997 106.253V106.364C140.997 106.624 141.028 106.871 141.089 107.102C141.15 107.331 141.242 107.534 141.364 107.711C141.49 107.888 141.646 108.028 141.833 108.131C142.019 108.231 142.237 108.281 142.485 108.281C142.729 108.281 142.943 108.231 143.127 108.131C143.313 108.028 143.468 107.888 143.59 107.711C143.713 107.534 143.804 107.331 143.866 107.102C143.93 106.871 143.962 106.624 143.962 106.364V106.253C143.962 105.995 143.93 105.752 143.866 105.523C143.804 105.292 143.711 105.087 143.585 104.91C143.463 104.73 143.309 104.588 143.122 104.485C142.938 104.382 142.723 104.331 142.475 104.331C142.23 104.331 142.015 104.382 141.828 104.485C141.644 104.588 141.49 104.73 141.364 104.91C141.242 105.087 141.15 105.292 141.089 105.523C141.028 105.752 140.997 105.995 140.997 106.253ZM148.168 103.693V104.379H145.343V103.693H148.168ZM146.299 102.424H147.192V107.624C147.192 107.801 147.22 107.935 147.274 108.025C147.329 108.115 147.4 108.174 147.487 108.203C147.574 108.232 147.667 108.247 147.767 108.247C147.841 108.247 147.918 108.24 147.999 108.227C148.082 108.211 148.145 108.199 148.187 108.189L148.192 108.918C148.121 108.941 148.028 108.961 147.912 108.981C147.799 109.003 147.662 109.015 147.501 109.015C147.283 109.015 147.081 108.971 146.898 108.884C146.714 108.797 146.568 108.652 146.458 108.45C146.352 108.244 146.299 107.967 146.299 107.619V102.424ZM152.296 108.025V105.335C152.296 105.129 152.254 104.951 152.171 104.799C152.09 104.645 151.968 104.526 151.804 104.442C151.639 104.358 151.437 104.316 151.195 104.316C150.97 104.316 150.772 104.355 150.601 104.432C150.434 104.509 150.302 104.611 150.205 104.736C150.112 104.862 150.065 104.997 150.065 105.142H149.172C149.172 104.955 149.22 104.77 149.317 104.587C149.414 104.403 149.552 104.237 149.732 104.089C149.916 103.938 150.135 103.819 150.389 103.732C150.646 103.642 150.933 103.597 151.248 103.597C151.628 103.597 151.963 103.661 152.253 103.79C152.546 103.919 152.774 104.114 152.938 104.374C153.106 104.632 153.189 104.955 153.189 105.345V107.778C153.189 107.952 153.204 108.137 153.233 108.334C153.265 108.53 153.312 108.699 153.373 108.841V108.918H152.441C152.396 108.815 152.361 108.678 152.335 108.508C152.309 108.334 152.296 108.173 152.296 108.025ZM152.451 105.75L152.46 106.378H151.557C151.303 106.378 151.076 106.399 150.877 106.441C150.677 106.48 150.51 106.539 150.374 106.62C150.239 106.7 150.136 106.801 150.065 106.924C149.995 107.043 149.959 107.183 149.959 107.344C149.959 107.508 149.996 107.658 150.07 107.793C150.144 107.928 150.255 108.036 150.403 108.116C150.555 108.194 150.74 108.232 150.959 108.232C151.232 108.232 151.474 108.174 151.683 108.058C151.892 107.943 152.058 107.801 152.18 107.634C152.306 107.466 152.373 107.304 152.383 107.146L152.765 107.576C152.742 107.711 152.681 107.861 152.581 108.025C152.481 108.189 152.348 108.347 152.18 108.498C152.016 108.646 151.82 108.77 151.591 108.87C151.366 108.966 151.112 109.015 150.828 109.015C150.474 109.015 150.164 108.945 149.896 108.807C149.632 108.668 149.426 108.483 149.278 108.252C149.133 108.017 149.061 107.754 149.061 107.465C149.061 107.185 149.116 106.938 149.225 106.726C149.335 106.51 149.492 106.331 149.698 106.19C149.904 106.045 150.152 105.936 150.442 105.861C150.732 105.787 151.055 105.75 151.413 105.75H152.451ZM155.565 101.501V108.918H154.667V101.501H155.565ZM159.587 101.888H161.915C162.443 101.888 162.888 101.968 163.252 102.129C163.619 102.29 163.898 102.528 164.088 102.844C164.281 103.156 164.377 103.541 164.377 103.998C164.377 104.32 164.311 104.614 164.179 104.881C164.05 105.145 163.864 105.371 163.619 105.557C163.378 105.741 163.088 105.878 162.75 105.968L162.489 106.069H160.302L160.292 105.311H161.944C162.278 105.311 162.557 105.253 162.779 105.137C163.001 105.018 163.168 104.859 163.281 104.659C163.394 104.46 163.45 104.239 163.45 103.998C163.45 103.727 163.397 103.491 163.291 103.288C163.185 103.085 163.017 102.929 162.789 102.819C162.563 102.707 162.272 102.65 161.915 102.65H160.519V108.918H159.587V101.888ZM163.696 108.918L161.987 105.731L162.958 105.726L164.691 108.86V108.918H163.696ZM167.714 109.015C167.35 109.015 167.02 108.953 166.724 108.831C166.431 108.706 166.178 108.53 165.966 108.305C165.757 108.079 165.596 107.812 165.483 107.503C165.37 107.194 165.314 106.856 165.314 106.489V106.286C165.314 105.861 165.377 105.483 165.502 105.152C165.628 104.817 165.798 104.534 166.014 104.302C166.23 104.07 166.474 103.895 166.748 103.776C167.022 103.656 167.305 103.597 167.598 103.597C167.971 103.597 168.293 103.661 168.564 103.79C168.837 103.919 169.061 104.099 169.235 104.331C169.409 104.559 169.537 104.83 169.621 105.142C169.705 105.451 169.747 105.789 169.747 106.156V106.557H165.845V105.828H168.853V105.76C168.84 105.528 168.792 105.303 168.708 105.084C168.628 104.865 168.499 104.685 168.322 104.543C168.145 104.402 167.904 104.331 167.598 104.331C167.395 104.331 167.208 104.374 167.038 104.461C166.867 104.545 166.721 104.67 166.598 104.838C166.476 105.005 166.381 105.21 166.313 105.451C166.246 105.692 166.212 105.971 166.212 106.286V106.489C166.212 106.737 166.246 106.97 166.313 107.189C166.384 107.405 166.486 107.595 166.618 107.759C166.753 107.923 166.915 108.052 167.105 108.145C167.299 108.239 167.517 108.285 167.762 108.285C168.078 108.285 168.345 108.221 168.564 108.092C168.782 107.964 168.974 107.791 169.138 107.576L169.679 108.005C169.566 108.176 169.423 108.339 169.249 108.493C169.075 108.648 168.861 108.773 168.607 108.87C168.356 108.966 168.058 109.015 167.714 109.015ZM173.832 107.532C173.832 107.403 173.803 107.284 173.745 107.175C173.69 107.062 173.576 106.961 173.402 106.871C173.231 106.777 172.974 106.697 172.629 106.629C172.34 106.568 172.077 106.496 171.842 106.412C171.61 106.328 171.412 106.227 171.248 106.108C171.087 105.989 170.963 105.849 170.876 105.688C170.79 105.527 170.746 105.338 170.746 105.123C170.746 104.917 170.791 104.722 170.881 104.538C170.975 104.355 171.105 104.192 171.272 104.051C171.443 103.909 171.647 103.798 171.886 103.718C172.124 103.637 172.389 103.597 172.682 103.597C173.101 103.597 173.458 103.671 173.754 103.819C174.05 103.967 174.277 104.165 174.435 104.413C174.593 104.658 174.672 104.93 174.672 105.229H173.778C173.778 105.084 173.735 104.944 173.648 104.809C173.564 104.67 173.44 104.556 173.276 104.466C173.115 104.376 172.917 104.331 172.682 104.331C172.434 104.331 172.233 104.369 172.079 104.447C171.927 104.521 171.816 104.616 171.746 104.732C171.678 104.847 171.644 104.97 171.644 105.099C171.644 105.195 171.66 105.282 171.692 105.359C171.728 105.433 171.789 105.503 171.876 105.567C171.963 105.628 172.085 105.686 172.243 105.741C172.401 105.796 172.602 105.85 172.847 105.905C173.275 106.002 173.627 106.117 173.904 106.253C174.181 106.388 174.387 106.554 174.522 106.75C174.657 106.946 174.725 107.185 174.725 107.465C174.725 107.693 174.677 107.902 174.58 108.092C174.487 108.282 174.35 108.446 174.17 108.585C173.992 108.72 173.78 108.826 173.532 108.903C173.288 108.978 173.012 109.015 172.706 109.015C172.246 109.015 171.857 108.932 171.538 108.768C171.219 108.604 170.978 108.392 170.814 108.131C170.65 107.87 170.567 107.595 170.567 107.305H171.466C171.478 107.55 171.549 107.745 171.678 107.889C171.807 108.031 171.964 108.133 172.151 108.194C172.338 108.252 172.523 108.281 172.706 108.281C172.951 108.281 173.156 108.248 173.32 108.184C173.487 108.12 173.614 108.031 173.701 107.918C173.788 107.806 173.832 107.677 173.832 107.532ZM176.869 103.693V108.918H175.971V103.693H176.869ZM175.903 102.308C175.903 102.163 175.946 102.04 176.033 101.941C176.123 101.841 176.255 101.791 176.429 101.791C176.6 101.791 176.73 101.841 176.82 101.941C176.914 102.04 176.96 102.163 176.96 102.308C176.96 102.446 176.914 102.565 176.82 102.665C176.73 102.762 176.6 102.81 176.429 102.81C176.255 102.81 176.123 102.762 176.033 102.665C175.946 102.565 175.903 102.446 175.903 102.308ZM181.596 107.904V101.501H182.494V108.918H181.673L181.596 107.904ZM178.081 106.364V106.262C178.081 105.863 178.129 105.501 178.226 105.176C178.325 104.847 178.465 104.566 178.646 104.331C178.829 104.096 179.046 103.916 179.297 103.79C179.552 103.661 179.835 103.597 180.147 103.597C180.476 103.597 180.762 103.655 181.007 103.771C181.255 103.883 181.464 104.049 181.634 104.268C181.808 104.484 181.945 104.744 182.045 105.05C182.145 105.356 182.214 105.702 182.253 106.088V106.533C182.217 106.916 182.148 107.26 182.045 107.566C181.945 107.872 181.808 108.133 181.634 108.348C181.464 108.564 181.255 108.73 181.007 108.846C180.759 108.958 180.469 109.015 180.138 109.015C179.832 109.015 179.552 108.949 179.297 108.817C179.046 108.685 178.829 108.499 178.646 108.261C178.465 108.023 178.325 107.743 178.226 107.421C178.129 107.096 178.081 106.744 178.081 106.364ZM178.979 106.262V106.364C178.979 106.624 179.005 106.869 179.056 107.098C179.111 107.326 179.194 107.527 179.307 107.701C179.42 107.875 179.563 108.012 179.737 108.112C179.911 108.208 180.118 108.256 180.36 108.256C180.656 108.256 180.899 108.194 181.089 108.068C181.282 107.943 181.437 107.777 181.552 107.571C181.668 107.365 181.758 107.141 181.823 106.9V105.736C181.784 105.559 181.728 105.388 181.654 105.224C181.583 105.057 181.49 104.909 181.374 104.78C181.261 104.648 181.121 104.543 180.954 104.466C180.789 104.389 180.595 104.35 180.369 104.35C180.125 104.35 179.914 104.402 179.737 104.505C179.563 104.604 179.42 104.743 179.307 104.92C179.194 105.094 179.111 105.297 179.056 105.528C179.005 105.757 178.979 106.002 178.979 106.262ZM186.053 109.015C185.689 109.015 185.359 108.953 185.063 108.831C184.77 108.706 184.517 108.53 184.305 108.305C184.095 108.079 183.934 107.812 183.822 107.503C183.709 107.194 183.653 106.856 183.653 106.489V106.286C183.653 105.861 183.716 105.483 183.841 105.152C183.967 104.817 184.137 104.534 184.353 104.302C184.569 104.07 184.813 103.895 185.087 103.776C185.361 103.656 185.644 103.597 185.937 103.597C186.31 103.597 186.632 103.661 186.902 103.79C187.176 103.919 187.4 104.099 187.574 104.331C187.747 104.559 187.876 104.83 187.96 105.142C188.044 105.451 188.085 105.789 188.085 106.156V106.557H184.184V105.828H187.192V105.76C187.179 105.528 187.131 105.303 187.047 105.084C186.967 104.865 186.838 104.685 186.661 104.543C186.484 104.402 186.243 104.331 185.937 104.331C185.734 104.331 185.547 104.374 185.377 104.461C185.206 104.545 185.06 104.67 184.937 104.838C184.815 105.005 184.72 105.21 184.652 105.451C184.585 105.692 184.551 105.971 184.551 106.286V106.489C184.551 106.737 184.585 106.97 184.652 107.189C184.723 107.405 184.825 107.595 184.957 107.759C185.092 107.923 185.254 108.052 185.444 108.145C185.637 108.239 185.856 108.285 186.101 108.285C186.416 108.285 186.684 108.221 186.902 108.092C187.121 107.964 187.313 107.791 187.477 107.576L188.018 108.005C187.905 108.176 187.762 108.339 187.588 108.493C187.414 108.648 187.2 108.773 186.946 108.87C186.695 108.966 186.397 109.015 186.053 109.015ZM190.022 104.809V108.918H189.128V103.693H189.973L190.022 104.809ZM189.809 106.108L189.437 106.093C189.441 105.736 189.494 105.406 189.597 105.103C189.7 104.798 189.845 104.532 190.031 104.307C190.218 104.081 190.44 103.908 190.698 103.785C190.958 103.66 191.247 103.597 191.562 103.597C191.82 103.597 192.051 103.632 192.257 103.703C192.463 103.771 192.639 103.88 192.784 104.031C192.932 104.183 193.044 104.379 193.122 104.621C193.199 104.859 193.238 105.15 193.238 105.495V108.918H192.339V105.485C192.339 105.211 192.299 104.992 192.219 104.828C192.138 104.661 192.021 104.54 191.866 104.466C191.712 104.389 191.522 104.35 191.296 104.35C191.074 104.35 190.872 104.397 190.688 104.49C190.508 104.584 190.352 104.712 190.22 104.876C190.091 105.041 189.99 105.229 189.915 105.441C189.845 105.651 189.809 105.873 189.809 106.108ZM196.782 103.693V104.379H193.957V103.693H196.782ZM194.913 102.424H195.806V107.624C195.806 107.801 195.834 107.935 195.888 108.025C195.943 108.115 196.014 108.174 196.101 108.203C196.188 108.232 196.281 108.247 196.381 108.247C196.455 108.247 196.532 108.24 196.613 108.227C196.696 108.211 196.759 108.199 196.801 108.189L196.806 108.918C196.735 108.941 196.642 108.961 196.526 108.981C196.413 109.003 196.276 109.015 196.115 109.015C195.896 109.015 195.695 108.971 195.512 108.884C195.328 108.797 195.182 108.652 195.072 108.45C194.966 108.244 194.913 107.967 194.913 107.619V102.424ZM200.871 107.532C200.871 107.403 200.842 107.284 200.785 107.175C200.73 107.062 200.616 106.961 200.442 106.871C200.271 106.777 200.014 106.697 199.669 106.629C199.379 106.568 199.117 106.496 198.882 106.412C198.65 106.328 198.452 106.227 198.288 106.108C198.127 105.989 198.003 105.849 197.916 105.688C197.829 105.527 197.786 105.338 197.786 105.123C197.786 104.917 197.831 104.722 197.921 104.538C198.015 104.355 198.145 104.192 198.312 104.051C198.483 103.909 198.687 103.798 198.926 103.718C199.164 103.637 199.429 103.597 199.722 103.597C200.141 103.597 200.498 103.671 200.794 103.819C201.09 103.967 201.317 104.165 201.475 104.413C201.633 104.658 201.712 104.93 201.712 105.229H200.818C200.818 105.084 200.775 104.944 200.688 104.809C200.604 104.67 200.48 104.556 200.316 104.466C200.155 104.376 199.957 104.331 199.722 104.331C199.474 104.331 199.273 104.369 199.119 104.447C198.967 104.521 198.856 104.616 198.786 104.732C198.718 104.847 198.684 104.97 198.684 105.099C198.684 105.195 198.7 105.282 198.732 105.359C198.768 105.433 198.829 105.503 198.916 105.567C199.003 105.628 199.125 105.686 199.283 105.741C199.441 105.796 199.642 105.85 199.886 105.905C200.315 106.002 200.667 106.117 200.944 106.253C201.221 106.388 201.427 106.554 201.562 106.75C201.697 106.946 201.765 107.185 201.765 107.465C201.765 107.693 201.716 107.902 201.62 108.092C201.527 108.282 201.39 108.446 201.209 108.585C201.032 108.72 200.82 108.826 200.572 108.903C200.327 108.978 200.052 109.015 199.746 109.015C199.286 109.015 198.897 108.932 198.578 108.768C198.259 108.604 198.018 108.392 197.854 108.131C197.689 107.87 197.607 107.595 197.607 107.305H198.505C198.518 107.55 198.589 107.745 198.718 107.889C198.847 108.031 199.004 108.133 199.191 108.194C199.378 108.252 199.563 108.281 199.746 108.281C199.991 108.281 200.195 108.248 200.36 108.184C200.527 108.12 200.654 108.031 200.741 107.918C200.828 107.806 200.871 107.677 200.871 107.532Z" fill="#0E0E0E"/>
<path d="M232.885 47.0024C232.885 44.8178 234.656 43.0469 236.84 43.0469H325.346C327.53 43.0469 329.301 44.8178 329.301 47.0024V120.675C329.301 122.859 327.53 124.63 325.346 124.63H236.84C234.656 124.63 232.885 122.859 232.885 120.675V47.0024Z" fill="#F8F0D3"/>
<path d="M244.752 63.8141C244.752 58.8987 248.737 54.9141 253.652 54.9141C258.567 54.9141 262.552 58.8987 262.552 63.8141C262.552 68.7294 258.567 72.7141 253.652 72.7141C248.737 72.7141 244.752 68.7294 244.752 63.8141Z" fill="#DBB324"/>
<path d="M253.648 67.6271H252.998C252.883 67.627 252.773 67.5813 252.692 67.5001C252.61 67.4189 252.565 67.3087 252.565 67.1938V66.1105H252.998V67.1938H253.648V66.1105H254.081V65.2438C254.081 65.1863 254.058 65.1313 254.018 65.0906C253.977 65.05 253.922 65.0272 253.865 65.0271H251.975L251.542 63.7271H250.181C250.124 63.7272 250.069 63.75 250.028 63.7906C249.987 63.8313 249.965 63.8863 249.965 63.9438V65.2438H250.398V67.1938H251.265V65.6771H251.698V67.1938C251.698 67.3087 251.652 67.4189 251.571 67.5001C251.49 67.5813 251.379 67.627 251.265 67.6271H250.398C250.283 67.627 250.173 67.5813 250.092 67.5001C250.01 67.4189 249.965 67.3087 249.965 67.1938V65.6771C249.85 65.677 249.74 65.6313 249.658 65.5501C249.577 65.4688 249.531 65.3587 249.531 65.2438V63.9438C249.531 63.7714 249.6 63.6062 249.722 63.4843C249.844 63.3625 250.009 63.2939 250.181 63.2938H251.542C251.633 63.2937 251.722 63.3223 251.795 63.3755C251.869 63.4286 251.924 63.5037 251.953 63.59L252.287 64.5938H253.865C254.037 64.594 254.202 64.6625 254.324 64.7844C254.446 64.9062 254.514 65.0715 254.515 65.2438V66.1105C254.515 66.2254 254.469 66.3355 254.388 66.4168C254.306 66.498 254.196 66.5437 254.081 66.5438V67.1938C254.081 67.3087 254.035 67.4189 253.954 67.5001C253.873 67.5813 253.763 67.627 253.648 67.6271ZM255.381 67.6271H254.948V65.2438H255.598V63.9438C255.598 63.8863 255.575 63.8313 255.534 63.7906C255.494 63.75 255.439 63.7272 255.381 63.7271H254.515V63.2938H255.381C255.554 63.2939 255.719 63.3625 255.841 63.4843C255.963 63.6062 256.031 63.7714 256.031 63.9438V65.2438C256.031 65.3587 255.986 65.4688 255.904 65.5501C255.823 65.6313 255.713 65.677 255.598 65.6771H255.381V67.6271ZM250.831 63.0771C250.66 63.0771 250.492 63.0263 250.35 62.931C250.207 62.8358 250.096 62.7005 250.031 62.5421C249.965 62.3837 249.948 62.2095 249.981 62.0413C250.015 61.8732 250.097 61.7188 250.218 61.5976C250.34 61.4764 250.494 61.3938 250.662 61.3604C250.83 61.327 251.005 61.3441 251.163 61.4097C251.321 61.4753 251.457 61.5864 251.552 61.7289C251.647 61.8715 251.698 62.039 251.698 62.2104C251.698 62.4402 251.606 62.6605 251.444 62.8229C251.281 62.9854 251.061 63.0768 250.831 63.0771ZM250.831 61.7771C250.746 61.7771 250.662 61.8025 250.591 61.8501C250.519 61.8977 250.464 61.9654 250.431 62.0446C250.398 62.1238 250.39 62.2109 250.406 62.295C250.423 62.379 250.464 62.4562 250.525 62.5168C250.585 62.5774 250.663 62.6187 250.747 62.6354C250.831 62.6522 250.918 62.6436 250.997 62.6108C251.076 62.578 251.144 62.5224 251.192 62.4512C251.239 62.3799 251.265 62.2961 251.265 62.2104C251.264 62.0955 251.219 61.9854 251.138 61.9041C251.056 61.8229 250.946 61.7772 250.831 61.7771ZM254.731 63.0771C254.56 63.0771 254.392 63.0263 254.25 62.931C254.107 62.8358 253.996 62.7005 253.931 62.5421C253.865 62.3837 253.848 62.2095 253.881 62.0413C253.915 61.8732 253.997 61.7188 254.118 61.5976C254.24 61.4764 254.394 61.3938 254.562 61.3604C254.73 61.327 254.905 61.3441 255.063 61.4097C255.221 61.4753 255.357 61.5864 255.452 61.7289C255.547 61.8715 255.598 62.039 255.598 62.2104C255.598 62.4402 255.506 62.6605 255.344 62.8229C255.181 62.9854 254.961 63.0768 254.731 63.0771ZM254.731 61.7771C254.646 61.7771 254.562 61.8025 254.491 61.8501C254.419 61.8977 254.364 61.9654 254.331 62.0446C254.298 62.1238 254.29 62.2109 254.306 62.295C254.323 62.379 254.364 62.4562 254.425 62.5168C254.485 62.5774 254.563 62.6187 254.647 62.6354C254.731 62.6522 254.818 62.6436 254.897 62.6108C254.976 62.578 255.044 62.5224 255.092 62.4512C255.139 62.3799 255.165 62.2961 255.165 62.2104C255.165 62.0955 255.119 61.9854 255.038 61.9041C254.956 61.8229 254.846 61.7772 254.731 61.7771Z" fill="white"/>
<path d="M253.323 64.3761C253.173 64.3761 253.026 64.3316 252.901 64.2483C252.777 64.1649 252.68 64.0465 252.622 63.9079C252.565 63.7694 252.55 63.6169 252.579 63.4698C252.608 63.3227 252.681 63.1875 252.787 63.0815C252.893 62.9754 253.028 62.9032 253.175 62.8739C253.322 62.8447 253.474 62.8597 253.613 62.9171C253.752 62.9745 253.87 63.0717 253.953 63.1964C254.037 63.3211 254.081 63.4677 254.081 63.6177C254.081 63.8188 254.001 64.0115 253.859 64.1537C253.717 64.2959 253.524 64.3758 253.323 64.3761ZM253.323 63.2927C253.259 63.2927 253.196 63.3118 253.142 63.3475C253.089 63.3832 253.047 63.434 253.023 63.4933C252.998 63.5527 252.991 63.6181 253.004 63.6811C253.017 63.7442 253.048 63.8021 253.093 63.8475C253.138 63.893 253.196 63.9239 253.259 63.9365C253.322 63.949 253.388 63.9426 253.447 63.918C253.507 63.8934 253.557 63.8517 253.593 63.7983C253.629 63.7448 253.648 63.682 253.648 63.6177C253.648 63.5316 253.613 63.449 253.552 63.388C253.492 63.3271 253.409 63.2928 253.323 63.2927Z" fill="white"/>
<path d="M251.045 90.5125V91.625H245.389V90.6689L248.136 87.6733C248.437 87.3334 248.675 87.0398 248.849 86.7926C249.022 86.5454 249.144 86.3232 249.214 86.1262C249.287 85.9254 249.324 85.7303 249.324 85.541C249.324 85.2745 249.273 85.0408 249.173 84.8399C249.076 84.6352 248.933 84.4749 248.744 84.359C248.555 84.2392 248.325 84.1794 248.055 84.1794C247.742 84.1794 247.479 84.247 247.267 84.3822C247.054 84.5174 246.894 84.7047 246.786 84.9442C246.678 85.1798 246.624 85.4502 246.624 85.7554H245.227C245.227 85.2648 245.339 84.8167 245.563 84.4111C245.787 84.0017 246.112 83.6772 246.537 83.4377C246.962 83.1943 247.473 83.0727 248.072 83.0727C248.636 83.0727 249.115 83.1673 249.509 83.3566C249.903 83.5459 250.202 83.8143 250.407 84.162C250.616 84.5096 250.72 84.921 250.72 85.3962C250.72 85.6588 250.678 85.9196 250.593 86.1784C250.508 86.4372 250.386 86.696 250.228 86.9548C250.073 87.2098 249.89 87.4666 249.677 87.7255C249.465 87.9804 249.231 88.2392 248.976 88.5019L247.151 90.5125H251.045ZM257.633 86.6999V88.0789C257.633 88.7395 257.567 89.3034 257.436 89.7708C257.308 90.2344 257.123 90.611 256.879 90.9007C256.636 91.1904 256.344 91.4029 256.004 91.5381C255.668 91.6733 255.292 91.7409 254.875 91.7409C254.542 91.7409 254.233 91.6984 253.947 91.6134C253.665 91.5284 253.411 91.3952 253.183 91.2136C252.955 91.0321 252.76 90.7984 252.597 90.5125C252.439 90.2228 252.315 89.8771 252.227 89.4753C252.142 89.0736 252.099 88.6081 252.099 88.0789V86.6999C252.099 86.0355 252.165 85.4753 252.296 85.0195C252.427 84.5599 252.615 84.1871 252.858 83.9012C253.101 83.6115 253.391 83.401 253.727 83.2697C254.067 83.1383 254.446 83.0727 254.863 83.0727C255.199 83.0727 255.508 83.1151 255.79 83.2001C256.076 83.2812 256.331 83.4107 256.555 83.5883C256.783 83.766 256.976 83.9978 257.134 84.2837C257.297 84.5656 257.42 84.9075 257.505 85.3092C257.59 85.7071 257.633 86.1707 257.633 86.6999ZM256.236 88.2759V86.4913C256.236 86.1552 256.217 85.8597 256.178 85.6048C256.14 85.3459 256.082 85.1277 256.004 84.95C255.931 84.7684 255.838 84.6217 255.726 84.5096C255.614 84.3937 255.487 84.3107 255.344 84.2605C255.201 84.2064 255.041 84.1794 254.863 84.1794C254.647 84.1794 254.453 84.2219 254.284 84.3068C254.114 84.388 253.971 84.5193 253.855 84.7008C253.739 84.8824 253.65 85.1219 253.588 85.4193C253.53 85.7129 253.501 86.0702 253.501 86.4913V88.2759C253.501 88.6158 253.521 88.9152 253.559 89.174C253.598 89.4328 253.656 89.6549 253.733 89.8404C253.81 90.0219 253.903 90.1726 254.011 90.2923C254.123 90.4082 254.251 90.4932 254.394 90.5473C254.54 90.6013 254.701 90.6284 254.875 90.6284C255.095 90.6284 255.29 90.5859 255.46 90.5009C255.63 90.4159 255.773 90.2807 255.889 90.0953C256.004 89.906 256.091 89.6607 256.149 89.3594C256.207 89.0581 256.236 88.697 256.236 88.2759ZM264.377 86.6999V88.0789C264.377 88.7395 264.311 89.3034 264.18 89.7708C264.053 90.2344 263.867 90.611 263.624 90.9007C263.381 91.1904 263.089 91.4029 262.749 91.5381C262.413 91.6733 262.036 91.7409 261.619 91.7409C261.287 91.7409 260.978 91.6984 260.692 91.6134C260.41 91.5284 260.155 91.3952 259.927 91.2136C259.699 91.0321 259.504 90.7984 259.342 90.5125C259.184 90.2228 259.06 89.8771 258.971 89.4753C258.886 89.0736 258.844 88.6081 258.844 88.0789V86.6999C258.844 86.0355 258.909 85.4753 259.041 85.0195C259.172 84.5599 259.359 84.1871 259.603 83.9012C259.846 83.6115 260.136 83.401 260.472 83.2697C260.812 83.1383 261.19 83.0727 261.607 83.0727C261.944 83.0727 262.253 83.1151 262.535 83.2001C262.82 83.2812 263.075 83.4107 263.299 83.5883C263.527 83.766 263.72 83.9978 263.879 84.2837C264.041 84.5656 264.165 84.9075 264.25 85.3092C264.335 85.7071 264.377 86.1707 264.377 86.6999ZM262.981 88.2759V86.4913C262.981 86.1552 262.961 85.8597 262.923 85.6048C262.884 85.3459 262.826 85.1277 262.749 84.95C262.676 84.7684 262.583 84.6217 262.471 84.5096C262.359 84.3937 262.231 84.3107 262.088 84.2605C261.945 84.2064 261.785 84.1794 261.607 84.1794C261.391 84.1794 261.198 84.2219 261.028 84.3068C260.858 84.388 260.715 84.5193 260.599 84.7008C260.483 84.8824 260.395 85.1219 260.333 85.4193C260.275 85.7129 260.246 86.0702 260.246 86.4913V88.2759C260.246 88.6158 260.265 88.9152 260.304 89.174C260.342 89.4328 260.4 89.6549 260.478 89.8404C260.555 90.0219 260.648 90.1726 260.756 90.2923C260.868 90.4082 260.995 90.4932 261.138 90.5473C261.285 90.6013 261.445 90.6284 261.619 90.6284C261.839 90.6284 262.034 90.5859 262.204 90.5009C262.374 90.4159 262.517 90.2807 262.633 90.0953C262.749 89.906 262.836 89.6607 262.894 89.3594C262.952 89.0581 262.981 88.697 262.981 88.2759Z" fill="#0E0E0E"/>
<path d="M248.166 101.888V108.918H247.248V101.888H248.166ZM250.426 101.888V102.65H244.993V101.888H250.426ZM250.614 106.364V106.253C250.614 105.876 250.669 105.527 250.778 105.205C250.887 104.88 251.045 104.598 251.251 104.36C251.457 104.118 251.707 103.932 252 103.8C252.293 103.664 252.621 103.597 252.985 103.597C253.352 103.597 253.682 103.664 253.975 103.8C254.271 103.932 254.522 104.118 254.728 104.36C254.937 104.598 255.096 104.88 255.206 105.205C255.315 105.527 255.37 105.876 255.37 106.253V106.364C255.37 106.74 255.315 107.09 255.206 107.411C255.096 107.733 254.937 108.015 254.728 108.256C254.522 108.495 254.272 108.681 253.979 108.817C253.69 108.949 253.361 109.015 252.994 109.015C252.627 109.015 252.297 108.949 252.004 108.817C251.712 108.681 251.46 108.495 251.251 108.256C251.045 108.015 250.887 107.733 250.778 107.411C250.669 107.09 250.614 106.74 250.614 106.364ZM251.507 106.253V106.364C251.507 106.624 251.538 106.871 251.599 107.102C251.66 107.331 251.752 107.534 251.874 107.711C252 107.888 252.156 108.028 252.342 108.131C252.529 108.231 252.746 108.281 252.994 108.281C253.239 108.281 253.453 108.231 253.637 108.131C253.823 108.028 253.978 107.888 254.1 107.711C254.222 107.534 254.314 107.331 254.375 107.102C254.44 106.871 254.472 106.624 254.472 106.364V106.253C254.472 105.995 254.44 105.752 254.375 105.523C254.314 105.292 254.221 105.087 254.095 104.91C253.973 104.73 253.818 104.588 253.632 104.485C253.448 104.382 253.233 104.331 252.985 104.331C252.74 104.331 252.524 104.382 252.338 104.485C252.154 104.588 252 104.73 251.874 104.91C251.752 105.087 251.66 105.292 251.599 105.523C251.538 105.752 251.507 105.995 251.507 106.253ZM258.678 103.693V104.379H255.853V103.693H258.678ZM256.809 102.424H257.702V107.624C257.702 107.801 257.73 107.935 257.784 108.025C257.839 108.115 257.91 108.174 257.997 108.203C258.084 108.232 258.177 108.247 258.277 108.247C258.351 108.247 258.428 108.24 258.509 108.227C258.592 108.211 258.655 108.199 258.697 108.189L258.702 108.918C258.631 108.941 258.537 108.961 258.422 108.981C258.309 109.003 258.172 109.015 258.011 109.015C257.792 109.015 257.591 108.971 257.408 108.884C257.224 108.797 257.078 108.652 256.968 108.45C256.862 108.244 256.809 107.967 256.809 107.619V102.424ZM262.806 108.025V105.335C262.806 105.129 262.764 104.951 262.68 104.799C262.6 104.645 262.478 104.526 262.313 104.442C262.149 104.358 261.946 104.316 261.705 104.316C261.48 104.316 261.282 104.355 261.111 104.432C260.944 104.509 260.812 104.611 260.715 104.736C260.622 104.862 260.575 104.997 260.575 105.142H259.682C259.682 104.955 259.73 104.77 259.827 104.587C259.923 104.403 260.062 104.237 260.242 104.089C260.425 103.938 260.644 103.819 260.899 103.732C261.156 103.642 261.443 103.597 261.758 103.597C262.138 103.597 262.473 103.661 262.762 103.79C263.055 103.919 263.284 104.114 263.448 104.374C263.616 104.632 263.699 104.955 263.699 105.345V107.778C263.699 107.952 263.714 108.137 263.743 108.334C263.775 108.53 263.822 108.699 263.883 108.841V108.918H262.951C262.906 108.815 262.87 108.678 262.845 108.508C262.819 108.334 262.806 108.173 262.806 108.025ZM262.96 105.75L262.97 106.378H262.067C261.813 106.378 261.586 106.399 261.386 106.441C261.187 106.48 261.019 106.539 260.884 106.62C260.749 106.7 260.646 106.801 260.575 106.924C260.504 107.043 260.469 107.183 260.469 107.344C260.469 107.508 260.506 107.658 260.58 107.793C260.654 107.928 260.765 108.036 260.913 108.116C261.064 108.194 261.25 108.232 261.468 108.232C261.742 108.232 261.983 108.174 262.193 108.058C262.402 107.943 262.568 107.801 262.69 107.634C262.816 107.466 262.883 107.304 262.893 107.146L263.274 107.576C263.252 107.711 263.191 107.861 263.091 108.025C262.991 108.189 262.857 108.347 262.69 108.498C262.526 108.646 262.33 108.77 262.101 108.87C261.876 108.966 261.621 109.015 261.338 109.015C260.984 109.015 260.673 108.945 260.406 108.807C260.142 108.668 259.936 108.483 259.788 108.252C259.643 108.017 259.571 107.754 259.571 107.465C259.571 107.185 259.626 106.938 259.735 106.726C259.844 106.51 260.002 106.331 260.208 106.19C260.414 106.045 260.662 105.936 260.952 105.861C261.241 105.787 261.565 105.75 261.922 105.75H262.96ZM266.075 101.501V108.918H265.177V101.501H266.075ZM271.029 101.888V108.918H270.097V101.888H271.029ZM273.974 105.05V105.813H270.826V105.05H273.974ZM274.452 101.888V102.65H270.826V101.888H274.452ZM278.344 108.025V105.335C278.344 105.129 278.302 104.951 278.219 104.799C278.138 104.645 278.016 104.526 277.852 104.442C277.688 104.358 277.485 104.316 277.243 104.316C277.018 104.316 276.82 104.355 276.649 104.432C276.482 104.509 276.35 104.611 276.253 104.736C276.16 104.862 276.113 104.997 276.113 105.142H275.22C275.22 104.955 275.268 104.77 275.365 104.587C275.462 104.403 275.6 104.237 275.78 104.089C275.964 103.938 276.183 103.819 276.437 103.732C276.694 103.642 276.981 103.597 277.296 103.597C277.676 103.597 278.011 103.661 278.301 103.79C278.594 103.919 278.822 104.114 278.986 104.374C279.154 104.632 279.238 104.955 279.238 105.345V107.778C279.238 107.952 279.252 108.137 279.281 108.334C279.313 108.53 279.36 108.699 279.421 108.841V108.918H278.489C278.444 108.815 278.409 108.678 278.383 108.508C278.357 108.334 278.344 108.173 278.344 108.025ZM278.499 105.75L278.508 106.378H277.605C277.351 106.378 277.124 106.399 276.925 106.441C276.725 106.48 276.558 106.539 276.422 106.62C276.287 106.7 276.184 106.801 276.113 106.924C276.043 107.043 276.007 107.183 276.007 107.344C276.007 107.508 276.044 107.658 276.118 107.793C276.192 107.928 276.303 108.036 276.451 108.116C276.603 108.194 276.788 108.232 277.007 108.232C277.28 108.232 277.522 108.174 277.731 108.058C277.94 107.943 278.106 107.801 278.228 107.634C278.354 107.466 278.421 107.304 278.431 107.146L278.813 107.576C278.79 107.711 278.729 107.861 278.629 108.025C278.529 108.189 278.396 108.347 278.228 108.498C278.064 108.646 277.868 108.77 277.639 108.87C277.414 108.966 277.16 109.015 276.876 109.015C276.522 109.015 276.212 108.945 275.944 108.807C275.68 108.668 275.474 108.483 275.326 108.252C275.182 108.017 275.109 107.754 275.109 107.465C275.109 107.185 275.164 106.938 275.273 106.726C275.383 106.51 275.54 106.331 275.746 106.19C275.952 106.045 276.2 105.936 276.49 105.861C276.78 105.787 277.103 105.75 277.461 105.75H278.499ZM281.531 104.732V108.918H280.633V103.693H281.483L281.531 104.732ZM281.348 106.108L280.932 106.093C280.936 105.736 280.982 105.406 281.072 105.103C281.163 104.798 281.296 104.532 281.473 104.307C281.65 104.081 281.871 103.908 282.135 103.785C282.399 103.66 282.704 103.597 283.052 103.597C283.297 103.597 283.522 103.632 283.728 103.703C283.934 103.771 284.113 103.879 284.264 104.027C284.415 104.175 284.533 104.365 284.617 104.596C284.7 104.828 284.742 105.108 284.742 105.437V108.918H283.849V105.48C283.849 105.206 283.802 104.988 283.709 104.823C283.619 104.659 283.49 104.54 283.322 104.466C283.155 104.389 282.959 104.35 282.733 104.35C282.469 104.35 282.249 104.397 282.072 104.49C281.895 104.584 281.753 104.712 281.647 104.876C281.541 105.041 281.463 105.229 281.415 105.441C281.37 105.651 281.348 105.873 281.348 106.108ZM284.732 105.615L284.134 105.799C284.137 105.512 284.184 105.237 284.274 104.973C284.367 104.709 284.501 104.474 284.674 104.268C284.852 104.062 285.069 103.899 285.326 103.78C285.584 103.658 285.878 103.597 286.21 103.597C286.49 103.597 286.738 103.634 286.954 103.708C287.172 103.782 287.356 103.896 287.504 104.051C287.655 104.202 287.77 104.397 287.847 104.635C287.924 104.873 287.963 105.157 287.963 105.485V108.918H287.065V105.475C287.065 105.182 287.018 104.955 286.925 104.794C286.834 104.63 286.706 104.516 286.538 104.452C286.374 104.384 286.178 104.35 285.949 104.35C285.753 104.35 285.579 104.384 285.428 104.452C285.276 104.519 285.149 104.613 285.046 104.732C284.943 104.847 284.864 104.981 284.81 105.132C284.758 105.284 284.732 105.445 284.732 105.615ZM290.285 103.693V108.918H289.387V103.693H290.285ZM289.32 102.308C289.32 102.163 289.363 102.04 289.45 101.941C289.54 101.841 289.672 101.791 289.846 101.791C290.016 101.791 290.147 101.841 290.237 101.941C290.33 102.04 290.377 102.163 290.377 102.308C290.377 102.446 290.33 102.565 290.237 102.665C290.147 102.762 290.016 102.81 289.846 102.81C289.672 102.81 289.54 102.762 289.45 102.665C289.363 102.565 289.32 102.446 289.32 102.308ZM292.69 101.501V108.918H291.792V101.501H292.69ZM295.095 103.693V108.918H294.196V103.693H295.095ZM294.129 102.308C294.129 102.163 294.172 102.04 294.259 101.941C294.349 101.841 294.481 101.791 294.655 101.791C294.826 101.791 294.956 101.841 295.046 101.941C295.14 102.04 295.186 102.163 295.186 102.308C295.186 102.446 295.14 102.565 295.046 102.665C294.956 102.762 294.826 102.81 294.655 102.81C294.481 102.81 294.349 102.762 294.259 102.665C294.172 102.565 294.129 102.446 294.129 102.308ZM298.697 109.015C298.333 109.015 298.003 108.953 297.707 108.831C297.414 108.706 297.161 108.53 296.949 108.305C296.739 108.079 296.578 107.812 296.466 107.503C296.353 107.194 296.297 106.856 296.297 106.489V106.286C296.297 105.861 296.36 105.483 296.485 105.152C296.611 104.817 296.781 104.534 296.997 104.302C297.213 104.07 297.457 103.895 297.731 103.776C298.005 103.656 298.288 103.597 298.581 103.597C298.954 103.597 299.276 103.661 299.546 103.79C299.82 103.919 300.044 104.099 300.218 104.331C300.391 104.559 300.52 104.83 300.604 105.142C300.688 105.451 300.729 105.789 300.729 106.156V106.557H296.828V105.828H299.836V105.76C299.823 105.528 299.775 105.303 299.691 105.084C299.611 104.865 299.482 104.685 299.305 104.543C299.128 104.402 298.887 104.331 298.581 104.331C298.378 104.331 298.191 104.374 298.021 104.461C297.85 104.545 297.704 104.67 297.581 104.838C297.459 105.005 297.364 105.21 297.296 105.451C297.229 105.692 297.195 105.971 297.195 106.286V106.489C297.195 106.737 297.229 106.97 297.296 107.189C297.367 107.405 297.469 107.595 297.601 107.759C297.736 107.923 297.898 108.052 298.088 108.145C298.281 108.239 298.5 108.285 298.745 108.285C299.06 108.285 299.328 108.221 299.546 108.092C299.765 107.964 299.957 107.791 300.121 107.576L300.662 108.005C300.549 108.176 300.406 108.339 300.232 108.493C300.058 108.648 299.844 108.773 299.59 108.87C299.339 108.966 299.041 109.015 298.697 109.015ZM304.814 107.532C304.814 107.403 304.785 107.284 304.727 107.175C304.673 107.062 304.558 106.961 304.385 106.871C304.214 106.777 303.957 106.697 303.612 106.629C303.322 106.568 303.06 106.496 302.825 106.412C302.593 106.328 302.395 106.227 302.231 106.108C302.07 105.989 301.946 105.849 301.859 105.688C301.772 105.527 301.729 105.338 301.729 105.123C301.729 104.917 301.774 104.722 301.864 104.538C301.957 104.355 302.088 104.192 302.255 104.051C302.426 103.909 302.63 103.798 302.868 103.718C303.107 103.637 303.372 103.597 303.665 103.597C304.084 103.597 304.441 103.671 304.737 103.819C305.033 103.967 305.26 104.165 305.418 104.413C305.576 104.658 305.655 104.93 305.655 105.229H304.761C304.761 105.084 304.718 104.944 304.631 104.809C304.547 104.67 304.423 104.556 304.259 104.466C304.098 104.376 303.9 104.331 303.665 104.331C303.417 104.331 303.216 104.369 303.062 104.447C302.91 104.521 302.799 104.616 302.728 104.732C302.661 104.847 302.627 104.97 302.627 105.099C302.627 105.195 302.643 105.282 302.675 105.359C302.711 105.433 302.772 105.503 302.859 105.567C302.946 105.628 303.068 105.686 303.226 105.741C303.384 105.796 303.585 105.85 303.829 105.905C304.258 106.002 304.61 106.117 304.887 106.253C305.164 106.388 305.37 106.554 305.505 106.75C305.64 106.946 305.708 107.185 305.708 107.465C305.708 107.693 305.659 107.902 305.563 108.092C305.469 108.282 305.333 108.446 305.152 108.585C304.975 108.72 304.763 108.826 304.515 108.903C304.27 108.978 303.995 109.015 303.689 109.015C303.229 109.015 302.84 108.932 302.521 108.768C302.202 108.604 301.961 108.392 301.797 108.131C301.632 107.87 301.55 107.595 301.55 107.305H302.448C302.461 107.55 302.532 107.745 302.661 107.889C302.79 108.031 302.947 108.133 303.134 108.194C303.321 108.252 303.506 108.281 303.689 108.281C303.934 108.281 304.138 108.248 304.303 108.184C304.47 108.12 304.597 108.031 304.684 107.918C304.771 107.806 304.814 107.677 304.814 107.532Z" fill="#0E0E0E"/>
</g>
<defs>
<filter id="filter0_d_3166_534706" x="-24" y="-15.6875" width="389.168" height="184.184" filterUnits="userSpaceOnUse" color-interpolation-filters="sRGB">
<feFlood flood-opacity="0" result="BackgroundImageFix"/>
<feColorMatrix in="SourceAlpha" type="matrix" values="0 0 0 0 0 0 0 0 0 0 0 0 0 0 0 0 0 0 127 0" result="hardAlpha"/>
<feOffset dy="8"/>
<feGaussianBlur stdDeviation="12"/>
<feComposite in2="hardAlpha" operator="out"/>
<feColorMatrix type="matrix" values="0 0 0 0 0.584314 0 0 0 0 0.615686 0 0 0 0 0.647059 0 0 0 0.2 0"/>
<feBlend mode="normal" in2="BackgroundImageFix" result="effect1_dropShadow_3166_534706"/>
<feBlend mode="normal" in="SourceGraphic" in2="effect1_dropShadow_3166_534706" result="shape"/>
</filter>
</defs>
</svg>
