<svg width="36" height="36" viewBox="0 0 36 36" fill="none" xmlns="http://www.w3.org/2000/svg">
<path d="M0 18C0 8.05888 8.05888 0 18 0C27.9411 0 36 8.05888 36 18C36 27.9411 27.9411 36 18 36C8.05888 36 0 27.9411 0 18Z" fill="#7175F4"/>
<mask id="mask0_2157_45746" style="mask-type:alpha" maskUnits="userSpaceOnUse" x="9" y="19" width="14" height="7">
<path fill-rule="evenodd" clip-rule="evenodd" d="M9.66699 19.6328H22.3202V25.5491H9.66699V19.6328Z" fill="white"/>
</mask>
<g mask="url(#mask0_2157_45746)">
<path fill-rule="evenodd" clip-rule="evenodd" d="M15.9937 20.8828C13.6778 20.8828 10.917 21.1803 10.917 22.6011C10.917 23.7278 12.6253 24.2995 15.9937 24.2995C19.362 24.2995 21.0703 23.722 21.0703 22.5845C21.0703 21.4553 19.362 20.8828 15.9937 20.8828ZM15.9937 25.5495C14.2637 25.5495 9.66699 25.5495 9.66699 22.6011C9.66699 19.6328 14.4287 19.6328 15.9937 19.6328C18.7095 19.6328 22.3203 19.9386 22.3203 22.5845C22.3203 25.5495 17.5587 25.5495 15.9937 25.5495Z" fill="white"/>
</g>
<path fill-rule="evenodd" clip-rule="evenodd" d="M15.9939 10.918C14.323 10.918 12.9639 12.2771 12.9639 13.9471C12.9639 15.6171 14.323 16.9763 15.9939 16.9763H16.0197C16.823 16.973 17.5797 16.6571 18.1472 16.0846C18.7155 15.5138 19.0264 14.7546 19.023 13.9496C19.023 12.2771 17.6639 10.918 15.9939 10.918ZM15.9939 18.2263C13.6339 18.2263 11.7139 16.3063 11.7139 13.9471C11.7139 11.588 13.6339 9.66797 15.9939 9.66797C18.353 9.66797 20.273 11.588 20.273 13.9471C20.278 15.0838 19.8372 16.1571 19.0339 16.9655C18.2322 17.7746 17.1614 18.2221 16.0222 18.2263H15.9939Z" fill="white"/>
<path fill-rule="evenodd" clip-rule="evenodd" d="M21.7357 17.2789C21.429 17.2789 21.1615 17.0531 21.1174 16.7406C21.0699 16.3989 21.3074 16.0822 21.649 16.0347C22.689 15.8889 23.474 14.9864 23.4757 13.9347C23.4757 12.8897 22.7274 12.0081 21.6982 11.8397C21.3574 11.7831 21.1265 11.4622 21.1824 11.1214C21.2382 10.7806 21.5607 10.5514 21.8999 10.6056C23.5374 10.8739 24.7257 12.2747 24.7257 13.9356C24.7224 15.6064 23.4749 17.0414 21.8232 17.2731C21.794 17.2772 21.7649 17.2789 21.7357 17.2789Z" fill="white"/>
<mask id="mask1_2157_45746" style="mask-type:alpha" maskUnits="userSpaceOnUse" x="22" y="19" width="5" height="5">
<path fill-rule="evenodd" clip-rule="evenodd" d="M22.8711 19.2383H26.3159V23.3862H22.8711V19.2383Z" fill="white"/>
</mask>
<g mask="url(#mask1_2157_45746)">
<path fill-rule="evenodd" clip-rule="evenodd" d="M24.5797 23.3862C24.3272 23.3862 24.0897 23.2321 23.9955 22.9829C23.873 22.6604 24.0355 22.2987 24.358 22.1771C25.0663 21.9087 25.0663 21.5812 25.0663 21.4412C25.0663 20.9687 24.5072 20.6454 23.4047 20.4812C23.063 20.4296 22.8272 20.1112 22.878 19.7704C22.9297 19.4287 23.2538 19.1996 23.5888 19.2437C25.8438 19.5812 26.3163 20.6254 26.3163 21.4412C26.3163 22.0487 26.0538 22.8712 24.8013 23.3454C24.7288 23.3729 24.6538 23.3862 24.5797 23.3862Z" fill="white"/>
</g>
</svg>
