<svg width="36" height="36" viewBox="0 0 36 36" fill="none" xmlns="http://www.w3.org/2000/svg">
<path d="M0 18C0 8.05888 8.05888 0 18 0C27.9411 0 36 8.05888 36 18C36 27.9411 27.9411 36 18 36C8.05888 36 0 27.9411 0 18Z" fill="#0C1096"/>
<path fill-rule="evenodd" clip-rule="evenodd" d="M25.2225 16.2539H10.3691C10.0241 16.2539 9.74414 15.9739 9.74414 15.6289C9.74414 15.2839 10.0241 15.0039 10.3691 15.0039H25.2225C25.5675 15.0039 25.8475 15.2839 25.8475 15.6289C25.8475 15.9739 25.5675 16.2539 25.2225 16.2539Z" fill="white"/>
<path fill-rule="evenodd" clip-rule="evenodd" d="M21.5014 19.5078C21.1564 19.5078 20.873 19.2278 20.873 18.8828C20.873 18.5378 21.1489 18.2578 21.4939 18.2578H21.5014C21.8464 18.2578 22.1264 18.5378 22.1264 18.8828C22.1264 19.2278 21.8464 19.5078 21.5014 19.5078Z" fill="white"/>
<path fill-rule="evenodd" clip-rule="evenodd" d="M17.8031 19.5078C17.4581 19.5078 17.1748 19.2278 17.1748 18.8828C17.1748 18.5378 17.4506 18.2578 17.7956 18.2578H17.8031C18.1481 18.2578 18.4281 18.5378 18.4281 18.8828C18.4281 19.2278 18.1481 19.5078 17.8031 19.5078Z" fill="white"/>
<path fill-rule="evenodd" clip-rule="evenodd" d="M14.0979 19.5078C13.7529 19.5078 13.4688 19.2278 13.4688 18.8828C13.4688 18.5378 13.7454 18.2578 14.0904 18.2578H14.0979C14.4429 18.2578 14.7229 18.5378 14.7229 18.8828C14.7229 19.2278 14.4429 19.5078 14.0979 19.5078Z" fill="white"/>
<path fill-rule="evenodd" clip-rule="evenodd" d="M21.5014 22.7461C21.1564 22.7461 20.873 22.4661 20.873 22.1211C20.873 21.7761 21.1489 21.4961 21.4939 21.4961H21.5014C21.8464 21.4961 22.1264 21.7761 22.1264 22.1211C22.1264 22.4661 21.8464 22.7461 21.5014 22.7461Z" fill="white"/>
<path fill-rule="evenodd" clip-rule="evenodd" d="M17.8031 22.7461C17.4581 22.7461 17.1748 22.4661 17.1748 22.1211C17.1748 21.7761 17.4506 21.4961 17.7956 21.4961H17.8031C18.1481 21.4961 18.4281 21.7761 18.4281 22.1211C18.4281 22.4661 18.1481 22.7461 17.8031 22.7461Z" fill="white"/>
<path fill-rule="evenodd" clip-rule="evenodd" d="M14.0979 22.7461C13.7529 22.7461 13.4688 22.4661 13.4688 22.1211C13.4688 21.7761 13.7454 21.4961 14.0904 21.4961H14.0979C14.4429 21.4961 14.7229 21.7761 14.7229 22.1211C14.7229 22.4661 14.4429 22.7461 14.0979 22.7461Z" fill="white"/>
<path fill-rule="evenodd" clip-rule="evenodd" d="M21.1611 12.8245C20.8161 12.8245 20.5361 12.5445 20.5361 12.1995V9.45703C20.5361 9.11203 20.8161 8.83203 21.1611 8.83203C21.5061 8.83203 21.7861 9.11203 21.7861 9.45703V12.1995C21.7861 12.5445 21.5061 12.8245 21.1611 12.8245Z" fill="white"/>
<path fill-rule="evenodd" clip-rule="evenodd" d="M14.4297 12.8245C14.0847 12.8245 13.8047 12.5445 13.8047 12.1995V9.45703C13.8047 9.11203 14.0847 8.83203 14.4297 8.83203C14.7747 8.83203 15.0547 9.11203 15.0547 9.45703V12.1995C15.0547 12.5445 14.7747 12.8245 14.4297 12.8245Z" fill="white"/>
<mask id="mask0_2763_257614" style="mask-type:alpha" maskUnits="userSpaceOnUse" x="9" y="10" width="17" height="17">
<path fill-rule="evenodd" clip-rule="evenodd" d="M9.66699 10.1484H25.917V26.7492H9.66699V10.1484Z" fill="white"/>
</mask>
<g mask="url(#mask0_2763_257614)">
<path fill-rule="evenodd" clip-rule="evenodd" d="M14.2678 11.3984C12.107 11.3984 10.917 12.5509 10.917 14.6434V22.1843C10.917 24.3226 12.107 25.4993 14.2678 25.4993H21.3162C23.477 25.4993 24.667 24.3443 24.667 22.2476V14.6434C24.6703 13.6143 24.3937 12.8143 23.8445 12.2643C23.2795 11.6976 22.4087 11.3984 21.3237 11.3984H14.2678ZM21.3162 26.7493H14.2678C11.4303 26.7493 9.66699 25.0001 9.66699 22.1843V14.6434C9.66699 11.8701 11.4303 10.1484 14.2678 10.1484H21.3237C22.7478 10.1484 23.9253 10.5751 24.7295 11.3809C25.5103 12.1651 25.9212 13.2926 25.917 14.6451V22.2476C25.917 25.0243 24.1537 26.7493 21.3162 26.7493Z" fill="white"/>
</g>
</svg>
