<svg width="37" height="36" viewBox="0 0 37 36" fill="none" xmlns="http://www.w3.org/2000/svg">
<path d="M0.5 18C0.5 8.05888 8.55888 0 18.5 0C28.4411 0 36.5 8.05888 36.5 18C36.5 27.9411 28.4411 36 18.5 36C8.55888 36 0.5 27.9411 0.5 18Z" fill="#DBB324"/>
<path d="M21 26.75H19.125C18.7936 26.7497 18.4758 26.6179 18.2415 26.3835C18.0071 26.1492 17.8753 25.8314 17.875 25.5V22.375H19.125V25.5H21V22.375H22.25V19.875C22.2498 19.7093 22.1839 19.5504 22.0668 19.4332C21.9496 19.3161 21.7907 19.2502 21.625 19.25H16.175L14.925 15.5H11C10.8343 15.5002 10.6754 15.5661 10.5582 15.6832C10.4411 15.8004 10.3752 15.9593 10.375 16.125V19.875H11.625V25.5H14.125V21.125H15.375V25.5C15.3747 25.8314 15.2429 26.1492 15.0085 26.3835C14.7742 26.6179 14.4564 26.7497 14.125 26.75H11.625C11.2936 26.7497 10.9758 26.6179 10.7415 26.3835C10.5071 26.1492 10.3753 25.8314 10.375 25.5V21.125C10.0436 21.1247 9.72583 20.9929 9.49148 20.7585C9.25713 20.5242 9.12533 20.2064 9.125 19.875V16.125C9.1255 15.6279 9.3232 15.1512 9.67472 14.7997C10.0262 14.4482 10.5029 14.2505 11 14.25H14.925C15.1873 14.2498 15.443 14.3323 15.6558 14.4856C15.8687 14.639 16.0278 14.8555 16.1106 15.1044L17.075 18H21.625C22.1221 18.0005 22.5988 18.1982 22.9503 18.5497C23.3018 18.9012 23.4995 19.3779 23.5 19.875V22.375C23.4997 22.7064 23.3679 23.0242 23.1335 23.2585C22.8992 23.4929 22.5814 23.6247 22.25 23.625V25.5C22.2497 25.8314 22.1179 26.1492 21.8835 26.3835C21.6492 26.6179 21.3314 26.7497 21 26.75ZM26 26.75H24.75V19.875H26.625V16.125C26.6248 15.9593 26.5589 15.8004 26.4418 15.6832C26.3246 15.5661 26.1657 15.5002 26 15.5H23.5V14.25H26C26.4971 14.2505 26.9738 14.4482 27.3253 14.7997C27.6768 15.1512 27.8745 15.6279 27.875 16.125V19.875C27.8747 20.2064 27.7429 20.5242 27.5085 20.7585C27.2742 20.9929 26.9564 21.1247 26.625 21.125H26V26.75ZM12.875 13.625C12.3805 13.625 11.8972 13.4784 11.4861 13.2037C11.075 12.929 10.7545 12.5385 10.5653 12.0817C10.3761 11.6249 10.3266 11.1222 10.423 10.6373C10.5195 10.1523 10.7576 9.70687 11.1072 9.35723C11.4569 9.0076 11.9023 8.7695 12.3873 8.67304C12.8722 8.57657 13.3749 8.62608 13.8317 8.8153C14.2885 9.00452 14.679 9.32495 14.9537 9.73608C15.2284 10.1472 15.375 10.6305 15.375 11.125C15.3742 11.7878 15.1105 12.4232 14.6419 12.8919C14.1732 13.3605 13.5378 13.6242 12.875 13.625ZM12.875 9.875C12.6278 9.875 12.3861 9.94831 12.1805 10.0857C11.975 10.223 11.8148 10.4182 11.7202 10.6466C11.6255 10.8751 11.6008 11.1264 11.649 11.3689C11.6972 11.6113 11.8163 11.8341 11.9911 12.0089C12.1659 12.1837 12.3887 12.3028 12.6311 12.351C12.8736 12.3992 13.1249 12.3745 13.3534 12.2799C13.5818 12.1852 13.777 12.025 13.9143 11.8195C14.0517 11.6139 14.125 11.3722 14.125 11.125C14.1247 10.7936 13.9929 10.4758 13.7585 10.2415C13.5242 10.0071 13.2064 9.87533 12.875 9.875ZM24.125 13.625C23.6305 13.625 23.1472 13.4784 22.7361 13.2037C22.325 12.929 22.0045 12.5385 21.8153 12.0817C21.6261 11.6249 21.5766 11.1222 21.673 10.6373C21.7695 10.1523 22.0076 9.70687 22.3572 9.35723C22.7069 9.0076 23.1523 8.7695 23.6373 8.67304C24.1222 8.57657 24.6249 8.62608 25.0817 8.8153C25.5385 9.00452 25.929 9.32495 26.2037 9.73608C26.4784 10.1472 26.625 10.6305 26.625 11.125C26.6242 11.7878 26.3605 12.4232 25.8919 12.8919C25.4232 13.3605 24.7878 13.6242 24.125 13.625ZM24.125 9.875C23.8778 9.875 23.6361 9.94831 23.4305 10.0857C23.225 10.223 23.0648 10.4182 22.9701 10.6466C22.8755 10.8751 22.8508 11.1264 22.899 11.3689C22.9472 11.6113 23.0663 11.8341 23.2411 12.0089C23.4159 12.1837 23.6387 12.3028 23.8811 12.351C24.1236 12.3992 24.3749 12.3745 24.6034 12.2799C24.8318 12.1852 25.027 12.025 25.1643 11.8195C25.3017 11.6139 25.375 11.3722 25.375 11.125C25.3747 10.7936 25.2429 10.4758 25.0085 10.2415C24.7742 10.0071 24.4564 9.87533 24.125 9.875Z" fill="white"/>
<path d="M20.0625 17.375C19.6299 17.375 19.2069 17.2467 18.8472 17.0063C18.4875 16.766 18.2071 16.4243 18.0415 16.0246C17.8759 15.6249 17.8326 15.1851 17.917 14.7607C18.0014 14.3364 18.2098 13.9466 18.5157 13.6407C18.8216 13.3348 19.2114 13.1264 19.6357 13.042C20.0601 12.9576 20.4999 13.0009 20.8996 13.1665C21.2993 13.3321 21.641 13.6125 21.8813 13.9722C22.1217 14.3319 22.25 14.7549 22.25 15.1875C22.2493 15.7675 22.0187 16.3235 21.6086 16.7336C21.1985 17.1437 20.6425 17.3743 20.0625 17.375ZM20.0625 14.25C19.8771 14.25 19.6958 14.305 19.5417 14.408C19.3875 14.511 19.2673 14.6574 19.1964 14.8287C19.1254 15 19.1068 15.1885 19.143 15.3704C19.1792 15.5523 19.2685 15.7193 19.3996 15.8504C19.5307 15.9815 19.6977 16.0708 19.8796 16.107C20.0615 16.1432 20.25 16.1246 20.4213 16.0536C20.5926 15.9827 20.739 15.8625 20.842 15.7083C20.945 15.5542 21 15.3729 21 15.1875C20.9997 14.939 20.9008 14.7007 20.725 14.525C20.5493 14.3492 20.311 14.2503 20.0625 14.25Z" fill="white"/>
</svg>
