<svg width="18" height="21" viewBox="0 0 18 21" fill="none" xmlns="http://www.w3.org/2000/svg">
<path d="M9.00001 1.8959e-06C8.07004 -0.000932718 7.17291 0.343712 6.48276 0.967032C5.79261 1.59035 5.35869 2.44787 5.26523 3.37313C5.17177 4.29838 5.42544 5.22536 5.97699 5.97411C6.52855 6.72285 7.33864 7.23994 8.25001 7.425V9H5.05051C3.91801 9 3.00001 9.918 3.00001 11.0505V13.575C2.08948 13.7609 1.28039 14.2782 0.729611 15.0267C0.17883 15.7752 -0.0744059 16.7015 0.0189979 17.6261C0.112402 18.5507 0.545791 19.4077 1.23514 20.0309C1.9245 20.6542 2.8207 20.9992 3.75001 20.9992C4.67932 20.9992 5.57552 20.6542 6.26487 20.0309C6.95423 19.4077 7.38762 18.5507 7.48102 17.6261C7.57442 16.7015 7.32119 15.7752 6.77041 15.0267C6.21963 14.2782 5.41054 13.7609 4.50001 13.575V11.0505C4.50001 10.746 4.74601 10.5 5.05051 10.5H12.951C13.254 10.5 13.5 10.746 13.5 11.0505V13.575C12.5895 13.7609 11.7804 14.2782 11.2296 15.0267C10.6788 15.7752 10.4256 16.7015 10.519 17.6261C10.6124 18.5507 11.0458 19.4077 11.7351 20.0309C12.4245 20.6542 13.3207 20.9992 14.25 20.9992C15.1793 20.9992 16.0755 20.6542 16.7649 20.0309C17.4542 19.4077 17.8876 18.5507 17.981 17.6261C18.0744 16.7015 17.8212 15.7752 17.2704 15.0267C16.7196 14.2782 15.9105 13.7609 15 13.575V11.0505C15 9.918 14.082 9 12.951 9H9.74851V7.425C10.6597 7.23997 11.4697 6.72299 12.0213 5.97441C12.5729 5.22582 12.8266 4.29902 12.7334 3.37388C12.6401 2.44873 12.2065 1.59123 11.5166 0.967789C10.8267 0.34435 9.92984 -0.000559174 9.00001 1.8959e-06ZM6.75001 3.75C6.75001 3.15326 6.98706 2.58097 7.40902 2.15901C7.83098 1.73705 8.40327 1.5 9.00001 1.5C9.59675 1.5 10.169 1.73705 10.591 2.15901C11.013 2.58097 11.25 3.15326 11.25 3.75C11.25 4.34674 11.013 4.91903 10.591 5.34099C10.169 5.76295 9.59675 6 9.00001 6C8.40327 6 7.83098 5.76295 7.40902 5.34099C6.98706 4.91903 6.75001 4.34674 6.75001 3.75ZM1.50001 17.25C1.50001 16.6533 1.73706 16.081 2.15902 15.659C2.58098 15.2371 3.15327 15 3.75001 15C4.34675 15 4.91904 15.2371 5.341 15.659C5.76296 16.081 6.00001 16.6533 6.00001 17.25C6.00001 17.8467 5.76296 18.419 5.341 18.841C4.91904 19.2629 4.34675 19.5 3.75001 19.5C3.15327 19.5 2.58098 19.2629 2.15902 18.841C1.73706 18.419 1.50001 17.8467 1.50001 17.25ZM14.25 15C14.5455 15 14.8381 15.0582 15.111 15.1713C15.384 15.2843 15.6321 15.4501 15.841 15.659C16.0499 15.8679 16.2157 16.116 16.3287 16.389C16.4418 16.6619 16.5 16.9545 16.5 17.25C16.5 17.5455 16.4418 17.8381 16.3287 18.111C16.2157 18.384 16.0499 18.6321 15.841 18.841C15.6321 19.0499 15.384 19.2157 15.111 19.3287C14.8381 19.4418 14.5455 19.5 14.25 19.5C13.6533 19.5 13.081 19.2629 12.659 18.841C12.2371 18.419 12 17.8467 12 17.25C12 16.6533 12.2371 16.081 12.659 15.659C13.081 15.2371 13.6533 15 14.25 15Z" fill="#0C1096"/>
</svg>
