<svg width="20" height="21" viewBox="0 0 20 21" fill="none" xmlns="http://www.w3.org/2000/svg">
<path fill-rule="evenodd" clip-rule="evenodd" d="M10 2C5.313 2 1.5 5.813 1.5 10.5C1.5 15.187 5.313 19 10 19C14.687 19 18.5 15.187 18.5 10.5C18.5 5.813 14.687 2 10 2ZM10 20.5C4.486 20.5 0 16.014 0 10.5C0 4.986 4.486 0.5 10 0.5C15.514 0.5 20 4.986 20 10.5C20 16.014 15.514 20.5 10 20.5Z" fill="#0C1096"/>
<path d="M10.6309 12.5674H9.10645C9.111 12.1436 9.14746 11.7881 9.21582 11.501C9.28418 11.2093 9.39811 10.945 9.55762 10.708C9.72168 10.471 9.93815 10.2204 10.207 9.95605C10.4167 9.75553 10.6058 9.56641 10.7744 9.38867C10.943 9.20638 11.0775 9.01497 11.1777 8.81445C11.278 8.60938 11.3281 8.37467 11.3281 8.11035C11.3281 7.82324 11.2803 7.57943 11.1846 7.37891C11.0889 7.17839 10.9476 7.02572 10.7607 6.9209C10.5785 6.81608 10.3506 6.76367 10.0771 6.76367C9.84928 6.76367 9.63509 6.80924 9.43457 6.90039C9.23405 6.98698 9.07227 7.1237 8.94922 7.31055C8.82617 7.49284 8.76009 7.73438 8.75098 8.03516H7.10352C7.11263 7.46094 7.24935 6.97786 7.51367 6.58594C7.77799 6.19401 8.13346 5.90007 8.58008 5.7041C9.02669 5.50814 9.52572 5.41016 10.0771 5.41016C10.6878 5.41016 11.2096 5.51497 11.6426 5.72461C12.0755 5.92969 12.4059 6.23047 12.6338 6.62695C12.8662 7.01888 12.9824 7.49284 12.9824 8.04883C12.9824 8.44987 12.9027 8.81445 12.7432 9.14258C12.5837 9.46615 12.3763 9.76921 12.1211 10.0518C11.8659 10.3298 11.5902 10.6077 11.2939 10.8857C11.0387 11.1182 10.8656 11.3711 10.7744 11.6445C10.6833 11.9134 10.6354 12.221 10.6309 12.5674ZM8.96973 14.7002C8.96973 14.4541 9.05404 14.2467 9.22266 14.0781C9.39128 13.9049 9.62142 13.8184 9.91309 13.8184C10.2048 13.8184 10.4349 13.9049 10.6035 14.0781C10.7721 14.2467 10.8564 14.4541 10.8564 14.7002C10.8564 14.9463 10.7721 15.1559 10.6035 15.3291C10.4349 15.4977 10.2048 15.582 9.91309 15.582C9.62142 15.582 9.39128 15.4977 9.22266 15.3291C9.05404 15.1559 8.96973 14.9463 8.96973 14.7002Z" fill="#0C1096"/>
</svg>
