<svg width="21" height="22" viewBox="0 0 21 22" fill="none" xmlns="http://www.w3.org/2000/svg">
<path fill-rule="evenodd" clip-rule="evenodd" d="M5.21653 14.5012C5.05653 14.5012 4.89553 14.4502 4.75953 14.3462C4.43153 14.0932 4.36953 13.6222 4.62253 13.2942L7.61553 9.40416C7.73753 9.24516 7.91853 9.14216 8.11653 9.11716C8.31853 9.09116 8.51653 9.14716 8.67353 9.27216L11.4935 11.4872L13.9605 8.30416C14.2145 7.97516 14.6845 7.91416 15.0125 8.17016C15.3405 8.42416 15.4005 8.89516 15.1465 9.22216L12.2165 13.0022C12.0945 13.1602 11.9145 13.2632 11.7165 13.2872C11.5165 13.3142 11.3185 13.2562 11.1605 13.1332L8.34253 10.9192L5.81153 14.2082C5.66353 14.4002 5.44153 14.5012 5.21653 14.5012Z" fill="white"/>
<mask id="mask0_2128_43292" style="mask-type:alpha" maskUnits="userSpaceOnUse" x="15" y="0" width="6" height="6">
<path fill-rule="evenodd" clip-rule="evenodd" d="M15.2949 0.5H20.6389V5.8449H15.2949V0.5Z" fill="white"/>
</mask>
<g mask="url(#mask0_2128_43292)">
<path fill-rule="evenodd" clip-rule="evenodd" d="M17.9669 2C17.3209 2 16.7949 2.525 16.7949 3.172C16.7949 3.818 17.3209 4.345 17.9669 4.345C18.6129 4.345 19.1389 3.818 19.1389 3.172C19.1389 2.525 18.6129 2 17.9669 2ZM17.9669 5.845C16.4939 5.845 15.2949 4.646 15.2949 3.172C15.2949 1.698 16.4939 0.5 17.9669 0.5C19.4409 0.5 20.6389 1.698 20.6389 3.172C20.6389 4.646 19.4409 5.845 17.9669 5.845Z" fill="white"/>
</g>
<mask id="mask1_2128_43292" style="mask-type:alpha" maskUnits="userSpaceOnUse" x="0" y="1" width="20" height="21">
<path fill-rule="evenodd" clip-rule="evenodd" d="M0 1.34375H19.8619V21.2048H0V1.34375Z" fill="white"/>
</mask>
<g mask="url(#mask1_2128_43292)">
<path fill-rule="evenodd" clip-rule="evenodd" d="M14.233 21.2048H5.629C2.262 21.2048 0 18.8398 0 15.3197V7.23775C0 3.71275 2.262 1.34375 5.629 1.34375H12.897C13.311 1.34375 13.647 1.67975 13.647 2.09375C13.647 2.50775 13.311 2.84375 12.897 2.84375H5.629C3.121 2.84375 1.5 4.56775 1.5 7.23775V15.3197C1.5 18.0247 3.082 19.7048 5.629 19.7048H14.233C16.741 19.7048 18.362 17.9837 18.362 15.3197V8.28075C18.362 7.86675 18.698 7.53075 19.112 7.53075C19.526 7.53075 19.862 7.86675 19.862 8.28075V15.3197C19.862 18.8398 17.6 21.2048 14.233 21.2048Z" fill="white"/>
</g>
</svg>
