<svg width="21" height="22" viewBox="0 0 21 22" fill="none" xmlns="http://www.w3.org/2000/svg">
<path fill-rule="evenodd" clip-rule="evenodd" d="M5.21629 14.5051C5.05629 14.5051 4.89529 14.4541 4.75929 14.3501C4.43129 14.0971 4.36929 13.6261 4.62229 13.2981L7.61529 9.40807C7.73729 9.24907 7.91829 9.14607 8.11629 9.12107C8.31829 9.09507 8.51629 9.15107 8.67329 9.27607L11.4933 11.4911L13.9603 8.30807C14.2143 7.97907 14.6843 7.91807 15.0123 8.17407C15.3403 8.42807 15.4003 8.89907 15.1463 9.22607L12.2163 13.0061C12.0943 13.1641 11.9143 13.2671 11.7163 13.2911C11.5163 13.3181 11.3183 13.2601 11.1603 13.1371L8.34229 10.9231L5.81129 14.2121C5.66329 14.4041 5.44129 14.5051 5.21629 14.5051Z" fill="#0C1096"/>
<mask id="mask0_3198_69268" style="mask-type:alpha" maskUnits="userSpaceOnUse" x="15" y="0" width="6" height="6">
<path fill-rule="evenodd" clip-rule="evenodd" d="M15.2953 0.5H20.6393V5.8449H15.2953V0.5Z" fill="white"/>
</mask>
<g mask="url(#mask0_3198_69268)">
<path fill-rule="evenodd" clip-rule="evenodd" d="M17.9673 2C17.3213 2 16.7953 2.525 16.7953 3.172C16.7953 3.818 17.3213 4.345 17.9673 4.345C18.6133 4.345 19.1393 3.818 19.1393 3.172C19.1393 2.525 18.6133 2 17.9673 2ZM17.9673 5.845C16.4943 5.845 15.2953 4.646 15.2953 3.172C15.2953 1.698 16.4943 0.5 17.9673 0.5C19.4413 0.5 20.6393 1.698 20.6393 3.172C20.6393 4.646 19.4413 5.845 17.9673 5.845Z" fill="#0C1096"/>
</g>
<mask id="mask1_3198_69268" style="mask-type:alpha" maskUnits="userSpaceOnUse" x="0" y="1" width="20" height="21">
<path fill-rule="evenodd" clip-rule="evenodd" d="M0 1.34375H19.8619V21.2048H0V1.34375Z" fill="white"/>
</mask>
<g mask="url(#mask1_3198_69268)">
<path fill-rule="evenodd" clip-rule="evenodd" d="M14.2329 21.2048H5.62888C2.26188 21.2048 -0.00012207 18.8398 -0.00012207 15.3197V7.23775C-0.00012207 3.71275 2.26188 1.34375 5.62888 1.34375H12.8969C13.3109 1.34375 13.6469 1.67975 13.6469 2.09375C13.6469 2.50775 13.3109 2.84375 12.8969 2.84375H5.62888C3.12088 2.84375 1.49988 4.56775 1.49988 7.23775V15.3197C1.49988 18.0247 3.08188 19.7048 5.62888 19.7048H14.2329C16.7409 19.7048 18.3619 17.9837 18.3619 15.3197V8.28075C18.3619 7.86675 18.6979 7.53075 19.1119 7.53075C19.5259 7.53075 19.8619 7.86675 19.8619 8.28075V15.3197C19.8619 18.8398 17.5999 21.2048 14.2329 21.2048Z" fill="#0C1096"/>
</g>
</svg>
