<svg width="36" height="36" viewBox="0 0 36 36" fill="none" xmlns="http://www.w3.org/2000/svg">
<path d="M0 18C0 8.05888 8.05888 0 18 0C27.9411 0 36 8.05888 36 18C36 27.9411 27.9411 36 18 36C8.05888 36 0 27.9411 0 18Z" fill="#0C1096"/>
<path fill-rule="evenodd" clip-rule="evenodd" d="M14.3105 10.9258C12.9289 10.9258 11.783 12.0441 11.7505 13.4233V22.4491C11.7264 23.8216 12.8155 24.9483 14.178 24.9716L14.3005 24.9708H20.9772C22.3455 24.9558 23.4614 23.8249 23.4597 22.4499V14.9508L19.5981 10.9258H14.3205H14.3105ZM14.1664 26.2216C12.1056 26.1858 10.4655 24.4883 10.5005 22.4383V13.4083C10.548 11.3408 12.2555 9.67578 14.308 9.67578H14.3231H19.8639C20.0339 9.67578 20.1964 9.74495 20.3147 9.86745L24.5364 14.2666C24.6472 14.3824 24.7097 14.5383 24.7097 14.6991V22.4491C24.7131 24.5066 23.0414 26.1991 20.9839 26.2208L14.1664 26.2216Z" fill="white"/>
<path fill-rule="evenodd" clip-rule="evenodd" d="M24.0813 15.488H21.7863C20.2605 15.4838 19.0205 14.2405 19.0205 12.7171V10.293C19.0205 9.94797 19.3005 9.66797 19.6455 9.66797C19.9905 9.66797 20.2705 9.94797 20.2705 10.293V12.7171C20.2705 13.5538 20.9513 14.2355 21.788 14.238H24.0813C24.4263 14.238 24.7063 14.518 24.7063 14.863C24.7063 15.208 24.4263 15.488 24.0813 15.488Z" fill="white"/>
<path fill-rule="evenodd" clip-rule="evenodd" d="M19.4946 19.3867H15.4121C15.0671 19.3867 14.7871 19.1067 14.7871 18.7617C14.7871 18.4167 15.0671 18.1367 15.4121 18.1367H19.4946C19.8396 18.1367 20.1196 18.4167 20.1196 18.7617C20.1196 19.1067 19.8396 19.3867 19.4946 19.3867Z" fill="white"/>
<path fill-rule="evenodd" clip-rule="evenodd" d="M17.4531 21.431C17.1081 21.431 16.8281 21.151 16.8281 20.806V16.7227C16.8281 16.3777 17.1081 16.0977 17.4531 16.0977C17.7981 16.0977 18.0781 16.3777 18.0781 16.7227V20.806C18.0781 21.151 17.7981 21.431 17.4531 21.431Z" fill="white"/>
</svg>
