<svg width="115" height="48" viewBox="0 0 115 48" fill="none" xmlns="http://www.w3.org/2000/svg">
<path d="M39.752 15C40.0475 15 40.3401 15.0582 40.613 15.1713C40.886 15.2843 41.1341 15.4501 41.343 15.659C41.5519 15.8679 41.7177 16.116 41.8307 16.389C41.9438 16.6619 42.002 16.9545 42.002 17.25V18.003H42.752C43.614 18.0035 44.4405 18.346 45.0502 18.9554C45.6599 19.5647 46.0029 20.391 46.004 21.253L46.007 27.25C46.0071 27.5453 45.9491 27.8378 45.8362 28.1107C45.7233 28.3836 45.5577 28.6316 45.349 28.8406C45.1402 29.0495 44.8924 29.2153 44.6196 29.3284C44.3468 29.4416 44.0543 29.4999 43.759 29.5H42V30.75C42 31.3467 41.7629 31.919 41.341 32.341C40.919 32.7629 40.3467 33 39.75 33H32.25C31.6533 33 31.081 32.7629 30.659 32.341C30.2371 31.919 30 31.3467 30 30.75V29.5H28.25C27.6533 29.5 27.081 29.2629 26.659 28.841C26.2371 28.419 26 27.8467 26 27.25V21.254C26 20.392 26.3424 19.5654 26.9519 18.9559C27.5614 18.3464 28.388 18.004 29.25 18.004L29.999 18.003L30 17.25C30 16.6533 30.2371 16.081 30.659 15.659C31.081 15.2371 31.6533 15 32.25 15H39.752ZM39.75 25.5H32.25C32.0511 25.5 31.8603 25.579 31.7197 25.7197C31.579 25.8603 31.5 26.0511 31.5 26.25V30.75C31.5 31.164 31.836 31.5 32.25 31.5H39.75C39.9489 31.5 40.1397 31.421 40.2803 31.2803C40.421 31.1397 40.5 30.9489 40.5 30.75V26.25C40.5 26.0511 40.421 25.8603 40.2803 25.7197C40.1397 25.579 39.9489 25.5 39.75 25.5ZM42.752 19.504H29.25C28.7859 19.504 28.3408 19.6884 28.0126 20.0166C27.6844 20.3448 27.5 20.7899 27.5 21.254V27.25C27.5 27.664 27.836 28 28.25 28H30V26.25C30 25.6533 30.2371 25.081 30.659 24.659C31.081 24.2371 31.6533 24 32.25 24H39.75C40.3467 24 40.919 24.2371 41.341 24.659C41.7629 25.081 42 25.6533 42 26.25V28H43.783C43.9773 27.9935 44.1614 27.9117 44.2965 27.772C44.4316 27.6322 44.5071 27.4454 44.507 27.251L44.504 21.254C44.5029 20.7898 44.318 20.345 43.9896 20.017C43.6612 19.689 43.2162 19.5045 42.752 19.504ZM39.752 16.5H32.25C32.0511 16.5 31.8603 16.579 31.7197 16.7197C31.579 16.8603 31.5 17.0511 31.5 17.25L31.499 18.003H40.502V17.25C40.502 17.0511 40.423 16.8603 40.2823 16.7197C40.1417 16.579 39.9509 16.5 39.752 16.5Z" fill="#808080"/>
<path d="M61.4766 24.7578H58.5156V23.2031H61.4766C61.9922 23.2031 62.4089 23.1198 62.7266 22.9531C63.0443 22.7865 63.276 22.5573 63.4219 22.2656C63.5729 21.9688 63.6484 21.6302 63.6484 21.25C63.6484 20.8906 63.5729 20.5547 63.4219 20.2422C63.276 19.9245 63.0443 19.6693 62.7266 19.4766C62.4089 19.2839 61.9922 19.1875 61.4766 19.1875H59.1172V29H57.1562V17.625H61.4766C62.3568 17.625 63.1042 17.7812 63.7188 18.0938C64.3385 18.401 64.8099 18.8281 65.1328 19.375C65.4557 19.9167 65.6172 20.5365 65.6172 21.2344C65.6172 21.9688 65.4557 22.599 65.1328 23.125C64.8099 23.651 64.3385 24.0547 63.7188 24.3359C63.1042 24.6172 62.3568 24.7578 61.4766 24.7578ZM69.0781 22.1562V29H67.1953V20.5469H68.9922L69.0781 22.1562ZM71.6641 20.4922L71.6484 22.2422C71.5339 22.2214 71.4089 22.2057 71.2734 22.1953C71.1432 22.1849 71.013 22.1797 70.8828 22.1797C70.5599 22.1797 70.276 22.2266 70.0312 22.3203C69.7865 22.4089 69.5807 22.5391 69.4141 22.7109C69.2526 22.8776 69.1276 23.0807 69.0391 23.3203C68.9505 23.5599 68.8984 23.8281 68.8828 24.125L68.4531 24.1562C68.4531 23.625 68.5052 23.1328 68.6094 22.6797C68.7135 22.2266 68.8698 21.8281 69.0781 21.4844C69.2917 21.1406 69.5573 20.8724 69.875 20.6797C70.1979 20.487 70.5703 20.3906 70.9922 20.3906C71.1068 20.3906 71.2292 20.401 71.3594 20.4219C71.4948 20.4427 71.5964 20.4661 71.6641 20.4922ZM74.8594 20.5469V29H72.9688V20.5469H74.8594ZM72.8438 18.3281C72.8438 18.0417 72.9375 17.8047 73.125 17.6172C73.3177 17.4245 73.5833 17.3281 73.9219 17.3281C74.2552 17.3281 74.5182 17.4245 74.7109 17.6172C74.9036 17.8047 75 18.0417 75 18.3281C75 18.6094 74.9036 18.8438 74.7109 19.0312C74.5182 19.2188 74.2552 19.3125 73.9219 19.3125C73.5833 19.3125 73.3177 19.2188 73.125 19.0312C72.9375 18.8438 72.8438 18.6094 72.8438 18.3281ZM78.7891 22.3516V29H76.9062V20.5469H78.6797L78.7891 22.3516ZM78.4531 24.4609L77.8438 24.4531C77.849 23.8542 77.9323 23.3047 78.0938 22.8047C78.2604 22.3047 78.4896 21.875 78.7812 21.5156C79.0781 21.1562 79.4323 20.8802 79.8438 20.6875C80.2552 20.4896 80.7135 20.3906 81.2188 20.3906C81.625 20.3906 81.9922 20.4479 82.3203 20.5625C82.6536 20.6719 82.9375 20.8516 83.1719 21.1016C83.4115 21.3516 83.5938 21.6771 83.7188 22.0781C83.8438 22.474 83.9062 22.9609 83.9062 23.5391V29H82.0156V23.5312C82.0156 23.125 81.9557 22.8047 81.8359 22.5703C81.7214 22.3307 81.5521 22.1615 81.3281 22.0625C81.1094 21.9583 80.8359 21.9062 80.5078 21.9062C80.1849 21.9062 79.8958 21.974 79.6406 22.1094C79.3854 22.2448 79.1693 22.4297 78.9922 22.6641C78.8203 22.8984 78.6875 23.1693 78.5938 23.4766C78.5 23.7839 78.4531 24.112 78.4531 24.4609ZM89.7031 20.5469V21.9219H84.9375V20.5469H89.7031ZM86.3125 18.4766H88.1953V26.6641C88.1953 26.9245 88.2318 27.125 88.3047 27.2656C88.3828 27.401 88.4896 27.4922 88.625 27.5391C88.7604 27.5859 88.9193 27.6094 89.1016 27.6094C89.2318 27.6094 89.3568 27.6016 89.4766 27.5859C89.5964 27.5703 89.6927 27.5547 89.7656 27.5391L89.7734 28.9766C89.6172 29.0234 89.4349 29.0651 89.2266 29.1016C89.0234 29.138 88.7891 29.1562 88.5234 29.1562C88.0911 29.1562 87.7083 29.0807 87.375 28.9297C87.0417 28.7734 86.7812 28.5208 86.5938 28.1719C86.4062 27.8229 86.3125 27.3594 86.3125 26.7812V18.4766Z" fill="#808080"/>
<path d="M6 2H109V-2H6V2ZM113 6V42H117V6H113ZM109 46H6V50H109V46ZM2 42V6H-2V42H2ZM6 46C3.79086 46 2 44.2091 2 42H-2C-2 46.4183 1.58172 50 6 50V46ZM113 42C113 44.2091 111.209 46 109 46V50C113.418 50 117 46.4183 117 42H113ZM109 2C111.209 2 113 3.79086 113 6H117C117 1.58172 113.418 -2 109 -2V2ZM6 -2C1.58172 -2 -2 1.58172 -2 6H2C2 3.79086 3.79086 2 6 2V-2Z" fill="#808080"/>
</svg>
