<svg width="20" height="21" viewBox="0 0 20 21" fill="none" xmlns="http://www.w3.org/2000/svg">
<mask id="mask0_2982_180676" style="mask-type:alpha" maskUnits="userSpaceOnUse" x="0" y="6" width="20" height="15">
<path fill-rule="evenodd" clip-rule="evenodd" d="M0.000488281 6.79688H20.0001V20.5409H0.000488281V6.79688Z" fill="white"/>
</mask>
<g mask="url(#mask0_2982_180676)">
<path fill-rule="evenodd" clip-rule="evenodd" d="M15.5655 20.5409H4.43549C1.99049 20.5409 0.000488281 18.5519 0.000488281 16.1059V11.2309C0.000488281 8.78588 1.99049 6.79688 4.43549 6.79688H5.36849C5.78249 6.79688 6.11849 7.13287 6.11849 7.54688C6.11849 7.96088 5.78249 8.29688 5.36849 8.29688H4.43549C2.81649 8.29688 1.50049 9.61287 1.50049 11.2309V16.1059C1.50049 17.7249 2.81649 19.0409 4.43549 19.0409H15.5655C17.1835 19.0409 18.5005 17.7249 18.5005 16.1059V11.2219C18.5005 9.60888 17.1885 8.29688 15.5765 8.29688H14.6335C14.2195 8.29688 13.8835 7.96088 13.8835 7.54688C13.8835 7.13287 14.2195 6.79688 14.6335 6.79688H15.5765C18.0155 6.79688 20.0005 8.78188 20.0005 11.2219V16.1059C20.0005 18.5519 18.0105 20.5409 15.5655 20.5409Z" fill="#0C1096"/>
</g>
<mask id="mask1_2982_180676" style="mask-type:alpha" maskUnits="userSpaceOnUse" x="9" y="0" width="2" height="14">
<path fill-rule="evenodd" clip-rule="evenodd" d="M9.25 0H10.75V13.5409H9.25V0Z" fill="white"/>
</mask>
<g mask="url(#mask1_2982_180676)">
<path fill-rule="evenodd" clip-rule="evenodd" d="M10 13.541C9.586 13.541 9.25 13.205 9.25 12.791V0.75C9.25 0.336 9.586 0 10 0C10.414 0 10.75 0.336 10.75 0.75V12.791C10.75 13.205 10.414 13.541 10 13.541Z" fill="#0C1096"/>
</g>
<path fill-rule="evenodd" clip-rule="evenodd" d="M7.0852 4.42706C6.8942 4.42706 6.7022 4.35406 6.5562 4.20806C6.2632 3.91606 6.2612 3.44206 6.5542 3.14806L9.4692 0.220062C9.7502 -0.0629375 10.2502 -0.0629375 10.5312 0.220062L13.4472 3.14806C13.7392 3.44206 13.7382 3.91606 13.4452 4.20806C13.1512 4.50006 12.6772 4.50006 12.3852 4.20606L10.0002 1.81206L7.6162 4.20606C7.4702 4.35406 7.2772 4.42706 7.0852 4.42706Z" fill="#0C1096"/>
</svg>
