<svg width="148" height="178" viewBox="0 0 148 178" fill="none" xmlns="http://www.w3.org/2000/svg">
<path d="M27.2745 175.898H46.4136C46.8799 175.898 47.258 176.276 47.258 176.742C47.258 177.207 46.8799 177.585 46.4136 177.585H27.2745C26.8082 177.585 26.4302 177.207 26.4302 176.742C26.4302 176.276 26.8082 175.898 27.2745 175.898ZM86.5681 175.898H118.467C118.933 175.898 119.311 176.276 119.311 176.742C119.311 177.207 118.933 177.585 118.467 177.585H86.5681C86.1018 177.585 85.7237 177.207 85.7237 176.742C85.7237 176.276 86.1018 175.898 86.5681 175.898Z" fill="#FFCB3D"/>
<path d="M118.563 175.902C118.531 175.898 118.499 175.896 118.467 175.896H86.5681C86.5132 175.896 86.4595 175.901 86.4075 175.911L87.9146 163.906H102.025L105.384 166.38C106.153 167.148 106.998 167.841 107.898 168.459C110.094 169.921 111.238 169.902 114.578 171.514C115.479 171.945 116.342 172.413 117.205 172.956C117.618 173.331 118.35 174.081 118.575 174.98C118.612 175.13 118.612 175.28 118.631 175.411C118.631 175.586 118.605 175.75 118.563 175.902ZM46.6544 175.931C46.5781 175.908 46.4972 175.896 46.4135 175.896H27.2745C27.2247 175.896 27.1759 175.901 27.1284 175.909L31.6609 164.291L45.0958 166.108L46.6544 175.931Z" fill="#474961"/>
<path d="M40.5242 114.296C40.4437 114.279 40.3631 114.261 40.2823 114.244C44.6168 89.0019 47.9213 73.875 50.1958 68.8632C52.4703 63.8513 55.151 60.3023 58.2378 58.216C61.1833 54.8646 66.3784 55.0514 73.565 54.8412C73.7476 54.8328 73.9549 54.8347 74.1375 54.826C81.5679 54.7007 80.3321 54.9843 82.2939 55.5904C91.7077 58.1012 99.517 73.9581 105.722 103.161L107.694 112.727C107.666 112.648 107.637 112.571 107.607 112.495C107.66 112.742 107.686 112.993 107.685 113.247C107.883 117.334 104.707 120.537 98.1562 122.856C94.1538 124.273 86.3204 128.172 73.4421 129.402C67.9748 129.925 57.7718 129.811 42.8331 129.063C40.3644 124.922 39.308 121.607 39.664 119.118C39.859 117.754 40.1458 116.147 40.5242 114.296Z" fill="#8F4AFF"/>
<path opacity="0.176986" d="M40.5142 114.348C62.4602 119.101 78.6764 118.734 89.1628 113.246C99.4445 107.866 105.589 107.598 107.595 112.445C107.656 112.709 107.686 112.977 107.685 113.25C107.883 117.337 104.707 120.539 98.1562 122.859C94.1538 124.275 86.3204 128.175 73.4421 129.405C67.9748 129.927 57.7718 129.814 42.8331 129.065C40.3644 124.924 39.308 121.609 39.664 119.12C39.8573 117.769 40.1407 116.178 40.5142 114.348Z" fill="#444444"/>
<path d="M60.4921 40.3113C58.3913 39.9883 56.7061 39.6439 55.4364 39.2782C54.3958 39.1321 52.8054 38.7197 52.1817 37.4969C51.2728 35.7421 52.9365 33.3455 54.7932 30.6544C57.0281 27.4298 58.3974 26.2667 60.5513 24.7454C64.2182 22.1557 66.4827 22.0552 68.1254 23.7214C68.2907 23.8891 68.4553 24.1666 68.6191 24.5538C69.0875 24.4857 69.5667 24.4538 70.0539 24.4608L74.1819 24.5358C79.417 24.592 83.5826 29.0702 83.5075 34.4852V34.8225L83.3949 45.2591L83.2936 50.1462C83.2239 53.5106 80.4728 56.2016 77.1029 56.2016H66.5766C66.5537 56.2016 66.5308 56.2014 66.5079 56.2012C63.0883 56.1633 60.347 53.3644 60.3849 49.9497L60.4921 40.3113Z" fill="#FF5678"/>
<path d="M146.126 45.2772L4.46658 37.8637C3.43171 37.8095 2.54881 38.6034 2.49457 39.6368L0.0984401 85.2928C0.0442046 86.3262 0.83917 87.2078 1.87405 87.262L143.534 94.6755C144.569 94.7297 145.452 93.9359 145.506 92.9024L147.902 47.2464C147.956 46.213 147.161 45.3314 146.126 45.2772Z" fill="#D8DEED"/>
<path d="M98.5345 57.0506L10.0908 52.422C9.67688 52.4004 9.32372 52.7179 9.30203 53.1313L8.83066 62.1128C8.80896 62.5262 9.12695 62.8788 9.5409 62.9005L97.9846 67.529C98.3986 67.5507 98.7517 67.2332 98.7734 66.8198L99.2448 57.8383C99.2665 57.4249 98.9485 57.0723 98.5345 57.0506Z" fill="white"/>
<path d="M75.6719 21.9464L75.4271 25.0588C75.4151 25.212 75.3106 25.3423 75.1636 25.3876C74.3438 25.6401 73.5468 25.7318 72.7726 25.6628C71.9763 25.5918 70.8049 25.3066 69.2584 24.8073C69.0751 24.7481 68.9664 24.56 69.0069 24.3719L70.2504 18.5969L70.3234 18.6176C69.6409 17.2411 69.2087 16.471 69.0268 16.3073C68.3345 15.6452 67.7878 11.5579 70.8731 11.8043C71.2129 11.8063 71.5439 11.9034 71.8621 12.0585L71.8827 12.0751C71.9858 12.1585 72.1184 12.1634 72.251 12.1684C72.5682 12.1351 72.806 11.884 72.7913 11.5653L72.4473 6.68405C72.414 6.36726 72.633 6.11819 72.9503 6.08489C73.6407 6.01242 74.3086 5.90465 74.9834 5.6831C75.0767 5.67331 75.1494 5.64684 75.224 5.63901C75.8879 5.49396 79.466 4.89234 81.6872 7.35339C81.8826 7.59664 82.078 7.8399 82.2361 8.08707C82.6426 8.72266 82.8703 9.45237 82.8967 10.2409L83.0484 13.6539C83.0464 13.9933 83.0444 14.3326 83.007 14.6945C82.5526 18.9813 80.9551 22.088 79.3601 22.3496C78.541 22.4544 77.7101 22.4475 76.8822 22.2894C76.777 22.25 76.8447 22.2825 75.6719 21.9464ZM59.3477 117.3L45.096 166.113L31.6611 164.296L40.2825 114.248L40.3251 114.25C40.3219 114.269 40.3187 114.288 40.3155 114.306C47.2259 115.81 53.5699 116.808 59.3477 117.3ZM84.4262 115.25C86.1172 114.683 87.6961 114.016 89.163 113.248C99.2622 107.963 105.369 107.611 107.484 112.193C108.694 116.043 109.04 119.556 108.522 122.732C106.968 132.266 104.803 145.993 102.025 163.911H87.9148L88.159 123.683L84.4262 115.25ZM52.8898 38.2836C53.6474 38.9034 54.7181 39.1572 55.4878 39.2653C57.8228 39.938 61.5632 40.5383 66.709 41.0663L64.0407 51.495L80.9423 57.5293C81.025 57.5469 81.4195 57.7043 82.1259 58.0015C89.4541 60.0861 94.3358 61.9754 96.7709 63.6695C98.6592 64.9832 98.2758 66.7024 95.6206 68.8272C93.5073 70.5183 90.6725 71.0074 88.1134 70.1225L77.1901 66.345C77.1907 66.3317 77.1913 66.3184 77.1919 66.305C63.5009 64.8148 55.2591 61.876 52.4665 57.4888C49.89 53.441 50.0311 47.0393 52.8898 38.2836V38.2836ZM95.1659 42.6418C99.6829 38.0019 103.817 37.2555 107.568 40.4027C111.32 43.5498 107.186 44.2962 95.1659 42.6418Z" fill="#ED9474"/>
<path d="M65.0465 14.2899C64.4777 14.5149 63.9152 14.6014 63.3591 14.5495C59.6792 14.2062 57.1849 10.9779 56.1998 7.82211C55.2147 4.66636 56.9455 3.04738 59.7145 1.28166C62.4835 -0.48405 65.6533 0.774866 68.2958 2.13971C69.8403 2.93744 70.7464 4.32118 71.0141 6.29092C71.432 6.25311 71.8934 6.20537 72.4089 6.13805C73.0061 6.07537 73.6719 5.91343 74.7798 5.68411C74.8731 5.67432 75.3982 5.54483 75.4728 5.53699C76.1368 5.39195 79.4865 4.90538 81.7077 7.36642C81.6949 7.42428 81.1205 7.36642 79.4396 8.48095C77.5251 9.75031 75.6387 15.3134 73.9505 15.2269C73.9319 15.2265 73.8939 15.2452 73.8364 15.2828L73.9112 15.2122L72.8773 13.0975C72.6436 12.6699 72.2891 12.3491 71.8845 12.0901C71.5663 11.9351 71.2354 11.838 70.8955 11.836C69.992 11.8554 69.0942 12.6467 68.8171 13.599C68.5586 14.5493 68.8344 15.5566 69.5621 16.1961C70.0217 16.6189 70.6148 16.877 71.2424 16.9241L72.0054 16.8295C71.9746 16.857 71.9434 16.8849 71.9118 16.9131C70.6109 18.9623 69.9605 19.9868 69.9605 19.9868C69.9605 19.9868 69.3972 19.8354 68.2705 19.5325C66.8858 19.0538 65.8112 17.3063 65.0465 14.2899ZM80.3131 12.9388C79.9497 13.0712 79.3624 13.227 78.8261 13.1514C77.9295 13.0571 78.6956 12.4492 79.4941 12.3277C79.8654 12.2699 80.1796 12.3876 80.3819 12.5171C80.5263 12.6338 80.4958 12.882 80.3131 12.9388ZM83.4777 12.5313C83.1182 12.7009 82.5554 12.9107 82.0063 12.893C81.0782 12.8585 81.7992 12.1799 82.5732 12.0045C82.9778 11.9055 83.2715 12.0066 83.4905 12.1155C83.6702 12.2097 83.6584 12.4558 83.4777 12.5313Z" fill="#482D1F"/>
<path d="M79.2667 15.3677C79.0565 15.1636 79.0763 14.634 79.0989 14.3114C79.0921 14.0672 79.3003 13.8946 79.5056 13.873C79.6382 13.878 79.814 13.9349 79.8788 14.1918C80.0741 14.7931 79.5485 15.7149 79.2667 15.3677ZM82.3438 15.0259C82.171 14.8179 82.1534 14.2922 82.176 13.9696C82.1692 13.7254 82.3774 13.5528 82.5827 13.5312C82.7153 13.5362 82.8911 13.5931 82.9559 13.8501C83.1512 14.4513 82.607 15.3751 82.3438 15.0259Z" fill="#482D1F"/>
<path d="M82.0072 13.6317C82.0104 13.5282 81.9289 13.4419 81.8253 13.4388C81.7217 13.4356 81.6352 13.517 81.6321 13.6204L81.5986 14.7355L81.5993 14.759L81.7887 16.7357C81.784 16.7585 81.7679 16.775 81.7438 16.78C81.5185 16.7787 81.229 16.7787 80.8751 16.7801C80.7715 16.7804 80.6878 16.8647 80.6882 16.9681C80.6886 17.0716 80.7729 17.1552 80.8765 17.1548C81.2364 17.1535 81.5293 17.1535 81.7552 17.1548L81.7759 17.1538C81.9939 17.1309 82.1519 16.9579 82.1646 16.7483L82.1641 16.7191L81.974 14.735L82.0072 13.6317Z" fill="#482D1F"/>
<path d="M80.8817 18.7046C80.7491 18.6997 80.4054 18.6604 80.3091 18.4633C80.3052 18.426 80.262 18.374 80.2768 18.3348C80.3229 18.2358 80.9014 18.175 80.9014 18.175C81.6685 18.1134 81.8512 18.0565 81.917 18.1438C81.9415 18.1978 81.9493 18.2723 81.8364 18.4537C81.7018 18.7881 81.0909 18.7204 80.8817 18.7046Z" fill="#482D1F"/>
<path d="M110.382 57.6651L136.155 59.0139C137.408 59.0795 137.856 59.2335 138.301 59.5021C138.746 59.7707 139.087 60.1485 139.308 60.6187C139.529 61.0889 139.635 61.5494 139.569 62.8005L139.397 66.0828C139.332 67.334 139.177 67.7808 138.908 68.2254C138.639 68.67 138.261 69.0101 137.79 69.2308C137.319 69.4514 136.858 69.5579 135.605 69.4923L109.833 68.1436C108.58 68.078 108.132 67.9239 107.687 67.6554C107.242 67.3868 106.901 67.009 106.68 66.5388C106.459 66.0686 106.353 65.6081 106.418 64.3569L106.59 61.0746C106.656 59.8235 106.81 59.3766 107.079 58.9321C107.348 58.4875 107.727 58.1473 108.198 57.9267C108.668 57.706 109.13 57.5996 110.382 57.6651Z" fill="#474BFF"/>
<path d="M83.0317 75.713L28.8787 72.879C28.6717 72.8682 28.4951 73.0269 28.4843 73.2336L28.2093 78.4728C28.1985 78.6795 28.3574 78.8558 28.5644 78.8667L82.7175 81.7007C82.9244 81.7115 83.101 81.5527 83.1119 81.3461L83.3868 76.1068C83.3977 75.9002 83.2387 75.7238 83.0317 75.713Z" fill="#F2F6FB"/>
<path d="M118.089 77.6825L87.3582 76.0743C87.1512 76.0635 86.9746 76.2222 86.9638 76.4289L86.6888 81.6681C86.6779 81.8748 86.8369 82.0511 87.0439 82.062L117.774 83.6702C117.981 83.681 118.158 83.5223 118.169 83.3156L118.444 78.0764C118.455 77.8697 118.296 77.6934 118.089 77.6825Z" fill="#F2F6FB"/>
<path d="M94.0298 69.4067C94.174 69.4648 94.338 69.3952 94.3961 69.2512C94.4543 69.1073 94.3846 68.9435 94.2404 68.8854C93.335 68.5207 92.6224 68.2596 91.0289 67.6957C89.4429 67.1344 88.7355 66.8753 87.8399 66.5145C87.6958 66.4564 87.5318 66.526 87.4736 66.67C87.4154 66.8139 87.4852 66.9777 87.6293 67.0358C88.5347 67.4005 89.2473 67.6616 90.8409 68.2255C92.4269 68.7868 93.1343 69.046 94.0298 69.4067ZM96.8324 67.3969C96.9799 67.446 97.1393 67.3663 97.1884 67.2191C97.2375 67.0718 97.1578 66.9127 97.0103 66.8636C96 66.5276 95.2229 66.2495 93.4969 65.6165C91.7656 64.9815 90.9847 64.702 89.9673 64.3636C89.8198 64.3146 89.6604 64.3942 89.6113 64.5415C89.5622 64.6887 89.6419 64.8479 89.7894 64.8969C90.7997 65.233 91.5768 65.5111 93.3028 66.1441C95.0341 66.7791 95.815 67.0585 96.8324 67.3969Z" fill="#482D1F"/>
<path d="M69.288 40.5313C70.7032 36.6763 71.5253 33.9119 71.7553 32.2253C71.7763 32.0715 71.6684 31.9298 71.5144 31.9089C71.3603 31.8879 71.2185 31.9956 71.1975 32.1494C70.9745 33.785 70.1615 36.5186 68.7595 40.3378C68.706 40.4835 68.7809 40.645 68.9268 40.6984C69.0728 40.7518 69.2345 40.677 69.288 40.5313Z" fill="#482D1F"/>
</svg>
