<svg width="19" height="21" viewBox="0 0 19 21" fill="none" xmlns="http://www.w3.org/2000/svg">
<path fill-rule="evenodd" clip-rule="evenodd" d="M4.17187 14.1536L4.17187 6.93359C4.17187 6.51959 4.50787 6.18359 4.92188 6.18359C5.33588 6.18359 5.67187 6.51959 5.67187 6.93359L5.67187 14.1536C5.67187 14.5676 5.33587 14.9036 4.92187 14.9036C4.50787 14.9036 4.17187 14.5676 4.17187 14.1536Z" fill="#0C1096"/>
<path fill-rule="evenodd" clip-rule="evenodd" d="M8.35937 14.1536L8.35937 6.93359C8.35937 6.51959 8.69537 6.18359 9.10938 6.18359C9.52338 6.18359 9.85937 6.51959 9.85937 6.93359L9.85937 14.1536C9.85937 14.5676 9.52337 14.9036 9.10937 14.9036C8.69537 14.9036 8.35937 14.5676 8.35937 14.1536Z" fill="#0C1096"/>
<path fill-rule="evenodd" clip-rule="evenodd" d="M12.5391 9.68469L12.5391 6.92969C12.5391 6.51569 12.8751 6.17969 13.2891 6.17969C13.7031 6.17969 14.0391 6.51569 14.0391 6.92969L14.0391 9.68469C14.0391 10.0987 13.7031 10.4347 13.2891 10.4347C12.8751 10.4347 12.5391 10.0987 12.5391 9.68469Z" fill="#0C1096"/>
<mask id="mask0_3198_71070" style="mask-type:alpha" maskUnits="userSpaceOnUse" x="0" y="0" width="19" height="21">
<path fill-rule="evenodd" clip-rule="evenodd" d="M0 0.5H18.1647V20.4098H0V0.5Z" fill="white"/>
</mask>
<g mask="url(#mask0_3198_71070)">
<path fill-rule="evenodd" clip-rule="evenodd" d="M12.909 2L5.22 2.004C2.892 2.018 1.5 3.458 1.5 5.857V15.053C1.5 17.468 2.905 18.91 5.256 18.91L12.945 18.907C15.273 18.893 16.665 17.451 16.665 15.053V5.857C16.665 3.442 15.261 2 12.909 2ZM5.257 20.41C2.113 20.41 0 18.257 0 15.053V5.857C0 2.624 2.047 0.523 5.215 0.504L12.908 0.5H12.909C16.053 0.5 18.165 2.653 18.165 5.857V15.053C18.165 18.285 16.118 20.387 12.95 20.407L5.257 20.41Z" fill="#0C1096"/>
</g>
</svg>
