<svg width="20" height="22" viewBox="0 0 20 22" fill="none" xmlns="http://www.w3.org/2000/svg">
<path fill-rule="evenodd" clip-rule="evenodd" d="M18.6668 9.40625H0.842773C0.428773 9.40625 0.0927734 9.07025 0.0927734 8.65625C0.0927734 8.24225 0.428773 7.90625 0.842773 7.90625H18.6668C19.0808 7.90625 19.4168 8.24225 19.4168 8.65625C19.4168 9.07025 19.0808 9.40625 18.6668 9.40625Z" fill="white"/>
<path fill-rule="evenodd" clip-rule="evenodd" d="M14.2013 13.3086C13.7873 13.3086 13.4473 12.9726 13.4473 12.5586C13.4473 12.1446 13.7783 11.8086 14.1923 11.8086H14.2013C14.6153 11.8086 14.9513 12.1446 14.9513 12.5586C14.9513 12.9726 14.6153 13.3086 14.2013 13.3086Z" fill="white"/>
<path fill-rule="evenodd" clip-rule="evenodd" d="M9.76377 13.3086C9.34977 13.3086 9.00977 12.9726 9.00977 12.5586C9.00977 12.1446 9.34077 11.8086 9.75477 11.8086H9.76377C10.1778 11.8086 10.5138 12.1446 10.5138 12.5586C10.5138 12.9726 10.1778 13.3086 9.76377 13.3086Z" fill="white"/>
<path fill-rule="evenodd" clip-rule="evenodd" d="M5.31652 13.3086C4.90252 13.3086 4.56152 12.9726 4.56152 12.5586C4.56152 12.1446 4.89352 11.8086 5.30752 11.8086H5.31652C5.73052 11.8086 6.06652 12.1446 6.06652 12.5586C6.06652 12.9726 5.73052 13.3086 5.31652 13.3086Z" fill="white"/>
<path fill-rule="evenodd" clip-rule="evenodd" d="M14.2013 17.1953C13.7873 17.1953 13.4473 16.8593 13.4473 16.4453C13.4473 16.0313 13.7783 15.6953 14.1923 15.6953H14.2013C14.6153 15.6953 14.9513 16.0313 14.9513 16.4453C14.9513 16.8593 14.6153 17.1953 14.2013 17.1953Z" fill="white"/>
<path fill-rule="evenodd" clip-rule="evenodd" d="M9.76377 17.1953C9.34977 17.1953 9.00977 16.8593 9.00977 16.4453C9.00977 16.0313 9.34077 15.6953 9.75477 15.6953H9.76377C10.1778 15.6953 10.5138 16.0313 10.5138 16.4453C10.5138 16.8593 10.1778 17.1953 9.76377 17.1953Z" fill="white"/>
<path fill-rule="evenodd" clip-rule="evenodd" d="M5.31652 17.1953C4.90252 17.1953 4.56152 16.8593 4.56152 16.4453C4.56152 16.0313 4.89352 15.6953 5.30752 15.6953H5.31652C5.73052 15.6953 6.06652 16.0313 6.06652 16.4453C6.06652 16.8593 5.73052 17.1953 5.31652 17.1953Z" fill="white"/>
<path fill-rule="evenodd" clip-rule="evenodd" d="M13.7939 5.291C13.3799 5.291 13.0439 4.955 13.0439 4.541V1.25C13.0439 0.836 13.3799 0.5 13.7939 0.5C14.2079 0.5 14.5439 0.836 14.5439 1.25V4.541C14.5439 4.955 14.2079 5.291 13.7939 5.291Z" fill="white"/>
<path fill-rule="evenodd" clip-rule="evenodd" d="M5.71484 5.291C5.30084 5.291 4.96484 4.955 4.96484 4.541V1.25C4.96484 0.836 5.30084 0.5 5.71484 0.5C6.12884 0.5 6.46484 0.836 6.46484 1.25V4.541C6.46484 4.955 6.12884 5.291 5.71484 5.291Z" fill="white"/>
<mask id="mask0_2128_43200" style="mask-type:alpha" maskUnits="userSpaceOnUse" x="0" y="2" width="20" height="20">
<path fill-rule="evenodd" clip-rule="evenodd" d="M0 2.07812H19.5V21.999H0V2.07812Z" fill="white"/>
</mask>
<g mask="url(#mask0_2128_43200)">
<path fill-rule="evenodd" clip-rule="evenodd" d="M5.521 3.57812C2.928 3.57812 1.5 4.96113 1.5 7.47213V16.5211C1.5 19.0871 2.928 20.4991 5.521 20.4991H13.979C16.572 20.4991 18 19.1131 18 16.5971V7.47213C18.004 6.23712 17.672 5.27713 17.013 4.61713C16.335 3.93712 15.29 3.57812 13.988 3.57812H5.521ZM13.979 21.9991H5.521C2.116 21.9991 0 19.9001 0 16.5211V7.47213C0 4.14412 2.116 2.07812 5.521 2.07812H13.988C15.697 2.07812 17.11 2.59012 18.075 3.55712C19.012 4.49813 19.505 5.85112 19.5 7.47412V16.5971C19.5 19.9291 17.384 21.9991 13.979 21.9991Z" fill="white"/>
</g>
</svg>
