<svg width="19" height="21" viewBox="0 0 19 21" fill="none" xmlns="http://www.w3.org/2000/svg">
<path fill-rule="evenodd" clip-rule="evenodd" d="M4.17383 14.1536L4.17383 6.93359C4.17383 6.51959 4.50983 6.18359 4.92383 6.18359C5.33783 6.18359 5.67383 6.51959 5.67383 6.93359L5.67383 14.1536C5.67383 14.5676 5.33783 14.9036 4.92383 14.9036C4.50983 14.9036 4.17383 14.5676 4.17383 14.1536Z" fill="white"/>
<path fill-rule="evenodd" clip-rule="evenodd" d="M8.36035 14.1536L8.36035 6.93359C8.36035 6.51959 8.69635 6.18359 9.11035 6.18359C9.52435 6.18359 9.86035 6.51959 9.86035 6.93359L9.86035 14.1536C9.86035 14.5676 9.52435 14.9036 9.11035 14.9036C8.69635 14.9036 8.36035 14.5676 8.36035 14.1536Z" fill="white"/>
<path fill-rule="evenodd" clip-rule="evenodd" d="M12.5371 9.68469L12.5371 6.92969C12.5371 6.51569 12.8731 6.17969 13.2871 6.17969C13.7011 6.17969 14.0371 6.51569 14.0371 6.92969L14.0371 9.68469C14.0371 10.0987 13.7011 10.4347 13.2871 10.4347C12.8731 10.4347 12.5371 10.0987 12.5371 9.68469Z" fill="white"/>
<mask id="mask0_2128_43240" style="mask-type:alpha" maskUnits="userSpaceOnUse" x="0" y="0" width="19" height="21">
<path fill-rule="evenodd" clip-rule="evenodd" d="M0 0.5H18.1647V20.4098H0V0.5Z" fill="white"/>
</mask>
<g mask="url(#mask0_2128_43240)">
<path fill-rule="evenodd" clip-rule="evenodd" d="M12.909 2L5.22 2.004C2.892 2.018 1.5 3.458 1.5 5.857V15.053C1.5 17.468 2.905 18.91 5.256 18.91L12.945 18.907C15.273 18.893 16.665 17.451 16.665 15.053V5.857C16.665 3.442 15.261 2 12.909 2ZM5.257 20.41C2.113 20.41 0 18.257 0 15.053V5.857C0 2.624 2.047 0.523 5.215 0.504L12.908 0.5H12.909C16.053 0.5 18.165 2.653 18.165 5.857V15.053C18.165 18.285 16.118 20.387 12.95 20.407L5.257 20.41Z" fill="white"/>
</g>
</svg>
